M48
; DRILL file {KiCad (5.1.10)-1} date 10/04/21 17:48:30
; FORMAT={-:-/ absolute / inch / decimal}
; #@! TF.CreationDate,2021-10-04T17:48:30-06:00
; #@! TF.GenerationSoftware,Kicad,Pcbnew,(5.1.10)-1
; #@! TF.FileFunction,Plated,1,2,PTH
FMAT,2
INCH
T1C0.0157
T2C0.0300
T3C0.0315
T4C0.0354
T5C0.0394
T6C0.0433
T7C0.0906
T8C0.1693
%
G90
G05
T1
X14.5Y-12.525
X14.625Y-12.8
X15.225Y-12.9
X15.35Y-9.95
X15.4Y-9.9
X15.45Y-9.85
X15.45Y-10.325
X15.45Y-11.5
X15.5Y-9.8
X15.5Y-10.4
X15.5Y-11.4
X15.5Y-12.75
X15.55Y-9.75
X15.55Y-10.25
X15.55Y-11.3
X15.6Y-10.15
X15.6Y-11.2
X15.875Y-10.0
X15.925Y-8.15
X15.925Y-9.5
X16.075Y-12.85
X16.1Y-9.675
X16.15Y-10.925
X16.175Y-12.85
X16.25Y-12.85
X16.3Y-12.8
X16.35Y-12.75
X16.4Y-12.7
X16.425Y-9.65
X16.45Y-12.65
X16.475Y-8.525
X16.475Y-8.9
X16.5Y-9.65
X16.525Y-8.475
X16.525Y-8.8
X16.575Y-8.525
X16.575Y-9.65
X16.65Y-9.65
X16.725Y-9.65
X16.775Y-8.8
X16.775Y-8.9
X16.8Y-9.65
X16.875Y-9.65
X16.95Y-9.65
X16.975Y-9.4
X16.975Y-12.4
X17.025Y-9.65
X17.05Y-9.4
X17.05Y-11.7
X17.1Y-9.65
X17.125Y-11.0
X17.125Y-11.7
X17.15Y-9.45
X17.175Y-11.1
X17.2Y-11.7
X17.225Y-11.225
X17.275Y-11.35
X17.275Y-11.7
X17.35Y-7.65
X17.35Y-7.75
X17.35Y-7.85
X17.35Y-8.55
X17.35Y-8.65
X17.35Y-8.75
X17.35Y-9.25
X17.35Y-9.35
X17.55Y-11.7
X17.6Y-9.05
X17.625Y-11.4
X17.625Y-11.7
X17.65Y-7.9
X17.675Y-11.35
X17.7Y-7.85
X17.7Y-11.7
X17.725Y-11.275
X17.75Y-7.8
X17.775Y-11.2
X17.775Y-11.7
X17.8Y-7.775
X17.85Y-7.75
X17.9Y-7.7
X17.95Y-7.65
X18.0Y-7.6
X18.05Y-9.5
X18.125Y-10.35
X18.175Y-10.45
X18.225Y-10.575
X18.275Y-10.7
X18.35Y-8.4
X18.35Y-9.5
X18.4Y-8.35
X18.4Y-9.5
X18.45Y-8.3
X18.45Y-9.5
X18.5Y-8.275
X18.5Y-9.5
X18.55Y-8.25
X18.55Y-9.5
X18.6Y-8.2
X18.6Y-9.5
X18.625Y-10.75
X18.65Y-8.15
X18.65Y-9.5
X18.675Y-10.85
X18.7Y-8.1
X18.7Y-9.5
X18.725Y-10.975
X18.775Y-11.1
X19.025Y-9.05
X19.025Y-9.45
X19.075Y-8.75
X19.125Y-8.7
X19.175Y-8.65
X19.175Y-10.15
X19.225Y-10.325
X19.275Y-8.65
X19.275Y-10.3
X19.325Y-8.6
X19.375Y-8.55
X19.425Y-8.5
X19.625Y-10.6
X19.675Y-10.8
X19.725Y-9.05
X19.725Y-10.525
X19.775Y-10.45
X20.025Y-9.1
X20.075Y-9.05
X20.075Y-9.675
X20.125Y-9.0
X20.125Y-9.675
X20.125Y-10.2
T2
X14.7411Y-13.6919
X14.7411Y-13.7904
X14.8238Y-13.7904
X14.9262Y-13.7904
X15.0089Y-13.6919
X15.0089Y-13.7904
T3
X14.5Y-11.625
X14.5Y-11.725
X14.5Y-11.825
X14.5Y-11.925
X14.5Y-12.025
X14.5Y-12.125
X14.5Y-12.225
X14.5Y-12.65
X14.5Y-12.75
X14.5Y-12.85
X14.5Y-12.95
X14.5Y-13.05
X14.5Y-13.15
X14.5Y-13.25
X14.5Y-13.35
X14.6766Y-8.9
X14.7Y-11.45
X14.7Y-12.475
X14.75Y-8.15
X14.75Y-8.35
X14.775Y-8.9
X14.775Y-9.1
X14.7984Y-11.45
X14.7984Y-12.475
X14.8Y-11.625
X14.8Y-11.725
X14.8Y-11.825
X14.8Y-11.925
X14.8Y-12.025
X14.8Y-12.125
X14.8Y-12.225
X14.8Y-12.65
X14.8Y-12.75
X14.8Y-12.85
X14.8Y-12.95
X14.8Y-13.05
X14.8Y-13.15
X14.8Y-13.25
X14.8Y-13.35
X14.8484Y-8.15
X14.9679Y-9.1
X14.968Y-8.9
X15.05Y-8.35
X15.0664Y-8.9
X15.1Y-8.5016
X15.1Y-8.6
X15.1Y-12.65
X15.1Y-12.75
X15.1Y-12.85
X15.1Y-12.95
X15.1Y-13.05
X15.1Y-13.15
X15.1Y-13.25
X15.1Y-13.35
X15.25Y-7.6
X15.25Y-7.7
X15.25Y-7.8
X15.25Y-7.9
X15.25Y-8.0
X15.25Y-8.1
X15.25Y-8.2
X15.25Y-8.3
X15.25Y-8.4
X15.25Y-8.5
X15.25Y-8.6
X15.25Y-8.7
X15.25Y-8.8
X15.25Y-8.9
X15.25Y-9.0
X15.25Y-9.1
X15.25Y-9.2
X15.25Y-9.3
X15.25Y-9.4
X15.25Y-9.5
X15.3Y-12.475
X15.3984Y-12.475
X15.4Y-12.65
X15.4Y-12.75
X15.4Y-12.85
X15.4Y-12.95
X15.4Y-13.05
X15.4Y-13.15
X15.4Y-13.25
X15.4Y-13.35
X15.775Y-10.15
X15.775Y-10.25
X15.775Y-10.35
X15.775Y-10.45
X15.775Y-10.55
X15.775Y-10.65
X15.775Y-10.75
X15.775Y-10.85
X15.775Y-11.1
X15.775Y-11.2
X15.775Y-11.3
X15.775Y-11.4
X15.775Y-11.5
X15.775Y-11.6
X15.775Y-11.7
X15.775Y-11.8
X15.775Y-12.05
X15.775Y-12.15
X15.775Y-12.25
X15.775Y-12.35
X15.775Y-12.45
X15.775Y-12.55
X15.775Y-12.65
X15.775Y-12.75
X15.85Y-7.6
X15.85Y-7.7
X15.85Y-7.8
X15.85Y-7.9
X15.85Y-8.0
X15.85Y-8.1
X15.85Y-8.2
X15.85Y-8.3
X15.85Y-8.4
X15.85Y-8.5
X15.85Y-8.6
X15.85Y-8.7
X15.85Y-8.8
X15.85Y-8.9
X15.85Y-9.0
X15.85Y-9.1
X15.85Y-9.2
X15.85Y-9.3
X15.85Y-9.4
X15.85Y-9.5
X16.025Y-7.5
X16.025Y-7.6
X16.025Y-7.7
X16.025Y-7.8
X16.025Y-7.9
X16.025Y-8.0
X16.025Y-8.1
X16.025Y-8.2
X16.025Y-8.3
X16.025Y-8.4
X16.025Y-8.6
X16.025Y-8.7
X16.025Y-8.8
X16.025Y-8.9
X16.025Y-9.0
X16.025Y-9.1
X16.025Y-9.2
X16.025Y-9.3
X16.025Y-9.4
X16.025Y-9.5
X16.075Y-10.15
X16.075Y-10.25
X16.075Y-10.35
X16.075Y-10.45
X16.075Y-10.55
X16.075Y-10.65
X16.075Y-10.75
X16.075Y-10.85
X16.075Y-11.1
X16.075Y-11.2
X16.075Y-11.3
X16.075Y-11.4
X16.075Y-11.5
X16.075Y-11.6
X16.075Y-11.7
X16.075Y-11.8
X16.075Y-12.05
X16.075Y-12.15
X16.075Y-12.25
X16.075Y-12.35
X16.075Y-12.45
X16.075Y-12.55
X16.075Y-12.65
X16.075Y-12.75
X16.225Y-10.15
X16.225Y-11.1
X16.225Y-12.05
X16.3234Y-10.15
X16.3234Y-11.1
X16.3234Y-12.05
X16.325Y-7.4
X16.325Y-7.5
X16.325Y-7.6
X16.325Y-7.7
X16.325Y-7.8
X16.325Y-7.9
X16.325Y-8.0
X16.325Y-8.1
X16.325Y-8.2
X16.325Y-8.3
X16.325Y-8.4
X16.325Y-8.6
X16.325Y-8.7
X16.325Y-8.8
X16.325Y-8.9
X16.325Y-9.0
X16.325Y-9.1
X16.325Y-9.2
X16.325Y-9.3
X16.325Y-9.4
X16.325Y-9.5
X16.4234Y-7.4
X16.5Y-7.5
X16.5Y-7.6
X16.5Y-7.7
X16.5Y-7.8
X16.5Y-7.9
X16.5Y-8.0
X16.5Y-8.1
X16.5Y-8.2
X16.5Y-8.3
X16.5Y-8.4
X16.55Y-10.15
X16.55Y-10.25
X16.55Y-10.35
X16.55Y-10.45
X16.55Y-10.55
X16.55Y-10.65
X16.55Y-10.75
X16.55Y-10.85
X16.55Y-10.95
X16.55Y-11.05
X16.55Y-11.15
X16.55Y-11.25
X16.55Y-11.35
X16.55Y-11.45
X16.625Y-8.6
X16.7234Y-8.6
X16.8Y-7.4
X16.8Y-7.5
X16.8Y-7.6
X16.8Y-7.7
X16.8Y-7.8
X16.8Y-7.9
X16.8Y-8.0
X16.8Y-8.1
X16.8Y-8.2
X16.8Y-8.3
X16.8Y-8.4
X16.85Y-10.05
X16.85Y-10.15
X16.85Y-10.25
X16.85Y-10.35
X16.85Y-10.45
X16.85Y-10.55
X16.85Y-10.65
X16.85Y-10.75
X16.85Y-10.85
X16.85Y-10.95
X16.85Y-11.05
X16.85Y-11.15
X16.85Y-11.25
X16.85Y-11.35
X16.85Y-11.45
X16.875Y-12.45
X16.875Y-12.55
X16.875Y-12.65
X16.875Y-12.75
X16.875Y-12.85
X16.875Y-12.95
X16.875Y-13.05
X16.875Y-13.15
X16.875Y-13.25
X16.875Y-13.35
X16.8984Y-7.4
X16.9484Y-10.05
X17.05Y-10.15
X17.05Y-10.25
X17.05Y-10.35
X17.05Y-10.45
X17.05Y-10.55
X17.05Y-10.65
X17.05Y-10.75
X17.05Y-10.85
X17.05Y-10.95
X17.05Y-11.05
X17.05Y-11.15
X17.05Y-11.25
X17.05Y-11.35
X17.05Y-11.45
X17.075Y-12.325
X17.1734Y-12.325
X17.175Y-12.45
X17.175Y-12.55
X17.175Y-12.65
X17.175Y-12.75
X17.175Y-12.85
X17.175Y-12.95
X17.175Y-13.05
X17.175Y-13.15
X17.175Y-13.25
X17.175Y-13.35
X17.35Y-10.05
X17.35Y-10.15
X17.35Y-10.25
X17.35Y-10.35
X17.35Y-10.45
X17.35Y-10.55
X17.35Y-10.65
X17.35Y-10.75
X17.35Y-10.85
X17.35Y-10.95
X17.35Y-11.05
X17.35Y-11.15
X17.35Y-11.25
X17.35Y-11.35
X17.35Y-11.45
X17.4484Y-10.05
X17.55Y-10.15
X17.55Y-10.25
X17.55Y-10.35
X17.55Y-10.45
X17.55Y-10.55
X17.55Y-10.65
X17.55Y-10.75
X17.55Y-10.85
X17.55Y-10.95
X17.55Y-11.05
X17.55Y-11.15
X17.55Y-11.25
X17.55Y-11.35
X17.55Y-11.45
X17.55Y-12.45
X17.55Y-12.55
X17.55Y-12.65
X17.55Y-12.75
X17.55Y-12.85
X17.55Y-12.95
X17.55Y-13.05
X17.55Y-13.15
X17.55Y-13.25
X17.55Y-13.35
X17.6766Y-9.675
X17.75Y-12.325
X17.775Y-9.675
X17.8484Y-12.325
X17.85Y-10.05
X17.85Y-10.15
X17.85Y-10.25
X17.85Y-10.35
X17.85Y-10.45
X17.85Y-10.55
X17.85Y-10.65
X17.85Y-10.75
X17.85Y-10.85
X17.85Y-10.95
X17.85Y-11.05
X17.85Y-11.15
X17.85Y-11.25
X17.85Y-11.35
X17.85Y-11.45
X17.85Y-12.45
X17.85Y-12.55
X17.85Y-12.65
X17.85Y-12.75
X17.85Y-12.85
X17.85Y-12.95
X17.85Y-13.05
X17.85Y-13.15
X17.85Y-13.25
X17.85Y-13.35
X17.9484Y-10.05
X18.05Y-10.15
X18.05Y-10.25
X18.05Y-10.35
X18.05Y-10.45
X18.05Y-10.55
X18.05Y-10.65
X18.05Y-10.75
X18.05Y-10.85
X18.05Y-10.95
X18.05Y-11.05
X18.05Y-11.15
X18.05Y-11.25
X18.05Y-11.35
X18.05Y-11.45
X18.225Y-12.45
X18.225Y-12.55
X18.225Y-12.65
X18.225Y-12.75
X18.225Y-12.85
X18.225Y-12.95
X18.225Y-13.05
X18.275Y-11.9516
X18.275Y-12.05
X18.35Y-10.05
X18.35Y-10.15
X18.35Y-10.25
X18.35Y-10.35
X18.35Y-10.45
X18.35Y-10.55
X18.35Y-10.65
X18.35Y-10.75
X18.35Y-10.85
X18.35Y-10.95
X18.35Y-11.05
X18.35Y-11.15
X18.35Y-11.25
X18.35Y-11.35
X18.35Y-11.45
X18.425Y-12.325
X18.4484Y-10.05
X18.5234Y-12.325
X18.525Y-12.45
X18.525Y-12.55
X18.525Y-12.65
X18.525Y-12.75
X18.525Y-12.85
X18.525Y-12.95
X18.525Y-13.05
X18.55Y-10.15
X18.55Y-10.25
X18.55Y-10.35
X18.55Y-10.45
X18.55Y-10.55
X18.55Y-10.65
X18.55Y-10.75
X18.55Y-10.85
X18.55Y-10.95
X18.55Y-11.05
X18.55Y-11.15
X18.55Y-11.25
X18.55Y-11.35
X18.55Y-11.45
X18.675Y-12.325
X18.675Y-12.625
X18.85Y-10.05
X18.85Y-10.15
X18.85Y-10.25
X18.85Y-10.35
X18.85Y-10.45
X18.85Y-10.55
X18.85Y-10.65
X18.85Y-10.75
X18.85Y-10.85
X18.85Y-10.95
X18.85Y-11.05
X18.85Y-11.15
X18.85Y-11.25
X18.85Y-11.35
X18.85Y-11.45
X18.9484Y-10.05
X19.05Y-10.15
X19.05Y-10.25
X19.05Y-10.35
X19.05Y-10.45
X19.05Y-10.55
X19.05Y-10.65
X19.05Y-10.75
X19.05Y-10.85
X19.05Y-10.95
X19.05Y-11.05
X19.05Y-11.15
X19.05Y-11.25
X19.05Y-11.35
X19.05Y-11.45
X19.35Y-10.05
X19.35Y-10.15
X19.35Y-10.25
X19.35Y-10.35
X19.35Y-10.45
X19.35Y-10.55
X19.35Y-10.65
X19.35Y-10.75
X19.35Y-10.85
X19.35Y-10.95
X19.35Y-11.05
X19.35Y-11.15
X19.35Y-11.25
X19.35Y-11.35
X19.35Y-11.45
X19.4484Y-10.05
X19.55Y-10.15
X19.55Y-10.25
X19.55Y-10.35
X19.55Y-10.45
X19.55Y-10.55
X19.55Y-10.65
X19.55Y-10.75
X19.55Y-10.85
X19.55Y-10.95
X19.55Y-11.05
X19.55Y-11.15
X19.55Y-11.25
X19.55Y-11.35
X19.55Y-11.45
X19.7Y-12.25
X19.7Y-12.45
X19.7766Y-9.675
X19.7984Y-12.25
X19.7984Y-12.45
X19.85Y-10.05
X19.85Y-10.15
X19.85Y-10.25
X19.85Y-10.35
X19.85Y-10.45
X19.85Y-10.55
X19.85Y-10.65
X19.85Y-10.75
X19.85Y-10.85
X19.85Y-10.95
X19.85Y-11.05
X19.85Y-11.15
X19.85Y-11.25
X19.85Y-11.35
X19.85Y-11.45
X19.875Y-9.675
X19.9484Y-10.05
X19.95Y-12.25
X19.95Y-13.35
X19.9516Y-12.45
X19.9516Y-13.1
X20.0484Y-12.25
X20.0484Y-13.35
X20.05Y-10.15
X20.05Y-10.25
X20.05Y-10.35
X20.05Y-10.45
X20.05Y-10.55
X20.05Y-10.65
X20.05Y-10.75
X20.05Y-10.85
X20.05Y-10.95
X20.05Y-11.05
X20.05Y-11.15
X20.05Y-11.25
X20.05Y-11.35
X20.05Y-11.45
X20.05Y-12.45
X20.05Y-13.1
X20.35Y-10.05
X20.35Y-10.15
X20.35Y-10.25
X20.35Y-10.35
X20.35Y-10.45
X20.35Y-10.55
X20.35Y-10.65
X20.35Y-10.75
X20.35Y-10.85
X20.35Y-10.95
X20.35Y-11.05
X20.35Y-11.15
X20.35Y-11.25
X20.35Y-11.35
X20.35Y-11.45
X20.3516Y-9.675
X20.4484Y-10.05
X20.45Y-9.675
T4
X18.425Y-13.9
X18.525Y-13.9
T5
X14.85Y-7.75
X14.85Y-7.85
X14.85Y-7.95
X14.95Y-7.75
X14.95Y-7.85
X14.95Y-7.95
X16.15Y-13.725
X16.25Y-13.725
X16.35Y-13.725
X16.45Y-13.725
X16.55Y-13.725
X16.65Y-13.725
X16.75Y-13.725
X16.85Y-13.725
X17.4Y-13.725
X17.425Y-7.5
X17.425Y-7.6
X17.425Y-7.7
X17.425Y-7.8
X17.425Y-7.9
X17.425Y-8.0
X17.425Y-8.1
X17.425Y-8.2
X17.425Y-8.3
X17.425Y-8.4
X17.425Y-8.5
X17.425Y-8.6
X17.425Y-8.7
X17.425Y-8.8
X17.425Y-8.9
X17.425Y-9.0
X17.425Y-9.1
X17.425Y-9.2
X17.425Y-9.3
X17.425Y-9.4
X17.5Y-13.725
X17.525Y-7.5
X17.525Y-7.6
X17.525Y-7.7
X17.525Y-7.8
X17.525Y-7.9
X17.525Y-8.0
X17.525Y-8.1
X17.525Y-8.2
X17.525Y-8.3
X17.525Y-8.4
X17.525Y-8.5
X17.525Y-8.6
X17.525Y-8.7
X17.525Y-8.8
X17.525Y-8.9
X17.525Y-9.0
X17.525Y-9.1
X17.525Y-9.2
X17.525Y-9.3
X17.525Y-9.4
X17.6Y-13.725
X17.7Y-13.725
X17.8Y-13.725
X17.9Y-13.725
X18.0Y-13.725
X18.1Y-13.725
X18.125Y-7.5
X18.125Y-7.6
X18.125Y-7.7
X18.125Y-7.8
X18.125Y-7.9
X18.125Y-8.0
X18.125Y-8.1
X18.125Y-8.2
X18.125Y-8.3
X18.125Y-8.4
X18.125Y-8.5
X18.125Y-8.6
X18.125Y-8.7
X18.125Y-8.8
X18.125Y-8.9
X18.125Y-9.0
X18.125Y-9.1
X18.125Y-9.2
X18.125Y-9.3
X18.125Y-9.4
X18.225Y-7.5
X18.225Y-7.6
X18.225Y-7.7
X18.225Y-7.8
X18.225Y-7.9
X18.225Y-8.0
X18.225Y-8.1
X18.225Y-8.2
X18.225Y-8.3
X18.225Y-8.4
X18.225Y-8.5
X18.225Y-8.6
X18.225Y-8.7
X18.225Y-8.8
X18.225Y-8.9
X18.225Y-9.0
X18.225Y-9.1
X18.225Y-9.2
X18.225Y-9.3
X18.225Y-9.4
X18.825Y-7.5
X18.825Y-7.6
X18.825Y-7.7
X18.825Y-7.8
X18.825Y-7.9
X18.825Y-8.0
X18.825Y-8.1
X18.825Y-8.2
X18.825Y-8.3
X18.825Y-8.4
X18.825Y-8.5
X18.825Y-8.6
X18.825Y-8.7
X18.825Y-8.8
X18.825Y-8.9
X18.825Y-9.0
X18.825Y-9.1
X18.825Y-9.2
X18.825Y-9.3
X18.825Y-9.4
X18.925Y-7.5
X18.925Y-7.6
X18.925Y-7.7
X18.925Y-7.8
X18.925Y-7.9
X18.925Y-8.0
X18.925Y-8.1
X18.925Y-8.2
X18.925Y-8.3
X18.925Y-8.4
X18.925Y-8.5
X18.925Y-8.6
X18.925Y-8.7
X18.925Y-8.8
X18.925Y-8.9
X18.925Y-9.0
X18.925Y-9.1
X18.925Y-9.2
X18.925Y-9.3
X18.925Y-9.4
X19.525Y-7.5
X19.525Y-7.6
X19.525Y-7.7
X19.525Y-7.8
X19.525Y-7.9
X19.525Y-8.0
X19.525Y-8.1
X19.525Y-8.2
X19.525Y-8.3
X19.525Y-8.4
X19.525Y-8.5
X19.525Y-8.6
X19.525Y-8.7
X19.525Y-8.8
X19.525Y-8.9
X19.525Y-9.0
X19.525Y-9.1
X19.525Y-9.2
X19.525Y-9.3
X19.525Y-9.4
X19.625Y-7.5
X19.625Y-7.6
X19.625Y-7.7
X19.625Y-7.8
X19.625Y-7.9
X19.625Y-8.0
X19.625Y-8.1
X19.625Y-8.2
X19.625Y-8.3
X19.625Y-8.4
X19.625Y-8.5
X19.625Y-8.6
X19.625Y-8.7
X19.625Y-8.8
X19.625Y-8.9
X19.625Y-9.0
X19.625Y-9.1
X19.625Y-9.2
X19.625Y-9.3
X19.625Y-9.4
X20.225Y-7.5
X20.225Y-7.6
X20.225Y-7.7
X20.225Y-7.8
X20.225Y-7.9
X20.225Y-8.0
X20.225Y-8.1
X20.225Y-8.2
X20.225Y-8.3
X20.225Y-8.4
X20.225Y-8.5
X20.225Y-8.6
X20.225Y-8.7
X20.225Y-8.8
X20.225Y-8.9
X20.225Y-9.0
X20.225Y-9.1
X20.225Y-9.2
X20.225Y-9.3
X20.225Y-9.4
X20.325Y-7.5
X20.325Y-7.6
X20.325Y-7.7
X20.325Y-7.8
X20.325Y-7.9
X20.325Y-8.0
X20.325Y-8.1
X20.325Y-8.2
X20.325Y-8.3
X20.325Y-8.4
X20.325Y-8.5
X20.325Y-8.6
X20.325Y-8.7
X20.325Y-8.8
X20.325Y-8.9
X20.325Y-9.0
X20.325Y-9.1
X20.325Y-9.2
X20.325Y-9.3
X20.325Y-9.4
T6
X14.2478Y-7.7
X14.2478Y-7.9559
X14.425Y-7.7
X14.425Y-7.9559
X19.61Y-12.95
X19.61Y-13.05
X19.61Y-13.15
X20.04Y-12.7
X20.04Y-12.8
X20.04Y-12.9
T7
X14.6093Y-13.9085
X14.875Y-13.94
X15.1407Y-13.9085
T8
X14.2Y-7.35
X14.2Y-13.925
X17.025Y-8.55
X18.625Y-11.825
X20.75Y-7.35
X20.75Y-13.925
T5
G00X19.8356Y-13.575
M15
G01X19.9144Y-13.575
M16
G05
G00X19.8356Y-13.8112
M15
G01X19.9144Y-13.8112
M16
G05
G00X20.06Y-13.7325
M15
G01X20.06Y-13.6537
M16
G05
T0
M30
