%TF.GenerationSoftware,KiCad,Pcbnew,(5.1.10)-1*%
%TF.CreationDate,2021-10-04T17:48:38-06:00*%
%TF.ProjectId,retroboard,72657472-6f62-46f6-9172-642e6b696361,rev?*%
%TF.SameCoordinates,Original*%
%TF.FileFunction,Soldermask,Bot*%
%TF.FilePolarity,Negative*%
%FSLAX46Y46*%
G04 Gerber Fmt 4.6, Leading zero omitted, Abs format (unit mm)*
G04 Created by KiCad (PCBNEW (5.1.10)-1) date 2021-10-04 17:48:38*
%MOMM*%
%LPD*%
G01*
G04 APERTURE LIST*
%ADD10C,0.100000*%
%ADD11C,1.600000*%
%ADD12O,1.600000X1.600000*%
%ADD13C,1.800000*%
%ADD14R,1.800000X1.800000*%
%ADD15R,1.600000X1.600000*%
%ADD16C,7.600000*%
%ADD17C,1.700000*%
%ADD18O,1.700000X1.700000*%
%ADD19R,1.700000X1.700000*%
%ADD20C,3.300000*%
%ADD21C,1.524000*%
%ADD22C,2.000000*%
%ADD23C,1.500000*%
%ADD24R,3.500000X3.500000*%
%ADD25O,3.500000X3.500000*%
%ADD26R,2.000000X1.905000*%
%ADD27O,2.000000X1.905000*%
G04 APERTURE END LIST*
D10*
G36*
X528955000Y-328295000D02*
G01*
X522351000Y-328295000D01*
X522351000Y-321945000D01*
X528955000Y-321945000D01*
X528955000Y-328295000D01*
G37*
X528955000Y-328295000D02*
X522351000Y-328295000D01*
X522351000Y-321945000D01*
X528955000Y-321945000D01*
X528955000Y-328295000D01*
G36*
X484759000Y-334645000D02*
G01*
X478155000Y-334645000D01*
X478155000Y-328295000D01*
X484759000Y-328295000D01*
X484759000Y-334645000D01*
G37*
X484759000Y-334645000D02*
X478155000Y-334645000D01*
X478155000Y-328295000D01*
X484759000Y-328295000D01*
X484759000Y-334645000D01*
D11*
%TO.C,4.7k\u03A9*%
X474345000Y-320675000D03*
D12*
X474345000Y-313055000D03*
%TD*%
D13*
%TO.C,Power*%
X470535000Y-353060000D03*
D14*
X467995000Y-353060000D03*
%TD*%
D15*
%TO.C,1uf*%
X519430000Y-245745000D03*
D11*
X516930000Y-245745000D03*
%TD*%
%TO.C,0.1uf*%
X429220000Y-187960000D03*
X426720000Y-187960000D03*
%TD*%
%TO.C,0.1uf*%
X414655000Y-187960000D03*
X417155000Y-187960000D03*
%TD*%
%TO.C,0.1uf*%
X422275000Y-218440000D03*
X424775000Y-218440000D03*
%TD*%
D15*
%TO.C,74573*%
X428625000Y-316230000D03*
D12*
X436245000Y-339090000D03*
X428625000Y-318770000D03*
X436245000Y-336550000D03*
X428625000Y-321310000D03*
X436245000Y-334010000D03*
X428625000Y-323850000D03*
X436245000Y-331470000D03*
X428625000Y-326390000D03*
X436245000Y-328930000D03*
X428625000Y-328930000D03*
X436245000Y-326390000D03*
X428625000Y-331470000D03*
X436245000Y-323850000D03*
X428625000Y-334010000D03*
X436245000Y-321310000D03*
X428625000Y-336550000D03*
X436245000Y-318770000D03*
X428625000Y-339090000D03*
X436245000Y-316230000D03*
%TD*%
D15*
%TO.C,74573*%
X445770000Y-316230000D03*
D12*
X453390000Y-339090000D03*
X445770000Y-318770000D03*
X453390000Y-336550000D03*
X445770000Y-321310000D03*
X453390000Y-334010000D03*
X445770000Y-323850000D03*
X453390000Y-331470000D03*
X445770000Y-326390000D03*
X453390000Y-328930000D03*
X445770000Y-328930000D03*
X453390000Y-326390000D03*
X445770000Y-331470000D03*
X453390000Y-323850000D03*
X445770000Y-334010000D03*
X453390000Y-321310000D03*
X445770000Y-336550000D03*
X453390000Y-318770000D03*
X445770000Y-339090000D03*
X453390000Y-316230000D03*
%TD*%
%TO.C,7404*%
X470535000Y-316230000D03*
X462915000Y-331470000D03*
X470535000Y-318770000D03*
X462915000Y-328930000D03*
X470535000Y-321310000D03*
X462915000Y-326390000D03*
X470535000Y-323850000D03*
X462915000Y-323850000D03*
X470535000Y-326390000D03*
X462915000Y-321310000D03*
X470535000Y-328930000D03*
X462915000Y-318770000D03*
X470535000Y-331470000D03*
D15*
X462915000Y-316230000D03*
%TD*%
D11*
%TO.C,20pf*%
X382687200Y-226060000D03*
X380187200Y-226060000D03*
%TD*%
D16*
%TO.C, *%
X432435000Y-217170000D03*
%TD*%
%TO.C, *%
X473075000Y-300355000D03*
%TD*%
D11*
%TO.C,1uf*%
X502325000Y-245745000D03*
D15*
X504825000Y-245745000D03*
%TD*%
D11*
%TO.C,0.1uf*%
X383540000Y-218440000D03*
X383540000Y-215940000D03*
%TD*%
%TO.C,0.1uf*%
X470495000Y-313055000D03*
X467995000Y-313055000D03*
%TD*%
D17*
%TO.C, *%
X459740000Y-348615000D03*
D18*
X457200000Y-348615000D03*
X454660000Y-348615000D03*
X452120000Y-348615000D03*
X449580000Y-348615000D03*
X447040000Y-348615000D03*
X444500000Y-348615000D03*
D19*
X441960000Y-348615000D03*
%TD*%
%TO.C, *%
X410210000Y-348615000D03*
D18*
X412750000Y-348615000D03*
X415290000Y-348615000D03*
X417830000Y-348615000D03*
X420370000Y-348615000D03*
X422910000Y-348615000D03*
X425450000Y-348615000D03*
D17*
X427990000Y-348615000D03*
%TD*%
D11*
%TO.C,1uf*%
X464185000Y-303570000D03*
D15*
X464185000Y-306070000D03*
%TD*%
%TO.C,1uf*%
X451485000Y-245745000D03*
D11*
X448985000Y-245745000D03*
%TD*%
%TO.C,0.1uf*%
X412115000Y-306070000D03*
X414615000Y-306070000D03*
%TD*%
%TO.C,0.1uf*%
X414615000Y-257810000D03*
X412115000Y-257810000D03*
%TD*%
%TO.C,0.1uf*%
X414615000Y-281940000D03*
X412115000Y-281940000D03*
%TD*%
%TO.C,0.1uf*%
X391120000Y-316865000D03*
X388620000Y-316865000D03*
%TD*%
%TO.C,0.1uf*%
X450850000Y-313055000D03*
X453350000Y-313055000D03*
%TD*%
%TO.C,0.1uf*%
X433705000Y-313055000D03*
X436205000Y-313055000D03*
%TD*%
%TO.C,0.1uf*%
X373380000Y-316865000D03*
X375880000Y-316865000D03*
%TD*%
D12*
%TO.C,74595*%
X375920000Y-321310000D03*
X368300000Y-339090000D03*
X375920000Y-323850000D03*
X368300000Y-336550000D03*
X375920000Y-326390000D03*
X368300000Y-334010000D03*
X375920000Y-328930000D03*
X368300000Y-331470000D03*
X375920000Y-331470000D03*
X368300000Y-328930000D03*
X375920000Y-334010000D03*
X368300000Y-326390000D03*
X375920000Y-336550000D03*
X368300000Y-323850000D03*
X375920000Y-339090000D03*
D15*
X368300000Y-321310000D03*
%TD*%
D11*
%TO.C,0.1uf*%
X375880000Y-290830000D03*
X373380000Y-290830000D03*
%TD*%
D15*
%TO.C,74138*%
X400685000Y-306070000D03*
D12*
X408305000Y-323850000D03*
X400685000Y-308610000D03*
X408305000Y-321310000D03*
X400685000Y-311150000D03*
X408305000Y-318770000D03*
X400685000Y-313690000D03*
X408305000Y-316230000D03*
X400685000Y-316230000D03*
X408305000Y-313690000D03*
X400685000Y-318770000D03*
X408305000Y-311150000D03*
X400685000Y-321310000D03*
X408305000Y-308610000D03*
X400685000Y-323850000D03*
X408305000Y-306070000D03*
%TD*%
D20*
%TO.C,PS/2*%
X384575000Y-353275000D03*
X371075000Y-353275000D03*
D21*
X374425000Y-350275000D03*
X374425000Y-347775000D03*
X381225000Y-350275000D03*
X381225000Y-347775000D03*
X376525000Y-350275000D03*
X379125000Y-350275000D03*
D20*
X377825000Y-354075000D03*
%TD*%
D12*
%TO.C,74595*%
X391160000Y-321310000D03*
X383540000Y-339090000D03*
X391160000Y-323850000D03*
X383540000Y-336550000D03*
X391160000Y-326390000D03*
X383540000Y-334010000D03*
X391160000Y-328930000D03*
X383540000Y-331470000D03*
X391160000Y-331470000D03*
X383540000Y-328930000D03*
X391160000Y-334010000D03*
X383540000Y-326390000D03*
X391160000Y-336550000D03*
X383540000Y-323850000D03*
X391160000Y-339090000D03*
D15*
X383540000Y-321310000D03*
%TD*%
D12*
%TO.C,7404*%
X375920000Y-295275000D03*
X368300000Y-310515000D03*
X375920000Y-297815000D03*
X368300000Y-307975000D03*
X375920000Y-300355000D03*
X368300000Y-305435000D03*
X375920000Y-302895000D03*
X368300000Y-302895000D03*
X375920000Y-305435000D03*
X368300000Y-300355000D03*
X375920000Y-307975000D03*
X368300000Y-297815000D03*
X375920000Y-310515000D03*
D15*
X368300000Y-295275000D03*
%TD*%
D12*
%TO.C,74138*%
X408305000Y-281940000D03*
X400685000Y-299720000D03*
X408305000Y-284480000D03*
X400685000Y-297180000D03*
X408305000Y-287020000D03*
X400685000Y-294640000D03*
X408305000Y-289560000D03*
X400685000Y-292100000D03*
X408305000Y-292100000D03*
X400685000Y-289560000D03*
X408305000Y-294640000D03*
X400685000Y-287020000D03*
X408305000Y-297180000D03*
X400685000Y-284480000D03*
X408305000Y-299720000D03*
D15*
X400685000Y-281940000D03*
%TD*%
%TO.C,4.7uf*%
X374650000Y-207010000D03*
D11*
X377150000Y-207010000D03*
%TD*%
D12*
%TO.C,10k\u03A9*%
X382270000Y-212090000D03*
D11*
X374650000Y-212090000D03*
%TD*%
%TO.C,0.1uf*%
X430490000Y-255270000D03*
X427990000Y-255270000D03*
%TD*%
%TO.C,0.1uf*%
X443190000Y-255270000D03*
X440690000Y-255270000D03*
%TD*%
%TO.C,0.1uf*%
X455890000Y-255270000D03*
X453390000Y-255270000D03*
%TD*%
%TO.C,0.1uf*%
X468590000Y-255270000D03*
X466090000Y-255270000D03*
%TD*%
%TO.C,0.1uf*%
X481290000Y-255270000D03*
X478790000Y-255270000D03*
%TD*%
%TO.C,0.1uf*%
X493990000Y-255270000D03*
X491490000Y-255270000D03*
%TD*%
%TO.C,0.1uf*%
X506690000Y-255270000D03*
X504190000Y-255270000D03*
%TD*%
%TO.C,0.1uf*%
X509230000Y-311150000D03*
X506730000Y-311150000D03*
%TD*%
%TO.C,0.1uf*%
X500380000Y-311150000D03*
X502880000Y-311150000D03*
%TD*%
%TO.C,1uf*%
X506770000Y-316230000D03*
D15*
X509270000Y-316230000D03*
%TD*%
%TO.C,10uf*%
X506730000Y-339090000D03*
D11*
X509230000Y-339090000D03*
%TD*%
%TO.C,1uf*%
X502880000Y-316230000D03*
D15*
X500380000Y-316230000D03*
%TD*%
D11*
%TO.C,10uf*%
X509270000Y-332740000D03*
D15*
X506770000Y-332740000D03*
%TD*%
D18*
%TO.C,ISP*%
X379730000Y-201930000D03*
X377190000Y-201930000D03*
X379730000Y-199390000D03*
X377190000Y-199390000D03*
X379730000Y-196850000D03*
D19*
X377190000Y-196850000D03*
%TD*%
D15*
%TO.C,74138*%
X400685000Y-257810000D03*
D12*
X408305000Y-275590000D03*
X400685000Y-260350000D03*
X408305000Y-273050000D03*
X400685000Y-262890000D03*
X408305000Y-270510000D03*
X400685000Y-265430000D03*
X408305000Y-267970000D03*
X400685000Y-267970000D03*
X408305000Y-265430000D03*
X400685000Y-270510000D03*
X408305000Y-262890000D03*
X400685000Y-273050000D03*
X408305000Y-260350000D03*
X400685000Y-275590000D03*
X408305000Y-257810000D03*
%TD*%
D22*
%TO.C,Reset*%
X361895000Y-195580000D03*
X366395000Y-195580000D03*
X361895000Y-202080000D03*
X366395000Y-202080000D03*
%TD*%
D23*
%TO.C,Osc*%
X380185000Y-231140000D03*
X375285000Y-231140000D03*
%TD*%
D11*
%TO.C,20pf*%
X372785000Y-226060000D03*
X375285000Y-226060000D03*
%TD*%
%TO.C,0.1uf*%
X516890000Y-255270000D03*
X519390000Y-255270000D03*
%TD*%
%TO.C,12V DC*%
G36*
G01*
X510400000Y-349555000D02*
X508650000Y-349555000D01*
G75*
G02*
X507775000Y-348680000I0J875000D01*
G01*
X507775000Y-346930000D01*
G75*
G02*
X508650000Y-346055000I875000J0D01*
G01*
X510400000Y-346055000D01*
G75*
G02*
X511275000Y-346930000I0J-875000D01*
G01*
X511275000Y-348680000D01*
G75*
G02*
X510400000Y-349555000I-875000J0D01*
G01*
G37*
G36*
G01*
X505825000Y-352305000D02*
X503825000Y-352305000D01*
G75*
G02*
X503075000Y-351555000I0J750000D01*
G01*
X503075000Y-350055000D01*
G75*
G02*
X503825000Y-349305000I750000J0D01*
G01*
X505825000Y-349305000D01*
G75*
G02*
X506575000Y-350055000I0J-750000D01*
G01*
X506575000Y-351555000D01*
G75*
G02*
X505825000Y-352305000I-750000J0D01*
G01*
G37*
D24*
X504825000Y-344805000D03*
%TD*%
D25*
%TO.C,7805*%
X481434000Y-331470000D03*
D26*
X498094000Y-334010000D03*
D27*
X498094000Y-331470000D03*
X498094000Y-328930000D03*
%TD*%
%TO.C,7805*%
X509016000Y-327660000D03*
X509016000Y-325120000D03*
D26*
X509016000Y-322580000D03*
D25*
X525676000Y-325120000D03*
%TD*%
D15*
%TO.C,RAM2*%
X445770000Y-257810000D03*
D12*
X453390000Y-290830000D03*
X445770000Y-260350000D03*
X453390000Y-288290000D03*
X445770000Y-262890000D03*
X453390000Y-285750000D03*
X445770000Y-265430000D03*
X453390000Y-283210000D03*
X445770000Y-267970000D03*
X453390000Y-280670000D03*
X445770000Y-270510000D03*
X453390000Y-278130000D03*
X445770000Y-273050000D03*
X453390000Y-275590000D03*
X445770000Y-275590000D03*
X453390000Y-273050000D03*
X445770000Y-278130000D03*
X453390000Y-270510000D03*
X445770000Y-280670000D03*
X453390000Y-267970000D03*
X445770000Y-283210000D03*
X453390000Y-265430000D03*
X445770000Y-285750000D03*
X453390000Y-262890000D03*
X445770000Y-288290000D03*
X453390000Y-260350000D03*
X445770000Y-290830000D03*
X453390000Y-257810000D03*
%TD*%
D15*
%TO.C,RAM1*%
X433070000Y-257810000D03*
D12*
X440690000Y-290830000D03*
X433070000Y-260350000D03*
X440690000Y-288290000D03*
X433070000Y-262890000D03*
X440690000Y-285750000D03*
X433070000Y-265430000D03*
X440690000Y-283210000D03*
X433070000Y-267970000D03*
X440690000Y-280670000D03*
X433070000Y-270510000D03*
X440690000Y-278130000D03*
X433070000Y-273050000D03*
X440690000Y-275590000D03*
X433070000Y-275590000D03*
X440690000Y-273050000D03*
X433070000Y-278130000D03*
X440690000Y-270510000D03*
X433070000Y-280670000D03*
X440690000Y-267970000D03*
X433070000Y-283210000D03*
X440690000Y-265430000D03*
X433070000Y-285750000D03*
X440690000Y-262890000D03*
X433070000Y-288290000D03*
X440690000Y-260350000D03*
X433070000Y-290830000D03*
X440690000Y-257810000D03*
%TD*%
%TO.C,RAM0*%
X427990000Y-257810000D03*
X420370000Y-290830000D03*
X427990000Y-260350000D03*
X420370000Y-288290000D03*
X427990000Y-262890000D03*
X420370000Y-285750000D03*
X427990000Y-265430000D03*
X420370000Y-283210000D03*
X427990000Y-267970000D03*
X420370000Y-280670000D03*
X427990000Y-270510000D03*
X420370000Y-278130000D03*
X427990000Y-273050000D03*
X420370000Y-275590000D03*
X427990000Y-275590000D03*
X420370000Y-273050000D03*
X427990000Y-278130000D03*
X420370000Y-270510000D03*
X427990000Y-280670000D03*
X420370000Y-267970000D03*
X427990000Y-283210000D03*
X420370000Y-265430000D03*
X427990000Y-285750000D03*
X420370000Y-262890000D03*
X427990000Y-288290000D03*
X420370000Y-260350000D03*
X427990000Y-290830000D03*
D15*
X420370000Y-257810000D03*
%TD*%
%TO.C,RAM7*%
X509270000Y-257810000D03*
D12*
X516890000Y-290830000D03*
X509270000Y-260350000D03*
X516890000Y-288290000D03*
X509270000Y-262890000D03*
X516890000Y-285750000D03*
X509270000Y-265430000D03*
X516890000Y-283210000D03*
X509270000Y-267970000D03*
X516890000Y-280670000D03*
X509270000Y-270510000D03*
X516890000Y-278130000D03*
X509270000Y-273050000D03*
X516890000Y-275590000D03*
X509270000Y-275590000D03*
X516890000Y-273050000D03*
X509270000Y-278130000D03*
X516890000Y-270510000D03*
X509270000Y-280670000D03*
X516890000Y-267970000D03*
X509270000Y-283210000D03*
X516890000Y-265430000D03*
X509270000Y-285750000D03*
X516890000Y-262890000D03*
X509270000Y-288290000D03*
X516890000Y-260350000D03*
X509270000Y-290830000D03*
X516890000Y-257810000D03*
%TD*%
D15*
%TO.C,RAM6*%
X496570000Y-257810000D03*
D12*
X504190000Y-290830000D03*
X496570000Y-260350000D03*
X504190000Y-288290000D03*
X496570000Y-262890000D03*
X504190000Y-285750000D03*
X496570000Y-265430000D03*
X504190000Y-283210000D03*
X496570000Y-267970000D03*
X504190000Y-280670000D03*
X496570000Y-270510000D03*
X504190000Y-278130000D03*
X496570000Y-273050000D03*
X504190000Y-275590000D03*
X496570000Y-275590000D03*
X504190000Y-273050000D03*
X496570000Y-278130000D03*
X504190000Y-270510000D03*
X496570000Y-280670000D03*
X504190000Y-267970000D03*
X496570000Y-283210000D03*
X504190000Y-265430000D03*
X496570000Y-285750000D03*
X504190000Y-262890000D03*
X496570000Y-288290000D03*
X504190000Y-260350000D03*
X496570000Y-290830000D03*
X504190000Y-257810000D03*
%TD*%
D15*
%TO.C,RAM5*%
X483870000Y-257810000D03*
D12*
X491490000Y-290830000D03*
X483870000Y-260350000D03*
X491490000Y-288290000D03*
X483870000Y-262890000D03*
X491490000Y-285750000D03*
X483870000Y-265430000D03*
X491490000Y-283210000D03*
X483870000Y-267970000D03*
X491490000Y-280670000D03*
X483870000Y-270510000D03*
X491490000Y-278130000D03*
X483870000Y-273050000D03*
X491490000Y-275590000D03*
X483870000Y-275590000D03*
X491490000Y-273050000D03*
X483870000Y-278130000D03*
X491490000Y-270510000D03*
X483870000Y-280670000D03*
X491490000Y-267970000D03*
X483870000Y-283210000D03*
X491490000Y-265430000D03*
X483870000Y-285750000D03*
X491490000Y-262890000D03*
X483870000Y-288290000D03*
X491490000Y-260350000D03*
X483870000Y-290830000D03*
X491490000Y-257810000D03*
%TD*%
D15*
%TO.C,RAM4*%
X471170000Y-257810000D03*
D12*
X478790000Y-290830000D03*
X471170000Y-260350000D03*
X478790000Y-288290000D03*
X471170000Y-262890000D03*
X478790000Y-285750000D03*
X471170000Y-265430000D03*
X478790000Y-283210000D03*
X471170000Y-267970000D03*
X478790000Y-280670000D03*
X471170000Y-270510000D03*
X478790000Y-278130000D03*
X471170000Y-273050000D03*
X478790000Y-275590000D03*
X471170000Y-275590000D03*
X478790000Y-273050000D03*
X471170000Y-278130000D03*
X478790000Y-270510000D03*
X471170000Y-280670000D03*
X478790000Y-267970000D03*
X471170000Y-283210000D03*
X478790000Y-265430000D03*
X471170000Y-285750000D03*
X478790000Y-262890000D03*
X471170000Y-288290000D03*
X478790000Y-260350000D03*
X471170000Y-290830000D03*
X478790000Y-257810000D03*
%TD*%
D15*
%TO.C,RAM3*%
X458470000Y-257810000D03*
D12*
X466090000Y-290830000D03*
X458470000Y-260350000D03*
X466090000Y-288290000D03*
X458470000Y-262890000D03*
X466090000Y-285750000D03*
X458470000Y-265430000D03*
X466090000Y-283210000D03*
X458470000Y-267970000D03*
X466090000Y-280670000D03*
X458470000Y-270510000D03*
X466090000Y-278130000D03*
X458470000Y-273050000D03*
X466090000Y-275590000D03*
X458470000Y-275590000D03*
X466090000Y-273050000D03*
X458470000Y-278130000D03*
X466090000Y-270510000D03*
X458470000Y-280670000D03*
X466090000Y-267970000D03*
X458470000Y-283210000D03*
X466090000Y-265430000D03*
X458470000Y-285750000D03*
X466090000Y-262890000D03*
X458470000Y-288290000D03*
X466090000Y-260350000D03*
X458470000Y-290830000D03*
X466090000Y-257810000D03*
%TD*%
%TO.C,74573*%
X414655000Y-190500000D03*
X407035000Y-213360000D03*
X414655000Y-193040000D03*
X407035000Y-210820000D03*
X414655000Y-195580000D03*
X407035000Y-208280000D03*
X414655000Y-198120000D03*
X407035000Y-205740000D03*
X414655000Y-200660000D03*
X407035000Y-203200000D03*
X414655000Y-203200000D03*
X407035000Y-200660000D03*
X414655000Y-205740000D03*
X407035000Y-198120000D03*
X414655000Y-208280000D03*
X407035000Y-195580000D03*
X414655000Y-210820000D03*
X407035000Y-193040000D03*
X414655000Y-213360000D03*
D15*
X407035000Y-190500000D03*
%TD*%
D18*
%TO.C,Slot 1*%
X442595000Y-238760000D03*
X445135000Y-238760000D03*
X442595000Y-236220000D03*
X445135000Y-236220000D03*
X442595000Y-233680000D03*
X445135000Y-233680000D03*
X442595000Y-231140000D03*
X445135000Y-231140000D03*
X442595000Y-228600000D03*
X445135000Y-228600000D03*
X442595000Y-226060000D03*
X445135000Y-226060000D03*
X442595000Y-223520000D03*
X445135000Y-223520000D03*
X442595000Y-220980000D03*
X445135000Y-220980000D03*
X442595000Y-218440000D03*
X445135000Y-218440000D03*
X442595000Y-215900000D03*
X445135000Y-215900000D03*
X442595000Y-213360000D03*
X445135000Y-213360000D03*
X442595000Y-210820000D03*
X445135000Y-210820000D03*
X442595000Y-208280000D03*
X445135000Y-208280000D03*
X442595000Y-205740000D03*
X445135000Y-205740000D03*
X442595000Y-203200000D03*
X445135000Y-203200000D03*
X442595000Y-200660000D03*
X445135000Y-200660000D03*
X442595000Y-198120000D03*
X445135000Y-198120000D03*
X442595000Y-195580000D03*
X445135000Y-195580000D03*
X442595000Y-193040000D03*
X445135000Y-193040000D03*
X442595000Y-190500000D03*
D19*
X445135000Y-190500000D03*
%TD*%
D18*
%TO.C,Slot 2*%
X460375000Y-238760000D03*
X462915000Y-238760000D03*
X460375000Y-236220000D03*
X462915000Y-236220000D03*
X460375000Y-233680000D03*
X462915000Y-233680000D03*
X460375000Y-231140000D03*
X462915000Y-231140000D03*
X460375000Y-228600000D03*
X462915000Y-228600000D03*
X460375000Y-226060000D03*
X462915000Y-226060000D03*
X460375000Y-223520000D03*
X462915000Y-223520000D03*
X460375000Y-220980000D03*
X462915000Y-220980000D03*
X460375000Y-218440000D03*
X462915000Y-218440000D03*
X460375000Y-215900000D03*
X462915000Y-215900000D03*
X460375000Y-213360000D03*
X462915000Y-213360000D03*
X460375000Y-210820000D03*
X462915000Y-210820000D03*
X460375000Y-208280000D03*
X462915000Y-208280000D03*
X460375000Y-205740000D03*
X462915000Y-205740000D03*
X460375000Y-203200000D03*
X462915000Y-203200000D03*
X460375000Y-200660000D03*
X462915000Y-200660000D03*
X460375000Y-198120000D03*
X462915000Y-198120000D03*
X460375000Y-195580000D03*
X462915000Y-195580000D03*
X460375000Y-193040000D03*
X462915000Y-193040000D03*
X460375000Y-190500000D03*
D19*
X462915000Y-190500000D03*
%TD*%
D18*
%TO.C,Slot 3*%
X478155000Y-238760000D03*
X480695000Y-238760000D03*
X478155000Y-236220000D03*
X480695000Y-236220000D03*
X478155000Y-233680000D03*
X480695000Y-233680000D03*
X478155000Y-231140000D03*
X480695000Y-231140000D03*
X478155000Y-228600000D03*
X480695000Y-228600000D03*
X478155000Y-226060000D03*
X480695000Y-226060000D03*
X478155000Y-223520000D03*
X480695000Y-223520000D03*
X478155000Y-220980000D03*
X480695000Y-220980000D03*
X478155000Y-218440000D03*
X480695000Y-218440000D03*
X478155000Y-215900000D03*
X480695000Y-215900000D03*
X478155000Y-213360000D03*
X480695000Y-213360000D03*
X478155000Y-210820000D03*
X480695000Y-210820000D03*
X478155000Y-208280000D03*
X480695000Y-208280000D03*
X478155000Y-205740000D03*
X480695000Y-205740000D03*
X478155000Y-203200000D03*
X480695000Y-203200000D03*
X478155000Y-200660000D03*
X480695000Y-200660000D03*
X478155000Y-198120000D03*
X480695000Y-198120000D03*
X478155000Y-195580000D03*
X480695000Y-195580000D03*
X478155000Y-193040000D03*
X480695000Y-193040000D03*
X478155000Y-190500000D03*
D19*
X480695000Y-190500000D03*
%TD*%
D18*
%TO.C,Slot 4*%
X495935000Y-238760000D03*
X498475000Y-238760000D03*
X495935000Y-236220000D03*
X498475000Y-236220000D03*
X495935000Y-233680000D03*
X498475000Y-233680000D03*
X495935000Y-231140000D03*
X498475000Y-231140000D03*
X495935000Y-228600000D03*
X498475000Y-228600000D03*
X495935000Y-226060000D03*
X498475000Y-226060000D03*
X495935000Y-223520000D03*
X498475000Y-223520000D03*
X495935000Y-220980000D03*
X498475000Y-220980000D03*
X495935000Y-218440000D03*
X498475000Y-218440000D03*
X495935000Y-215900000D03*
X498475000Y-215900000D03*
X495935000Y-213360000D03*
X498475000Y-213360000D03*
X495935000Y-210820000D03*
X498475000Y-210820000D03*
X495935000Y-208280000D03*
X498475000Y-208280000D03*
X495935000Y-205740000D03*
X498475000Y-205740000D03*
X495935000Y-203200000D03*
X498475000Y-203200000D03*
X495935000Y-200660000D03*
X498475000Y-200660000D03*
X495935000Y-198120000D03*
X498475000Y-198120000D03*
X495935000Y-195580000D03*
X498475000Y-195580000D03*
X495935000Y-193040000D03*
X498475000Y-193040000D03*
X495935000Y-190500000D03*
D19*
X498475000Y-190500000D03*
%TD*%
%TO.C,Slot 5*%
X516255000Y-190500000D03*
D18*
X513715000Y-190500000D03*
X516255000Y-193040000D03*
X513715000Y-193040000D03*
X516255000Y-195580000D03*
X513715000Y-195580000D03*
X516255000Y-198120000D03*
X513715000Y-198120000D03*
X516255000Y-200660000D03*
X513715000Y-200660000D03*
X516255000Y-203200000D03*
X513715000Y-203200000D03*
X516255000Y-205740000D03*
X513715000Y-205740000D03*
X516255000Y-208280000D03*
X513715000Y-208280000D03*
X516255000Y-210820000D03*
X513715000Y-210820000D03*
X516255000Y-213360000D03*
X513715000Y-213360000D03*
X516255000Y-215900000D03*
X513715000Y-215900000D03*
X516255000Y-218440000D03*
X513715000Y-218440000D03*
X516255000Y-220980000D03*
X513715000Y-220980000D03*
X516255000Y-223520000D03*
X513715000Y-223520000D03*
X516255000Y-226060000D03*
X513715000Y-226060000D03*
X516255000Y-228600000D03*
X513715000Y-228600000D03*
X516255000Y-231140000D03*
X513715000Y-231140000D03*
X516255000Y-233680000D03*
X513715000Y-233680000D03*
X516255000Y-236220000D03*
X513715000Y-236220000D03*
X516255000Y-238760000D03*
X513715000Y-238760000D03*
%TD*%
D15*
%TO.C,74573*%
X407035000Y-218440000D03*
D12*
X414655000Y-241300000D03*
X407035000Y-220980000D03*
X414655000Y-238760000D03*
X407035000Y-223520000D03*
X414655000Y-236220000D03*
X407035000Y-226060000D03*
X414655000Y-233680000D03*
X407035000Y-228600000D03*
X414655000Y-231140000D03*
X407035000Y-231140000D03*
X414655000Y-228600000D03*
X407035000Y-233680000D03*
X414655000Y-226060000D03*
X407035000Y-236220000D03*
X414655000Y-223520000D03*
X407035000Y-238760000D03*
X414655000Y-220980000D03*
X407035000Y-241300000D03*
X414655000Y-218440000D03*
%TD*%
D15*
%TO.C,74245*%
X419100000Y-190500000D03*
D12*
X426720000Y-213360000D03*
X419100000Y-193040000D03*
X426720000Y-210820000D03*
X419100000Y-195580000D03*
X426720000Y-208280000D03*
X419100000Y-198120000D03*
X426720000Y-205740000D03*
X419100000Y-200660000D03*
X426720000Y-203200000D03*
X419100000Y-203200000D03*
X426720000Y-200660000D03*
X419100000Y-205740000D03*
X426720000Y-198120000D03*
X419100000Y-208280000D03*
X426720000Y-195580000D03*
X419100000Y-210820000D03*
X426720000Y-193040000D03*
X419100000Y-213360000D03*
X426720000Y-190500000D03*
%TD*%
D15*
%TO.C,ATmega644*%
X387350000Y-193040000D03*
D12*
X402590000Y-241300000D03*
X387350000Y-195580000D03*
X402590000Y-238760000D03*
X387350000Y-198120000D03*
X402590000Y-236220000D03*
X387350000Y-200660000D03*
X402590000Y-233680000D03*
X387350000Y-203200000D03*
X402590000Y-231140000D03*
X387350000Y-205740000D03*
X402590000Y-228600000D03*
X387350000Y-208280000D03*
X402590000Y-226060000D03*
X387350000Y-210820000D03*
X402590000Y-223520000D03*
X387350000Y-213360000D03*
X402590000Y-220980000D03*
X387350000Y-215900000D03*
X402590000Y-218440000D03*
X387350000Y-218440000D03*
X402590000Y-215900000D03*
X387350000Y-220980000D03*
X402590000Y-213360000D03*
X387350000Y-223520000D03*
X402590000Y-210820000D03*
X387350000Y-226060000D03*
X402590000Y-208280000D03*
X387350000Y-228600000D03*
X402590000Y-205740000D03*
X387350000Y-231140000D03*
X402590000Y-203200000D03*
X387350000Y-233680000D03*
X402590000Y-200660000D03*
X387350000Y-236220000D03*
X402590000Y-198120000D03*
X387350000Y-238760000D03*
X402590000Y-195580000D03*
X387350000Y-241300000D03*
X402590000Y-193040000D03*
%TD*%
D16*
%TO.C, *%
X527050000Y-186690000D03*
%TD*%
%TO.C, *%
X360680000Y-186690000D03*
%TD*%
%TO.C, *%
X360680000Y-353695000D03*
%TD*%
%TO.C, *%
X527050000Y-353695000D03*
%TD*%
M02*
