%TF.GenerationSoftware,KiCad,Pcbnew,(5.1.10)-1*%
%TF.CreationDate,2021-10-04T17:48:38-06:00*%
%TF.ProjectId,retroboard,72657472-6f62-46f6-9172-642e6b696361,rev?*%
%TF.SameCoordinates,Original*%
%TF.FileFunction,Copper,L1,Top*%
%TF.FilePolarity,Positive*%
%FSLAX46Y46*%
G04 Gerber Fmt 4.6, Leading zero omitted, Abs format (unit mm)*
G04 Created by KiCad (PCBNEW (5.1.10)-1) date 2021-10-04 17:48:38*
%MOMM*%
%LPD*%
G01*
G04 APERTURE LIST*
%TA.AperFunction,NonConductor*%
%ADD10C,0.650000*%
%TD*%
%TA.AperFunction,NonConductor*%
%ADD11C,0.400000*%
%TD*%
%TA.AperFunction,NonConductor*%
%ADD12C,0.150000*%
%TD*%
%TA.AperFunction,ComponentPad*%
%ADD13C,1.600000*%
%TD*%
%TA.AperFunction,ComponentPad*%
%ADD14O,1.600000X1.600000*%
%TD*%
%TA.AperFunction,ComponentPad*%
%ADD15C,1.800000*%
%TD*%
%TA.AperFunction,ComponentPad*%
%ADD16R,1.800000X1.800000*%
%TD*%
%TA.AperFunction,ComponentPad*%
%ADD17R,1.600000X1.600000*%
%TD*%
%TA.AperFunction,ComponentPad*%
%ADD18C,7.600000*%
%TD*%
%TA.AperFunction,ComponentPad*%
%ADD19C,1.700000*%
%TD*%
%TA.AperFunction,ComponentPad*%
%ADD20O,1.700000X1.700000*%
%TD*%
%TA.AperFunction,ComponentPad*%
%ADD21R,1.700000X1.700000*%
%TD*%
%TA.AperFunction,ComponentPad*%
%ADD22C,3.300000*%
%TD*%
%TA.AperFunction,ComponentPad*%
%ADD23C,1.524000*%
%TD*%
%TA.AperFunction,SMDPad,CuDef*%
%ADD24C,1.000000*%
%TD*%
%TA.AperFunction,ComponentPad*%
%ADD25C,2.000000*%
%TD*%
%TA.AperFunction,ComponentPad*%
%ADD26C,1.500000*%
%TD*%
%TA.AperFunction,ComponentPad*%
%ADD27R,3.500000X3.500000*%
%TD*%
%TA.AperFunction,ComponentPad*%
%ADD28R,2.000000X1.905000*%
%TD*%
%TA.AperFunction,ComponentPad*%
%ADD29O,2.000000X1.905000*%
%TD*%
%TA.AperFunction,ViaPad*%
%ADD30C,0.800000*%
%TD*%
%TA.AperFunction,Conductor*%
%ADD31C,0.250000*%
%TD*%
%TA.AperFunction,Conductor*%
%ADD32C,1.600000*%
%TD*%
%TA.AperFunction,Conductor*%
%ADD33C,2.000000*%
%TD*%
%TA.AperFunction,Conductor*%
%ADD34C,2.500000*%
%TD*%
%TA.AperFunction,Conductor*%
%ADD35C,1.000000*%
%TD*%
%TA.AperFunction,Conductor*%
%ADD36C,4.000000*%
%TD*%
G04 APERTURE END LIST*
D10*
X373292857Y-249916871D02*
X374721428Y-248916871D01*
X373292857Y-248202585D02*
X376292857Y-248202585D01*
X376292857Y-249345442D01*
X376150000Y-249631157D01*
X376007142Y-249774014D01*
X375721428Y-249916871D01*
X375292857Y-249916871D01*
X375007142Y-249774014D01*
X374864285Y-249631157D01*
X374721428Y-249345442D01*
X374721428Y-248202585D01*
X373435714Y-252345442D02*
X373292857Y-252059728D01*
X373292857Y-251488300D01*
X373435714Y-251202585D01*
X373721428Y-251059728D01*
X374864285Y-251059728D01*
X375150000Y-251202585D01*
X375292857Y-251488300D01*
X375292857Y-252059728D01*
X375150000Y-252345442D01*
X374864285Y-252488300D01*
X374578571Y-252488300D01*
X374292857Y-251059728D01*
X375292857Y-253345442D02*
X375292857Y-254488300D01*
X376292857Y-253774014D02*
X373721428Y-253774014D01*
X373435714Y-253916871D01*
X373292857Y-254202585D01*
X373292857Y-254488300D01*
X373292857Y-255488300D02*
X375292857Y-255488300D01*
X374721428Y-255488300D02*
X375007142Y-255631157D01*
X375150000Y-255774014D01*
X375292857Y-256059728D01*
X375292857Y-256345442D01*
X373292857Y-257774014D02*
X373435714Y-257488300D01*
X373578571Y-257345442D01*
X373864285Y-257202585D01*
X374721428Y-257202585D01*
X375007142Y-257345442D01*
X375150000Y-257488300D01*
X375292857Y-257774014D01*
X375292857Y-258202585D01*
X375150000Y-258488300D01*
X375007142Y-258631157D01*
X374721428Y-258774014D01*
X373864285Y-258774014D01*
X373578571Y-258631157D01*
X373435714Y-258488300D01*
X373292857Y-258202585D01*
X373292857Y-257774014D01*
X373292857Y-260059728D02*
X376292857Y-260059728D01*
X375150000Y-260059728D02*
X375292857Y-260345442D01*
X375292857Y-260916871D01*
X375150000Y-261202585D01*
X375007142Y-261345442D01*
X374721428Y-261488300D01*
X373864285Y-261488300D01*
X373578571Y-261345442D01*
X373435714Y-261202585D01*
X373292857Y-260916871D01*
X373292857Y-260345442D01*
X373435714Y-260059728D01*
X373292857Y-263202585D02*
X373435714Y-262916871D01*
X373578571Y-262774014D01*
X373864285Y-262631157D01*
X374721428Y-262631157D01*
X375007142Y-262774014D01*
X375150000Y-262916871D01*
X375292857Y-263202585D01*
X375292857Y-263631157D01*
X375150000Y-263916871D01*
X375007142Y-264059728D01*
X374721428Y-264202585D01*
X373864285Y-264202585D01*
X373578571Y-264059728D01*
X373435714Y-263916871D01*
X373292857Y-263631157D01*
X373292857Y-263202585D01*
X373292857Y-266774014D02*
X374864285Y-266774014D01*
X375150000Y-266631157D01*
X375292857Y-266345442D01*
X375292857Y-265774014D01*
X375150000Y-265488300D01*
X373435714Y-266774014D02*
X373292857Y-266488300D01*
X373292857Y-265774014D01*
X373435714Y-265488300D01*
X373721428Y-265345442D01*
X374007142Y-265345442D01*
X374292857Y-265488300D01*
X374435714Y-265774014D01*
X374435714Y-266488300D01*
X374578571Y-266774014D01*
X373292857Y-268202585D02*
X375292857Y-268202585D01*
X374721428Y-268202585D02*
X375007142Y-268345442D01*
X375150000Y-268488300D01*
X375292857Y-268774014D01*
X375292857Y-269059728D01*
X373292857Y-271345442D02*
X376292857Y-271345442D01*
X373435714Y-271345442D02*
X373292857Y-271059728D01*
X373292857Y-270488300D01*
X373435714Y-270202585D01*
X373578571Y-270059728D01*
X373864285Y-269916871D01*
X374721428Y-269916871D01*
X375007142Y-270059728D01*
X375150000Y-270202585D01*
X375292857Y-270488300D01*
X375292857Y-271059728D01*
X375150000Y-271345442D01*
D11*
X369871666Y-248182942D02*
X369300238Y-248659133D01*
X369300238Y-247801990D02*
X370633571Y-247801990D01*
X370633571Y-248373419D01*
X370538333Y-248563895D01*
X370347857Y-248659133D01*
X370157380Y-248659133D01*
X369966904Y-248563895D01*
X369871666Y-248373419D01*
X369871666Y-247801990D01*
X371300238Y-250373419D02*
X371300238Y-249992466D01*
X371205000Y-249801990D01*
X371109761Y-249706752D01*
X370824047Y-249516276D01*
X370443095Y-249421038D01*
X369681190Y-249421038D01*
X369490714Y-249516276D01*
X369395476Y-249611514D01*
X369300238Y-249801990D01*
X369300238Y-250182942D01*
X369395476Y-250373419D01*
X369490714Y-250468657D01*
X369681190Y-250563895D01*
X370157380Y-250563895D01*
X370347857Y-250468657D01*
X370443095Y-250373419D01*
X370538333Y-250182942D01*
X370538333Y-249801990D01*
X370443095Y-249611514D01*
X370347857Y-249516276D01*
X370157380Y-249421038D01*
X370633571Y-252278180D02*
X369300238Y-252278180D01*
X371395476Y-251801990D02*
X369966904Y-251325800D01*
X369966904Y-252563895D01*
X370633571Y-254182942D02*
X369300238Y-254182942D01*
X371395476Y-253706752D02*
X369966904Y-253230561D01*
X369966904Y-254468657D01*
X370062142Y-255230561D02*
X370062142Y-256754371D01*
X371109761Y-257611514D02*
X371205000Y-257706752D01*
X371300238Y-257897228D01*
X371300238Y-258373419D01*
X371205000Y-258563895D01*
X371109761Y-258659133D01*
X370919285Y-258754371D01*
X370728809Y-258754371D01*
X370443095Y-258659133D01*
X369300238Y-257516276D01*
X369300238Y-258754371D01*
X371300238Y-259992466D02*
X371300238Y-260182942D01*
X371205000Y-260373419D01*
X371109761Y-260468657D01*
X370919285Y-260563895D01*
X370538333Y-260659133D01*
X370062142Y-260659133D01*
X369681190Y-260563895D01*
X369490714Y-260468657D01*
X369395476Y-260373419D01*
X369300238Y-260182942D01*
X369300238Y-259992466D01*
X369395476Y-259801990D01*
X369490714Y-259706752D01*
X369681190Y-259611514D01*
X370062142Y-259516276D01*
X370538333Y-259516276D01*
X370919285Y-259611514D01*
X371109761Y-259706752D01*
X371205000Y-259801990D01*
X371300238Y-259992466D01*
D12*
X369168419Y-264001428D02*
X369644609Y-263668095D01*
X369168419Y-263430000D02*
X370168419Y-263430000D01*
X370168419Y-263810952D01*
X370120800Y-263906190D01*
X370073180Y-263953809D01*
X369977942Y-264001428D01*
X369835085Y-264001428D01*
X369739847Y-263953809D01*
X369692228Y-263906190D01*
X369644609Y-263810952D01*
X369644609Y-263430000D01*
X369692228Y-264430000D02*
X369692228Y-264763333D01*
X369168419Y-264906190D02*
X369168419Y-264430000D01*
X370168419Y-264430000D01*
X370168419Y-264906190D01*
X370168419Y-265191904D02*
X369168419Y-265525238D01*
X370168419Y-265858571D01*
X369168419Y-267477619D02*
X369168419Y-266906190D01*
X369168419Y-267191904D02*
X370168419Y-267191904D01*
X370025561Y-267096666D01*
X369930323Y-267001428D01*
X369882704Y-266906190D01*
D13*
%TO.P,4.7k\u03A9,1*%
%TO.N,N/C*%
X474345000Y-320675000D03*
D14*
%TO.P,4.7k\u03A9,2*%
X474345000Y-313055000D03*
%TD*%
D15*
%TO.P,Power,2*%
%TO.N,N/C*%
X470535000Y-353060000D03*
D16*
%TO.P,Power,1*%
X467995000Y-353060000D03*
%TD*%
D17*
%TO.P,1uf,1*%
%TO.N,N/C*%
X519430000Y-245745000D03*
D13*
%TO.P,1uf,2*%
X516930000Y-245745000D03*
%TD*%
%TO.P,0.1uf,2*%
%TO.N,N/C*%
X429220000Y-187960000D03*
%TO.P,0.1uf,1*%
X426720000Y-187960000D03*
%TD*%
%TO.P,0.1uf,1*%
%TO.N,N/C*%
X414655000Y-187960000D03*
%TO.P,0.1uf,2*%
X417155000Y-187960000D03*
%TD*%
%TO.P,0.1uf,1*%
%TO.N,N/C*%
X422275000Y-218440000D03*
%TO.P,0.1uf,2*%
X424775000Y-218440000D03*
%TD*%
D17*
%TO.P,74573,1*%
%TO.N,N/C*%
X428625000Y-316230000D03*
D14*
%TO.P,74573,11*%
X436245000Y-339090000D03*
%TO.P,74573,2*%
X428625000Y-318770000D03*
%TO.P,74573,12*%
X436245000Y-336550000D03*
%TO.P,74573,3*%
X428625000Y-321310000D03*
%TO.P,74573,13*%
X436245000Y-334010000D03*
%TO.P,74573,4*%
X428625000Y-323850000D03*
%TO.P,74573,14*%
X436245000Y-331470000D03*
%TO.P,74573,5*%
X428625000Y-326390000D03*
%TO.P,74573,15*%
X436245000Y-328930000D03*
%TO.P,74573,6*%
X428625000Y-328930000D03*
%TO.P,74573,16*%
X436245000Y-326390000D03*
%TO.P,74573,7*%
X428625000Y-331470000D03*
%TO.P,74573,17*%
X436245000Y-323850000D03*
%TO.P,74573,8*%
X428625000Y-334010000D03*
%TO.P,74573,18*%
X436245000Y-321310000D03*
%TO.P,74573,9*%
X428625000Y-336550000D03*
%TO.P,74573,19*%
X436245000Y-318770000D03*
%TO.P,74573,10*%
X428625000Y-339090000D03*
%TO.P,74573,20*%
X436245000Y-316230000D03*
%TD*%
D17*
%TO.P,74573,1*%
%TO.N,N/C*%
X445770000Y-316230000D03*
D14*
%TO.P,74573,11*%
X453390000Y-339090000D03*
%TO.P,74573,2*%
X445770000Y-318770000D03*
%TO.P,74573,12*%
X453390000Y-336550000D03*
%TO.P,74573,3*%
X445770000Y-321310000D03*
%TO.P,74573,13*%
X453390000Y-334010000D03*
%TO.P,74573,4*%
X445770000Y-323850000D03*
%TO.P,74573,14*%
X453390000Y-331470000D03*
%TO.P,74573,5*%
X445770000Y-326390000D03*
%TO.P,74573,15*%
X453390000Y-328930000D03*
%TO.P,74573,6*%
X445770000Y-328930000D03*
%TO.P,74573,16*%
X453390000Y-326390000D03*
%TO.P,74573,7*%
X445770000Y-331470000D03*
%TO.P,74573,17*%
X453390000Y-323850000D03*
%TO.P,74573,8*%
X445770000Y-334010000D03*
%TO.P,74573,18*%
X453390000Y-321310000D03*
%TO.P,74573,9*%
X445770000Y-336550000D03*
%TO.P,74573,19*%
X453390000Y-318770000D03*
%TO.P,74573,10*%
X445770000Y-339090000D03*
%TO.P,74573,20*%
X453390000Y-316230000D03*
%TD*%
%TO.P,7404,14*%
%TO.N,N/C*%
X470535000Y-316230000D03*
%TO.P,7404,7*%
X462915000Y-331470000D03*
%TO.P,7404,13*%
X470535000Y-318770000D03*
%TO.P,7404,6*%
X462915000Y-328930000D03*
%TO.P,7404,12*%
X470535000Y-321310000D03*
%TO.P,7404,5*%
X462915000Y-326390000D03*
%TO.P,7404,11*%
X470535000Y-323850000D03*
%TO.P,7404,4*%
X462915000Y-323850000D03*
%TO.P,7404,10*%
X470535000Y-326390000D03*
%TO.P,7404,3*%
X462915000Y-321310000D03*
%TO.P,7404,9*%
X470535000Y-328930000D03*
%TO.P,7404,2*%
X462915000Y-318770000D03*
%TO.P,7404,8*%
X470535000Y-331470000D03*
D17*
%TO.P,7404,1*%
X462915000Y-316230000D03*
%TD*%
D13*
%TO.P,20pf,1*%
%TO.N,N/C*%
X382687200Y-226060000D03*
%TO.P,20pf,2*%
X380187200Y-226060000D03*
%TD*%
D18*
%TO.P, ,1*%
%TO.N,N/C*%
X432435000Y-217170000D03*
%TD*%
%TO.P, ,1*%
%TO.N,N/C*%
X473075000Y-300355000D03*
%TD*%
D13*
%TO.P,1uf,2*%
%TO.N,N/C*%
X502325000Y-245745000D03*
D17*
%TO.P,1uf,1*%
X504825000Y-245745000D03*
%TD*%
D13*
%TO.P,0.1uf,1*%
%TO.N,N/C*%
X383540000Y-218440000D03*
%TO.P,0.1uf,2*%
X383540000Y-215940000D03*
%TD*%
%TO.P,0.1uf,2*%
%TO.N,N/C*%
X470495000Y-313055000D03*
%TO.P,0.1uf,1*%
X467995000Y-313055000D03*
%TD*%
D19*
%TO.P, ,8*%
%TO.N,N/C*%
X459740000Y-348615000D03*
D20*
%TO.P, ,7*%
X457200000Y-348615000D03*
%TO.P, ,6*%
X454660000Y-348615000D03*
%TO.P, ,5*%
X452120000Y-348615000D03*
%TO.P, ,4*%
X449580000Y-348615000D03*
%TO.P, ,3*%
X447040000Y-348615000D03*
%TO.P, ,2*%
X444500000Y-348615000D03*
D21*
%TO.P, ,1*%
X441960000Y-348615000D03*
%TD*%
%TO.P, ,1*%
%TO.N,N/C*%
X410210000Y-348615000D03*
D20*
%TO.P, ,2*%
X412750000Y-348615000D03*
%TO.P, ,3*%
X415290000Y-348615000D03*
%TO.P, ,4*%
X417830000Y-348615000D03*
%TO.P, ,5*%
X420370000Y-348615000D03*
%TO.P, ,6*%
X422910000Y-348615000D03*
%TO.P, ,7*%
X425450000Y-348615000D03*
D19*
%TO.P, ,8*%
X427990000Y-348615000D03*
%TD*%
D13*
%TO.P,1uf,2*%
%TO.N,N/C*%
X464185000Y-303570000D03*
D17*
%TO.P,1uf,1*%
X464185000Y-306070000D03*
%TD*%
%TO.P,1uf,1*%
%TO.N,N/C*%
X451485000Y-245745000D03*
D13*
%TO.P,1uf,2*%
X448985000Y-245745000D03*
%TD*%
%TO.P,0.1uf,1*%
%TO.N,N/C*%
X412115000Y-306070000D03*
%TO.P,0.1uf,2*%
X414615000Y-306070000D03*
%TD*%
%TO.P,0.1uf,2*%
%TO.N,N/C*%
X414615000Y-257810000D03*
%TO.P,0.1uf,1*%
X412115000Y-257810000D03*
%TD*%
%TO.P,0.1uf,2*%
%TO.N,N/C*%
X414615000Y-281940000D03*
%TO.P,0.1uf,1*%
X412115000Y-281940000D03*
%TD*%
%TO.P,0.1uf,2*%
%TO.N,N/C*%
X391120000Y-316865000D03*
%TO.P,0.1uf,1*%
X388620000Y-316865000D03*
%TD*%
%TO.P,0.1uf,1*%
%TO.N,N/C*%
X450850000Y-313055000D03*
%TO.P,0.1uf,2*%
X453350000Y-313055000D03*
%TD*%
%TO.P,0.1uf,1*%
%TO.N,N/C*%
X433705000Y-313055000D03*
%TO.P,0.1uf,2*%
X436205000Y-313055000D03*
%TD*%
%TO.P,0.1uf,1*%
%TO.N,N/C*%
X373380000Y-316865000D03*
%TO.P,0.1uf,2*%
X375880000Y-316865000D03*
%TD*%
D14*
%TO.P,74595,16*%
%TO.N,N/C*%
X375920000Y-321310000D03*
%TO.P,74595,8*%
X368300000Y-339090000D03*
%TO.P,74595,15*%
X375920000Y-323850000D03*
%TO.P,74595,7*%
X368300000Y-336550000D03*
%TO.P,74595,14*%
X375920000Y-326390000D03*
%TO.P,74595,6*%
X368300000Y-334010000D03*
%TO.P,74595,13*%
X375920000Y-328930000D03*
%TO.P,74595,5*%
X368300000Y-331470000D03*
%TO.P,74595,12*%
X375920000Y-331470000D03*
%TO.P,74595,4*%
X368300000Y-328930000D03*
%TO.P,74595,11*%
X375920000Y-334010000D03*
%TO.P,74595,3*%
X368300000Y-326390000D03*
%TO.P,74595,10*%
X375920000Y-336550000D03*
%TO.P,74595,2*%
X368300000Y-323850000D03*
%TO.P,74595,9*%
X375920000Y-339090000D03*
D17*
%TO.P,74595,1*%
X368300000Y-321310000D03*
%TD*%
D13*
%TO.P,0.1uf,2*%
%TO.N,N/C*%
X375880000Y-290830000D03*
%TO.P,0.1uf,1*%
X373380000Y-290830000D03*
%TD*%
D17*
%TO.P,74138,1*%
%TO.N,N/C*%
X400685000Y-306070000D03*
D14*
%TO.P,74138,9*%
X408305000Y-323850000D03*
%TO.P,74138,2*%
X400685000Y-308610000D03*
%TO.P,74138,10*%
X408305000Y-321310000D03*
%TO.P,74138,3*%
X400685000Y-311150000D03*
%TO.P,74138,11*%
X408305000Y-318770000D03*
%TO.P,74138,4*%
X400685000Y-313690000D03*
%TO.P,74138,12*%
X408305000Y-316230000D03*
%TO.P,74138,5*%
X400685000Y-316230000D03*
%TO.P,74138,13*%
X408305000Y-313690000D03*
%TO.P,74138,6*%
X400685000Y-318770000D03*
%TO.P,74138,14*%
X408305000Y-311150000D03*
%TO.P,74138,7*%
X400685000Y-321310000D03*
%TO.P,74138,15*%
X408305000Y-308610000D03*
%TO.P,74138,8*%
X400685000Y-323850000D03*
%TO.P,74138,16*%
X408305000Y-306070000D03*
%TD*%
D22*
%TO.P,PS/2,7*%
%TO.N,N/C*%
X384575000Y-353275000D03*
X371075000Y-353275000D03*
D23*
%TO.P,PS/2,4*%
X374425000Y-350275000D03*
%TO.P,PS/2,6*%
X374425000Y-347775000D03*
%TO.P,PS/2,3*%
X381225000Y-350275000D03*
%TO.P,PS/2,5*%
X381225000Y-347775000D03*
%TO.P,PS/2,2*%
X376525000Y-350275000D03*
%TO.P,PS/2,1*%
X379125000Y-350275000D03*
D22*
%TO.P,PS/2,7*%
X377825000Y-354075000D03*
%TD*%
D14*
%TO.P,74595,16*%
%TO.N,N/C*%
X391160000Y-321310000D03*
%TO.P,74595,8*%
X383540000Y-339090000D03*
%TO.P,74595,15*%
X391160000Y-323850000D03*
%TO.P,74595,7*%
X383540000Y-336550000D03*
%TO.P,74595,14*%
X391160000Y-326390000D03*
%TO.P,74595,6*%
X383540000Y-334010000D03*
%TO.P,74595,13*%
X391160000Y-328930000D03*
%TO.P,74595,5*%
X383540000Y-331470000D03*
%TO.P,74595,12*%
X391160000Y-331470000D03*
%TO.P,74595,4*%
X383540000Y-328930000D03*
%TO.P,74595,11*%
X391160000Y-334010000D03*
%TO.P,74595,3*%
X383540000Y-326390000D03*
%TO.P,74595,10*%
X391160000Y-336550000D03*
%TO.P,74595,2*%
X383540000Y-323850000D03*
%TO.P,74595,9*%
X391160000Y-339090000D03*
D17*
%TO.P,74595,1*%
X383540000Y-321310000D03*
%TD*%
D14*
%TO.P,7404,14*%
%TO.N,N/C*%
X375920000Y-295275000D03*
%TO.P,7404,7*%
X368300000Y-310515000D03*
%TO.P,7404,13*%
X375920000Y-297815000D03*
%TO.P,7404,6*%
X368300000Y-307975000D03*
%TO.P,7404,12*%
X375920000Y-300355000D03*
%TO.P,7404,5*%
X368300000Y-305435000D03*
%TO.P,7404,11*%
X375920000Y-302895000D03*
%TO.P,7404,4*%
X368300000Y-302895000D03*
%TO.P,7404,10*%
X375920000Y-305435000D03*
%TO.P,7404,3*%
X368300000Y-300355000D03*
%TO.P,7404,9*%
X375920000Y-307975000D03*
%TO.P,7404,2*%
X368300000Y-297815000D03*
%TO.P,7404,8*%
X375920000Y-310515000D03*
D17*
%TO.P,7404,1*%
X368300000Y-295275000D03*
%TD*%
D24*
%TO.P,A15,*%
%TO.N,*%
X397510000Y-270510000D03*
%TD*%
%TO.P,A16,*%
%TO.N,*%
X396240000Y-273050000D03*
%TD*%
%TO.P,A17,*%
%TO.N,*%
X394970000Y-275590000D03*
%TD*%
%TO.P,A18,*%
%TO.N,*%
X393700000Y-278130000D03*
%TD*%
%TO.P,A19,*%
%TO.N,*%
X392430000Y-280670000D03*
%TD*%
D14*
%TO.P,74138,16*%
%TO.N,N/C*%
X408305000Y-281940000D03*
%TO.P,74138,8*%
X400685000Y-299720000D03*
%TO.P,74138,15*%
X408305000Y-284480000D03*
%TO.P,74138,7*%
X400685000Y-297180000D03*
%TO.P,74138,14*%
X408305000Y-287020000D03*
%TO.P,74138,6*%
X400685000Y-294640000D03*
%TO.P,74138,13*%
X408305000Y-289560000D03*
%TO.P,74138,5*%
X400685000Y-292100000D03*
%TO.P,74138,12*%
X408305000Y-292100000D03*
%TO.P,74138,4*%
X400685000Y-289560000D03*
%TO.P,74138,11*%
X408305000Y-294640000D03*
%TO.P,74138,3*%
X400685000Y-287020000D03*
%TO.P,74138,10*%
X408305000Y-297180000D03*
%TO.P,74138,2*%
X400685000Y-284480000D03*
%TO.P,74138,9*%
X408305000Y-299720000D03*
D17*
%TO.P,74138,1*%
X400685000Y-281940000D03*
%TD*%
%TO.P,4.7uf,1*%
%TO.N,N/C*%
X374650000Y-207010000D03*
D13*
%TO.P,4.7uf,2*%
X377150000Y-207010000D03*
%TD*%
D14*
%TO.P,10k\u03A9,2*%
%TO.N,N/C*%
X382270000Y-212090000D03*
D13*
%TO.P,10k\u03A9,1*%
X374650000Y-212090000D03*
%TD*%
%TO.P,0.1uf,2*%
%TO.N,N/C*%
X430490000Y-255270000D03*
%TO.P,0.1uf,1*%
X427990000Y-255270000D03*
%TD*%
%TO.P,0.1uf,2*%
%TO.N,N/C*%
X443190000Y-255270000D03*
%TO.P,0.1uf,1*%
X440690000Y-255270000D03*
%TD*%
%TO.P,0.1uf,2*%
%TO.N,N/C*%
X455890000Y-255270000D03*
%TO.P,0.1uf,1*%
X453390000Y-255270000D03*
%TD*%
%TO.P,0.1uf,2*%
%TO.N,N/C*%
X468590000Y-255270000D03*
%TO.P,0.1uf,1*%
X466090000Y-255270000D03*
%TD*%
%TO.P,0.1uf,2*%
%TO.N,N/C*%
X481290000Y-255270000D03*
%TO.P,0.1uf,1*%
X478790000Y-255270000D03*
%TD*%
%TO.P,0.1uf,2*%
%TO.N,N/C*%
X493990000Y-255270000D03*
%TO.P,0.1uf,1*%
X491490000Y-255270000D03*
%TD*%
%TO.P,0.1uf,2*%
%TO.N,N/C*%
X506690000Y-255270000D03*
%TO.P,0.1uf,1*%
X504190000Y-255270000D03*
%TD*%
%TO.P,0.1uf,2*%
%TO.N,N/C*%
X509230000Y-311150000D03*
%TO.P,0.1uf,1*%
X506730000Y-311150000D03*
%TD*%
%TO.P,0.1uf,1*%
%TO.N,N/C*%
X500380000Y-311150000D03*
%TO.P,0.1uf,2*%
X502880000Y-311150000D03*
%TD*%
%TO.P,1uf,2*%
%TO.N,N/C*%
X506770000Y-316230000D03*
D17*
%TO.P,1uf,1*%
X509270000Y-316230000D03*
%TD*%
%TO.P,10uf,1*%
%TO.N,N/C*%
X506730000Y-339090000D03*
D13*
%TO.P,10uf,2*%
X509230000Y-339090000D03*
%TD*%
%TO.P,1uf,2*%
%TO.N,N/C*%
X502880000Y-316230000D03*
D17*
%TO.P,1uf,1*%
X500380000Y-316230000D03*
%TD*%
D13*
%TO.P,10uf,2*%
%TO.N,N/C*%
X509270000Y-332740000D03*
D17*
%TO.P,10uf,1*%
X506770000Y-332740000D03*
%TD*%
D20*
%TO.P,ISP,6*%
%TO.N,N/C*%
X379730000Y-201930000D03*
%TO.P,ISP,5*%
X377190000Y-201930000D03*
%TO.P,ISP,4*%
X379730000Y-199390000D03*
%TO.P,ISP,3*%
X377190000Y-199390000D03*
%TO.P,ISP,2*%
X379730000Y-196850000D03*
D21*
%TO.P,ISP,1*%
X377190000Y-196850000D03*
%TD*%
D17*
%TO.P,74138,1*%
%TO.N,N/C*%
X400685000Y-257810000D03*
D14*
%TO.P,74138,9*%
X408305000Y-275590000D03*
%TO.P,74138,2*%
X400685000Y-260350000D03*
%TO.P,74138,10*%
X408305000Y-273050000D03*
%TO.P,74138,3*%
X400685000Y-262890000D03*
%TO.P,74138,11*%
X408305000Y-270510000D03*
%TO.P,74138,4*%
X400685000Y-265430000D03*
%TO.P,74138,12*%
X408305000Y-267970000D03*
%TO.P,74138,5*%
X400685000Y-267970000D03*
%TO.P,74138,13*%
X408305000Y-265430000D03*
%TO.P,74138,6*%
X400685000Y-270510000D03*
%TO.P,74138,14*%
X408305000Y-262890000D03*
%TO.P,74138,7*%
X400685000Y-273050000D03*
%TO.P,74138,15*%
X408305000Y-260350000D03*
%TO.P,74138,8*%
X400685000Y-275590000D03*
%TO.P,74138,16*%
X408305000Y-257810000D03*
%TD*%
D25*
%TO.P,Reset,2*%
%TO.N,N/C*%
X361895000Y-195580000D03*
%TO.P,Reset,1*%
X366395000Y-195580000D03*
%TO.P,Reset,2*%
X361895000Y-202080000D03*
%TO.P,Reset,1*%
X366395000Y-202080000D03*
%TD*%
D26*
%TO.P,Osc,2*%
%TO.N,N/C*%
X380185000Y-231140000D03*
%TO.P,Osc,1*%
X375285000Y-231140000D03*
%TD*%
D13*
%TO.P,20pf,2*%
%TO.N,N/C*%
X372785000Y-226060000D03*
%TO.P,20pf,1*%
X375285000Y-226060000D03*
%TD*%
%TO.P,0.1uf,1*%
%TO.N,N/C*%
X516890000Y-255270000D03*
%TO.P,0.1uf,2*%
X519390000Y-255270000D03*
%TD*%
%TO.P,12V DC,3*%
%TO.N,N/C*%
%TA.AperFunction,ComponentPad*%
G36*
G01*
X510400000Y-349555000D02*
X508650000Y-349555000D01*
G75*
G02*
X507775000Y-348680000I0J875000D01*
G01*
X507775000Y-346930000D01*
G75*
G02*
X508650000Y-346055000I875000J0D01*
G01*
X510400000Y-346055000D01*
G75*
G02*
X511275000Y-346930000I0J-875000D01*
G01*
X511275000Y-348680000D01*
G75*
G02*
X510400000Y-349555000I-875000J0D01*
G01*
G37*
%TD.AperFunction*%
%TO.P,12V DC,2*%
%TA.AperFunction,ComponentPad*%
G36*
G01*
X505825000Y-352305000D02*
X503825000Y-352305000D01*
G75*
G02*
X503075000Y-351555000I0J750000D01*
G01*
X503075000Y-350055000D01*
G75*
G02*
X503825000Y-349305000I750000J0D01*
G01*
X505825000Y-349305000D01*
G75*
G02*
X506575000Y-350055000I0J-750000D01*
G01*
X506575000Y-351555000D01*
G75*
G02*
X505825000Y-352305000I-750000J0D01*
G01*
G37*
%TD.AperFunction*%
D27*
%TO.P,12V DC,1*%
X504825000Y-344805000D03*
%TD*%
D28*
%TO.P,7805,1*%
%TO.N,N/C*%
X498094000Y-334010000D03*
D29*
%TO.P,7805,2*%
X498094000Y-331470000D03*
%TO.P,7805,3*%
X498094000Y-328930000D03*
%TD*%
%TO.P,7805,3*%
%TO.N,N/C*%
X509016000Y-327660000D03*
%TO.P,7805,2*%
X509016000Y-325120000D03*
D28*
%TO.P,7805,1*%
X509016000Y-322580000D03*
%TD*%
D17*
%TO.P,RAM2,1*%
%TO.N,N/C*%
X445770000Y-257810000D03*
D14*
%TO.P,RAM2,15*%
X453390000Y-290830000D03*
%TO.P,RAM2,2*%
X445770000Y-260350000D03*
%TO.P,RAM2,16*%
X453390000Y-288290000D03*
%TO.P,RAM2,3*%
X445770000Y-262890000D03*
%TO.P,RAM2,17*%
X453390000Y-285750000D03*
%TO.P,RAM2,4*%
X445770000Y-265430000D03*
%TO.P,RAM2,18*%
X453390000Y-283210000D03*
%TO.P,RAM2,5*%
X445770000Y-267970000D03*
%TO.P,RAM2,19*%
X453390000Y-280670000D03*
%TO.P,RAM2,6*%
X445770000Y-270510000D03*
%TO.P,RAM2,20*%
X453390000Y-278130000D03*
%TO.P,RAM2,7*%
X445770000Y-273050000D03*
%TO.P,RAM2,21*%
X453390000Y-275590000D03*
%TO.P,RAM2,8*%
X445770000Y-275590000D03*
%TO.P,RAM2,22*%
X453390000Y-273050000D03*
%TO.P,RAM2,9*%
X445770000Y-278130000D03*
%TO.P,RAM2,23*%
X453390000Y-270510000D03*
%TO.P,RAM2,10*%
X445770000Y-280670000D03*
%TO.P,RAM2,24*%
X453390000Y-267970000D03*
%TO.P,RAM2,11*%
X445770000Y-283210000D03*
%TO.P,RAM2,25*%
X453390000Y-265430000D03*
%TO.P,RAM2,12*%
X445770000Y-285750000D03*
%TO.P,RAM2,26*%
X453390000Y-262890000D03*
%TO.P,RAM2,13*%
X445770000Y-288290000D03*
%TO.P,RAM2,27*%
X453390000Y-260350000D03*
%TO.P,RAM2,14*%
X445770000Y-290830000D03*
%TO.P,RAM2,28*%
X453390000Y-257810000D03*
%TD*%
D17*
%TO.P,RAM1,1*%
%TO.N,N/C*%
X433070000Y-257810000D03*
D14*
%TO.P,RAM1,15*%
X440690000Y-290830000D03*
%TO.P,RAM1,2*%
X433070000Y-260350000D03*
%TO.P,RAM1,16*%
X440690000Y-288290000D03*
%TO.P,RAM1,3*%
X433070000Y-262890000D03*
%TO.P,RAM1,17*%
X440690000Y-285750000D03*
%TO.P,RAM1,4*%
X433070000Y-265430000D03*
%TO.P,RAM1,18*%
X440690000Y-283210000D03*
%TO.P,RAM1,5*%
X433070000Y-267970000D03*
%TO.P,RAM1,19*%
X440690000Y-280670000D03*
%TO.P,RAM1,6*%
X433070000Y-270510000D03*
%TO.P,RAM1,20*%
X440690000Y-278130000D03*
%TO.P,RAM1,7*%
X433070000Y-273050000D03*
%TO.P,RAM1,21*%
X440690000Y-275590000D03*
%TO.P,RAM1,8*%
X433070000Y-275590000D03*
%TO.P,RAM1,22*%
X440690000Y-273050000D03*
%TO.P,RAM1,9*%
X433070000Y-278130000D03*
%TO.P,RAM1,23*%
X440690000Y-270510000D03*
%TO.P,RAM1,10*%
X433070000Y-280670000D03*
%TO.P,RAM1,24*%
X440690000Y-267970000D03*
%TO.P,RAM1,11*%
X433070000Y-283210000D03*
%TO.P,RAM1,25*%
X440690000Y-265430000D03*
%TO.P,RAM1,12*%
X433070000Y-285750000D03*
%TO.P,RAM1,26*%
X440690000Y-262890000D03*
%TO.P,RAM1,13*%
X433070000Y-288290000D03*
%TO.P,RAM1,27*%
X440690000Y-260350000D03*
%TO.P,RAM1,14*%
X433070000Y-290830000D03*
%TO.P,RAM1,28*%
X440690000Y-257810000D03*
%TD*%
%TO.P,RAM0,28*%
%TO.N,N/C*%
X427990000Y-257810000D03*
%TO.P,RAM0,14*%
X420370000Y-290830000D03*
%TO.P,RAM0,27*%
X427990000Y-260350000D03*
%TO.P,RAM0,13*%
X420370000Y-288290000D03*
%TO.P,RAM0,26*%
X427990000Y-262890000D03*
%TO.P,RAM0,12*%
X420370000Y-285750000D03*
%TO.P,RAM0,25*%
X427990000Y-265430000D03*
%TO.P,RAM0,11*%
X420370000Y-283210000D03*
%TO.P,RAM0,24*%
X427990000Y-267970000D03*
%TO.P,RAM0,10*%
X420370000Y-280670000D03*
%TO.P,RAM0,23*%
X427990000Y-270510000D03*
%TO.P,RAM0,9*%
X420370000Y-278130000D03*
%TO.P,RAM0,22*%
X427990000Y-273050000D03*
%TO.P,RAM0,8*%
X420370000Y-275590000D03*
%TO.P,RAM0,21*%
X427990000Y-275590000D03*
%TO.P,RAM0,7*%
X420370000Y-273050000D03*
%TO.P,RAM0,20*%
X427990000Y-278130000D03*
%TO.P,RAM0,6*%
X420370000Y-270510000D03*
%TO.P,RAM0,19*%
X427990000Y-280670000D03*
%TO.P,RAM0,5*%
X420370000Y-267970000D03*
%TO.P,RAM0,18*%
X427990000Y-283210000D03*
%TO.P,RAM0,4*%
X420370000Y-265430000D03*
%TO.P,RAM0,17*%
X427990000Y-285750000D03*
%TO.P,RAM0,3*%
X420370000Y-262890000D03*
%TO.P,RAM0,16*%
X427990000Y-288290000D03*
%TO.P,RAM0,2*%
X420370000Y-260350000D03*
%TO.P,RAM0,15*%
X427990000Y-290830000D03*
D17*
%TO.P,RAM0,1*%
X420370000Y-257810000D03*
%TD*%
%TO.P,RAM7,1*%
%TO.N,N/C*%
X509270000Y-257810000D03*
D14*
%TO.P,RAM7,15*%
X516890000Y-290830000D03*
%TO.P,RAM7,2*%
X509270000Y-260350000D03*
%TO.P,RAM7,16*%
X516890000Y-288290000D03*
%TO.P,RAM7,3*%
X509270000Y-262890000D03*
%TO.P,RAM7,17*%
X516890000Y-285750000D03*
%TO.P,RAM7,4*%
X509270000Y-265430000D03*
%TO.P,RAM7,18*%
X516890000Y-283210000D03*
%TO.P,RAM7,5*%
X509270000Y-267970000D03*
%TO.P,RAM7,19*%
X516890000Y-280670000D03*
%TO.P,RAM7,6*%
X509270000Y-270510000D03*
%TO.P,RAM7,20*%
X516890000Y-278130000D03*
%TO.P,RAM7,7*%
X509270000Y-273050000D03*
%TO.P,RAM7,21*%
X516890000Y-275590000D03*
%TO.P,RAM7,8*%
X509270000Y-275590000D03*
%TO.P,RAM7,22*%
X516890000Y-273050000D03*
%TO.P,RAM7,9*%
X509270000Y-278130000D03*
%TO.P,RAM7,23*%
X516890000Y-270510000D03*
%TO.P,RAM7,10*%
X509270000Y-280670000D03*
%TO.P,RAM7,24*%
X516890000Y-267970000D03*
%TO.P,RAM7,11*%
X509270000Y-283210000D03*
%TO.P,RAM7,25*%
X516890000Y-265430000D03*
%TO.P,RAM7,12*%
X509270000Y-285750000D03*
%TO.P,RAM7,26*%
X516890000Y-262890000D03*
%TO.P,RAM7,13*%
X509270000Y-288290000D03*
%TO.P,RAM7,27*%
X516890000Y-260350000D03*
%TO.P,RAM7,14*%
X509270000Y-290830000D03*
%TO.P,RAM7,28*%
X516890000Y-257810000D03*
%TD*%
D17*
%TO.P,RAM6,1*%
%TO.N,N/C*%
X496570000Y-257810000D03*
D14*
%TO.P,RAM6,15*%
X504190000Y-290830000D03*
%TO.P,RAM6,2*%
X496570000Y-260350000D03*
%TO.P,RAM6,16*%
X504190000Y-288290000D03*
%TO.P,RAM6,3*%
X496570000Y-262890000D03*
%TO.P,RAM6,17*%
X504190000Y-285750000D03*
%TO.P,RAM6,4*%
X496570000Y-265430000D03*
%TO.P,RAM6,18*%
X504190000Y-283210000D03*
%TO.P,RAM6,5*%
X496570000Y-267970000D03*
%TO.P,RAM6,19*%
X504190000Y-280670000D03*
%TO.P,RAM6,6*%
X496570000Y-270510000D03*
%TO.P,RAM6,20*%
X504190000Y-278130000D03*
%TO.P,RAM6,7*%
X496570000Y-273050000D03*
%TO.P,RAM6,21*%
X504190000Y-275590000D03*
%TO.P,RAM6,8*%
X496570000Y-275590000D03*
%TO.P,RAM6,22*%
X504190000Y-273050000D03*
%TO.P,RAM6,9*%
X496570000Y-278130000D03*
%TO.P,RAM6,23*%
X504190000Y-270510000D03*
%TO.P,RAM6,10*%
X496570000Y-280670000D03*
%TO.P,RAM6,24*%
X504190000Y-267970000D03*
%TO.P,RAM6,11*%
X496570000Y-283210000D03*
%TO.P,RAM6,25*%
X504190000Y-265430000D03*
%TO.P,RAM6,12*%
X496570000Y-285750000D03*
%TO.P,RAM6,26*%
X504190000Y-262890000D03*
%TO.P,RAM6,13*%
X496570000Y-288290000D03*
%TO.P,RAM6,27*%
X504190000Y-260350000D03*
%TO.P,RAM6,14*%
X496570000Y-290830000D03*
%TO.P,RAM6,28*%
X504190000Y-257810000D03*
%TD*%
D17*
%TO.P,RAM5,1*%
%TO.N,N/C*%
X483870000Y-257810000D03*
D14*
%TO.P,RAM5,15*%
X491490000Y-290830000D03*
%TO.P,RAM5,2*%
X483870000Y-260350000D03*
%TO.P,RAM5,16*%
X491490000Y-288290000D03*
%TO.P,RAM5,3*%
X483870000Y-262890000D03*
%TO.P,RAM5,17*%
X491490000Y-285750000D03*
%TO.P,RAM5,4*%
X483870000Y-265430000D03*
%TO.P,RAM5,18*%
X491490000Y-283210000D03*
%TO.P,RAM5,5*%
X483870000Y-267970000D03*
%TO.P,RAM5,19*%
X491490000Y-280670000D03*
%TO.P,RAM5,6*%
X483870000Y-270510000D03*
%TO.P,RAM5,20*%
X491490000Y-278130000D03*
%TO.P,RAM5,7*%
X483870000Y-273050000D03*
%TO.P,RAM5,21*%
X491490000Y-275590000D03*
%TO.P,RAM5,8*%
X483870000Y-275590000D03*
%TO.P,RAM5,22*%
X491490000Y-273050000D03*
%TO.P,RAM5,9*%
X483870000Y-278130000D03*
%TO.P,RAM5,23*%
X491490000Y-270510000D03*
%TO.P,RAM5,10*%
X483870000Y-280670000D03*
%TO.P,RAM5,24*%
X491490000Y-267970000D03*
%TO.P,RAM5,11*%
X483870000Y-283210000D03*
%TO.P,RAM5,25*%
X491490000Y-265430000D03*
%TO.P,RAM5,12*%
X483870000Y-285750000D03*
%TO.P,RAM5,26*%
X491490000Y-262890000D03*
%TO.P,RAM5,13*%
X483870000Y-288290000D03*
%TO.P,RAM5,27*%
X491490000Y-260350000D03*
%TO.P,RAM5,14*%
X483870000Y-290830000D03*
%TO.P,RAM5,28*%
X491490000Y-257810000D03*
%TD*%
D17*
%TO.P,RAM4,1*%
%TO.N,N/C*%
X471170000Y-257810000D03*
D14*
%TO.P,RAM4,15*%
X478790000Y-290830000D03*
%TO.P,RAM4,2*%
X471170000Y-260350000D03*
%TO.P,RAM4,16*%
X478790000Y-288290000D03*
%TO.P,RAM4,3*%
X471170000Y-262890000D03*
%TO.P,RAM4,17*%
X478790000Y-285750000D03*
%TO.P,RAM4,4*%
X471170000Y-265430000D03*
%TO.P,RAM4,18*%
X478790000Y-283210000D03*
%TO.P,RAM4,5*%
X471170000Y-267970000D03*
%TO.P,RAM4,19*%
X478790000Y-280670000D03*
%TO.P,RAM4,6*%
X471170000Y-270510000D03*
%TO.P,RAM4,20*%
X478790000Y-278130000D03*
%TO.P,RAM4,7*%
X471170000Y-273050000D03*
%TO.P,RAM4,21*%
X478790000Y-275590000D03*
%TO.P,RAM4,8*%
X471170000Y-275590000D03*
%TO.P,RAM4,22*%
X478790000Y-273050000D03*
%TO.P,RAM4,9*%
X471170000Y-278130000D03*
%TO.P,RAM4,23*%
X478790000Y-270510000D03*
%TO.P,RAM4,10*%
X471170000Y-280670000D03*
%TO.P,RAM4,24*%
X478790000Y-267970000D03*
%TO.P,RAM4,11*%
X471170000Y-283210000D03*
%TO.P,RAM4,25*%
X478790000Y-265430000D03*
%TO.P,RAM4,12*%
X471170000Y-285750000D03*
%TO.P,RAM4,26*%
X478790000Y-262890000D03*
%TO.P,RAM4,13*%
X471170000Y-288290000D03*
%TO.P,RAM4,27*%
X478790000Y-260350000D03*
%TO.P,RAM4,14*%
X471170000Y-290830000D03*
%TO.P,RAM4,28*%
X478790000Y-257810000D03*
%TD*%
D17*
%TO.P,RAM3,1*%
%TO.N,N/C*%
X458470000Y-257810000D03*
D14*
%TO.P,RAM3,15*%
X466090000Y-290830000D03*
%TO.P,RAM3,2*%
X458470000Y-260350000D03*
%TO.P,RAM3,16*%
X466090000Y-288290000D03*
%TO.P,RAM3,3*%
X458470000Y-262890000D03*
%TO.P,RAM3,17*%
X466090000Y-285750000D03*
%TO.P,RAM3,4*%
X458470000Y-265430000D03*
%TO.P,RAM3,18*%
X466090000Y-283210000D03*
%TO.P,RAM3,5*%
X458470000Y-267970000D03*
%TO.P,RAM3,19*%
X466090000Y-280670000D03*
%TO.P,RAM3,6*%
X458470000Y-270510000D03*
%TO.P,RAM3,20*%
X466090000Y-278130000D03*
%TO.P,RAM3,7*%
X458470000Y-273050000D03*
%TO.P,RAM3,21*%
X466090000Y-275590000D03*
%TO.P,RAM3,8*%
X458470000Y-275590000D03*
%TO.P,RAM3,22*%
X466090000Y-273050000D03*
%TO.P,RAM3,9*%
X458470000Y-278130000D03*
%TO.P,RAM3,23*%
X466090000Y-270510000D03*
%TO.P,RAM3,10*%
X458470000Y-280670000D03*
%TO.P,RAM3,24*%
X466090000Y-267970000D03*
%TO.P,RAM3,11*%
X458470000Y-283210000D03*
%TO.P,RAM3,25*%
X466090000Y-265430000D03*
%TO.P,RAM3,12*%
X458470000Y-285750000D03*
%TO.P,RAM3,26*%
X466090000Y-262890000D03*
%TO.P,RAM3,13*%
X458470000Y-288290000D03*
%TO.P,RAM3,27*%
X466090000Y-260350000D03*
%TO.P,RAM3,14*%
X458470000Y-290830000D03*
%TO.P,RAM3,28*%
X466090000Y-257810000D03*
%TD*%
%TO.P,74573,20*%
%TO.N,N/C*%
X414655000Y-190500000D03*
%TO.P,74573,10*%
X407035000Y-213360000D03*
%TO.P,74573,19*%
X414655000Y-193040000D03*
%TO.P,74573,9*%
X407035000Y-210820000D03*
%TO.P,74573,18*%
X414655000Y-195580000D03*
%TO.P,74573,8*%
X407035000Y-208280000D03*
%TO.P,74573,17*%
X414655000Y-198120000D03*
%TO.P,74573,7*%
X407035000Y-205740000D03*
%TO.P,74573,16*%
X414655000Y-200660000D03*
%TO.P,74573,6*%
X407035000Y-203200000D03*
%TO.P,74573,15*%
X414655000Y-203200000D03*
%TO.P,74573,5*%
X407035000Y-200660000D03*
%TO.P,74573,14*%
X414655000Y-205740000D03*
%TO.P,74573,4*%
X407035000Y-198120000D03*
%TO.P,74573,13*%
X414655000Y-208280000D03*
%TO.P,74573,3*%
X407035000Y-195580000D03*
%TO.P,74573,12*%
X414655000Y-210820000D03*
%TO.P,74573,2*%
X407035000Y-193040000D03*
%TO.P,74573,11*%
X414655000Y-213360000D03*
D17*
%TO.P,74573,1*%
X407035000Y-190500000D03*
%TD*%
D20*
%TO.P,Slot 1,40*%
%TO.N,N/C*%
X442595000Y-238760000D03*
%TO.P,Slot 1,39*%
X445135000Y-238760000D03*
%TO.P,Slot 1,38*%
X442595000Y-236220000D03*
%TO.P,Slot 1,37*%
X445135000Y-236220000D03*
%TO.P,Slot 1,36*%
X442595000Y-233680000D03*
%TO.P,Slot 1,35*%
X445135000Y-233680000D03*
%TO.P,Slot 1,34*%
X442595000Y-231140000D03*
%TO.P,Slot 1,33*%
X445135000Y-231140000D03*
%TO.P,Slot 1,32*%
X442595000Y-228600000D03*
%TO.P,Slot 1,31*%
X445135000Y-228600000D03*
%TO.P,Slot 1,30*%
X442595000Y-226060000D03*
%TO.P,Slot 1,29*%
X445135000Y-226060000D03*
%TO.P,Slot 1,28*%
X442595000Y-223520000D03*
%TO.P,Slot 1,27*%
X445135000Y-223520000D03*
%TO.P,Slot 1,26*%
X442595000Y-220980000D03*
%TO.P,Slot 1,25*%
X445135000Y-220980000D03*
%TO.P,Slot 1,24*%
X442595000Y-218440000D03*
%TO.P,Slot 1,23*%
X445135000Y-218440000D03*
%TO.P,Slot 1,22*%
X442595000Y-215900000D03*
%TO.P,Slot 1,21*%
X445135000Y-215900000D03*
%TO.P,Slot 1,20*%
X442595000Y-213360000D03*
%TO.P,Slot 1,19*%
X445135000Y-213360000D03*
%TO.P,Slot 1,18*%
X442595000Y-210820000D03*
%TO.P,Slot 1,17*%
X445135000Y-210820000D03*
%TO.P,Slot 1,16*%
X442595000Y-208280000D03*
%TO.P,Slot 1,15*%
X445135000Y-208280000D03*
%TO.P,Slot 1,14*%
X442595000Y-205740000D03*
%TO.P,Slot 1,13*%
X445135000Y-205740000D03*
%TO.P,Slot 1,12*%
X442595000Y-203200000D03*
%TO.P,Slot 1,11*%
X445135000Y-203200000D03*
%TO.P,Slot 1,10*%
X442595000Y-200660000D03*
%TO.P,Slot 1,9*%
X445135000Y-200660000D03*
%TO.P,Slot 1,8*%
X442595000Y-198120000D03*
%TO.P,Slot 1,7*%
X445135000Y-198120000D03*
%TO.P,Slot 1,6*%
X442595000Y-195580000D03*
%TO.P,Slot 1,5*%
X445135000Y-195580000D03*
%TO.P,Slot 1,4*%
X442595000Y-193040000D03*
%TO.P,Slot 1,3*%
X445135000Y-193040000D03*
%TO.P,Slot 1,2*%
X442595000Y-190500000D03*
D21*
%TO.P,Slot 1,1*%
X445135000Y-190500000D03*
%TD*%
D20*
%TO.P,Slot 2,40*%
%TO.N,N/C*%
X460375000Y-238760000D03*
%TO.P,Slot 2,39*%
X462915000Y-238760000D03*
%TO.P,Slot 2,38*%
X460375000Y-236220000D03*
%TO.P,Slot 2,37*%
X462915000Y-236220000D03*
%TO.P,Slot 2,36*%
X460375000Y-233680000D03*
%TO.P,Slot 2,35*%
X462915000Y-233680000D03*
%TO.P,Slot 2,34*%
X460375000Y-231140000D03*
%TO.P,Slot 2,33*%
X462915000Y-231140000D03*
%TO.P,Slot 2,32*%
X460375000Y-228600000D03*
%TO.P,Slot 2,31*%
X462915000Y-228600000D03*
%TO.P,Slot 2,30*%
X460375000Y-226060000D03*
%TO.P,Slot 2,29*%
X462915000Y-226060000D03*
%TO.P,Slot 2,28*%
X460375000Y-223520000D03*
%TO.P,Slot 2,27*%
X462915000Y-223520000D03*
%TO.P,Slot 2,26*%
X460375000Y-220980000D03*
%TO.P,Slot 2,25*%
X462915000Y-220980000D03*
%TO.P,Slot 2,24*%
X460375000Y-218440000D03*
%TO.P,Slot 2,23*%
X462915000Y-218440000D03*
%TO.P,Slot 2,22*%
X460375000Y-215900000D03*
%TO.P,Slot 2,21*%
X462915000Y-215900000D03*
%TO.P,Slot 2,20*%
X460375000Y-213360000D03*
%TO.P,Slot 2,19*%
X462915000Y-213360000D03*
%TO.P,Slot 2,18*%
X460375000Y-210820000D03*
%TO.P,Slot 2,17*%
X462915000Y-210820000D03*
%TO.P,Slot 2,16*%
X460375000Y-208280000D03*
%TO.P,Slot 2,15*%
X462915000Y-208280000D03*
%TO.P,Slot 2,14*%
X460375000Y-205740000D03*
%TO.P,Slot 2,13*%
X462915000Y-205740000D03*
%TO.P,Slot 2,12*%
X460375000Y-203200000D03*
%TO.P,Slot 2,11*%
X462915000Y-203200000D03*
%TO.P,Slot 2,10*%
X460375000Y-200660000D03*
%TO.P,Slot 2,9*%
X462915000Y-200660000D03*
%TO.P,Slot 2,8*%
X460375000Y-198120000D03*
%TO.P,Slot 2,7*%
X462915000Y-198120000D03*
%TO.P,Slot 2,6*%
X460375000Y-195580000D03*
%TO.P,Slot 2,5*%
X462915000Y-195580000D03*
%TO.P,Slot 2,4*%
X460375000Y-193040000D03*
%TO.P,Slot 2,3*%
X462915000Y-193040000D03*
%TO.P,Slot 2,2*%
X460375000Y-190500000D03*
D21*
%TO.P,Slot 2,1*%
X462915000Y-190500000D03*
%TD*%
D20*
%TO.P,Slot 3,40*%
%TO.N,N/C*%
X478155000Y-238760000D03*
%TO.P,Slot 3,39*%
X480695000Y-238760000D03*
%TO.P,Slot 3,38*%
X478155000Y-236220000D03*
%TO.P,Slot 3,37*%
X480695000Y-236220000D03*
%TO.P,Slot 3,36*%
X478155000Y-233680000D03*
%TO.P,Slot 3,35*%
X480695000Y-233680000D03*
%TO.P,Slot 3,34*%
X478155000Y-231140000D03*
%TO.P,Slot 3,33*%
X480695000Y-231140000D03*
%TO.P,Slot 3,32*%
X478155000Y-228600000D03*
%TO.P,Slot 3,31*%
X480695000Y-228600000D03*
%TO.P,Slot 3,30*%
X478155000Y-226060000D03*
%TO.P,Slot 3,29*%
X480695000Y-226060000D03*
%TO.P,Slot 3,28*%
X478155000Y-223520000D03*
%TO.P,Slot 3,27*%
X480695000Y-223520000D03*
%TO.P,Slot 3,26*%
X478155000Y-220980000D03*
%TO.P,Slot 3,25*%
X480695000Y-220980000D03*
%TO.P,Slot 3,24*%
X478155000Y-218440000D03*
%TO.P,Slot 3,23*%
X480695000Y-218440000D03*
%TO.P,Slot 3,22*%
X478155000Y-215900000D03*
%TO.P,Slot 3,21*%
X480695000Y-215900000D03*
%TO.P,Slot 3,20*%
X478155000Y-213360000D03*
%TO.P,Slot 3,19*%
X480695000Y-213360000D03*
%TO.P,Slot 3,18*%
X478155000Y-210820000D03*
%TO.P,Slot 3,17*%
X480695000Y-210820000D03*
%TO.P,Slot 3,16*%
X478155000Y-208280000D03*
%TO.P,Slot 3,15*%
X480695000Y-208280000D03*
%TO.P,Slot 3,14*%
X478155000Y-205740000D03*
%TO.P,Slot 3,13*%
X480695000Y-205740000D03*
%TO.P,Slot 3,12*%
X478155000Y-203200000D03*
%TO.P,Slot 3,11*%
X480695000Y-203200000D03*
%TO.P,Slot 3,10*%
X478155000Y-200660000D03*
%TO.P,Slot 3,9*%
X480695000Y-200660000D03*
%TO.P,Slot 3,8*%
X478155000Y-198120000D03*
%TO.P,Slot 3,7*%
X480695000Y-198120000D03*
%TO.P,Slot 3,6*%
X478155000Y-195580000D03*
%TO.P,Slot 3,5*%
X480695000Y-195580000D03*
%TO.P,Slot 3,4*%
X478155000Y-193040000D03*
%TO.P,Slot 3,3*%
X480695000Y-193040000D03*
%TO.P,Slot 3,2*%
X478155000Y-190500000D03*
D21*
%TO.P,Slot 3,1*%
X480695000Y-190500000D03*
%TD*%
D20*
%TO.P,Slot 4,40*%
%TO.N,N/C*%
X495935000Y-238760000D03*
%TO.P,Slot 4,39*%
X498475000Y-238760000D03*
%TO.P,Slot 4,38*%
X495935000Y-236220000D03*
%TO.P,Slot 4,37*%
X498475000Y-236220000D03*
%TO.P,Slot 4,36*%
X495935000Y-233680000D03*
%TO.P,Slot 4,35*%
X498475000Y-233680000D03*
%TO.P,Slot 4,34*%
X495935000Y-231140000D03*
%TO.P,Slot 4,33*%
X498475000Y-231140000D03*
%TO.P,Slot 4,32*%
X495935000Y-228600000D03*
%TO.P,Slot 4,31*%
X498475000Y-228600000D03*
%TO.P,Slot 4,30*%
X495935000Y-226060000D03*
%TO.P,Slot 4,29*%
X498475000Y-226060000D03*
%TO.P,Slot 4,28*%
X495935000Y-223520000D03*
%TO.P,Slot 4,27*%
X498475000Y-223520000D03*
%TO.P,Slot 4,26*%
X495935000Y-220980000D03*
%TO.P,Slot 4,25*%
X498475000Y-220980000D03*
%TO.P,Slot 4,24*%
X495935000Y-218440000D03*
%TO.P,Slot 4,23*%
X498475000Y-218440000D03*
%TO.P,Slot 4,22*%
X495935000Y-215900000D03*
%TO.P,Slot 4,21*%
X498475000Y-215900000D03*
%TO.P,Slot 4,20*%
X495935000Y-213360000D03*
%TO.P,Slot 4,19*%
X498475000Y-213360000D03*
%TO.P,Slot 4,18*%
X495935000Y-210820000D03*
%TO.P,Slot 4,17*%
X498475000Y-210820000D03*
%TO.P,Slot 4,16*%
X495935000Y-208280000D03*
%TO.P,Slot 4,15*%
X498475000Y-208280000D03*
%TO.P,Slot 4,14*%
X495935000Y-205740000D03*
%TO.P,Slot 4,13*%
X498475000Y-205740000D03*
%TO.P,Slot 4,12*%
X495935000Y-203200000D03*
%TO.P,Slot 4,11*%
X498475000Y-203200000D03*
%TO.P,Slot 4,10*%
X495935000Y-200660000D03*
%TO.P,Slot 4,9*%
X498475000Y-200660000D03*
%TO.P,Slot 4,8*%
X495935000Y-198120000D03*
%TO.P,Slot 4,7*%
X498475000Y-198120000D03*
%TO.P,Slot 4,6*%
X495935000Y-195580000D03*
%TO.P,Slot 4,5*%
X498475000Y-195580000D03*
%TO.P,Slot 4,4*%
X495935000Y-193040000D03*
%TO.P,Slot 4,3*%
X498475000Y-193040000D03*
%TO.P,Slot 4,2*%
X495935000Y-190500000D03*
D21*
%TO.P,Slot 4,1*%
X498475000Y-190500000D03*
%TD*%
%TO.P,Slot 5,1*%
%TO.N,N/C*%
X516255000Y-190500000D03*
D20*
%TO.P,Slot 5,2*%
X513715000Y-190500000D03*
%TO.P,Slot 5,3*%
X516255000Y-193040000D03*
%TO.P,Slot 5,4*%
X513715000Y-193040000D03*
%TO.P,Slot 5,5*%
X516255000Y-195580000D03*
%TO.P,Slot 5,6*%
X513715000Y-195580000D03*
%TO.P,Slot 5,7*%
X516255000Y-198120000D03*
%TO.P,Slot 5,8*%
X513715000Y-198120000D03*
%TO.P,Slot 5,9*%
X516255000Y-200660000D03*
%TO.P,Slot 5,10*%
X513715000Y-200660000D03*
%TO.P,Slot 5,11*%
X516255000Y-203200000D03*
%TO.P,Slot 5,12*%
X513715000Y-203200000D03*
%TO.P,Slot 5,13*%
X516255000Y-205740000D03*
%TO.P,Slot 5,14*%
X513715000Y-205740000D03*
%TO.P,Slot 5,15*%
X516255000Y-208280000D03*
%TO.P,Slot 5,16*%
X513715000Y-208280000D03*
%TO.P,Slot 5,17*%
X516255000Y-210820000D03*
%TO.P,Slot 5,18*%
X513715000Y-210820000D03*
%TO.P,Slot 5,19*%
X516255000Y-213360000D03*
%TO.P,Slot 5,20*%
X513715000Y-213360000D03*
%TO.P,Slot 5,21*%
X516255000Y-215900000D03*
%TO.P,Slot 5,22*%
X513715000Y-215900000D03*
%TO.P,Slot 5,23*%
X516255000Y-218440000D03*
%TO.P,Slot 5,24*%
X513715000Y-218440000D03*
%TO.P,Slot 5,25*%
X516255000Y-220980000D03*
%TO.P,Slot 5,26*%
X513715000Y-220980000D03*
%TO.P,Slot 5,27*%
X516255000Y-223520000D03*
%TO.P,Slot 5,28*%
X513715000Y-223520000D03*
%TO.P,Slot 5,29*%
X516255000Y-226060000D03*
%TO.P,Slot 5,30*%
X513715000Y-226060000D03*
%TO.P,Slot 5,31*%
X516255000Y-228600000D03*
%TO.P,Slot 5,32*%
X513715000Y-228600000D03*
%TO.P,Slot 5,33*%
X516255000Y-231140000D03*
%TO.P,Slot 5,34*%
X513715000Y-231140000D03*
%TO.P,Slot 5,35*%
X516255000Y-233680000D03*
%TO.P,Slot 5,36*%
X513715000Y-233680000D03*
%TO.P,Slot 5,37*%
X516255000Y-236220000D03*
%TO.P,Slot 5,38*%
X513715000Y-236220000D03*
%TO.P,Slot 5,39*%
X516255000Y-238760000D03*
%TO.P,Slot 5,40*%
X513715000Y-238760000D03*
%TD*%
D17*
%TO.P,74573,1*%
%TO.N,N/C*%
X407035000Y-218440000D03*
D14*
%TO.P,74573,11*%
X414655000Y-241300000D03*
%TO.P,74573,2*%
X407035000Y-220980000D03*
%TO.P,74573,12*%
X414655000Y-238760000D03*
%TO.P,74573,3*%
X407035000Y-223520000D03*
%TO.P,74573,13*%
X414655000Y-236220000D03*
%TO.P,74573,4*%
X407035000Y-226060000D03*
%TO.P,74573,14*%
X414655000Y-233680000D03*
%TO.P,74573,5*%
X407035000Y-228600000D03*
%TO.P,74573,15*%
X414655000Y-231140000D03*
%TO.P,74573,6*%
X407035000Y-231140000D03*
%TO.P,74573,16*%
X414655000Y-228600000D03*
%TO.P,74573,7*%
X407035000Y-233680000D03*
%TO.P,74573,17*%
X414655000Y-226060000D03*
%TO.P,74573,8*%
X407035000Y-236220000D03*
%TO.P,74573,18*%
X414655000Y-223520000D03*
%TO.P,74573,9*%
X407035000Y-238760000D03*
%TO.P,74573,19*%
X414655000Y-220980000D03*
%TO.P,74573,10*%
X407035000Y-241300000D03*
%TO.P,74573,20*%
X414655000Y-218440000D03*
%TD*%
D17*
%TO.P,74245,1*%
%TO.N,N/C*%
X419100000Y-190500000D03*
D14*
%TO.P,74245,11*%
X426720000Y-213360000D03*
%TO.P,74245,2*%
X419100000Y-193040000D03*
%TO.P,74245,12*%
X426720000Y-210820000D03*
%TO.P,74245,3*%
X419100000Y-195580000D03*
%TO.P,74245,13*%
X426720000Y-208280000D03*
%TO.P,74245,4*%
X419100000Y-198120000D03*
%TO.P,74245,14*%
X426720000Y-205740000D03*
%TO.P,74245,5*%
X419100000Y-200660000D03*
%TO.P,74245,15*%
X426720000Y-203200000D03*
%TO.P,74245,6*%
X419100000Y-203200000D03*
%TO.P,74245,16*%
X426720000Y-200660000D03*
%TO.P,74245,7*%
X419100000Y-205740000D03*
%TO.P,74245,17*%
X426720000Y-198120000D03*
%TO.P,74245,8*%
X419100000Y-208280000D03*
%TO.P,74245,18*%
X426720000Y-195580000D03*
%TO.P,74245,9*%
X419100000Y-210820000D03*
%TO.P,74245,19*%
X426720000Y-193040000D03*
%TO.P,74245,10*%
X419100000Y-213360000D03*
%TO.P,74245,20*%
X426720000Y-190500000D03*
%TD*%
D17*
%TO.P,ATmega644,1*%
%TO.N,N/C*%
X387350000Y-193040000D03*
D14*
%TO.P,ATmega644,21*%
X402590000Y-241300000D03*
%TO.P,ATmega644,2*%
X387350000Y-195580000D03*
%TO.P,ATmega644,22*%
X402590000Y-238760000D03*
%TO.P,ATmega644,3*%
X387350000Y-198120000D03*
%TO.P,ATmega644,23*%
X402590000Y-236220000D03*
%TO.P,ATmega644,4*%
X387350000Y-200660000D03*
%TO.P,ATmega644,24*%
X402590000Y-233680000D03*
%TO.P,ATmega644,5*%
X387350000Y-203200000D03*
%TO.P,ATmega644,25*%
X402590000Y-231140000D03*
%TO.P,ATmega644,6*%
X387350000Y-205740000D03*
%TO.P,ATmega644,26*%
X402590000Y-228600000D03*
%TO.P,ATmega644,7*%
X387350000Y-208280000D03*
%TO.P,ATmega644,27*%
X402590000Y-226060000D03*
%TO.P,ATmega644,8*%
X387350000Y-210820000D03*
%TO.P,ATmega644,28*%
X402590000Y-223520000D03*
%TO.P,ATmega644,9*%
X387350000Y-213360000D03*
%TO.P,ATmega644,29*%
X402590000Y-220980000D03*
%TO.P,ATmega644,10*%
X387350000Y-215900000D03*
%TO.P,ATmega644,30*%
X402590000Y-218440000D03*
%TO.P,ATmega644,11*%
X387350000Y-218440000D03*
%TO.P,ATmega644,31*%
X402590000Y-215900000D03*
%TO.P,ATmega644,12*%
X387350000Y-220980000D03*
%TO.P,ATmega644,32*%
X402590000Y-213360000D03*
%TO.P,ATmega644,13*%
X387350000Y-223520000D03*
%TO.P,ATmega644,33*%
X402590000Y-210820000D03*
%TO.P,ATmega644,14*%
X387350000Y-226060000D03*
%TO.P,ATmega644,34*%
X402590000Y-208280000D03*
%TO.P,ATmega644,15*%
X387350000Y-228600000D03*
%TO.P,ATmega644,35*%
X402590000Y-205740000D03*
%TO.P,ATmega644,16*%
X387350000Y-231140000D03*
%TO.P,ATmega644,36*%
X402590000Y-203200000D03*
%TO.P,ATmega644,17*%
X387350000Y-233680000D03*
%TO.P,ATmega644,37*%
X402590000Y-200660000D03*
%TO.P,ATmega644,18*%
X387350000Y-236220000D03*
%TO.P,ATmega644,38*%
X402590000Y-198120000D03*
%TO.P,ATmega644,19*%
X387350000Y-238760000D03*
%TO.P,ATmega644,39*%
X402590000Y-195580000D03*
%TO.P,ATmega644,20*%
X387350000Y-241300000D03*
%TO.P,ATmega644,40*%
X402590000Y-193040000D03*
%TD*%
D18*
%TO.P, ,1*%
%TO.N,N/C*%
X527050000Y-186690000D03*
%TD*%
%TO.P, ,1*%
%TO.N,N/C*%
X360680000Y-186690000D03*
%TD*%
%TO.P, ,1*%
%TO.N,N/C*%
X360680000Y-353695000D03*
%TD*%
%TO.P, ,1*%
%TO.N,N/C*%
X527050000Y-353695000D03*
%TD*%
D30*
%TO.N,*%
X440690000Y-194310000D03*
X440690000Y-196850000D03*
X440690000Y-199390000D03*
X440690000Y-217170000D03*
X440690000Y-219710000D03*
X440690000Y-222250000D03*
X426085000Y-223520000D03*
X426085000Y-226060000D03*
X440690000Y-234950000D03*
X440690000Y-237490000D03*
X455930000Y-194310000D03*
X454660000Y-195580000D03*
X449580000Y-199390000D03*
X450215000Y-286385000D03*
X448945000Y-288290000D03*
X447675000Y-289560000D03*
X437515000Y-285115000D03*
X436245000Y-281940000D03*
X434975000Y-279400000D03*
X453390000Y-196850000D03*
X448310000Y-200660000D03*
X450850000Y-198120000D03*
X473710000Y-207010000D03*
X468630000Y-210820000D03*
X466090000Y-213360000D03*
X471170000Y-209550000D03*
X474980000Y-205740000D03*
X467360000Y-212090000D03*
X469900000Y-210185000D03*
X472440000Y-208280000D03*
X492125000Y-217170000D03*
X485775000Y-220980000D03*
X489585000Y-219710000D03*
X493395000Y-215900000D03*
X484505000Y-222250000D03*
X487045000Y-219710000D03*
X490855000Y-218440000D03*
X474980000Y-241300000D03*
X473710000Y-241300000D03*
X472440000Y-241300000D03*
X471170000Y-241300000D03*
X476885000Y-281940000D03*
X475615000Y-278765000D03*
X474345000Y-275590000D03*
X473075000Y-273050000D03*
X469900000Y-241300000D03*
X464185000Y-271780000D03*
X468630000Y-241300000D03*
X462915000Y-268605000D03*
X467360000Y-241300000D03*
X461645000Y-265430000D03*
X466090000Y-241300000D03*
X460375000Y-262890000D03*
X502285000Y-265430000D03*
X501015000Y-267335000D03*
X499745000Y-274320000D03*
X498475000Y-269240000D03*
X489585000Y-261620000D03*
X488315000Y-262255000D03*
X487045000Y-257810000D03*
X511175000Y-228600000D03*
X509905000Y-229870000D03*
X511175000Y-245745000D03*
X511175000Y-259080000D03*
X509905000Y-245745000D03*
X483235000Y-229870000D03*
X438785000Y-288290000D03*
X452120000Y-197485000D03*
X447040000Y-229870000D03*
X483235000Y-240030000D03*
X458470000Y-241300000D03*
X435610000Y-240030000D03*
X430530000Y-245110000D03*
X428625000Y-245110000D03*
X426720000Y-245110000D03*
X501015000Y-229870000D03*
X432435000Y-245110000D03*
X417195000Y-245110000D03*
X419100000Y-245110000D03*
X421005000Y-245110000D03*
X422910000Y-245110000D03*
X421005000Y-216535000D03*
X433070000Y-238760000D03*
X431165000Y-238760000D03*
X424815000Y-245110000D03*
X419735000Y-215265000D03*
X418465000Y-216535000D03*
X419735000Y-223520000D03*
X418465000Y-226060000D03*
X434340000Y-245110000D03*
X508635000Y-231140000D03*
X392430000Y-250190000D03*
X391160000Y-251460000D03*
X389890000Y-252730000D03*
X394970000Y-247650000D03*
X393700000Y-248920000D03*
X396240000Y-257810000D03*
X392430000Y-262255000D03*
X433070000Y-297180000D03*
X434975000Y-297180000D03*
X438785000Y-297180000D03*
X445770000Y-297180000D03*
X447675000Y-297180000D03*
X457200000Y-193040000D03*
X451485000Y-284480000D03*
X393700000Y-264160000D03*
X394970000Y-260350000D03*
X436880000Y-297180000D03*
X393700000Y-323850000D03*
X386715000Y-327660000D03*
X410210000Y-277495000D03*
X396240000Y-284480000D03*
X394970000Y-287020000D03*
X393700000Y-289560000D03*
X392430000Y-292100000D03*
X449580000Y-297180000D03*
X368300000Y-318135000D03*
X371475000Y-325120000D03*
X451485000Y-297180000D03*
X408305000Y-326390000D03*
X417830000Y-321310000D03*
X416560000Y-322580000D03*
X415290000Y-323850000D03*
X414020000Y-325120000D03*
X412750000Y-326390000D03*
X410845000Y-326390000D03*
X431165000Y-314960000D03*
X404495000Y-207010000D03*
X404495000Y-241300000D03*
X408940000Y-245745000D03*
X403225000Y-254000000D03*
%TD*%
D31*
%TO.N,*%
X402590000Y-193040000D02*
X407035000Y-193040000D01*
X402590000Y-195580000D02*
X407035000Y-195580000D01*
X402590000Y-198120000D02*
X407035000Y-198120000D01*
X402590000Y-200660000D02*
X407035000Y-200660000D01*
X402590000Y-203200000D02*
X407035000Y-203200000D01*
X402590000Y-205740000D02*
X407035000Y-205740000D01*
X402590000Y-208280000D02*
X407035000Y-208280000D01*
X402590000Y-210820000D02*
X407035000Y-210820000D01*
X407035000Y-193040000D02*
X410210000Y-193040000D01*
X410210000Y-193040000D02*
X411480000Y-194310000D01*
X411480000Y-194310000D02*
X416560000Y-194310000D01*
X417830000Y-193040000D02*
X419100000Y-193040000D01*
X416560000Y-194310000D02*
X417830000Y-193040000D01*
X407035000Y-195580000D02*
X410210000Y-195580000D01*
X410210000Y-195580000D02*
X411480000Y-196850000D01*
X411480000Y-196850000D02*
X416560000Y-196850000D01*
X417830000Y-195580000D02*
X419100000Y-195580000D01*
X416560000Y-196850000D02*
X417830000Y-195580000D01*
X407035000Y-198120000D02*
X410210000Y-198120000D01*
X410210000Y-198120000D02*
X411480000Y-199390000D01*
X411480000Y-199390000D02*
X416560000Y-199390000D01*
X417830000Y-198120000D02*
X419100000Y-198120000D01*
X416560000Y-199390000D02*
X417830000Y-198120000D01*
X407035000Y-200660000D02*
X410210000Y-200660000D01*
X410210000Y-200660000D02*
X411480000Y-201930000D01*
X411480000Y-201930000D02*
X416560000Y-201930000D01*
X417830000Y-200660000D02*
X419100000Y-200660000D01*
X416560000Y-201930000D02*
X417830000Y-200660000D01*
X407035000Y-203200000D02*
X410210000Y-203200000D01*
X410210000Y-203200000D02*
X411480000Y-204470000D01*
X411480000Y-204470000D02*
X416560000Y-204470000D01*
X417830000Y-203200000D02*
X419100000Y-203200000D01*
X416560000Y-204470000D02*
X417830000Y-203200000D01*
X407035000Y-205740000D02*
X410210000Y-205740000D01*
X410210000Y-205740000D02*
X411480000Y-207010000D01*
X411480000Y-207010000D02*
X416560000Y-207010000D01*
X417830000Y-205740000D02*
X419100000Y-205740000D01*
X416560000Y-207010000D02*
X417830000Y-205740000D01*
X407035000Y-208280000D02*
X410210000Y-208280000D01*
X410210000Y-208280000D02*
X411480000Y-209550000D01*
X411480000Y-209550000D02*
X416560000Y-209550000D01*
X417830000Y-208280000D02*
X419100000Y-208280000D01*
X416560000Y-209550000D02*
X417830000Y-208280000D01*
X407035000Y-226060000D02*
X405765000Y-226060000D01*
X405765000Y-226060000D02*
X404495000Y-224790000D01*
X404495000Y-224790000D02*
X401320000Y-224790000D01*
X401320000Y-224790000D02*
X399415000Y-226695000D01*
X399415000Y-226695000D02*
X399415000Y-231775000D01*
X401320000Y-233680000D02*
X402590000Y-233680000D01*
X399415000Y-231775000D02*
X401320000Y-233680000D01*
X405130000Y-231140000D02*
X407035000Y-231140000D01*
X402590000Y-228600000D02*
X405130000Y-231140000D01*
X451485000Y-199390000D02*
X452755000Y-200660000D01*
X452755000Y-194310000D02*
X456565000Y-194310000D01*
X461645000Y-194310000D02*
X462915000Y-193040000D01*
X445135000Y-193040000D02*
X451485000Y-193040000D01*
X445135000Y-213360000D02*
X451485000Y-213360000D01*
X461645000Y-201930000D02*
X462915000Y-200660000D01*
D32*
X442595000Y-190500000D02*
X462915000Y-190500000D01*
D31*
X452755000Y-193040000D02*
X457835000Y-193040000D01*
X451485000Y-194310000D02*
X452755000Y-195580000D01*
X443865000Y-194310000D02*
X451485000Y-194310000D01*
X452755000Y-195580000D02*
X455295000Y-195580000D01*
X442595000Y-193040000D02*
X443865000Y-191770000D01*
X445135000Y-223520000D02*
X451485000Y-223520000D01*
X451485000Y-196850000D02*
X452755000Y-198120000D01*
X452755000Y-198120000D02*
X460375000Y-198120000D01*
X452755000Y-201930000D02*
X461645000Y-201930000D01*
X445135000Y-200660000D02*
X447675000Y-200660000D01*
X451485000Y-200660000D02*
X452755000Y-201930000D01*
X452755000Y-200660000D02*
X460375000Y-200660000D01*
X445135000Y-198120000D02*
X449580000Y-198120000D01*
X442595000Y-198120000D02*
X443865000Y-196850000D01*
X443865000Y-196850000D02*
X450850000Y-196850000D01*
X451485000Y-198120000D02*
X452755000Y-199390000D01*
X452755000Y-199390000D02*
X461645000Y-199390000D01*
X461645000Y-199390000D02*
X462915000Y-198120000D01*
X443865000Y-199390000D02*
X448310000Y-199390000D01*
X451485000Y-191770000D02*
X452755000Y-193040000D01*
X443865000Y-191770000D02*
X451485000Y-191770000D01*
X442595000Y-195580000D02*
X443865000Y-194310000D01*
X442595000Y-200660000D02*
X443865000Y-199390000D01*
X452755000Y-223520000D02*
X460375000Y-223520000D01*
X451485000Y-222250000D02*
X452755000Y-223520000D01*
X443865000Y-222250000D02*
X451485000Y-222250000D01*
X461645000Y-224790000D02*
X462915000Y-223520000D01*
X442595000Y-223520000D02*
X443865000Y-222250000D01*
X452755000Y-224790000D02*
X461645000Y-224790000D01*
X451485000Y-223520000D02*
X452755000Y-224790000D01*
X461645000Y-214630000D02*
X462915000Y-213360000D01*
X452755000Y-214630000D02*
X461645000Y-214630000D01*
X451485000Y-213360000D02*
X452755000Y-214630000D01*
X452755000Y-213360000D02*
X460375000Y-213360000D01*
X451485000Y-212090000D02*
X452755000Y-213360000D01*
X443865000Y-212090000D02*
X451485000Y-212090000D01*
X442595000Y-213360000D02*
X443865000Y-212090000D01*
X461645000Y-212090000D02*
X462915000Y-210820000D01*
X452755000Y-212090000D02*
X461645000Y-212090000D01*
X451485000Y-210820000D02*
X452755000Y-212090000D01*
X452755000Y-210820000D02*
X460375000Y-210820000D01*
X451485000Y-209550000D02*
X452755000Y-210820000D01*
X443865000Y-209550000D02*
X451485000Y-209550000D01*
X461645000Y-209550000D02*
X462915000Y-208280000D01*
X442595000Y-210820000D02*
X443865000Y-209550000D01*
X445135000Y-210820000D02*
X451485000Y-210820000D01*
X451485000Y-208280000D02*
X452755000Y-209550000D01*
X452755000Y-208280000D02*
X460375000Y-208280000D01*
X445135000Y-208280000D02*
X451485000Y-208280000D01*
X451485000Y-207010000D02*
X452755000Y-208280000D01*
X443865000Y-207010000D02*
X451485000Y-207010000D01*
X442595000Y-208280000D02*
X443865000Y-207010000D01*
X452755000Y-205740000D02*
X457835000Y-205740000D01*
X451485000Y-204470000D02*
X452755000Y-205740000D01*
X443865000Y-204470000D02*
X451485000Y-204470000D01*
X451485000Y-205740000D02*
X452755000Y-207010000D01*
X442595000Y-205740000D02*
X443865000Y-204470000D01*
X452755000Y-207010000D02*
X457200000Y-207010000D01*
X461645000Y-207010000D02*
X462915000Y-205740000D01*
X445135000Y-205740000D02*
X451485000Y-205740000D01*
X452755000Y-209550000D02*
X461645000Y-209550000D01*
D32*
X442595000Y-203200000D02*
X462915000Y-203200000D01*
D31*
X443865000Y-227330000D02*
X451485000Y-227330000D01*
X442595000Y-228600000D02*
X443865000Y-227330000D01*
X452755000Y-229870000D02*
X461645000Y-229870000D01*
D32*
X442595000Y-226060000D02*
X462915000Y-226060000D01*
D31*
X452755000Y-218440000D02*
X460375000Y-218440000D01*
X451485000Y-217170000D02*
X452755000Y-218440000D01*
X443865000Y-217170000D02*
X451485000Y-217170000D01*
X442595000Y-218440000D02*
X443865000Y-217170000D01*
X452755000Y-219710000D02*
X461645000Y-219710000D01*
X461645000Y-219710000D02*
X462915000Y-218440000D01*
X451485000Y-218440000D02*
X452755000Y-219710000D01*
X445135000Y-218440000D02*
X451485000Y-218440000D01*
X461645000Y-217170000D02*
X462915000Y-215900000D01*
X451485000Y-215900000D02*
X452755000Y-217170000D01*
X445135000Y-215900000D02*
X451485000Y-215900000D01*
X452755000Y-215900000D02*
X460375000Y-215900000D01*
X451485000Y-214630000D02*
X452755000Y-215900000D01*
X443865000Y-214630000D02*
X451485000Y-214630000D01*
X442595000Y-215900000D02*
X443865000Y-214630000D01*
X461645000Y-222250000D02*
X462915000Y-220980000D01*
X452755000Y-222250000D02*
X461645000Y-222250000D01*
X451485000Y-220980000D02*
X452755000Y-222250000D01*
X452755000Y-220980000D02*
X460375000Y-220980000D01*
X451485000Y-219710000D02*
X452755000Y-220980000D01*
X452755000Y-217170000D02*
X461645000Y-217170000D01*
X442595000Y-220980000D02*
X443865000Y-219710000D01*
X461645000Y-229870000D02*
X462915000Y-228600000D01*
X445135000Y-220980000D02*
X451485000Y-220980000D01*
X443865000Y-219710000D02*
X451485000Y-219710000D01*
X445135000Y-228600000D02*
X451485000Y-228600000D01*
X451485000Y-228600000D02*
X452755000Y-229870000D01*
X452755000Y-228600000D02*
X460375000Y-228600000D01*
X451485000Y-227330000D02*
X452755000Y-228600000D01*
X488315000Y-217170000D02*
X497205000Y-217170000D01*
X488315000Y-228600000D02*
X495935000Y-228600000D01*
X479425000Y-214630000D02*
X487045000Y-214630000D01*
X497205000Y-222250000D02*
X498475000Y-220980000D01*
X488315000Y-222250000D02*
X497205000Y-222250000D01*
X487045000Y-214630000D02*
X488315000Y-215900000D01*
X487045000Y-219710000D02*
X488315000Y-220980000D01*
X478155000Y-220980000D02*
X479425000Y-219710000D01*
X488315000Y-220980000D02*
X495935000Y-220980000D01*
X487045000Y-220980000D02*
X488315000Y-222250000D01*
X487045000Y-228600000D02*
X488315000Y-229870000D01*
X487045000Y-227330000D02*
X488315000Y-228600000D01*
X479425000Y-219710000D02*
X487045000Y-219710000D01*
X497205000Y-229870000D02*
X498475000Y-228600000D01*
X480695000Y-228600000D02*
X487045000Y-228600000D01*
X480695000Y-220980000D02*
X487045000Y-220980000D01*
X478155000Y-215900000D02*
X479425000Y-214630000D01*
X497205000Y-196850000D02*
X498475000Y-195580000D01*
X497205000Y-201930000D02*
X498475000Y-200660000D01*
X488315000Y-201930000D02*
X497205000Y-201930000D01*
X488315000Y-196850000D02*
X497205000Y-196850000D01*
X487045000Y-194310000D02*
X488315000Y-195580000D01*
X488315000Y-195580000D02*
X495935000Y-195580000D01*
X488315000Y-194310000D02*
X497205000Y-194310000D01*
X480695000Y-200660000D02*
X487045000Y-200660000D01*
X487045000Y-199390000D02*
X488315000Y-200660000D01*
X487045000Y-196850000D02*
X488315000Y-198120000D01*
X480695000Y-195580000D02*
X487045000Y-195580000D01*
D32*
X478155000Y-190500000D02*
X498475000Y-190500000D01*
D31*
X488315000Y-198120000D02*
X495935000Y-198120000D01*
X480695000Y-213360000D02*
X487045000Y-213360000D01*
X479425000Y-199390000D02*
X487045000Y-199390000D01*
X488315000Y-193040000D02*
X495935000Y-193040000D01*
X488315000Y-200660000D02*
X495935000Y-200660000D01*
X479425000Y-196850000D02*
X487045000Y-196850000D01*
X480695000Y-193040000D02*
X487045000Y-193040000D01*
X487045000Y-198120000D02*
X488315000Y-199390000D01*
X487045000Y-200660000D02*
X488315000Y-201930000D01*
X497205000Y-199390000D02*
X498475000Y-198120000D01*
X488315000Y-199390000D02*
X497205000Y-199390000D01*
X478155000Y-198120000D02*
X479425000Y-196850000D01*
X480695000Y-223520000D02*
X487045000Y-223520000D01*
X487045000Y-193040000D02*
X488315000Y-194310000D01*
X478155000Y-193040000D02*
X479425000Y-191770000D01*
X480695000Y-198120000D02*
X487045000Y-198120000D01*
X479425000Y-194310000D02*
X487045000Y-194310000D01*
X497205000Y-194310000D02*
X498475000Y-193040000D01*
X487045000Y-195580000D02*
X488315000Y-196850000D01*
X487045000Y-191770000D02*
X488315000Y-193040000D01*
X479425000Y-191770000D02*
X487045000Y-191770000D01*
X478155000Y-195580000D02*
X479425000Y-194310000D01*
X478155000Y-200660000D02*
X479425000Y-199390000D01*
X488315000Y-223520000D02*
X495935000Y-223520000D01*
X487045000Y-222250000D02*
X488315000Y-223520000D01*
X479425000Y-222250000D02*
X487045000Y-222250000D01*
X497205000Y-224790000D02*
X498475000Y-223520000D01*
X478155000Y-223520000D02*
X479425000Y-222250000D01*
X488315000Y-224790000D02*
X497205000Y-224790000D01*
X487045000Y-223520000D02*
X488315000Y-224790000D01*
X497205000Y-214630000D02*
X498475000Y-213360000D01*
X488315000Y-214630000D02*
X497205000Y-214630000D01*
X487045000Y-213360000D02*
X488315000Y-214630000D01*
X488315000Y-213360000D02*
X495935000Y-213360000D01*
X487045000Y-212090000D02*
X488315000Y-213360000D01*
X479425000Y-212090000D02*
X487045000Y-212090000D01*
X478155000Y-213360000D02*
X479425000Y-212090000D01*
X497205000Y-212090000D02*
X498475000Y-210820000D01*
X488315000Y-212090000D02*
X497205000Y-212090000D01*
X487045000Y-210820000D02*
X488315000Y-212090000D01*
X488315000Y-210820000D02*
X495935000Y-210820000D01*
X487045000Y-209550000D02*
X488315000Y-210820000D01*
X479425000Y-209550000D02*
X487045000Y-209550000D01*
X497205000Y-209550000D02*
X498475000Y-208280000D01*
X478155000Y-210820000D02*
X479425000Y-209550000D01*
X480695000Y-210820000D02*
X487045000Y-210820000D01*
X487045000Y-208280000D02*
X488315000Y-209550000D01*
X488315000Y-208280000D02*
X495935000Y-208280000D01*
X480695000Y-208280000D02*
X487045000Y-208280000D01*
X487045000Y-207010000D02*
X488315000Y-208280000D01*
X479425000Y-207010000D02*
X487045000Y-207010000D01*
X478155000Y-208280000D02*
X479425000Y-207010000D01*
X488315000Y-205740000D02*
X495935000Y-205740000D01*
X487045000Y-204470000D02*
X488315000Y-205740000D01*
X479425000Y-204470000D02*
X487045000Y-204470000D01*
X487045000Y-205740000D02*
X488315000Y-207010000D01*
X478155000Y-205740000D02*
X479425000Y-204470000D01*
X488315000Y-207010000D02*
X497205000Y-207010000D01*
X497205000Y-207010000D02*
X498475000Y-205740000D01*
X480695000Y-205740000D02*
X487045000Y-205740000D01*
X488315000Y-209550000D02*
X497205000Y-209550000D01*
D32*
X478155000Y-203200000D02*
X498475000Y-203200000D01*
D31*
X479425000Y-227330000D02*
X487045000Y-227330000D01*
X478155000Y-228600000D02*
X479425000Y-227330000D01*
X488315000Y-229870000D02*
X497205000Y-229870000D01*
D32*
X478155000Y-226060000D02*
X498475000Y-226060000D01*
D31*
X488315000Y-218440000D02*
X495935000Y-218440000D01*
X487045000Y-217170000D02*
X488315000Y-218440000D01*
X479425000Y-217170000D02*
X487045000Y-217170000D01*
X478155000Y-218440000D02*
X479425000Y-217170000D01*
X488315000Y-219710000D02*
X497205000Y-219710000D01*
X497205000Y-219710000D02*
X498475000Y-218440000D01*
X487045000Y-218440000D02*
X488315000Y-219710000D01*
X480695000Y-218440000D02*
X487045000Y-218440000D01*
X497205000Y-217170000D02*
X498475000Y-215900000D01*
X487045000Y-215900000D02*
X488315000Y-217170000D01*
X480695000Y-215900000D02*
X487045000Y-215900000D01*
X488315000Y-215900000D02*
X495935000Y-215900000D01*
X451485000Y-231140000D02*
X452755000Y-232410000D01*
X461645000Y-232410000D02*
X462915000Y-231140000D01*
X445135000Y-231140000D02*
X451485000Y-231140000D01*
X452755000Y-232410000D02*
X461645000Y-232410000D01*
X452755000Y-233680000D02*
X460375000Y-233680000D01*
X451485000Y-233680000D02*
X452755000Y-234950000D01*
X451485000Y-232410000D02*
X452755000Y-233680000D01*
X461645000Y-234950000D02*
X462915000Y-233680000D01*
X445135000Y-233680000D02*
X451485000Y-233680000D01*
X443865000Y-232410000D02*
X451485000Y-232410000D01*
X442595000Y-233680000D02*
X443865000Y-232410000D01*
X452755000Y-234950000D02*
X461645000Y-234950000D01*
X452755000Y-236220000D02*
X460375000Y-236220000D01*
X451485000Y-236220000D02*
X452755000Y-237490000D01*
X451485000Y-234950000D02*
X452755000Y-236220000D01*
X461645000Y-237490000D02*
X462915000Y-236220000D01*
X445135000Y-236220000D02*
X451485000Y-236220000D01*
X443865000Y-234950000D02*
X451485000Y-234950000D01*
X442595000Y-236220000D02*
X443865000Y-234950000D01*
X452755000Y-237490000D02*
X461645000Y-237490000D01*
X452755000Y-238760000D02*
X460375000Y-238760000D01*
X451485000Y-238760000D02*
X452755000Y-240030000D01*
X451485000Y-237490000D02*
X452755000Y-238760000D01*
X461645000Y-240030000D02*
X462915000Y-238760000D01*
X445135000Y-238760000D02*
X451485000Y-238760000D01*
X443865000Y-237490000D02*
X451485000Y-237490000D01*
X442595000Y-238760000D02*
X443865000Y-237490000D01*
X452755000Y-240030000D02*
X461645000Y-240030000D01*
X478155000Y-238760000D02*
X479425000Y-237490000D01*
X487045000Y-233680000D02*
X488315000Y-234950000D01*
X487045000Y-238760000D02*
X488315000Y-240030000D01*
X479425000Y-232410000D02*
X487045000Y-232410000D01*
X488315000Y-240030000D02*
X497205000Y-240030000D01*
X488315000Y-238760000D02*
X495935000Y-238760000D01*
X479425000Y-234950000D02*
X487045000Y-234950000D01*
X480695000Y-233680000D02*
X487045000Y-233680000D01*
X478155000Y-236220000D02*
X479425000Y-234950000D01*
X487045000Y-231140000D02*
X488315000Y-232410000D01*
X488315000Y-234950000D02*
X497205000Y-234950000D01*
X497205000Y-237490000D02*
X498475000Y-236220000D01*
X487045000Y-232410000D02*
X488315000Y-233680000D01*
X487045000Y-234950000D02*
X488315000Y-236220000D01*
X488315000Y-236220000D02*
X495935000Y-236220000D01*
X480695000Y-236220000D02*
X487045000Y-236220000D01*
X488315000Y-233680000D02*
X495935000Y-233680000D01*
X478155000Y-233680000D02*
X479425000Y-232410000D01*
X488315000Y-237490000D02*
X497205000Y-237490000D01*
X497205000Y-240030000D02*
X498475000Y-238760000D01*
X479425000Y-237490000D02*
X487045000Y-237490000D01*
X487045000Y-237490000D02*
X488315000Y-238760000D01*
X497205000Y-232410000D02*
X498475000Y-231140000D01*
X497205000Y-234950000D02*
X498475000Y-233680000D01*
X480695000Y-231140000D02*
X487045000Y-231140000D01*
X487045000Y-236220000D02*
X488315000Y-237490000D01*
X480695000Y-238760000D02*
X487045000Y-238760000D01*
X488315000Y-232410000D02*
X497205000Y-232410000D01*
D32*
X396240000Y-218440000D02*
X402590000Y-218440000D01*
D31*
X429260000Y-193040000D02*
X442595000Y-193040000D01*
X426720000Y-195580000D02*
X429260000Y-193040000D01*
X430530000Y-194310000D02*
X440690000Y-194310000D01*
X426720000Y-198120000D02*
X430530000Y-194310000D01*
X431800000Y-195580000D02*
X442595000Y-195580000D01*
X426720000Y-200660000D02*
X431800000Y-195580000D01*
X433070000Y-196850000D02*
X440690000Y-196850000D01*
X426720000Y-203200000D02*
X433070000Y-196850000D01*
X434340000Y-198120000D02*
X442595000Y-198120000D01*
X426720000Y-205740000D02*
X434340000Y-198120000D01*
X435610000Y-199390000D02*
X440690000Y-199390000D01*
X426720000Y-208280000D02*
X435610000Y-199390000D01*
X436880000Y-200660000D02*
X442595000Y-200660000D01*
X426720000Y-210820000D02*
X436880000Y-200660000D01*
X443865000Y-201930000D02*
X445135000Y-200660000D01*
X438150000Y-201930000D02*
X443865000Y-201930000D01*
X426720000Y-213360000D02*
X438150000Y-201930000D01*
X407035000Y-210820000D02*
X410210000Y-210820000D01*
X410210000Y-210820000D02*
X411480000Y-212090000D01*
X411480000Y-212090000D02*
X416560000Y-212090000D01*
X416560000Y-212090000D02*
X417830000Y-210820000D01*
X417830000Y-210820000D02*
X419100000Y-210820000D01*
X444500000Y-271780000D02*
X449580000Y-271780000D01*
X474980000Y-281940000D02*
X476250000Y-283210000D01*
X449580000Y-262890000D02*
X450850000Y-264160000D01*
X487680000Y-265430000D02*
X488950000Y-266700000D01*
X487680000Y-262890000D02*
X488950000Y-264160000D01*
X500380000Y-273050000D02*
X501650000Y-274320000D01*
X514350000Y-270510000D02*
X516890000Y-270510000D01*
X496570000Y-257810000D02*
X500380000Y-257810000D01*
X506730000Y-280670000D02*
X508000000Y-279400000D01*
X508000000Y-274320000D02*
X513080000Y-274320000D01*
X508000000Y-288290000D02*
X509270000Y-288290000D01*
X506730000Y-271780000D02*
X508000000Y-270510000D01*
X506730000Y-289560000D02*
X508000000Y-288290000D01*
X508000000Y-289560000D02*
X513080000Y-289560000D01*
X496570000Y-273050000D02*
X500380000Y-273050000D01*
X500380000Y-283210000D02*
X501650000Y-284480000D01*
X506730000Y-287020000D02*
X508000000Y-285750000D01*
X496570000Y-267970000D02*
X500380000Y-267970000D01*
X508000000Y-278130000D02*
X509270000Y-278130000D01*
X500380000Y-270510000D02*
X501650000Y-271780000D01*
X500380000Y-275590000D02*
X501650000Y-276860000D01*
X513080000Y-266700000D02*
X514350000Y-267970000D01*
X508000000Y-287020000D02*
X513080000Y-287020000D01*
X500380000Y-285750000D02*
X501650000Y-287020000D01*
X501650000Y-274320000D02*
X506730000Y-274320000D01*
X506730000Y-267970000D02*
X508000000Y-266700000D01*
X496570000Y-262890000D02*
X500380000Y-262890000D01*
X501650000Y-271780000D02*
X506730000Y-271780000D01*
X514350000Y-267970000D02*
X516890000Y-267970000D01*
X504190000Y-267970000D02*
X506730000Y-267970000D01*
X506730000Y-281940000D02*
X508000000Y-280670000D01*
X501650000Y-269240000D02*
X506730000Y-269240000D01*
X504190000Y-275590000D02*
X506730000Y-275590000D01*
X496570000Y-285750000D02*
X500380000Y-285750000D01*
X514350000Y-265430000D02*
X516890000Y-265430000D01*
X514350000Y-283210000D02*
X516890000Y-283210000D01*
X506730000Y-276860000D02*
X508000000Y-275590000D01*
X514350000Y-288290000D02*
X516890000Y-288290000D01*
X513080000Y-284480000D02*
X514350000Y-285750000D01*
X496570000Y-283210000D02*
X500380000Y-283210000D01*
X513080000Y-264160000D02*
X514350000Y-265430000D01*
X504190000Y-288290000D02*
X506730000Y-288290000D01*
X514350000Y-285750000D02*
X516890000Y-285750000D01*
X496570000Y-280670000D02*
X500380000Y-280670000D01*
X504190000Y-270510000D02*
X506730000Y-270510000D01*
X504190000Y-290830000D02*
X506730000Y-290830000D01*
X508000000Y-280670000D02*
X509270000Y-280670000D01*
X514350000Y-273050000D02*
X516890000Y-273050000D01*
X504190000Y-273050000D02*
X506730000Y-273050000D01*
X513080000Y-274320000D02*
X514350000Y-275590000D01*
X514350000Y-290830000D02*
X516890000Y-290830000D01*
X514350000Y-275590000D02*
X516890000Y-275590000D01*
X501650000Y-289560000D02*
X506730000Y-289560000D01*
X500380000Y-267970000D02*
X501650000Y-269240000D01*
X513080000Y-271780000D02*
X514350000Y-273050000D01*
X501650000Y-284480000D02*
X506730000Y-284480000D01*
X500380000Y-257810000D02*
X501650000Y-259080000D01*
X500380000Y-280670000D02*
X501650000Y-281940000D01*
X501650000Y-259080000D02*
X506730000Y-259080000D01*
X508000000Y-257810000D02*
X509270000Y-257810000D01*
X506730000Y-259080000D02*
X508000000Y-257810000D01*
X501650000Y-261620000D02*
X506730000Y-261620000D01*
X500380000Y-260350000D02*
X501650000Y-261620000D01*
X506730000Y-261620000D02*
X508000000Y-260350000D01*
X504190000Y-260350000D02*
X506730000Y-260350000D01*
X504190000Y-283210000D02*
X506730000Y-283210000D01*
X508000000Y-260350000D02*
X509270000Y-260350000D01*
X506730000Y-260350000D02*
X508000000Y-259080000D01*
X508000000Y-259080000D02*
X511175000Y-259080000D01*
X500380000Y-265430000D02*
X501650000Y-266700000D01*
X513080000Y-259080000D02*
X514350000Y-260350000D01*
X500380000Y-262890000D02*
X501650000Y-264160000D01*
X514350000Y-260350000D02*
X516890000Y-260350000D01*
X504190000Y-262890000D02*
X506730000Y-262890000D01*
X513080000Y-269240000D02*
X514350000Y-270510000D01*
X501650000Y-264160000D02*
X506730000Y-264160000D01*
X508000000Y-262890000D02*
X509270000Y-262890000D01*
X506730000Y-264160000D02*
X508000000Y-262890000D01*
X514350000Y-262890000D02*
X516890000Y-262890000D01*
X496570000Y-265430000D02*
X500380000Y-265430000D01*
X508000000Y-261620000D02*
X513080000Y-261620000D01*
X513080000Y-261620000D02*
X514350000Y-262890000D01*
X504190000Y-265430000D02*
X506730000Y-265430000D01*
X501650000Y-266700000D02*
X506730000Y-266700000D01*
X506730000Y-262890000D02*
X508000000Y-261620000D01*
X508000000Y-265430000D02*
X509270000Y-265430000D01*
X449580000Y-289560000D02*
X450850000Y-290830000D01*
X440690000Y-267970000D02*
X443230000Y-267970000D01*
X476250000Y-262890000D02*
X478790000Y-262890000D01*
X462280000Y-289560000D02*
X463550000Y-290830000D01*
X468630000Y-267970000D02*
X469900000Y-266700000D01*
X449580000Y-267970000D02*
X450850000Y-269240000D01*
X453390000Y-265430000D02*
X455930000Y-265430000D01*
X438150000Y-287020000D02*
X443230000Y-287020000D01*
X444500000Y-270510000D02*
X445770000Y-270510000D01*
X457200000Y-271780000D02*
X462280000Y-271780000D01*
X458470000Y-257810000D02*
X462280000Y-257810000D01*
X462280000Y-275590000D02*
X463550000Y-276860000D01*
X462280000Y-267970000D02*
X463550000Y-269240000D01*
X455930000Y-275590000D02*
X457200000Y-274320000D01*
X436880000Y-260350000D02*
X438150000Y-261620000D01*
X457200000Y-281940000D02*
X462280000Y-281940000D01*
X453390000Y-280670000D02*
X455930000Y-280670000D01*
X458470000Y-280670000D02*
X462280000Y-280670000D01*
X463550000Y-267970000D02*
X466090000Y-267970000D01*
X444500000Y-257810000D02*
X445770000Y-257810000D01*
X450850000Y-270510000D02*
X453390000Y-270510000D01*
X443230000Y-274320000D02*
X444500000Y-273050000D01*
X466090000Y-270510000D02*
X468630000Y-270510000D01*
X450850000Y-269240000D02*
X455930000Y-269240000D01*
X449580000Y-281940000D02*
X450850000Y-283210000D01*
X457200000Y-284480000D02*
X462280000Y-284480000D01*
X463550000Y-273050000D02*
X466090000Y-273050000D01*
X449580000Y-260350000D02*
X450850000Y-261620000D01*
X476250000Y-264160000D02*
X481330000Y-264160000D01*
X463550000Y-271780000D02*
X468630000Y-271780000D01*
X433070000Y-257810000D02*
X436880000Y-257810000D01*
X455930000Y-266700000D02*
X457200000Y-265430000D01*
X466090000Y-288290000D02*
X468630000Y-288290000D01*
X468630000Y-287020000D02*
X469900000Y-285750000D01*
X444500000Y-266700000D02*
X449580000Y-266700000D01*
X431800000Y-264160000D02*
X436880000Y-264160000D01*
X455930000Y-285750000D02*
X457200000Y-284480000D01*
X436880000Y-280670000D02*
X438150000Y-281940000D01*
X443230000Y-265430000D02*
X444500000Y-264160000D01*
X468630000Y-259080000D02*
X469900000Y-257810000D01*
X463550000Y-287020000D02*
X468630000Y-287020000D01*
X487680000Y-261620000D02*
X488950000Y-262890000D01*
X450850000Y-259080000D02*
X455930000Y-259080000D01*
X453390000Y-273050000D02*
X455930000Y-273050000D01*
X462280000Y-261620000D02*
X463550000Y-262890000D01*
X462280000Y-283210000D02*
X463550000Y-284480000D01*
X469900000Y-284480000D02*
X474980000Y-284480000D01*
X468630000Y-264160000D02*
X469900000Y-262890000D01*
X440690000Y-290830000D02*
X443230000Y-290830000D01*
X443230000Y-284480000D02*
X444500000Y-283210000D01*
X469900000Y-259080000D02*
X474980000Y-259080000D01*
X450850000Y-261620000D02*
X455930000Y-261620000D01*
X433070000Y-275590000D02*
X436880000Y-275590000D01*
X445770000Y-260350000D02*
X448310000Y-260350000D01*
X476250000Y-288290000D02*
X478790000Y-288290000D01*
X445770000Y-265430000D02*
X449580000Y-265430000D01*
X506730000Y-266700000D02*
X508000000Y-265430000D01*
X483870000Y-260350000D02*
X486410000Y-260350000D01*
X486410000Y-260350000D02*
X487680000Y-260350000D01*
X500380000Y-281940000D02*
X501650000Y-283210000D01*
X494030000Y-269240000D02*
X495300000Y-267970000D01*
X495300000Y-264160000D02*
X500380000Y-264160000D01*
X487680000Y-278130000D02*
X488950000Y-279400000D01*
X488950000Y-281940000D02*
X494030000Y-281940000D01*
X494030000Y-279400000D02*
X495300000Y-278130000D01*
X495300000Y-267970000D02*
X496570000Y-267970000D01*
X487680000Y-288290000D02*
X488950000Y-289560000D01*
X494030000Y-270510000D02*
X495300000Y-269240000D01*
X483870000Y-270510000D02*
X487680000Y-270510000D01*
X495300000Y-273050000D02*
X496570000Y-273050000D01*
X500380000Y-279400000D02*
X501650000Y-280670000D01*
X494030000Y-265430000D02*
X495300000Y-264160000D01*
X491490000Y-280670000D02*
X494030000Y-280670000D01*
X495300000Y-283210000D02*
X496570000Y-283210000D01*
X483870000Y-275590000D02*
X487680000Y-275590000D01*
X494030000Y-274320000D02*
X495300000Y-273050000D01*
X494030000Y-283210000D02*
X495300000Y-281940000D01*
X495300000Y-275590000D02*
X496570000Y-275590000D01*
X495300000Y-269240000D02*
X500380000Y-269240000D01*
X494030000Y-285750000D02*
X495300000Y-284480000D01*
X495300000Y-279400000D02*
X500380000Y-279400000D01*
X494030000Y-290830000D02*
X495300000Y-289560000D01*
X488950000Y-287020000D02*
X494030000Y-287020000D01*
X483870000Y-278130000D02*
X487680000Y-278130000D01*
X491490000Y-285750000D02*
X494030000Y-285750000D01*
X495300000Y-281940000D02*
X500380000Y-281940000D01*
X501650000Y-280670000D02*
X504190000Y-280670000D01*
X494030000Y-275590000D02*
X495300000Y-274320000D01*
X495300000Y-266700000D02*
X500380000Y-266700000D01*
X495300000Y-284480000D02*
X500380000Y-284480000D01*
X488950000Y-279400000D02*
X494030000Y-279400000D01*
X494030000Y-273050000D02*
X495300000Y-271780000D01*
X494030000Y-288290000D02*
X495300000Y-287020000D01*
X495300000Y-270510000D02*
X496570000Y-270510000D01*
X500380000Y-289560000D02*
X501650000Y-290830000D01*
X483870000Y-288290000D02*
X487680000Y-288290000D01*
X495300000Y-285750000D02*
X496570000Y-285750000D01*
X488950000Y-276860000D02*
X494030000Y-276860000D01*
X500380000Y-287020000D02*
X501650000Y-288290000D01*
X494030000Y-284480000D02*
X495300000Y-283210000D01*
X495300000Y-271780000D02*
X500380000Y-271780000D01*
X494030000Y-271780000D02*
X495300000Y-270510000D01*
X495300000Y-274320000D02*
X500380000Y-274320000D01*
X483870000Y-257810000D02*
X487680000Y-257810000D01*
X494030000Y-287020000D02*
X495300000Y-285750000D01*
X487680000Y-273050000D02*
X488950000Y-274320000D01*
X495300000Y-288290000D02*
X496570000Y-288290000D01*
X494030000Y-289560000D02*
X495300000Y-288290000D01*
X500380000Y-266700000D02*
X501650000Y-267970000D01*
X495300000Y-289560000D02*
X500380000Y-289560000D01*
X483870000Y-273050000D02*
X487680000Y-273050000D01*
X487680000Y-283210000D02*
X488950000Y-284480000D01*
X494030000Y-280670000D02*
X495300000Y-279400000D01*
X501650000Y-270510000D02*
X504190000Y-270510000D01*
X495300000Y-287020000D02*
X500380000Y-287020000D01*
X487680000Y-275590000D02*
X488950000Y-276860000D01*
X483870000Y-267970000D02*
X487680000Y-267970000D01*
X487680000Y-270510000D02*
X488950000Y-271780000D01*
X495300000Y-278130000D02*
X496570000Y-278130000D01*
X457200000Y-267970000D02*
X458470000Y-267970000D01*
X462280000Y-287020000D02*
X463550000Y-288290000D01*
X450850000Y-260350000D02*
X453390000Y-260350000D01*
X474980000Y-274320000D02*
X476250000Y-275590000D01*
X495300000Y-257810000D02*
X496570000Y-257810000D01*
X494030000Y-281940000D02*
X495300000Y-280670000D01*
X478790000Y-267970000D02*
X481330000Y-267970000D01*
X481330000Y-269240000D02*
X482600000Y-267970000D01*
X481330000Y-273050000D02*
X482600000Y-271780000D01*
X481330000Y-267970000D02*
X482600000Y-266700000D01*
X500380000Y-264160000D02*
X501650000Y-265430000D01*
X495300000Y-280670000D02*
X496570000Y-280670000D01*
X500380000Y-284480000D02*
X501650000Y-285750000D01*
X488950000Y-265430000D02*
X491490000Y-265430000D01*
X500380000Y-274320000D02*
X501650000Y-275590000D01*
X478790000Y-290830000D02*
X481330000Y-290830000D01*
X482600000Y-260350000D02*
X483870000Y-260350000D01*
X488950000Y-273050000D02*
X491490000Y-273050000D01*
X488950000Y-285750000D02*
X491490000Y-285750000D01*
X476250000Y-271780000D02*
X481330000Y-271780000D01*
X471170000Y-273050000D02*
X474980000Y-273050000D01*
X482600000Y-266700000D02*
X487680000Y-266700000D01*
X500380000Y-269240000D02*
X501650000Y-270510000D01*
X457200000Y-274320000D02*
X462280000Y-274320000D01*
X476250000Y-290830000D02*
X478790000Y-290830000D01*
X450850000Y-273050000D02*
X453390000Y-273050000D01*
X438150000Y-284480000D02*
X443230000Y-284480000D01*
X457200000Y-287020000D02*
X462280000Y-287020000D01*
X444500000Y-265430000D02*
X445770000Y-265430000D01*
X436880000Y-265430000D02*
X438150000Y-266700000D01*
X445770000Y-262890000D02*
X449580000Y-262890000D01*
X443230000Y-275590000D02*
X444500000Y-274320000D01*
X488950000Y-260350000D02*
X491490000Y-260350000D01*
X462280000Y-265430000D02*
X463550000Y-266700000D01*
X458470000Y-270510000D02*
X462280000Y-270510000D01*
X450850000Y-275590000D02*
X453390000Y-275590000D01*
X445770000Y-288290000D02*
X449580000Y-288290000D01*
X474980000Y-284480000D02*
X476250000Y-285750000D01*
X468630000Y-271780000D02*
X469900000Y-270510000D01*
X463550000Y-259080000D02*
X468630000Y-259080000D01*
X458470000Y-265430000D02*
X462280000Y-265430000D01*
X468630000Y-283210000D02*
X469900000Y-281940000D01*
X463550000Y-269240000D02*
X468630000Y-269240000D01*
X445770000Y-278130000D02*
X449580000Y-278130000D01*
X462280000Y-269240000D02*
X463550000Y-270510000D01*
X458470000Y-260350000D02*
X461010000Y-260350000D01*
X436880000Y-267970000D02*
X438150000Y-269240000D01*
X445770000Y-285750000D02*
X449580000Y-285750000D01*
X466090000Y-273050000D02*
X468630000Y-273050000D01*
X463550000Y-274320000D02*
X468630000Y-274320000D01*
X450850000Y-274320000D02*
X455930000Y-274320000D01*
X476250000Y-269240000D02*
X481330000Y-269240000D01*
X482600000Y-257810000D02*
X483870000Y-257810000D01*
X482600000Y-278130000D02*
X483870000Y-278130000D01*
X491490000Y-273050000D02*
X494030000Y-273050000D01*
X501650000Y-267970000D02*
X504190000Y-267970000D01*
X482600000Y-283210000D02*
X483870000Y-283210000D01*
X487680000Y-287020000D02*
X488950000Y-288290000D01*
X476250000Y-276860000D02*
X481330000Y-276860000D01*
X478790000Y-270510000D02*
X481330000Y-270510000D01*
X488950000Y-270510000D02*
X491490000Y-270510000D01*
X494030000Y-266700000D02*
X495300000Y-265430000D01*
X474980000Y-285750000D02*
X476250000Y-287020000D01*
X488950000Y-261620000D02*
X494030000Y-261620000D01*
X483870000Y-285750000D02*
X487680000Y-285750000D01*
X471170000Y-260350000D02*
X473710000Y-260350000D01*
X501650000Y-285750000D02*
X504190000Y-285750000D01*
X481330000Y-261620000D02*
X482600000Y-260350000D01*
X494030000Y-260350000D02*
X495300000Y-259080000D01*
X487680000Y-267970000D02*
X488950000Y-269240000D01*
X474980000Y-270510000D02*
X476250000Y-271780000D01*
X471170000Y-270510000D02*
X474980000Y-270510000D01*
X481330000Y-270510000D02*
X482600000Y-269240000D01*
X482600000Y-287020000D02*
X487680000Y-287020000D01*
X488950000Y-280670000D02*
X491490000Y-280670000D01*
X481330000Y-279400000D02*
X482600000Y-278130000D01*
X478790000Y-283210000D02*
X481330000Y-283210000D01*
X481330000Y-260350000D02*
X482600000Y-259080000D01*
X491490000Y-290830000D02*
X494030000Y-290830000D01*
X483870000Y-283210000D02*
X487680000Y-283210000D01*
X478790000Y-288290000D02*
X481330000Y-288290000D01*
X481330000Y-274320000D02*
X482600000Y-273050000D01*
X471170000Y-283210000D02*
X474980000Y-283210000D01*
X481330000Y-265430000D02*
X482600000Y-264160000D01*
X501650000Y-288290000D02*
X504190000Y-288290000D01*
X482600000Y-289560000D02*
X487680000Y-289560000D01*
X481330000Y-280670000D02*
X482600000Y-279400000D01*
X487680000Y-257810000D02*
X488950000Y-259080000D01*
X494030000Y-261620000D02*
X495300000Y-260350000D01*
X482600000Y-273050000D02*
X483870000Y-273050000D01*
X476250000Y-274320000D02*
X481330000Y-274320000D01*
X501650000Y-283210000D02*
X504190000Y-283210000D01*
X471170000Y-267970000D02*
X474980000Y-267970000D01*
X471170000Y-285750000D02*
X474980000Y-285750000D01*
X501650000Y-265430000D02*
X504190000Y-265430000D01*
X494030000Y-264160000D02*
X495300000Y-262890000D01*
X474980000Y-273050000D02*
X476250000Y-274320000D01*
X481330000Y-289560000D02*
X482600000Y-288290000D01*
X481330000Y-259080000D02*
X482600000Y-257810000D01*
X495300000Y-262890000D02*
X496570000Y-262890000D01*
X474980000Y-257810000D02*
X476250000Y-259080000D01*
X494030000Y-259080000D02*
X495300000Y-257810000D01*
X471170000Y-262890000D02*
X474980000Y-262890000D01*
X487680000Y-274320000D02*
X488950000Y-275590000D01*
X491490000Y-283210000D02*
X494030000Y-283210000D01*
X482600000Y-271780000D02*
X487680000Y-271780000D01*
X495300000Y-259080000D02*
X500380000Y-259080000D01*
X491490000Y-275590000D02*
X494030000Y-275590000D01*
X488950000Y-284480000D02*
X494030000Y-284480000D01*
X478790000Y-275590000D02*
X481330000Y-275590000D01*
X482600000Y-275590000D02*
X483870000Y-275590000D01*
X466090000Y-265430000D02*
X468630000Y-265430000D01*
X455930000Y-289560000D02*
X457200000Y-288290000D01*
X449580000Y-265430000D02*
X450850000Y-266700000D01*
X474980000Y-269240000D02*
X476250000Y-270510000D01*
X469900000Y-281940000D02*
X474980000Y-281940000D01*
X453390000Y-267970000D02*
X455930000Y-267970000D01*
X469900000Y-289560000D02*
X474980000Y-289560000D01*
X450850000Y-266700000D02*
X455930000Y-266700000D01*
X455930000Y-260350000D02*
X457200000Y-259080000D01*
X455930000Y-284480000D02*
X457200000Y-283210000D01*
X457200000Y-269240000D02*
X462280000Y-269240000D01*
X450850000Y-280670000D02*
X453390000Y-280670000D01*
X455930000Y-262890000D02*
X457200000Y-261620000D01*
X443230000Y-271780000D02*
X444500000Y-270510000D01*
X458470000Y-273050000D02*
X462280000Y-273050000D01*
X424180000Y-288290000D02*
X425450000Y-289560000D01*
X453390000Y-285750000D02*
X455930000Y-285750000D01*
X444500000Y-287020000D02*
X449580000Y-287020000D01*
X440690000Y-260350000D02*
X443230000Y-260350000D01*
X440690000Y-262890000D02*
X443230000Y-262890000D01*
X474980000Y-279400000D02*
X476250000Y-280670000D01*
X436880000Y-257810000D02*
X438150000Y-259080000D01*
X457200000Y-279400000D02*
X462280000Y-279400000D01*
X438150000Y-274320000D02*
X443230000Y-274320000D01*
X462280000Y-274320000D02*
X463550000Y-275590000D01*
X445770000Y-273050000D02*
X449580000Y-273050000D01*
X433070000Y-283210000D02*
X436880000Y-283210000D01*
X462280000Y-288290000D02*
X463550000Y-289560000D01*
X440690000Y-288290000D02*
X443230000Y-288290000D01*
X438150000Y-276860000D02*
X443230000Y-276860000D01*
X458470000Y-262890000D02*
X462280000Y-262890000D01*
X444500000Y-285750000D02*
X445770000Y-285750000D01*
X450850000Y-290830000D02*
X453390000Y-290830000D01*
X449580000Y-275590000D02*
X450850000Y-276860000D01*
X476250000Y-280670000D02*
X478790000Y-280670000D01*
X433070000Y-278130000D02*
X436880000Y-278130000D01*
X443230000Y-269240000D02*
X444500000Y-267970000D01*
X469900000Y-285750000D02*
X471170000Y-285750000D01*
X444500000Y-289560000D02*
X449580000Y-289560000D01*
X443230000Y-279400000D02*
X444500000Y-278130000D01*
X430530000Y-270510000D02*
X431800000Y-269240000D01*
X469900000Y-264160000D02*
X474980000Y-264160000D01*
X466090000Y-283210000D02*
X468630000Y-283210000D01*
X474980000Y-265430000D02*
X476250000Y-266700000D01*
X449580000Y-279400000D02*
X450850000Y-280670000D01*
X476250000Y-265430000D02*
X478790000Y-265430000D01*
X463550000Y-283210000D02*
X466090000Y-283210000D01*
X471170000Y-265430000D02*
X474980000Y-265430000D01*
X449580000Y-257810000D02*
X450850000Y-259080000D01*
X469900000Y-280670000D02*
X471170000Y-280670000D01*
X468630000Y-279400000D02*
X469900000Y-278130000D01*
X444500000Y-288290000D02*
X445770000Y-288290000D01*
X457200000Y-262890000D02*
X458470000Y-262890000D01*
X468630000Y-260350000D02*
X469900000Y-259080000D01*
X469900000Y-265430000D02*
X471170000Y-265430000D01*
X431800000Y-267970000D02*
X433070000Y-267970000D01*
X463550000Y-261620000D02*
X468630000Y-261620000D01*
X453390000Y-270510000D02*
X455930000Y-270510000D01*
X450850000Y-267970000D02*
X453390000Y-267970000D01*
X455930000Y-274320000D02*
X457200000Y-273050000D01*
X466090000Y-260350000D02*
X468630000Y-260350000D01*
X436880000Y-273050000D02*
X438150000Y-274320000D01*
X449580000Y-273050000D02*
X450850000Y-274320000D01*
X444500000Y-278130000D02*
X445770000Y-278130000D01*
X457200000Y-266700000D02*
X462280000Y-266700000D01*
X458470000Y-288290000D02*
X462280000Y-288290000D01*
X466090000Y-267970000D02*
X468630000Y-267970000D01*
X474980000Y-289560000D02*
X476250000Y-290830000D01*
X444500000Y-275590000D02*
X445770000Y-275590000D01*
X444500000Y-262890000D02*
X445770000Y-262890000D01*
X455930000Y-259080000D02*
X457200000Y-257810000D01*
X433070000Y-270510000D02*
X436880000Y-270510000D01*
X444500000Y-261620000D02*
X449580000Y-261620000D01*
X450850000Y-276860000D02*
X455930000Y-276860000D01*
X474980000Y-278130000D02*
X476250000Y-279400000D01*
X476250000Y-289560000D02*
X481330000Y-289560000D01*
X471170000Y-257810000D02*
X474980000Y-257810000D01*
X476250000Y-287020000D02*
X481330000Y-287020000D01*
X478790000Y-260350000D02*
X481330000Y-260350000D01*
X482600000Y-284480000D02*
X487680000Y-284480000D01*
X474980000Y-288290000D02*
X476250000Y-289560000D01*
X478790000Y-280670000D02*
X481330000Y-280670000D01*
X471170000Y-280670000D02*
X474980000Y-280670000D01*
X478790000Y-273050000D02*
X481330000Y-273050000D01*
X491490000Y-265430000D02*
X494030000Y-265430000D01*
X476250000Y-284480000D02*
X481330000Y-284480000D01*
X487680000Y-266700000D02*
X488950000Y-267970000D01*
X488950000Y-259080000D02*
X494030000Y-259080000D01*
X487680000Y-279400000D02*
X488950000Y-280670000D01*
X488950000Y-266700000D02*
X494030000Y-266700000D01*
X488950000Y-290830000D02*
X491490000Y-290830000D01*
X478790000Y-285750000D02*
X481330000Y-285750000D01*
X482600000Y-270510000D02*
X483870000Y-270510000D01*
X481330000Y-271780000D02*
X482600000Y-270510000D01*
X482600000Y-267970000D02*
X483870000Y-267970000D01*
X487680000Y-284480000D02*
X488950000Y-285750000D01*
X494030000Y-276860000D02*
X495300000Y-275590000D01*
X471170000Y-288290000D02*
X474980000Y-288290000D01*
X488950000Y-289560000D02*
X494030000Y-289560000D01*
X487680000Y-264160000D02*
X488950000Y-265430000D01*
X481330000Y-285750000D02*
X482600000Y-284480000D01*
X482600000Y-274320000D02*
X487680000Y-274320000D01*
X481330000Y-288290000D02*
X482600000Y-287020000D01*
X501650000Y-260350000D02*
X504190000Y-260350000D01*
X481330000Y-290830000D02*
X482600000Y-289560000D01*
X491490000Y-288290000D02*
X494030000Y-288290000D01*
X481330000Y-281940000D02*
X482600000Y-280670000D01*
X481330000Y-287020000D02*
X482600000Y-285750000D01*
X487680000Y-285750000D02*
X488950000Y-287020000D01*
X495300000Y-261620000D02*
X500380000Y-261620000D01*
X488950000Y-274320000D02*
X494030000Y-274320000D01*
X481330000Y-284480000D02*
X482600000Y-283210000D01*
X482600000Y-259080000D02*
X487680000Y-259080000D01*
X482600000Y-281940000D02*
X487680000Y-281940000D01*
X488950000Y-269240000D02*
X494030000Y-269240000D01*
X494030000Y-262890000D02*
X495300000Y-261620000D01*
X474980000Y-280670000D02*
X476250000Y-281940000D01*
X495300000Y-265430000D02*
X496570000Y-265430000D01*
X487680000Y-281940000D02*
X488950000Y-283210000D01*
X482600000Y-264160000D02*
X487680000Y-264160000D01*
X482600000Y-288290000D02*
X483870000Y-288290000D01*
X482600000Y-279400000D02*
X487680000Y-279400000D01*
X488950000Y-275590000D02*
X491490000Y-275590000D01*
X483870000Y-265430000D02*
X487680000Y-265430000D01*
X481330000Y-283210000D02*
X482600000Y-281940000D01*
X476250000Y-259080000D02*
X481330000Y-259080000D01*
X474980000Y-260350000D02*
X476250000Y-261620000D01*
X487680000Y-271780000D02*
X488950000Y-273050000D01*
X473710000Y-260350000D02*
X474980000Y-260350000D01*
X488950000Y-267970000D02*
X491490000Y-267970000D01*
X500380000Y-261620000D02*
X501650000Y-262890000D01*
X482600000Y-285750000D02*
X483870000Y-285750000D01*
X482600000Y-269240000D02*
X487680000Y-269240000D01*
X483870000Y-262890000D02*
X487680000Y-262890000D01*
X487680000Y-260350000D02*
X488950000Y-261620000D01*
X501650000Y-275590000D02*
X504190000Y-275590000D01*
X488950000Y-271780000D02*
X494030000Y-271780000D01*
X476250000Y-261620000D02*
X481330000Y-261620000D01*
X474980000Y-267970000D02*
X476250000Y-269240000D01*
X474980000Y-283210000D02*
X476250000Y-284480000D01*
X500380000Y-271780000D02*
X501650000Y-273050000D01*
X482600000Y-280670000D02*
X483870000Y-280670000D01*
X487680000Y-280670000D02*
X488950000Y-281940000D01*
X481330000Y-275590000D02*
X482600000Y-274320000D01*
X501650000Y-290830000D02*
X504190000Y-290830000D01*
X471170000Y-275590000D02*
X474980000Y-275590000D01*
X494030000Y-267970000D02*
X495300000Y-266700000D01*
X501650000Y-262890000D02*
X504190000Y-262890000D01*
X501650000Y-273050000D02*
X504190000Y-273050000D01*
X420370000Y-270510000D02*
X424180000Y-270510000D01*
X431800000Y-273050000D02*
X433070000Y-273050000D01*
X436880000Y-279400000D02*
X438150000Y-280670000D01*
X430530000Y-265430000D02*
X431800000Y-264160000D01*
X427990000Y-280670000D02*
X430530000Y-280670000D01*
X431800000Y-283210000D02*
X433070000Y-283210000D01*
X420370000Y-275590000D02*
X424180000Y-275590000D01*
X430530000Y-274320000D02*
X431800000Y-273050000D01*
X430530000Y-283210000D02*
X431800000Y-281940000D01*
X431800000Y-275590000D02*
X433070000Y-275590000D01*
X431800000Y-269240000D02*
X436880000Y-269240000D01*
X430530000Y-285750000D02*
X431800000Y-284480000D01*
X431800000Y-279400000D02*
X436880000Y-279400000D01*
X430530000Y-290830000D02*
X431800000Y-289560000D01*
X425450000Y-287020000D02*
X430530000Y-287020000D01*
X420370000Y-278130000D02*
X424180000Y-278130000D01*
X427990000Y-285750000D02*
X430530000Y-285750000D01*
X431800000Y-281940000D02*
X436880000Y-281940000D01*
X438150000Y-280670000D02*
X440690000Y-280670000D01*
X430530000Y-275590000D02*
X431800000Y-274320000D01*
X431800000Y-266700000D02*
X436880000Y-266700000D01*
X431800000Y-284480000D02*
X436880000Y-284480000D01*
X425450000Y-279400000D02*
X430530000Y-279400000D01*
X430530000Y-273050000D02*
X431800000Y-271780000D01*
X430530000Y-288290000D02*
X431800000Y-287020000D01*
X431800000Y-270510000D02*
X433070000Y-270510000D01*
X436880000Y-289560000D02*
X438150000Y-290830000D01*
X420370000Y-288290000D02*
X424180000Y-288290000D01*
X431800000Y-285750000D02*
X433070000Y-285750000D01*
X425450000Y-276860000D02*
X430530000Y-276860000D01*
X436880000Y-287020000D02*
X438150000Y-288290000D01*
X430530000Y-284480000D02*
X431800000Y-283210000D01*
X431800000Y-271780000D02*
X436880000Y-271780000D01*
X430530000Y-271780000D02*
X431800000Y-270510000D01*
X431800000Y-274320000D02*
X436880000Y-274320000D01*
X420370000Y-257810000D02*
X424180000Y-257810000D01*
X430530000Y-287020000D02*
X431800000Y-285750000D01*
X424180000Y-273050000D02*
X425450000Y-274320000D01*
X431800000Y-288290000D02*
X433070000Y-288290000D01*
X430530000Y-289560000D02*
X431800000Y-288290000D01*
X436880000Y-266700000D02*
X438150000Y-267970000D01*
X431800000Y-289560000D02*
X436880000Y-289560000D01*
X420370000Y-273050000D02*
X424180000Y-273050000D01*
X424180000Y-283210000D02*
X425450000Y-284480000D01*
X430530000Y-280670000D02*
X431800000Y-279400000D01*
X438150000Y-270510000D02*
X440690000Y-270510000D01*
X431800000Y-287020000D02*
X436880000Y-287020000D01*
X424180000Y-275590000D02*
X425450000Y-276860000D01*
X420370000Y-267970000D02*
X424180000Y-267970000D01*
X424180000Y-270510000D02*
X425450000Y-271780000D01*
X431800000Y-278130000D02*
X433070000Y-278130000D01*
X424180000Y-285750000D02*
X425450000Y-287020000D01*
X425450000Y-274320000D02*
X430530000Y-274320000D01*
X430530000Y-267970000D02*
X431800000Y-266700000D01*
X420370000Y-262890000D02*
X424180000Y-262890000D01*
X425450000Y-271780000D02*
X430530000Y-271780000D01*
X438150000Y-267970000D02*
X440690000Y-267970000D01*
X427990000Y-267970000D02*
X430530000Y-267970000D01*
X427990000Y-275590000D02*
X430530000Y-275590000D01*
X425450000Y-269240000D02*
X430530000Y-269240000D01*
X430530000Y-281940000D02*
X431800000Y-280670000D01*
X420370000Y-285750000D02*
X424180000Y-285750000D01*
X438150000Y-265430000D02*
X440690000Y-265430000D01*
X438150000Y-283210000D02*
X440690000Y-283210000D01*
X430530000Y-276860000D02*
X431800000Y-275590000D01*
X438150000Y-288290000D02*
X440690000Y-288290000D01*
X436880000Y-284480000D02*
X438150000Y-285750000D01*
X427990000Y-288290000D02*
X430530000Y-288290000D01*
X436880000Y-264160000D02*
X438150000Y-265430000D01*
X420370000Y-283210000D02*
X424180000Y-283210000D01*
X438150000Y-285750000D02*
X440690000Y-285750000D01*
X420370000Y-280670000D02*
X424180000Y-280670000D01*
X427990000Y-270510000D02*
X430530000Y-270510000D01*
X427990000Y-290830000D02*
X430530000Y-290830000D01*
X431800000Y-280670000D02*
X433070000Y-280670000D01*
X438150000Y-273050000D02*
X440690000Y-273050000D01*
X427990000Y-273050000D02*
X430530000Y-273050000D01*
X436880000Y-274320000D02*
X438150000Y-275590000D01*
X438150000Y-290830000D02*
X440690000Y-290830000D01*
X438150000Y-275590000D02*
X440690000Y-275590000D01*
X425450000Y-289560000D02*
X430530000Y-289560000D01*
X424180000Y-267970000D02*
X425450000Y-269240000D01*
X436880000Y-271780000D02*
X438150000Y-273050000D01*
X425450000Y-284480000D02*
X430530000Y-284480000D01*
X424180000Y-257810000D02*
X425450000Y-259080000D01*
X424180000Y-280670000D02*
X425450000Y-281940000D01*
X425450000Y-259080000D02*
X430530000Y-259080000D01*
X431800000Y-257810000D02*
X433070000Y-257810000D01*
X430530000Y-259080000D02*
X431800000Y-257810000D01*
X425450000Y-261620000D02*
X430530000Y-261620000D01*
X424180000Y-260350000D02*
X425450000Y-261620000D01*
X430530000Y-261620000D02*
X431800000Y-260350000D01*
X427990000Y-260350000D02*
X430530000Y-260350000D01*
X430530000Y-266700000D02*
X431800000Y-265430000D01*
X438150000Y-260350000D02*
X440690000Y-260350000D01*
X438150000Y-262890000D02*
X440690000Y-262890000D01*
X436880000Y-259080000D02*
X438150000Y-260350000D01*
X513080000Y-279400000D02*
X514350000Y-280670000D01*
X436880000Y-261620000D02*
X438150000Y-262890000D01*
X431800000Y-261620000D02*
X436880000Y-261620000D01*
X430530000Y-262890000D02*
X431800000Y-261620000D01*
X431800000Y-262890000D02*
X433070000Y-262890000D01*
X430530000Y-264160000D02*
X431800000Y-262890000D01*
X427990000Y-265430000D02*
X430530000Y-265430000D01*
X427990000Y-262890000D02*
X430530000Y-262890000D01*
X496570000Y-260350000D02*
X499110000Y-260350000D01*
X425450000Y-264160000D02*
X430530000Y-264160000D01*
X431800000Y-265430000D02*
X433070000Y-265430000D01*
X436880000Y-269240000D02*
X438150000Y-270510000D01*
X420370000Y-265430000D02*
X424180000Y-265430000D01*
X424180000Y-265430000D02*
X425450000Y-266700000D01*
X424180000Y-262890000D02*
X425450000Y-264160000D01*
X506730000Y-265430000D02*
X508000000Y-264160000D01*
X496570000Y-270510000D02*
X500380000Y-270510000D01*
X504190000Y-280670000D02*
X506730000Y-280670000D01*
X506730000Y-270510000D02*
X508000000Y-269240000D01*
X500380000Y-288290000D02*
X501650000Y-289560000D01*
X506730000Y-279400000D02*
X508000000Y-278130000D01*
X501650000Y-281940000D02*
X506730000Y-281940000D01*
X508000000Y-275590000D02*
X509270000Y-275590000D01*
X431800000Y-259080000D02*
X436880000Y-259080000D01*
X427990000Y-283210000D02*
X430530000Y-283210000D01*
X430530000Y-260350000D02*
X431800000Y-259080000D01*
X431800000Y-260350000D02*
X433070000Y-260350000D01*
X425450000Y-266700000D02*
X430530000Y-266700000D01*
X508000000Y-267970000D02*
X509270000Y-267970000D01*
X499110000Y-260350000D02*
X500380000Y-260350000D01*
X508000000Y-273050000D02*
X509270000Y-273050000D01*
X500380000Y-278130000D02*
X501650000Y-279400000D01*
X513080000Y-281940000D02*
X514350000Y-283210000D01*
X506730000Y-269240000D02*
X508000000Y-267970000D01*
X506730000Y-288290000D02*
X508000000Y-287020000D01*
X508000000Y-284480000D02*
X513080000Y-284480000D01*
X506730000Y-273050000D02*
X508000000Y-271780000D01*
X508000000Y-266700000D02*
X513080000Y-266700000D01*
X508000000Y-281940000D02*
X513080000Y-281940000D01*
X508000000Y-283210000D02*
X509270000Y-283210000D01*
X508000000Y-270510000D02*
X509270000Y-270510000D01*
X506730000Y-283210000D02*
X508000000Y-281940000D01*
X508000000Y-285750000D02*
X509270000Y-285750000D01*
X501650000Y-276860000D02*
X506730000Y-276860000D01*
X501650000Y-279400000D02*
X506730000Y-279400000D01*
X506730000Y-290830000D02*
X508000000Y-289560000D01*
X504190000Y-285750000D02*
X506730000Y-285750000D01*
X496570000Y-288290000D02*
X500380000Y-288290000D01*
X506730000Y-275590000D02*
X508000000Y-274320000D01*
X506730000Y-285750000D02*
X508000000Y-284480000D01*
X496570000Y-278130000D02*
X500380000Y-278130000D01*
X508000000Y-271780000D02*
X513080000Y-271780000D01*
X501650000Y-287020000D02*
X506730000Y-287020000D01*
X513080000Y-287020000D02*
X514350000Y-288290000D01*
X514350000Y-280670000D02*
X516890000Y-280670000D01*
X513080000Y-289560000D02*
X514350000Y-290830000D01*
X508000000Y-269240000D02*
X513080000Y-269240000D01*
X506730000Y-274320000D02*
X508000000Y-273050000D01*
X496570000Y-275590000D02*
X500380000Y-275590000D01*
X508000000Y-279400000D02*
X513080000Y-279400000D01*
X508000000Y-264160000D02*
X513080000Y-264160000D01*
X506730000Y-284480000D02*
X508000000Y-283210000D01*
X455930000Y-280670000D02*
X457200000Y-279400000D01*
X481330000Y-262890000D02*
X482600000Y-261620000D01*
X449580000Y-280670000D02*
X450850000Y-281940000D01*
X462280000Y-281940000D02*
X463550000Y-283210000D01*
X463550000Y-290830000D02*
X466090000Y-290830000D01*
X463550000Y-265430000D02*
X466090000Y-265430000D01*
X424180000Y-278130000D02*
X425450000Y-279400000D01*
X448310000Y-260350000D02*
X449580000Y-260350000D01*
X438150000Y-261620000D02*
X443230000Y-261620000D01*
X462280000Y-270510000D02*
X463550000Y-271780000D01*
X433070000Y-273050000D02*
X436880000Y-273050000D01*
X457200000Y-283210000D02*
X458470000Y-283210000D01*
X468630000Y-289560000D02*
X469900000Y-288290000D01*
X457200000Y-264160000D02*
X462280000Y-264160000D01*
X469900000Y-279400000D02*
X474980000Y-279400000D01*
X444500000Y-267970000D02*
X445770000Y-267970000D01*
X463550000Y-276860000D02*
X468630000Y-276860000D01*
X468630000Y-275590000D02*
X469900000Y-274320000D01*
X476250000Y-285750000D02*
X478790000Y-285750000D01*
X449580000Y-270510000D02*
X450850000Y-271780000D01*
X462280000Y-262890000D02*
X463550000Y-264160000D01*
X455930000Y-264160000D02*
X457200000Y-262890000D01*
X455930000Y-271780000D02*
X457200000Y-270510000D01*
X450850000Y-281940000D02*
X455930000Y-281940000D01*
X440690000Y-275590000D02*
X443230000Y-275590000D01*
X469900000Y-262890000D02*
X471170000Y-262890000D01*
X443230000Y-264160000D02*
X444500000Y-262890000D01*
X449580000Y-266700000D02*
X450850000Y-267970000D01*
X453390000Y-288290000D02*
X455930000Y-288290000D01*
X462280000Y-264160000D02*
X463550000Y-265430000D01*
X468630000Y-285750000D02*
X469900000Y-284480000D01*
X445770000Y-267970000D02*
X449580000Y-267970000D01*
X440690000Y-265430000D02*
X443230000Y-265430000D01*
X435610000Y-260350000D02*
X436880000Y-260350000D01*
X444500000Y-260350000D02*
X445770000Y-260350000D01*
X463550000Y-281940000D02*
X468630000Y-281940000D01*
X444500000Y-284480000D02*
X449580000Y-284480000D01*
X449580000Y-288290000D02*
X450850000Y-289560000D01*
X469900000Y-267970000D02*
X471170000Y-267970000D01*
X463550000Y-289560000D02*
X468630000Y-289560000D01*
X474980000Y-264160000D02*
X476250000Y-265430000D01*
X449580000Y-278130000D02*
X450850000Y-279400000D01*
X476250000Y-267970000D02*
X478790000Y-267970000D01*
X449580000Y-259080000D02*
X450850000Y-260350000D01*
X430530000Y-279400000D02*
X431800000Y-278130000D01*
X422910000Y-260350000D02*
X424180000Y-260350000D01*
X455930000Y-279400000D02*
X457200000Y-278130000D01*
X468630000Y-274320000D02*
X469900000Y-273050000D01*
X458470000Y-283210000D02*
X462280000Y-283210000D01*
X463550000Y-266700000D02*
X468630000Y-266700000D01*
X455930000Y-273050000D02*
X457200000Y-271780000D01*
X457200000Y-288290000D02*
X458470000Y-288290000D01*
X476250000Y-260350000D02*
X478790000Y-260350000D01*
X462280000Y-271780000D02*
X463550000Y-273050000D01*
X481330000Y-266700000D02*
X482600000Y-265430000D01*
X436880000Y-270510000D02*
X438150000Y-271780000D01*
X457200000Y-261620000D02*
X462280000Y-261620000D01*
X450850000Y-287020000D02*
X455930000Y-287020000D01*
X476250000Y-281940000D02*
X481330000Y-281940000D01*
X476250000Y-273050000D02*
X478790000Y-273050000D01*
X482600000Y-265430000D02*
X483870000Y-265430000D01*
X478790000Y-262890000D02*
X481330000Y-262890000D01*
X462280000Y-284480000D02*
X463550000Y-285750000D01*
X443230000Y-262890000D02*
X444500000Y-261620000D01*
X455930000Y-265430000D02*
X457200000Y-264160000D01*
X457200000Y-280670000D02*
X458470000Y-280670000D01*
X450850000Y-262890000D02*
X453390000Y-262890000D01*
X491490000Y-262890000D02*
X494030000Y-262890000D01*
X481330000Y-276860000D02*
X482600000Y-275590000D01*
X438150000Y-259080000D02*
X443230000Y-259080000D01*
X487680000Y-289560000D02*
X488950000Y-290830000D01*
X491490000Y-267970000D02*
X494030000Y-267970000D01*
X450850000Y-289560000D02*
X455930000Y-289560000D01*
X455930000Y-261620000D02*
X457200000Y-260350000D01*
X458470000Y-275590000D02*
X462280000Y-275590000D01*
X466090000Y-280670000D02*
X468630000Y-280670000D01*
X445770000Y-283210000D02*
X449580000Y-283210000D01*
X455930000Y-283210000D02*
X457200000Y-281940000D01*
X495300000Y-260350000D02*
X496570000Y-260350000D01*
X474980000Y-275590000D02*
X476250000Y-276860000D01*
X488950000Y-264160000D02*
X494030000Y-264160000D01*
X488950000Y-288290000D02*
X491490000Y-288290000D01*
X469900000Y-273050000D02*
X471170000Y-273050000D01*
X444500000Y-274320000D02*
X449580000Y-274320000D01*
X443230000Y-276860000D02*
X444500000Y-275590000D01*
X449580000Y-284480000D02*
X450850000Y-285750000D01*
X463550000Y-285750000D02*
X466090000Y-285750000D01*
X476250000Y-279400000D02*
X481330000Y-279400000D01*
X491490000Y-270510000D02*
X494030000Y-270510000D01*
X483870000Y-280670000D02*
X487680000Y-280670000D01*
X500380000Y-259080000D02*
X501650000Y-260350000D01*
X471170000Y-278130000D02*
X474980000Y-278130000D01*
X491490000Y-260350000D02*
X494030000Y-260350000D01*
X488950000Y-283210000D02*
X491490000Y-283210000D01*
X443230000Y-283210000D02*
X444500000Y-281940000D01*
X444500000Y-280670000D02*
X445770000Y-280670000D01*
X450850000Y-264160000D02*
X455930000Y-264160000D01*
X469900000Y-261620000D02*
X474980000Y-261620000D01*
X487680000Y-269240000D02*
X488950000Y-270510000D01*
X468630000Y-266700000D02*
X469900000Y-265430000D01*
X488950000Y-262890000D02*
X491490000Y-262890000D01*
X450850000Y-288290000D02*
X453390000Y-288290000D01*
X440690000Y-280670000D02*
X443230000Y-280670000D01*
X466090000Y-290830000D02*
X468630000Y-290830000D01*
X438150000Y-269240000D02*
X443230000Y-269240000D01*
X445770000Y-270510000D02*
X449580000Y-270510000D01*
X457200000Y-273050000D02*
X458470000Y-273050000D01*
X463550000Y-280670000D02*
X466090000Y-280670000D01*
X476250000Y-275590000D02*
X478790000Y-275590000D01*
X463550000Y-262890000D02*
X466090000Y-262890000D01*
X425450000Y-281940000D02*
X430530000Y-281940000D01*
X457200000Y-265430000D02*
X458470000Y-265430000D01*
X458470000Y-267970000D02*
X462280000Y-267970000D01*
X468630000Y-269240000D02*
X469900000Y-267970000D01*
X449580000Y-269240000D02*
X450850000Y-270510000D01*
X458470000Y-285750000D02*
X462280000Y-285750000D01*
X433070000Y-265430000D02*
X436880000Y-265430000D01*
X463550000Y-284480000D02*
X468630000Y-284480000D01*
X444500000Y-273050000D02*
X445770000Y-273050000D01*
X450850000Y-271780000D02*
X455930000Y-271780000D01*
X476250000Y-283210000D02*
X478790000Y-283210000D01*
X433070000Y-285750000D02*
X436880000Y-285750000D01*
X457200000Y-275590000D02*
X458470000Y-275590000D01*
X466090000Y-262890000D02*
X468630000Y-262890000D01*
X455930000Y-290830000D02*
X457200000Y-289560000D01*
X468630000Y-276860000D02*
X469900000Y-275590000D01*
X481330000Y-264160000D02*
X482600000Y-262890000D01*
X469900000Y-275590000D02*
X471170000Y-275590000D01*
X468630000Y-288290000D02*
X469900000Y-287020000D01*
X455930000Y-267970000D02*
X457200000Y-266700000D01*
X469900000Y-270510000D02*
X471170000Y-270510000D01*
X450850000Y-285750000D02*
X453390000Y-285750000D01*
X443230000Y-285750000D02*
X444500000Y-284480000D01*
X469900000Y-260350000D02*
X471170000Y-260350000D01*
X455930000Y-281940000D02*
X457200000Y-280670000D01*
X445770000Y-257810000D02*
X449580000Y-257810000D01*
X444500000Y-264160000D02*
X449580000Y-264160000D01*
X449580000Y-264160000D02*
X450850000Y-265430000D01*
X443230000Y-267970000D02*
X444500000Y-266700000D01*
X469900000Y-271780000D02*
X474980000Y-271780000D01*
X450850000Y-279400000D02*
X455930000Y-279400000D01*
X466090000Y-275590000D02*
X468630000Y-275590000D01*
X438150000Y-281940000D02*
X443230000Y-281940000D01*
X469900000Y-274320000D02*
X474980000Y-274320000D01*
X482600000Y-262890000D02*
X483870000Y-262890000D01*
X443230000Y-260350000D02*
X444500000Y-259080000D01*
X443230000Y-259080000D02*
X444500000Y-257810000D01*
X443230000Y-281940000D02*
X444500000Y-280670000D01*
X433070000Y-262890000D02*
X436880000Y-262890000D01*
X457200000Y-285750000D02*
X458470000Y-285750000D01*
X440690000Y-285750000D02*
X443230000Y-285750000D01*
X444500000Y-281940000D02*
X449580000Y-281940000D01*
X457200000Y-257810000D02*
X458470000Y-257810000D01*
X455930000Y-288290000D02*
X457200000Y-287020000D01*
X445770000Y-280670000D02*
X449580000Y-280670000D01*
X462280000Y-285750000D02*
X463550000Y-287020000D01*
X469900000Y-278130000D02*
X471170000Y-278130000D01*
X466090000Y-285750000D02*
X468630000Y-285750000D01*
X433070000Y-267970000D02*
X436880000Y-267970000D01*
X462280000Y-260350000D02*
X463550000Y-261620000D01*
X450850000Y-283210000D02*
X453390000Y-283210000D01*
X476250000Y-270510000D02*
X478790000Y-270510000D01*
X462280000Y-280670000D02*
X463550000Y-281940000D01*
X438150000Y-266700000D02*
X443230000Y-266700000D01*
X463550000Y-275590000D02*
X466090000Y-275590000D01*
X443230000Y-280670000D02*
X444500000Y-279400000D01*
X457200000Y-259080000D02*
X462280000Y-259080000D01*
X436880000Y-275590000D02*
X438150000Y-276860000D01*
X438150000Y-289560000D02*
X443230000Y-289560000D01*
X436880000Y-281940000D02*
X438150000Y-283210000D01*
X469900000Y-283210000D02*
X471170000Y-283210000D01*
X436880000Y-283210000D02*
X438150000Y-284480000D01*
X468630000Y-273050000D02*
X469900000Y-271780000D01*
X463550000Y-270510000D02*
X466090000Y-270510000D01*
X444500000Y-259080000D02*
X449580000Y-259080000D01*
X468630000Y-261620000D02*
X469900000Y-260350000D01*
X440690000Y-283210000D02*
X443230000Y-283210000D01*
X469900000Y-269240000D02*
X474980000Y-269240000D01*
X438150000Y-279400000D02*
X443230000Y-279400000D01*
X469900000Y-287020000D02*
X474980000Y-287020000D01*
X453390000Y-290830000D02*
X455930000Y-290830000D01*
X487680000Y-259080000D02*
X488950000Y-260350000D01*
X458470000Y-278130000D02*
X462280000Y-278130000D01*
X453390000Y-262890000D02*
X455930000Y-262890000D01*
X444500000Y-283210000D02*
X445770000Y-283210000D01*
X457200000Y-270510000D02*
X458470000Y-270510000D01*
X468630000Y-265430000D02*
X469900000Y-264160000D01*
X450850000Y-265430000D02*
X453390000Y-265430000D01*
X462280000Y-273050000D02*
X463550000Y-274320000D01*
X443230000Y-290830000D02*
X444500000Y-289560000D01*
X474980000Y-271780000D02*
X476250000Y-273050000D01*
X449580000Y-271780000D02*
X450850000Y-273050000D01*
X469900000Y-266700000D02*
X474980000Y-266700000D01*
X468630000Y-281940000D02*
X469900000Y-280670000D01*
X443230000Y-270510000D02*
X444500000Y-269240000D01*
X436880000Y-278130000D02*
X438150000Y-279400000D01*
X462280000Y-278130000D02*
X463550000Y-279400000D01*
X420370000Y-260350000D02*
X422910000Y-260350000D01*
X463550000Y-260350000D02*
X466090000Y-260350000D01*
X438150000Y-264160000D02*
X443230000Y-264160000D01*
X449580000Y-261620000D02*
X450850000Y-262890000D01*
X440690000Y-270510000D02*
X443230000Y-270510000D01*
X433070000Y-260350000D02*
X435610000Y-260350000D01*
X468630000Y-284480000D02*
X469900000Y-283210000D01*
X440690000Y-273050000D02*
X443230000Y-273050000D01*
X445770000Y-275590000D02*
X449580000Y-275590000D01*
X462280000Y-266700000D02*
X463550000Y-267970000D01*
X469900000Y-288290000D02*
X471170000Y-288290000D01*
X463550000Y-288290000D02*
X466090000Y-288290000D01*
X436880000Y-288290000D02*
X438150000Y-289560000D01*
X478790000Y-265430000D02*
X481330000Y-265430000D01*
X463550000Y-279400000D02*
X468630000Y-279400000D01*
X468630000Y-290830000D02*
X469900000Y-289560000D01*
X449580000Y-287020000D02*
X450850000Y-288290000D01*
X455930000Y-270510000D02*
X457200000Y-269240000D01*
X449580000Y-283210000D02*
X450850000Y-284480000D01*
X455930000Y-276860000D02*
X457200000Y-275590000D01*
X444500000Y-269240000D02*
X449580000Y-269240000D01*
X461010000Y-260350000D02*
X462280000Y-260350000D01*
X482600000Y-261620000D02*
X487680000Y-261620000D01*
X469900000Y-257810000D02*
X471170000Y-257810000D01*
X444500000Y-279400000D02*
X449580000Y-279400000D01*
X453390000Y-275590000D02*
X455930000Y-275590000D01*
X474980000Y-262890000D02*
X476250000Y-264160000D01*
X433070000Y-288290000D02*
X436880000Y-288290000D01*
X433070000Y-280670000D02*
X436880000Y-280670000D01*
X468630000Y-270510000D02*
X469900000Y-269240000D01*
X450850000Y-284480000D02*
X455930000Y-284480000D01*
X453390000Y-260350000D02*
X455930000Y-260350000D01*
X462280000Y-279400000D02*
X463550000Y-280670000D01*
X443230000Y-288290000D02*
X444500000Y-287020000D01*
X457200000Y-278130000D02*
X458470000Y-278130000D01*
X457200000Y-260350000D02*
X458470000Y-260350000D01*
X443230000Y-261620000D02*
X444500000Y-260350000D01*
X430530000Y-269240000D02*
X431800000Y-267970000D01*
X455930000Y-269240000D02*
X457200000Y-267970000D01*
X443230000Y-287020000D02*
X444500000Y-285750000D01*
X443230000Y-289560000D02*
X444500000Y-288290000D01*
X468630000Y-262890000D02*
X469900000Y-261620000D01*
X443230000Y-273050000D02*
X444500000Y-271780000D01*
X443230000Y-266700000D02*
X444500000Y-265430000D01*
X455930000Y-287020000D02*
X457200000Y-285750000D01*
X438150000Y-271780000D02*
X443230000Y-271780000D01*
X453390000Y-283210000D02*
X455930000Y-283210000D01*
X462280000Y-259080000D02*
X463550000Y-260350000D01*
X468630000Y-280670000D02*
X469900000Y-279400000D01*
X474980000Y-261620000D02*
X476250000Y-262890000D01*
X463550000Y-264160000D02*
X468630000Y-264160000D01*
X436880000Y-262890000D02*
X438150000Y-264160000D01*
X449580000Y-274320000D02*
X450850000Y-275590000D01*
X474980000Y-266700000D02*
X476250000Y-267970000D01*
X449580000Y-285750000D02*
X450850000Y-287020000D01*
X474980000Y-259080000D02*
X476250000Y-260350000D01*
X476250000Y-266700000D02*
X481330000Y-266700000D01*
X474980000Y-287020000D02*
X476250000Y-288290000D01*
X462280000Y-257810000D02*
X463550000Y-259080000D01*
X436880000Y-285750000D02*
X438150000Y-287020000D01*
D33*
X521462000Y-329234800D02*
X527583400Y-329234800D01*
X527583400Y-329234800D02*
X527583400Y-321005200D01*
X527583400Y-321005200D02*
X521462000Y-321005200D01*
X525653000Y-321005200D02*
X525653000Y-329234800D01*
X526872200Y-321005200D02*
X526872200Y-329234800D01*
X523163800Y-321005200D02*
X523163800Y-329234800D01*
X521436600Y-321005200D02*
X521436600Y-329234800D01*
X524535400Y-321005200D02*
X524535400Y-329234800D01*
X520166600Y-321005200D02*
X520166600Y-329234800D01*
X519531600Y-321005200D02*
X519531600Y-329234800D01*
X518896600Y-321005200D02*
X518896600Y-329234800D01*
X516356600Y-321005200D02*
X516356600Y-329234800D01*
X514985000Y-321005200D02*
X514985000Y-329234800D01*
X510794000Y-325120000D02*
X513080000Y-322834000D01*
X510794000Y-325120000D02*
X513080000Y-327406000D01*
X517626600Y-324586600D02*
X517626600Y-329234800D01*
X517626600Y-321005200D02*
X517626600Y-324586600D01*
X481457000Y-335584800D02*
X481457000Y-327355200D01*
X479526600Y-335584800D02*
X485648000Y-335584800D01*
X479526600Y-327355200D02*
X479526600Y-335584800D01*
X485648000Y-327355200D02*
X479526600Y-327355200D01*
X480237800Y-335584800D02*
X480237800Y-327355200D01*
X478409000Y-326390000D02*
X494030000Y-326390000D01*
X483946200Y-335584800D02*
X483946200Y-327355200D01*
X485673400Y-335584800D02*
X485673400Y-327355200D01*
X482574600Y-335584800D02*
X482574600Y-327355200D01*
X486943400Y-335584800D02*
X486943400Y-327355200D01*
X487578400Y-335584800D02*
X487578400Y-327355200D01*
X488213400Y-335584800D02*
X488213400Y-327355200D01*
X490753400Y-335584800D02*
X490753400Y-327355200D01*
X492125000Y-335584800D02*
X492125000Y-327355200D01*
X496316000Y-331470000D02*
X494030000Y-333756000D01*
X494030000Y-333756000D02*
X494030000Y-336550000D01*
X494030000Y-331470000D02*
X494030000Y-333756000D01*
X496316000Y-331470000D02*
X494030000Y-329184000D01*
X494030000Y-329184000D02*
X494030000Y-331470000D01*
X494030000Y-326390000D02*
X494030000Y-329184000D01*
X498094000Y-331470000D02*
X494030000Y-331470000D01*
X489483400Y-332003400D02*
X489483400Y-327355200D01*
X489483400Y-335584800D02*
X489483400Y-332003400D01*
X427990000Y-254000000D02*
X426085000Y-252095000D01*
X427990000Y-257606800D02*
X427990000Y-253796800D01*
X427990000Y-254000000D02*
X429895000Y-252095000D01*
X427990000Y-255270000D02*
X427990000Y-254000000D01*
D34*
X429895000Y-252095000D02*
X426085000Y-252095000D01*
D33*
X440690000Y-257606800D02*
X440690000Y-253796800D01*
X440690000Y-254000000D02*
X438785000Y-252095000D01*
X440690000Y-254000000D02*
X442595000Y-252095000D01*
X453390000Y-257606800D02*
X453390000Y-253796800D01*
X453390000Y-254000000D02*
X451485000Y-252095000D01*
X453390000Y-254000000D02*
X455295000Y-252095000D01*
X466090000Y-257606800D02*
X466090000Y-253796800D01*
X466090000Y-254000000D02*
X464185000Y-252095000D01*
X466090000Y-254000000D02*
X467995000Y-252095000D01*
X478790000Y-257606800D02*
X478790000Y-253796800D01*
X478790000Y-254000000D02*
X476885000Y-252095000D01*
X478790000Y-254000000D02*
X480695000Y-252095000D01*
X491490000Y-257606800D02*
X491490000Y-253796800D01*
X491490000Y-254000000D02*
X489585000Y-252095000D01*
X491490000Y-254000000D02*
X493395000Y-252095000D01*
X504190000Y-257606800D02*
X504190000Y-253796800D01*
X504190000Y-254000000D02*
X502285000Y-252095000D01*
X504190000Y-254000000D02*
X506095000Y-252095000D01*
X516890000Y-257606800D02*
X516890000Y-253796800D01*
X516890000Y-254000000D02*
X514985000Y-252095000D01*
X516890000Y-254000000D02*
X518795000Y-252095000D01*
X393065000Y-220980000D02*
X393700000Y-220980000D01*
X393065000Y-219075000D02*
X394335000Y-219075000D01*
X395605000Y-217805000D02*
X396240000Y-218440000D01*
X393700000Y-215900000D02*
X395605000Y-217805000D01*
X394335000Y-219075000D02*
X395605000Y-217805000D01*
D31*
X451485000Y-193040000D02*
X452755000Y-194310000D01*
X457835000Y-193040000D02*
X460375000Y-193040000D01*
X456565000Y-194310000D02*
X461645000Y-194310000D01*
X455295000Y-195580000D02*
X460375000Y-195580000D01*
X450850000Y-196850000D02*
X451485000Y-196850000D01*
X449580000Y-198120000D02*
X451485000Y-198120000D01*
X448310000Y-199390000D02*
X451485000Y-199390000D01*
X447675000Y-200660000D02*
X451485000Y-200660000D01*
X461010000Y-289560000D02*
X462280000Y-289560000D01*
X457200000Y-289560000D02*
X461010000Y-289560000D01*
X451485000Y-195580000D02*
X452755000Y-196850000D01*
X454025000Y-196850000D02*
X461645000Y-196850000D01*
X452755000Y-196850000D02*
X454025000Y-196850000D01*
X445135000Y-195580000D02*
X451485000Y-195580000D01*
X461645000Y-196850000D02*
X462915000Y-195580000D01*
X457835000Y-205740000D02*
X458470000Y-205740000D01*
X457200000Y-207010000D02*
X461645000Y-207010000D01*
X458470000Y-205740000D02*
X460375000Y-205740000D01*
X511175000Y-259080000D02*
X513080000Y-259080000D01*
D33*
X390525000Y-215900000D02*
X393065000Y-218440000D01*
D34*
X393065000Y-218440000D02*
X393065000Y-216535000D01*
D33*
X387350000Y-215900000D02*
X390525000Y-215900000D01*
X390525000Y-215900000D02*
X393700000Y-215900000D01*
D31*
X478155000Y-231140000D02*
X479425000Y-229870000D01*
X479425000Y-229870000D02*
X483235000Y-229870000D01*
X442595000Y-231140000D02*
X443865000Y-229870000D01*
X443865000Y-229870000D02*
X447040000Y-229870000D01*
D33*
X423545000Y-294005000D02*
X424180000Y-294005000D01*
X433070000Y-291033200D02*
X436245000Y-294208200D01*
X433070000Y-291033200D02*
X433070000Y-292938200D01*
X445770000Y-291033200D02*
X448945000Y-294208200D01*
X445770000Y-291033200D02*
X445770000Y-292938200D01*
X458470000Y-291033200D02*
X455295000Y-294208200D01*
X458470000Y-291033200D02*
X458470000Y-292938200D01*
X471170000Y-291033200D02*
X474345000Y-294208200D01*
X471170000Y-291033200D02*
X467995000Y-294208200D01*
X471170000Y-291033200D02*
X471170000Y-292938200D01*
X483870000Y-291033200D02*
X487045000Y-294208200D01*
X483870000Y-291033200D02*
X480695000Y-294208200D01*
X483870000Y-291033200D02*
X483870000Y-292938200D01*
X496570000Y-291033200D02*
X499745000Y-294208200D01*
X496570000Y-291033200D02*
X493395000Y-294208200D01*
X496570000Y-291033200D02*
X496570000Y-292938200D01*
X509270000Y-291033200D02*
X512445000Y-294208200D01*
X509270000Y-291033200D02*
X506095000Y-294208200D01*
X509270000Y-291033200D02*
X509270000Y-292938200D01*
D31*
X471170000Y-209550000D02*
X471170000Y-241300000D01*
X472440000Y-208280000D02*
X472440000Y-241300000D01*
X473710000Y-207010000D02*
X473710000Y-241300000D01*
X474980000Y-205740000D02*
X474980000Y-241300000D01*
X469900000Y-210185000D02*
X469900000Y-241300000D01*
X468630000Y-210820000D02*
X468630000Y-241300000D01*
X467360000Y-212090000D02*
X467360000Y-241300000D01*
X466090000Y-213360000D02*
X466090000Y-241300000D01*
X381000000Y-199390000D02*
X387350000Y-205740000D01*
X379730000Y-199390000D02*
X381000000Y-199390000D01*
X380365000Y-203835000D02*
X387350000Y-210820000D01*
X379730000Y-203835000D02*
X380365000Y-203835000D01*
X378460000Y-202565000D02*
X379730000Y-203835000D01*
X378460000Y-201295000D02*
X378460000Y-202565000D01*
X377190000Y-200025000D02*
X378460000Y-201295000D01*
X377190000Y-199390000D02*
X377190000Y-200025000D01*
X381635000Y-202565000D02*
X387350000Y-208280000D01*
X381635000Y-201930000D02*
X381635000Y-202565000D01*
X380365000Y-200660000D02*
X381635000Y-201930000D01*
X379095000Y-200660000D02*
X380365000Y-200660000D01*
X378460000Y-200025000D02*
X379095000Y-200660000D01*
X378460000Y-198120000D02*
X378460000Y-200025000D01*
X377190000Y-196850000D02*
X378460000Y-198120000D01*
D34*
X405130000Y-252095000D02*
X403225000Y-250190000D01*
X498348000Y-334314800D02*
X502539000Y-334314800D01*
X503123200Y-334162400D02*
X504571000Y-332714600D01*
X504825000Y-323494400D02*
X504825000Y-325247000D01*
X506171200Y-322656200D02*
X505104400Y-323723000D01*
X507746000Y-320675000D02*
X505764800Y-320675000D01*
X504825000Y-321310000D02*
X505790200Y-322275200D01*
X504825000Y-325247000D02*
X504825000Y-344805000D01*
X506095000Y-322580000D02*
X505790200Y-322275200D01*
X505790200Y-323850000D02*
X507365000Y-322275200D01*
X506095000Y-323850000D02*
X506120400Y-323850000D01*
X506095000Y-323850000D02*
X506095000Y-322580000D01*
X501980200Y-334314800D02*
X503555000Y-332740000D01*
X498348000Y-334314800D02*
X500075200Y-334314800D01*
D33*
X494030000Y-336550000D02*
X492760000Y-336550000D01*
D34*
X504190000Y-353060000D02*
X507080000Y-353060000D01*
X506270000Y-352250000D02*
X504825000Y-350805000D01*
X507080000Y-353060000D02*
X506270000Y-352250000D01*
X501015000Y-349885000D02*
X504190000Y-353060000D01*
X505460000Y-344805000D02*
X506095000Y-344170000D01*
X504190000Y-344805000D02*
X503555000Y-344170000D01*
X503555000Y-344170000D02*
X503555000Y-332740000D01*
X506095000Y-344170000D02*
X506095000Y-323850000D01*
D31*
X419735000Y-215265000D02*
X419735000Y-215265000D01*
X418465000Y-216535000D02*
X418465000Y-216535000D01*
D32*
X414655000Y-218440000D02*
X413385000Y-218440000D01*
X412115000Y-219710000D02*
X412115000Y-248285000D01*
D34*
X410210000Y-250190000D02*
X414020000Y-250190000D01*
D32*
X410210000Y-250190000D02*
X411480000Y-248920000D01*
X411480000Y-248920000D02*
X410845000Y-248285000D01*
X412115000Y-218440000D02*
X413385000Y-218440000D01*
X410845000Y-219710000D02*
X412115000Y-218440000D01*
X414020000Y-218440000D02*
X411480000Y-220980000D01*
X414655000Y-218440000D02*
X414020000Y-218440000D01*
D34*
X516255000Y-203200000D02*
X498475000Y-203200000D01*
X478155000Y-203200000D02*
X462915000Y-203200000D01*
D35*
X519390000Y-292775000D02*
X519390000Y-293410000D01*
X519328400Y-292455600D02*
X518098400Y-293685600D01*
X519390000Y-292060000D02*
X519390000Y-292775000D01*
X519390000Y-255270000D02*
X519390000Y-292060000D01*
X519379200Y-293497000D02*
X518189200Y-294687000D01*
D34*
X403225000Y-250190000D02*
X405130000Y-250190000D01*
X501980200Y-334314800D02*
X501980200Y-336854800D01*
X494030000Y-342900000D02*
X501015000Y-349885000D01*
X510540000Y-353060000D02*
X507080000Y-353060000D01*
X511810000Y-351790000D02*
X510540000Y-353060000D01*
D32*
X512445000Y-332740000D02*
X513080000Y-333375000D01*
X512445000Y-339090000D02*
X513080000Y-338455000D01*
X509230000Y-339090000D02*
X512445000Y-339090000D01*
D34*
X504825000Y-331470000D02*
X504825000Y-321310000D01*
X503555000Y-332740000D02*
X504825000Y-331470000D01*
X492125000Y-337185000D02*
X491490000Y-336550000D01*
D33*
X491490000Y-336550000D02*
X478409000Y-336550000D01*
X492760000Y-336550000D02*
X491490000Y-336550000D01*
D34*
X491718600Y-339090000D02*
X488213400Y-335584800D01*
X492125000Y-339090000D02*
X491718600Y-339090000D01*
X492125000Y-343535000D02*
X492125000Y-339090000D01*
X492125000Y-339090000D02*
X492125000Y-337185000D01*
X492760000Y-301625000D02*
X489966000Y-298831000D01*
D36*
X492125000Y-332740000D02*
X492125000Y-295275000D01*
D34*
X494030000Y-331470000D02*
X494030000Y-335280000D01*
X494030000Y-335280000D02*
X494030000Y-342900000D01*
X493077500Y-297116500D02*
X494919000Y-295275000D01*
X492125000Y-297815000D02*
X493077500Y-296862500D01*
D33*
X493776000Y-295021000D02*
X491236000Y-295021000D01*
D34*
X508762000Y-321691000D02*
X507746000Y-320675000D01*
X508762000Y-322275200D02*
X508762000Y-321691000D01*
X505790200Y-322275200D02*
X508762000Y-322275200D01*
X505460000Y-320675000D02*
X504825000Y-321310000D01*
X505764800Y-320675000D02*
X505460000Y-320675000D01*
D35*
X506770000Y-316230000D02*
X504825000Y-316230000D01*
X504825000Y-316230000D02*
X503515000Y-316230000D01*
X504190000Y-311150000D02*
X502880000Y-311150000D01*
X504825000Y-311150000D02*
X504190000Y-311150000D01*
D34*
X513080000Y-334645000D02*
X513080000Y-338455000D01*
D32*
X511175000Y-332740000D02*
X513080000Y-334645000D01*
D34*
X513080000Y-333375000D02*
X513080000Y-334645000D01*
D32*
X509270000Y-332740000D02*
X511175000Y-332740000D01*
X511175000Y-332740000D02*
X512445000Y-332740000D01*
X511175000Y-332740000D02*
X513080000Y-330835000D01*
D34*
X513080000Y-330835000D02*
X513080000Y-333375000D01*
X513080000Y-325755000D02*
X513080000Y-330835000D01*
D32*
X511175000Y-339090000D02*
X513080000Y-340995000D01*
X511175000Y-339090000D02*
X513080000Y-337185000D01*
D34*
X409575000Y-252095000D02*
X405130000Y-252095000D01*
X410210000Y-252095000D02*
X406400000Y-252095000D01*
X426085000Y-252095000D02*
X410210000Y-252095000D01*
D31*
X377190000Y-204470000D02*
X377190000Y-201930000D01*
X374650000Y-207010000D02*
X377190000Y-204470000D01*
D34*
X405130000Y-250190000D02*
X407670000Y-250190000D01*
X407670000Y-250190000D02*
X408940000Y-250190000D01*
X405765000Y-250190000D02*
X410210000Y-250190000D01*
X393065000Y-240030000D02*
X393065000Y-238760000D01*
X403225000Y-250190000D02*
X393065000Y-240030000D01*
X393065000Y-219075000D02*
X393065000Y-218440000D01*
D31*
X399415000Y-220980000D02*
X402590000Y-220980000D01*
X396875000Y-223520000D02*
X399415000Y-220980000D01*
X396875000Y-234950000D02*
X396875000Y-223520000D01*
X399415000Y-237490000D02*
X396875000Y-234950000D01*
X403860000Y-237490000D02*
X399415000Y-237490000D01*
X405130000Y-238760000D02*
X403860000Y-237490000D01*
X407035000Y-238760000D02*
X405130000Y-238760000D01*
X400050000Y-236220000D02*
X402590000Y-236220000D01*
X397510000Y-233680000D02*
X400050000Y-236220000D01*
X397510000Y-224790000D02*
X397510000Y-233680000D01*
X400050000Y-222250000D02*
X397510000Y-224790000D01*
X404495000Y-222250000D02*
X400050000Y-222250000D01*
X405765000Y-223520000D02*
X404495000Y-222250000D01*
X407035000Y-223520000D02*
X405765000Y-223520000D01*
X407035000Y-236220000D02*
X405130000Y-236220000D01*
X400685000Y-223520000D02*
X402590000Y-223520000D01*
X405130000Y-236220000D02*
X403860000Y-234950000D01*
X403860000Y-234950000D02*
X400685000Y-234950000D01*
X400685000Y-234950000D02*
X398780000Y-233045000D01*
X398780000Y-233045000D02*
X398780000Y-225425000D01*
X398780000Y-225425000D02*
X400685000Y-223520000D01*
X401955000Y-231140000D02*
X402590000Y-231140000D01*
X401320000Y-230505000D02*
X401955000Y-231140000D01*
X401320000Y-227965000D02*
X401320000Y-230505000D01*
X401955000Y-227330000D02*
X401320000Y-227965000D01*
X404495000Y-227330000D02*
X401955000Y-227330000D01*
X405765000Y-228600000D02*
X404495000Y-227330000D01*
X407035000Y-228600000D02*
X405765000Y-228600000D01*
X401955000Y-226060000D02*
X402590000Y-226060000D01*
X400685000Y-227330000D02*
X401955000Y-226060000D01*
X400685000Y-231140000D02*
X400685000Y-227330000D01*
X401955000Y-232410000D02*
X400685000Y-231140000D01*
X403860000Y-232410000D02*
X401955000Y-232410000D01*
X405130000Y-233680000D02*
X403860000Y-232410000D01*
X407035000Y-233680000D02*
X405130000Y-233680000D01*
D34*
X505460000Y-341630000D02*
X506095000Y-341630000D01*
X498348000Y-334949800D02*
X505460000Y-342061800D01*
X498348000Y-334314800D02*
X498348000Y-334518000D01*
X391795000Y-221615000D02*
X391795000Y-216535000D01*
X391795000Y-238760000D02*
X393065000Y-240030000D01*
X391795000Y-221615000D02*
X391795000Y-238760000D01*
X392430000Y-221615000D02*
X391795000Y-221615000D01*
X393065000Y-220980000D02*
X392430000Y-221615000D01*
X393065000Y-220345000D02*
X394335000Y-219075000D01*
X393065000Y-237172500D02*
X393065000Y-220345000D01*
X404177500Y-248285000D02*
X393065000Y-237172500D01*
D33*
X393065000Y-221615000D02*
X396240000Y-218440000D01*
D31*
X398780000Y-238760000D02*
X402590000Y-238760000D01*
X395605000Y-235585000D02*
X398780000Y-238760000D01*
X395605000Y-222885000D02*
X395605000Y-235585000D01*
X398780000Y-219710000D02*
X395605000Y-222885000D01*
X404495000Y-219710000D02*
X398780000Y-219710000D01*
X405765000Y-220980000D02*
X404495000Y-219710000D01*
X407035000Y-220980000D02*
X405765000Y-220980000D01*
D33*
X458470000Y-291033200D02*
X461645000Y-294208200D01*
X433070000Y-291033200D02*
X429895000Y-294208200D01*
X420370000Y-291033200D02*
X423545000Y-294208200D01*
D31*
X396240000Y-251460000D02*
X396240000Y-257810000D01*
X393700000Y-248920000D02*
X396240000Y-251460000D01*
D32*
X410845000Y-248285000D02*
X408940000Y-250190000D01*
D31*
X368300000Y-321310000D02*
X371475000Y-321310000D01*
X371475000Y-321310000D02*
X372745000Y-322580000D01*
X372745000Y-322580000D02*
X379095000Y-322580000D01*
X380365000Y-321310000D02*
X383540000Y-321310000D01*
X379095000Y-322580000D02*
X380365000Y-321310000D01*
X375920000Y-323850000D02*
X379095000Y-323850000D01*
X379095000Y-323850000D02*
X380365000Y-322580000D01*
X380365000Y-322580000D02*
X386715000Y-322580000D01*
X387985000Y-323850000D02*
X391160000Y-323850000D01*
X386715000Y-322580000D02*
X387985000Y-323850000D01*
X368300000Y-323850000D02*
X371475000Y-323850000D01*
X371475000Y-323850000D02*
X372745000Y-325120000D01*
X372745000Y-325120000D02*
X379095000Y-325120000D01*
X380365000Y-323850000D02*
X383540000Y-323850000D01*
X379095000Y-325120000D02*
X380365000Y-323850000D01*
X380365000Y-326390000D02*
X383540000Y-326390000D01*
X372745000Y-327660000D02*
X379095000Y-327660000D01*
X368300000Y-326390000D02*
X371475000Y-326390000D01*
X379095000Y-327660000D02*
X380365000Y-326390000D01*
X371475000Y-326390000D02*
X372745000Y-327660000D01*
X380365000Y-328930000D02*
X383540000Y-328930000D01*
X372745000Y-330200000D02*
X379095000Y-330200000D01*
X368300000Y-328930000D02*
X371475000Y-328930000D01*
X379095000Y-330200000D02*
X380365000Y-328930000D01*
X371475000Y-328930000D02*
X372745000Y-330200000D01*
X380365000Y-331470000D02*
X383540000Y-331470000D01*
X372745000Y-332740000D02*
X379095000Y-332740000D01*
X368300000Y-331470000D02*
X371475000Y-331470000D01*
X379095000Y-332740000D02*
X380365000Y-331470000D01*
X371475000Y-331470000D02*
X372745000Y-332740000D01*
X380365000Y-334010000D02*
X383540000Y-334010000D01*
X372745000Y-335280000D02*
X379095000Y-335280000D01*
X368300000Y-334010000D02*
X371475000Y-334010000D01*
X379095000Y-335280000D02*
X380365000Y-334010000D01*
X371475000Y-334010000D02*
X372745000Y-335280000D01*
X380365000Y-336550000D02*
X383540000Y-336550000D01*
X372745000Y-337820000D02*
X379095000Y-337820000D01*
X368300000Y-336550000D02*
X371475000Y-336550000D01*
X379095000Y-337820000D02*
X380365000Y-336550000D01*
X371475000Y-336550000D02*
X372745000Y-337820000D01*
X375920000Y-336550000D02*
X379095000Y-336550000D01*
X379095000Y-336550000D02*
X380365000Y-335280000D01*
X380365000Y-335280000D02*
X386715000Y-335280000D01*
X387985000Y-336550000D02*
X391160000Y-336550000D01*
X386715000Y-335280000D02*
X387985000Y-336550000D01*
X375920000Y-334010000D02*
X379095000Y-334010000D01*
X379095000Y-334010000D02*
X380365000Y-332740000D01*
X380365000Y-332740000D02*
X386715000Y-332740000D01*
X387985000Y-334010000D02*
X391160000Y-334010000D01*
X386715000Y-332740000D02*
X387985000Y-334010000D01*
X375920000Y-331470000D02*
X379095000Y-331470000D01*
X379095000Y-331470000D02*
X380365000Y-330200000D01*
X380365000Y-330200000D02*
X386715000Y-330200000D01*
X387985000Y-331470000D02*
X391160000Y-331470000D01*
X386715000Y-330200000D02*
X387985000Y-331470000D01*
D34*
X408305000Y-257810000D02*
X408305000Y-254000000D01*
X408305000Y-257810000D02*
X405765000Y-257810000D01*
X405765000Y-252730000D02*
X405130000Y-252095000D01*
X405765000Y-257810000D02*
X405765000Y-252730000D01*
X407035000Y-252730000D02*
X407670000Y-253365000D01*
X405765000Y-252730000D02*
X407035000Y-252730000D01*
D32*
X407670000Y-253365000D02*
X406400000Y-252095000D01*
X408305000Y-254000000D02*
X407670000Y-253365000D01*
D34*
X407035000Y-256540000D02*
X407035000Y-254635000D01*
X407035000Y-257810000D02*
X405765000Y-259080000D01*
X408305000Y-257810000D02*
X407035000Y-257810000D01*
X405765000Y-257810000D02*
X405765000Y-259080000D01*
D32*
X408305000Y-255905000D02*
X412115000Y-252095000D01*
X407035000Y-255905000D02*
X410845000Y-252095000D01*
D34*
X405765000Y-259080000D02*
X405765000Y-277495000D01*
D33*
X424561000Y-295021000D02*
X420370000Y-290830000D01*
X423545000Y-294005000D02*
X423227500Y-293687500D01*
D34*
X529590000Y-350520000D02*
X529590000Y-353695000D01*
X509905000Y-356235000D02*
X527050000Y-356235000D01*
X529590000Y-346075000D02*
X529590000Y-345440000D01*
X529590000Y-345440000D02*
X529590000Y-351155000D01*
X527367500Y-348297500D02*
X527367500Y-348932500D01*
X529590000Y-351155000D02*
X528320000Y-349885000D01*
X527367500Y-348297500D02*
X528320000Y-347345000D01*
X528320000Y-347345000D02*
X529590000Y-346075000D01*
X529590000Y-191135000D02*
X529590000Y-345440000D01*
X516255000Y-188595000D02*
X520700000Y-184150000D01*
D32*
X516255000Y-190500000D02*
X518795000Y-187960000D01*
D34*
X525780000Y-185420000D02*
X527050000Y-186690000D01*
X521335000Y-185420000D02*
X525780000Y-185420000D01*
X521335000Y-185420000D02*
X521335000Y-186055000D01*
X521335000Y-186055000D02*
X528320000Y-193040000D01*
X528955000Y-190500000D02*
X529590000Y-191135000D01*
X528320000Y-190500000D02*
X528955000Y-190500000D01*
X529590000Y-186690000D02*
X529590000Y-191135000D01*
X521335000Y-187960000D02*
X519430000Y-187960000D01*
X519430000Y-187960000D02*
X519112500Y-187642500D01*
X519112500Y-187642500D02*
X521335000Y-185420000D01*
X516890000Y-189865000D02*
X519112500Y-187642500D01*
X517525000Y-184150000D02*
X527050000Y-184150000D01*
X513715000Y-189865000D02*
X513715000Y-187960000D01*
X518795000Y-189865000D02*
X513715000Y-189865000D01*
X518795000Y-189865000D02*
X516890000Y-189865000D01*
X515620000Y-187960000D02*
X516255000Y-188595000D01*
X513715000Y-187960000D02*
X515620000Y-187960000D01*
X520700000Y-189230000D02*
X521970000Y-190500000D01*
X521970000Y-190500000D02*
X521970000Y-194945000D01*
X521970000Y-194945000D02*
X521970000Y-241935000D01*
X528320000Y-248285000D02*
X527685000Y-247650000D01*
X527685000Y-247650000D02*
X527685000Y-194310000D01*
X527685000Y-194310000D02*
X522605000Y-189230000D01*
X523240000Y-191770000D02*
X523240000Y-241300000D01*
X523240000Y-243205000D02*
X528320000Y-248285000D01*
X523240000Y-241300000D02*
X523240000Y-243205000D01*
X521970000Y-241935000D02*
X523240000Y-243205000D01*
X524510000Y-242570000D02*
X524510000Y-244475000D01*
X524510000Y-193040000D02*
X524510000Y-242570000D01*
X525780000Y-243840000D02*
X525780000Y-245745000D01*
X525780000Y-194310000D02*
X525780000Y-243840000D01*
X528320000Y-311785000D02*
X528320000Y-313690000D01*
X528320000Y-250825000D02*
X528320000Y-311785000D01*
X528320000Y-315595000D02*
X528320000Y-347345000D01*
X528320000Y-313690000D02*
X528320000Y-315595000D01*
D35*
X506095000Y-313690000D02*
X504825000Y-312420000D01*
X504825000Y-312420000D02*
X504825000Y-311150000D01*
X504825000Y-313690000D02*
X504825000Y-312420000D01*
X504825000Y-313690000D02*
X506095000Y-313690000D01*
X506095000Y-313690000D02*
X504825000Y-314960000D01*
X504825000Y-314960000D02*
X504825000Y-313690000D01*
X504825000Y-316230000D02*
X504825000Y-314960000D01*
D34*
X506380000Y-352140000D02*
X506270000Y-352250000D01*
X506380000Y-350805000D02*
X506380000Y-352140000D01*
X505460000Y-349885000D02*
X506380000Y-350805000D01*
X501015000Y-349885000D02*
X505460000Y-349885000D01*
X511810000Y-351790000D02*
X507080000Y-351790000D01*
D31*
X392430000Y-250190000D02*
X394970000Y-252730000D01*
X394970000Y-252730000D02*
X394970000Y-260350000D01*
X397510000Y-250190000D02*
X394970000Y-247650000D01*
X397510000Y-278765000D02*
X397510000Y-250190000D01*
X400685000Y-281940000D02*
X397510000Y-278765000D01*
D33*
X445770000Y-291033200D02*
X442595000Y-294208200D01*
D34*
X513715000Y-187960000D02*
X515937500Y-185737500D01*
X515937500Y-185737500D02*
X517525000Y-184150000D01*
X511175000Y-189865000D02*
X513715000Y-189865000D01*
X440690000Y-189865000D02*
X511175000Y-189865000D01*
X444817500Y-185737500D02*
X440690000Y-189865000D01*
X515937500Y-185737500D02*
X444817500Y-185737500D01*
X512445000Y-187960000D02*
X444500000Y-187960000D01*
X419735000Y-184150000D02*
X360680000Y-184150000D01*
X419735000Y-184150000D02*
X424180000Y-184150000D01*
X440055000Y-184150000D02*
X419735000Y-184150000D01*
X441642500Y-185737500D02*
X440055000Y-184150000D01*
X444817500Y-185737500D02*
X441642500Y-185737500D01*
X361895000Y-195580000D02*
X361895000Y-202080000D01*
X361895000Y-202080000D02*
X361800000Y-202080000D01*
X361800000Y-202080000D02*
X358140000Y-205740000D01*
X358140000Y-205740000D02*
X358140000Y-186690000D01*
X360045000Y-187325000D02*
X360680000Y-186690000D01*
X360045000Y-193040000D02*
X360045000Y-192405000D01*
X360045000Y-201930000D02*
X360045000Y-193040000D01*
X360045000Y-193040000D02*
X360045000Y-187325000D01*
X360045000Y-192405000D02*
X366395000Y-186055000D01*
X361315000Y-186055000D02*
X360680000Y-186690000D01*
X366395000Y-186055000D02*
X361315000Y-186055000D01*
D31*
X405765000Y-191770000D02*
X407035000Y-190500000D01*
X401320000Y-191770000D02*
X405765000Y-191770000D01*
X397510000Y-195580000D02*
X401320000Y-191770000D01*
X387350000Y-195580000D02*
X397510000Y-195580000D01*
D32*
X417830000Y-213360000D02*
X419100000Y-213360000D01*
X415925000Y-215265000D02*
X417830000Y-213360000D01*
X411162500Y-215265000D02*
X415925000Y-215265000D01*
X409257500Y-213360000D02*
X411162500Y-215265000D01*
X407035000Y-213360000D02*
X409257500Y-213360000D01*
D33*
X524192500Y-244792500D02*
X524510000Y-244475000D01*
D31*
X375920000Y-328930000D02*
X379095000Y-328930000D01*
X380365000Y-327660000D02*
X386715000Y-327660000D01*
X379095000Y-328930000D02*
X380365000Y-327660000D01*
X393700000Y-304165000D02*
X400685000Y-311150000D01*
X391160000Y-251460000D02*
X393700000Y-254000000D01*
X394970000Y-302895000D02*
X400685000Y-308610000D01*
X396240000Y-301625000D02*
X400685000Y-306070000D01*
X396240000Y-257810000D02*
X396240000Y-301625000D01*
X394970000Y-284480000D02*
X394970000Y-302895000D01*
X394970000Y-260350000D02*
X394970000Y-284480000D01*
X393700000Y-287020000D02*
X393700000Y-304165000D01*
X393700000Y-254000000D02*
X393700000Y-287020000D01*
D34*
X405765000Y-281305000D02*
X405765000Y-283210000D01*
D32*
X408305000Y-281940000D02*
X405765000Y-279400000D01*
D34*
X405765000Y-279400000D02*
X405765000Y-281305000D01*
X405765000Y-277495000D02*
X405765000Y-279400000D01*
D32*
X407035000Y-281940000D02*
X405765000Y-283210000D01*
X408305000Y-281940000D02*
X407035000Y-281940000D01*
X490855000Y-324485000D02*
X488950000Y-326390000D01*
D33*
X478409000Y-327914000D02*
X478409000Y-326390000D01*
X478409000Y-336550000D02*
X478409000Y-327914000D01*
D31*
X398780000Y-316865000D02*
X400685000Y-318770000D01*
X398780000Y-311150000D02*
X398780000Y-316865000D01*
X392430000Y-304800000D02*
X398780000Y-311150000D01*
X392430000Y-255270000D02*
X392430000Y-304800000D01*
X389890000Y-252730000D02*
X392430000Y-255270000D01*
D34*
X501650000Y-353060000D02*
X501015000Y-352425000D01*
X501015000Y-352425000D02*
X492125000Y-343535000D01*
X504825000Y-356235000D02*
X509905000Y-356235000D01*
X501015000Y-352425000D02*
X504825000Y-356235000D01*
X505460000Y-353695000D02*
X506095000Y-353060000D01*
X505460000Y-354965000D02*
X505460000Y-353695000D01*
X506095000Y-353060000D02*
X501650000Y-353060000D01*
X507080000Y-353060000D02*
X506095000Y-353060000D01*
X507365000Y-354965000D02*
X508000000Y-354330000D01*
X505460000Y-354965000D02*
X507365000Y-354965000D01*
X508000000Y-354330000D02*
X509905000Y-356235000D01*
X504825000Y-351155000D02*
X508000000Y-354330000D01*
D31*
X419100000Y-318770000D02*
X421640000Y-318770000D01*
X428625000Y-318770000D02*
X421640000Y-318770000D01*
D32*
X375880000Y-321270000D02*
X375920000Y-321310000D01*
D31*
X374015000Y-312420000D02*
X368300000Y-318135000D01*
X374015000Y-299720000D02*
X374015000Y-312420000D01*
X375920000Y-297815000D02*
X374015000Y-299720000D01*
X372745000Y-326390000D02*
X375920000Y-326390000D01*
X371475000Y-325120000D02*
X372745000Y-326390000D01*
D32*
X386080000Y-314325000D02*
X388620000Y-316865000D01*
X375285000Y-314325000D02*
X386080000Y-314325000D01*
X373380000Y-316230000D02*
X375285000Y-314325000D01*
X373380000Y-316865000D02*
X373380000Y-316230000D01*
X389255000Y-319405000D02*
X391160000Y-321310000D01*
X377825000Y-319405000D02*
X389255000Y-319405000D01*
X375920000Y-321310000D02*
X377825000Y-319405000D01*
X412115000Y-257810000D02*
X408305000Y-257810000D01*
D31*
X400685000Y-316230000D02*
X403225000Y-316230000D01*
X402590000Y-313690000D02*
X403225000Y-314325000D01*
X400685000Y-313690000D02*
X402590000Y-313690000D01*
D33*
X420370000Y-290830000D02*
X418465000Y-290830000D01*
X414655000Y-257810000D02*
X414655000Y-287020000D01*
X416560000Y-288925000D02*
X416560000Y-294005000D01*
X418465000Y-290830000D02*
X416560000Y-288925000D01*
X416560000Y-288925000D02*
X414655000Y-287020000D01*
D34*
X416560000Y-294005000D02*
X421005000Y-294005000D01*
X421005000Y-294005000D02*
X421005000Y-293370000D01*
X421005000Y-293370000D02*
X419735000Y-292100000D01*
X419735000Y-292100000D02*
X417830000Y-292100000D01*
D33*
X414909000Y-295021000D02*
X417576000Y-295021000D01*
X414655000Y-287020000D02*
X414655000Y-297815000D01*
X417576000Y-295021000D02*
X424561000Y-295021000D01*
D31*
X408940000Y-308610000D02*
X408305000Y-308610000D01*
X410210000Y-307340000D02*
X408940000Y-308610000D01*
X410210000Y-277495000D02*
X410210000Y-307340000D01*
D33*
X466765000Y-303490000D02*
X467995000Y-302260000D01*
X467995000Y-297180000D02*
X465836000Y-295021000D01*
X467995000Y-297180000D02*
X470154000Y-295021000D01*
X468884000Y-295021000D02*
X464566000Y-295021000D01*
D36*
X360045000Y-207010000D02*
X368300000Y-215265000D01*
X363220000Y-207010000D02*
X361895000Y-205685000D01*
D32*
X363220000Y-192405000D02*
X363220000Y-207010000D01*
X362902500Y-192087500D02*
X363220000Y-192405000D01*
X362902500Y-201072500D02*
X362902500Y-192087500D01*
X361895000Y-202080000D02*
X362902500Y-201072500D01*
X361895000Y-205685000D02*
X361895000Y-202080000D01*
D36*
X360680000Y-207645000D02*
X360045000Y-207010000D01*
X360680000Y-290830000D02*
X360680000Y-207645000D01*
D34*
X360680000Y-295275000D02*
X358140000Y-297815000D01*
X360680000Y-294640000D02*
X360680000Y-295275000D01*
X358140000Y-297815000D02*
X358140000Y-300355000D01*
X358140000Y-205740000D02*
X358140000Y-297815000D01*
D36*
X370840000Y-353275000D02*
X368915000Y-353275000D01*
D34*
X358140000Y-300355000D02*
X358140000Y-353695000D01*
D36*
X367030000Y-354965000D02*
X367665000Y-354330000D01*
X359410000Y-347345000D02*
X367030000Y-354965000D01*
D34*
X371075000Y-353275000D02*
X384575000Y-353275000D01*
D31*
X366395000Y-201930000D02*
X377190000Y-201930000D01*
D32*
X453771000Y-296545000D02*
X452374000Y-295148000D01*
D33*
X452374000Y-295021000D02*
X424561000Y-295021000D01*
D32*
X453771000Y-296926000D02*
X453771000Y-296418000D01*
D33*
X453771000Y-295021000D02*
X452374000Y-295021000D01*
D32*
X453771000Y-295021000D02*
X453771000Y-296926000D01*
X453771000Y-296545000D02*
X455041000Y-295275000D01*
X453771000Y-296926000D02*
X453771000Y-296291000D01*
D33*
X455041000Y-295021000D02*
X453771000Y-295021000D01*
X464566000Y-295021000D02*
X455041000Y-295021000D01*
X467995000Y-304800000D02*
X467995000Y-297180000D01*
X466130000Y-303490000D02*
X466685000Y-303490000D01*
X464185000Y-303490000D02*
X466130000Y-303490000D01*
X466685000Y-303490000D02*
X467995000Y-304800000D01*
D32*
X467995000Y-313055000D02*
X467995000Y-304800000D01*
X450850000Y-308610000D02*
X448945000Y-310515000D01*
X450850000Y-312420000D02*
X448945000Y-310515000D01*
D34*
X414020000Y-250190000D02*
X460375000Y-250190000D01*
D32*
X465455000Y-250190000D02*
X466090000Y-250190000D01*
D34*
X466090000Y-250190000D02*
X467360000Y-250190000D01*
X463550000Y-250190000D02*
X466090000Y-250190000D01*
X460375000Y-250190000D02*
X463550000Y-250190000D01*
D31*
X443865000Y-240030000D02*
X445135000Y-238760000D01*
X437515000Y-240030000D02*
X443865000Y-240030000D01*
X436245000Y-238760000D02*
X437515000Y-240030000D01*
X433070000Y-238760000D02*
X436245000Y-238760000D01*
X374650000Y-212090000D02*
X374650000Y-208915000D01*
X374650000Y-208915000D02*
X374650000Y-207010000D01*
D32*
X451485000Y-245745000D02*
X451485000Y-248285000D01*
X463550000Y-250190000D02*
X462915000Y-249555000D01*
X453072500Y-245745000D02*
X455930000Y-248602500D01*
X451485000Y-245745000D02*
X453072500Y-245745000D01*
D33*
X452755000Y-247015000D02*
X452755000Y-248285000D01*
X465455000Y-248285000D02*
X464502500Y-249237500D01*
X466090000Y-248285000D02*
X465455000Y-248285000D01*
D32*
X464502500Y-249237500D02*
X465455000Y-250190000D01*
X415290000Y-249555000D02*
X415290000Y-250190000D01*
X412115000Y-246380000D02*
X415290000Y-249555000D01*
D34*
X467360000Y-250190000D02*
X516255000Y-250190000D01*
D33*
X506095000Y-247015000D02*
X506095000Y-248285000D01*
D32*
X506412500Y-245745000D02*
X509270000Y-248602500D01*
X504825000Y-245745000D02*
X504825000Y-248285000D01*
X504825000Y-245745000D02*
X506412500Y-245745000D01*
D31*
X509905000Y-245745000D02*
X509905000Y-229870000D01*
X511175000Y-228600000D02*
X511175000Y-245745000D01*
D33*
X412115000Y-248285000D02*
X461645000Y-248285000D01*
D32*
X504825000Y-247650000D02*
X503555000Y-248920000D01*
D33*
X467995000Y-304800000D02*
X471170000Y-301625000D01*
X480314000Y-295021000D02*
X468884000Y-295021000D01*
X491871000Y-298831000D02*
X480949000Y-298831000D01*
X478790000Y-296545000D02*
X480314000Y-295021000D01*
X469265000Y-297815000D02*
X469265000Y-303530000D01*
X470535000Y-296545000D02*
X469265000Y-297815000D01*
X478790000Y-296545000D02*
X470535000Y-296545000D01*
X476885000Y-296545000D02*
X473075000Y-300355000D01*
X478790000Y-296545000D02*
X476885000Y-296545000D01*
X476885000Y-298450000D02*
X478790000Y-296545000D01*
X476885000Y-301625000D02*
X476885000Y-298450000D01*
X473710000Y-304800000D02*
X476885000Y-301625000D01*
X469265000Y-304800000D02*
X473710000Y-304800000D01*
D32*
X467995000Y-306070000D02*
X469265000Y-304800000D01*
X469900000Y-304165000D02*
X471170000Y-302895000D01*
X470535000Y-304165000D02*
X471805000Y-302895000D01*
D33*
X484759000Y-295021000D02*
X485394000Y-295021000D01*
X473710000Y-304800000D02*
X474980000Y-304800000D01*
X481711000Y-295529000D02*
X481711000Y-295021000D01*
X476885000Y-300355000D02*
X481711000Y-295529000D01*
D34*
X360680000Y-297815000D02*
X358140000Y-300355000D01*
X360680000Y-294640000D02*
X360680000Y-297815000D01*
D36*
X360680000Y-345040000D02*
X360680000Y-288290000D01*
X368915000Y-353275000D02*
X360680000Y-345040000D01*
D34*
X369970000Y-354330000D02*
X368915000Y-353275000D01*
X384575000Y-353275000D02*
X383520000Y-354330000D01*
X381615000Y-356235000D02*
X360680000Y-356235000D01*
X384575000Y-353275000D02*
X381615000Y-356235000D01*
X380365000Y-354330000D02*
X381000000Y-354330000D01*
X383520000Y-354330000D02*
X380365000Y-354330000D01*
X380365000Y-354330000D02*
X369970000Y-354330000D01*
X381000000Y-354330000D02*
X383540000Y-351790000D01*
X383540000Y-351790000D02*
X386080000Y-351790000D01*
X386080000Y-351790000D02*
X386715000Y-352425000D01*
X386715000Y-353695000D02*
X384175000Y-356235000D01*
X386715000Y-352425000D02*
X386715000Y-353695000D01*
X384175000Y-356235000D02*
X381615000Y-356235000D01*
D33*
X375920000Y-295275000D02*
X374332500Y-295275000D01*
X374332500Y-295275000D02*
X371475000Y-298132500D01*
X371475000Y-298132500D02*
X371475000Y-311785000D01*
X371475000Y-311785000D02*
X365125000Y-318135000D01*
X365125000Y-318135000D02*
X365125000Y-342265000D01*
X373135000Y-350275000D02*
X374425000Y-350275000D01*
X365125000Y-342265000D02*
X373135000Y-350275000D01*
X513080000Y-322834000D02*
X513080000Y-320040000D01*
X513080000Y-320040000D02*
X528701000Y-320040000D01*
X528701000Y-320040000D02*
X528701000Y-330200000D01*
X528701000Y-330200000D02*
X513080000Y-330200000D01*
X513080000Y-330200000D02*
X513080000Y-327406000D01*
X513080000Y-327406000D02*
X513080000Y-325120000D01*
X509016000Y-325120000D02*
X513080000Y-325120000D01*
X513080000Y-325120000D02*
X513080000Y-312420000D01*
X511810000Y-313690000D02*
X513080000Y-312420000D01*
X511810000Y-313690000D02*
X513080000Y-314960000D01*
D31*
X426085000Y-223520000D02*
X419735000Y-223520000D01*
X418465000Y-226060000D02*
X426085000Y-226060000D01*
D32*
X453771000Y-305689000D02*
X450215000Y-309245000D01*
X453771000Y-296926000D02*
X453771000Y-305689000D01*
X450850000Y-308610000D02*
X450850000Y-313055000D01*
X451167500Y-308292500D02*
X450850000Y-308610000D01*
D34*
X517525000Y-226060000D02*
X520065000Y-223520000D01*
X520065000Y-191135000D02*
X520065000Y-223520000D01*
X517525000Y-226060000D02*
X520065000Y-228600000D01*
X516255000Y-226060000D02*
X517525000Y-226060000D01*
X520065000Y-223520000D02*
X520065000Y-228600000D01*
X516636000Y-189128400D02*
X520446000Y-192938400D01*
D32*
X375880000Y-316865000D02*
X375880000Y-317460000D01*
X379095000Y-319405000D02*
X378460000Y-319405000D01*
X375880000Y-320080000D02*
X377507500Y-318452500D01*
X377507500Y-318452500D02*
X375920000Y-316865000D01*
X378460000Y-319405000D02*
X377507500Y-318452500D01*
X375880000Y-317460000D02*
X375880000Y-320080000D01*
X375880000Y-320080000D02*
X375880000Y-321270000D01*
D31*
X439420000Y-305435000D02*
X447675000Y-297180000D01*
X428625000Y-305435000D02*
X439420000Y-305435000D01*
X416560000Y-317500000D02*
X428625000Y-305435000D01*
X416560000Y-328295000D02*
X416560000Y-317500000D01*
X412115000Y-332740000D02*
X416560000Y-328295000D01*
X387985000Y-332740000D02*
X412115000Y-332740000D01*
X386715000Y-331470000D02*
X387985000Y-332740000D01*
X383540000Y-331470000D02*
X386715000Y-331470000D01*
X429895000Y-307975000D02*
X419100000Y-318770000D01*
X440690000Y-307975000D02*
X429895000Y-307975000D01*
X451485000Y-297180000D02*
X440690000Y-307975000D01*
X432435000Y-301625000D02*
X436880000Y-297180000D01*
X426720000Y-301625000D02*
X432435000Y-301625000D01*
X412750000Y-315595000D02*
X426720000Y-301625000D01*
X412750000Y-326390000D02*
X412750000Y-315595000D01*
D33*
X461645000Y-248285000D02*
X514350000Y-248285000D01*
X514350000Y-248285000D02*
X516255000Y-250190000D01*
D36*
X368935000Y-212725000D02*
X363220000Y-207010000D01*
X368935000Y-233680000D02*
X368935000Y-212725000D01*
X363220000Y-239395000D02*
X368935000Y-233680000D01*
X363220000Y-239395000D02*
X363220000Y-217170000D01*
X360680000Y-243840000D02*
X360680000Y-240665000D01*
X360680000Y-241935000D02*
X360680000Y-243840000D01*
X366395000Y-236220000D02*
X360680000Y-241935000D01*
X366395000Y-217170000D02*
X366395000Y-236220000D01*
X360045000Y-210820000D02*
X366395000Y-217170000D01*
X360045000Y-207010000D02*
X360045000Y-210820000D01*
D31*
X375285000Y-226060000D02*
X375285000Y-231140000D01*
X380365000Y-220980000D02*
X375285000Y-226060000D01*
X387350000Y-220980000D02*
X380365000Y-220980000D01*
D32*
X505420000Y-313690000D02*
X505460000Y-313690000D01*
X504845000Y-314305000D02*
X504805000Y-314305000D01*
X506770000Y-316230000D02*
X504845000Y-314305000D01*
X504805000Y-314305000D02*
X505420000Y-313690000D01*
X502880000Y-316230000D02*
X504805000Y-314305000D01*
X505122500Y-312757500D02*
X504487500Y-312757500D01*
X504487500Y-312757500D02*
X505420000Y-313690000D01*
X506730000Y-316190000D02*
X506770000Y-316230000D01*
X508000000Y-313690000D02*
X506730000Y-314960000D01*
X506730000Y-314960000D02*
X506730000Y-316190000D01*
X506730000Y-311150000D02*
X506730000Y-314960000D01*
X505460000Y-313690000D02*
X508000000Y-313690000D01*
X508000000Y-313690000D02*
X511850000Y-313690000D01*
X508000000Y-313690000D02*
X506095000Y-311785000D01*
X506095000Y-311785000D02*
X505122500Y-312757500D01*
X506730000Y-311150000D02*
X506095000Y-311785000D01*
X503535000Y-315575000D02*
X502880000Y-316230000D01*
X502880000Y-311150000D02*
X503535000Y-311805000D01*
X503535000Y-311805000D02*
X503535000Y-315575000D01*
X503535000Y-311805000D02*
X504487500Y-312757500D01*
D35*
X506730000Y-311150000D02*
X504190000Y-311150000D01*
D32*
X450850000Y-310515000D02*
X450215000Y-311150000D01*
X434975000Y-310515000D02*
X450850000Y-310515000D01*
X433705000Y-311785000D02*
X434975000Y-310515000D01*
X433705000Y-313055000D02*
X433705000Y-311785000D01*
D31*
X430530000Y-313055000D02*
X433705000Y-313055000D01*
X428625000Y-314960000D02*
X430530000Y-313055000D01*
X428625000Y-316230000D02*
X428625000Y-314960000D01*
X447040000Y-345440000D02*
X447040000Y-348615000D01*
X447040000Y-330200000D02*
X447040000Y-345440000D01*
X453390000Y-323850000D02*
X447040000Y-330200000D01*
X449580000Y-345440000D02*
X449580000Y-348615000D01*
X448310000Y-344170000D02*
X449580000Y-345440000D01*
X448310000Y-331470000D02*
X448310000Y-344170000D01*
X453390000Y-326390000D02*
X448310000Y-331470000D01*
X452120000Y-345440000D02*
X452120000Y-348615000D01*
X449580000Y-342900000D02*
X452120000Y-345440000D01*
X449580000Y-332740000D02*
X449580000Y-342900000D01*
X453390000Y-328930000D02*
X449580000Y-332740000D01*
D34*
X520700000Y-252095000D02*
X429895000Y-252095000D01*
X522605000Y-254000000D02*
X520700000Y-252095000D01*
X516255000Y-250190000D02*
X521335000Y-250190000D01*
X522605000Y-295275000D02*
X522605000Y-254000000D01*
X521335000Y-250190000D02*
X524510000Y-253365000D01*
X524510000Y-253365000D02*
X524510000Y-296545000D01*
X524510000Y-296545000D02*
X520065000Y-300990000D01*
X520065000Y-300990000D02*
X508000000Y-300990000D01*
X508000000Y-300990000D02*
X500380000Y-308610000D01*
X500380000Y-308610000D02*
X500380000Y-326339200D01*
X500380000Y-326339200D02*
X498094000Y-328625200D01*
X498094000Y-328625200D02*
X498094000Y-307721000D01*
X498094000Y-307721000D02*
X506730000Y-299085000D01*
X506730000Y-299085000D02*
X518795000Y-299085000D01*
X518795000Y-299085000D02*
X522605000Y-295275000D01*
D33*
X517144000Y-295021000D02*
X518160000Y-294005000D01*
X518160000Y-294005000D02*
X423545000Y-294005000D01*
X516890000Y-295275000D02*
X517144000Y-295021000D01*
X495300000Y-295275000D02*
X516890000Y-295275000D01*
D36*
X483235000Y-296545000D02*
X489585000Y-296545000D01*
D33*
X474980000Y-304800000D02*
X483235000Y-296545000D01*
X483235000Y-296545000D02*
X484759000Y-295021000D01*
D31*
X387350000Y-193040000D02*
X397510000Y-193040000D01*
X397510000Y-193040000D02*
X400050000Y-190500000D01*
X400050000Y-190500000D02*
X404495000Y-190500000D01*
X404495000Y-190500000D02*
X405765000Y-189230000D01*
X405765000Y-189230000D02*
X408940000Y-189230000D01*
X408940000Y-189230000D02*
X411480000Y-191770000D01*
X411480000Y-191770000D02*
X417830000Y-191770000D01*
X417830000Y-191770000D02*
X419100000Y-190500000D01*
X421005000Y-192405000D02*
X421005000Y-216535000D01*
X419100000Y-190500000D02*
X421005000Y-192405000D01*
X417830000Y-217170000D02*
X418465000Y-216535000D01*
X401955000Y-217170000D02*
X417830000Y-217170000D01*
X390525000Y-205740000D02*
X401955000Y-217170000D01*
X387350000Y-205740000D02*
X390525000Y-205740000D01*
X389890000Y-203200000D02*
X387350000Y-203200000D01*
X401320000Y-214630000D02*
X389890000Y-203200000D01*
X406400000Y-214630000D02*
X401320000Y-214630000D01*
X408305000Y-216535000D02*
X406400000Y-214630000D01*
X417195000Y-216535000D02*
X408305000Y-216535000D01*
X418465000Y-215265000D02*
X417195000Y-216535000D01*
X419735000Y-215265000D02*
X418465000Y-215265000D01*
X389890000Y-200660000D02*
X387350000Y-200660000D01*
X401320000Y-212090000D02*
X389890000Y-200660000D01*
X410210000Y-212090000D02*
X401320000Y-212090000D01*
X411480000Y-213360000D02*
X410210000Y-212090000D01*
X414655000Y-213360000D02*
X411480000Y-213360000D01*
X398780000Y-207010000D02*
X404495000Y-207010000D01*
X389890000Y-198120000D02*
X398780000Y-207010000D01*
X387350000Y-198120000D02*
X389890000Y-198120000D01*
X441960000Y-314960000D02*
X431165000Y-314960000D01*
X456565000Y-314960000D02*
X441960000Y-314960000D01*
X462915000Y-321310000D02*
X456565000Y-314960000D01*
X386715000Y-336550000D02*
X383540000Y-336550000D01*
X387985000Y-337820000D02*
X386715000Y-336550000D01*
X410845000Y-337820000D02*
X387985000Y-337820000D01*
X419100000Y-329565000D02*
X410845000Y-337820000D01*
X419100000Y-318770000D02*
X419100000Y-329565000D01*
X440055000Y-306705000D02*
X449580000Y-297180000D01*
X429260000Y-306705000D02*
X440055000Y-306705000D01*
X417830000Y-318135000D02*
X429260000Y-306705000D01*
X417830000Y-328930000D02*
X417830000Y-318135000D01*
X411480000Y-335280000D02*
X417830000Y-328930000D01*
X387985000Y-335280000D02*
X411480000Y-335280000D01*
X386715000Y-334010000D02*
X387985000Y-335280000D01*
X383540000Y-334010000D02*
X386715000Y-334010000D01*
X431165000Y-299085000D02*
X433070000Y-297180000D01*
X425450000Y-299085000D02*
X431165000Y-299085000D01*
X410210000Y-314325000D02*
X425450000Y-299085000D01*
X410210000Y-324485000D02*
X410210000Y-314325000D01*
X408305000Y-326390000D02*
X410210000Y-324485000D01*
X398145000Y-326390000D02*
X408305000Y-326390000D01*
X394335000Y-322580000D02*
X398145000Y-326390000D01*
X392430000Y-322580000D02*
X394335000Y-322580000D01*
X391160000Y-323850000D02*
X392430000Y-322580000D01*
X393700000Y-323850000D02*
X397510000Y-327660000D01*
X397510000Y-327660000D02*
X409416250Y-327660000D01*
X409416250Y-327660000D02*
X411480000Y-325596250D01*
X411480000Y-325596250D02*
X411480000Y-314960000D01*
X411480000Y-314960000D02*
X426085000Y-300355000D01*
X426085000Y-300355000D02*
X431800000Y-300355000D01*
X431800000Y-300355000D02*
X434975000Y-297180000D01*
X410210000Y-342265000D02*
X410210000Y-348615000D01*
X427355000Y-325120000D02*
X410210000Y-342265000D01*
X429895000Y-325120000D02*
X427355000Y-325120000D01*
X436245000Y-318770000D02*
X429895000Y-325120000D01*
X412750000Y-342265000D02*
X412750000Y-348615000D01*
X427355000Y-327660000D02*
X412750000Y-342265000D01*
X429895000Y-327660000D02*
X427355000Y-327660000D01*
X436245000Y-321310000D02*
X429895000Y-327660000D01*
X427355000Y-330200000D02*
X415290000Y-342265000D01*
X429895000Y-330200000D02*
X427355000Y-330200000D01*
X415290000Y-342265000D02*
X415290000Y-348615000D01*
X436245000Y-323850000D02*
X429895000Y-330200000D01*
X417830000Y-342265000D02*
X417830000Y-348615000D01*
X427355000Y-332740000D02*
X417830000Y-342265000D01*
X429895000Y-332740000D02*
X427355000Y-332740000D01*
X436245000Y-326390000D02*
X429895000Y-332740000D01*
X420370000Y-342265000D02*
X420370000Y-348615000D01*
X427355000Y-335280000D02*
X420370000Y-342265000D01*
X429895000Y-335280000D02*
X427355000Y-335280000D01*
X436245000Y-328930000D02*
X429895000Y-335280000D01*
X422910000Y-342265000D02*
X422910000Y-348615000D01*
X429895000Y-337820000D02*
X427355000Y-337820000D01*
X427355000Y-337820000D02*
X422910000Y-342265000D01*
X436245000Y-331470000D02*
X429895000Y-337820000D01*
X441960000Y-345440000D02*
X441960000Y-348615000D01*
X441960000Y-327660000D02*
X441960000Y-345440000D01*
X444500000Y-325120000D02*
X441960000Y-327660000D01*
X447040000Y-325120000D02*
X444500000Y-325120000D01*
X453390000Y-318770000D02*
X447040000Y-325120000D01*
X444500000Y-345440000D02*
X444500000Y-348615000D01*
X443230000Y-344170000D02*
X444500000Y-345440000D01*
X443230000Y-329565000D02*
X443230000Y-344170000D01*
X445135000Y-327660000D02*
X443230000Y-329565000D01*
X447040000Y-327660000D02*
X445135000Y-327660000D01*
X453390000Y-321310000D02*
X447040000Y-327660000D01*
X453390000Y-331470000D02*
X450850000Y-334010000D01*
X450850000Y-334010000D02*
X450850000Y-341630000D01*
X450850000Y-341630000D02*
X454660000Y-345440000D01*
X454660000Y-345440000D02*
X454660000Y-348615000D01*
X453390000Y-336550000D02*
X459740000Y-342900000D01*
X459740000Y-342900000D02*
X459740000Y-345440000D01*
X459740000Y-345440000D02*
X459740000Y-348615000D01*
X453390000Y-334010000D02*
X452120000Y-335280000D01*
X452120000Y-335280000D02*
X452120000Y-340360000D01*
X452120000Y-340360000D02*
X457200000Y-345440000D01*
X457200000Y-345440000D02*
X457200000Y-348615000D01*
X445770000Y-297180000D02*
X438785000Y-304165000D01*
X386715000Y-328930000D02*
X383540000Y-328930000D01*
X438785000Y-304165000D02*
X427990000Y-304165000D01*
X415290000Y-327660000D02*
X411480000Y-331470000D01*
X427990000Y-304165000D02*
X415290000Y-316865000D01*
X415290000Y-316865000D02*
X415290000Y-327660000D01*
X387985000Y-330200000D02*
X386715000Y-328930000D01*
X411480000Y-331470000D02*
X394970000Y-331470000D01*
X394970000Y-331470000D02*
X393700000Y-330200000D01*
X393700000Y-330200000D02*
X387985000Y-330200000D01*
X383540000Y-326390000D02*
X386715000Y-326390000D01*
X393700000Y-327660000D02*
X396240000Y-330200000D01*
X414020000Y-316230000D02*
X427355000Y-302895000D01*
X386715000Y-326390000D02*
X387985000Y-327660000D01*
X387985000Y-327660000D02*
X393700000Y-327660000D01*
X414020000Y-327025000D02*
X414020000Y-316230000D01*
X396240000Y-330200000D02*
X410845000Y-330200000D01*
X410845000Y-330200000D02*
X414020000Y-327025000D01*
X427355000Y-302895000D02*
X433070000Y-302895000D01*
X433070000Y-302895000D02*
X438785000Y-297180000D01*
X383540000Y-323850000D02*
X386715000Y-323850000D01*
X386715000Y-323850000D02*
X387985000Y-325120000D01*
X387985000Y-325120000D02*
X393065000Y-325120000D01*
X393065000Y-325120000D02*
X396875000Y-328930000D01*
X396875000Y-328930000D02*
X410210000Y-328930000D01*
X410210000Y-328930000D02*
X412750000Y-326390000D01*
D32*
X421640000Y-218440000D02*
X417195000Y-218440000D01*
X422910000Y-217170000D02*
X421640000Y-218440000D01*
X422910000Y-193040000D02*
X422910000Y-217170000D01*
X417195000Y-218440000D02*
X414655000Y-218440000D01*
X425450000Y-190500000D02*
X422910000Y-193040000D01*
X426720000Y-190500000D02*
X425450000Y-190500000D01*
D35*
X504825000Y-246380000D02*
X502920000Y-248285000D01*
X451485000Y-246380000D02*
X449580000Y-248285000D01*
D31*
X408940000Y-245745000D02*
X404495000Y-241300000D01*
D32*
X410845000Y-248285000D02*
X410845000Y-219710000D01*
D34*
X410845000Y-248285000D02*
X404177500Y-248285000D01*
D35*
X410845000Y-245745000D02*
X408305000Y-248285000D01*
D31*
X382310000Y-223520000D02*
X387350000Y-223520000D01*
X380225000Y-225605000D02*
X382310000Y-223520000D01*
X380185000Y-225645000D02*
X380225000Y-225605000D01*
X380185000Y-231140000D02*
X380185000Y-225645000D01*
D32*
X414655000Y-187960000D02*
X414655000Y-190500000D01*
D34*
X428625000Y-185420000D02*
X368935000Y-185420000D01*
X368935000Y-186055000D02*
X361895000Y-193095000D01*
X361895000Y-193095000D02*
X361895000Y-195580000D01*
X440055000Y-186055000D02*
X441325000Y-187325000D01*
X441325000Y-187325000D02*
X440690000Y-187960000D01*
X440055000Y-186690000D02*
X431165000Y-186690000D01*
X431800000Y-187960000D02*
X431165000Y-188595000D01*
X440690000Y-187960000D02*
X431800000Y-187960000D01*
D32*
X419695000Y-185420000D02*
X419735000Y-185420000D01*
X417155000Y-187960000D02*
X419695000Y-185420000D01*
D34*
X419735000Y-185420000D02*
X440055000Y-185420000D01*
D32*
X417155000Y-187960000D02*
X417155000Y-186650000D01*
D34*
X415925000Y-185420000D02*
X419735000Y-185420000D01*
D32*
X417155000Y-186650000D02*
X415925000Y-185420000D01*
X426720000Y-187960000D02*
X426720000Y-190500000D01*
X426720000Y-189230000D02*
X425450000Y-190500000D01*
X426720000Y-187960000D02*
X426720000Y-189230000D01*
D34*
X440690000Y-189865000D02*
X432435000Y-189865000D01*
X432435000Y-189865000D02*
X431165000Y-188595000D01*
X431165000Y-188595000D02*
X427990000Y-185420000D01*
X370150000Y-187325000D02*
X398780000Y-187325000D01*
X400050000Y-185420000D02*
X415925000Y-185420000D01*
X366395000Y-185420000D02*
X400050000Y-185420000D01*
X368272500Y-189202500D02*
X397482500Y-189202500D01*
X361895000Y-195580000D02*
X368272500Y-189202500D01*
X368272500Y-189202500D02*
X370150000Y-187325000D01*
X397510000Y-189230000D02*
X401955000Y-184785000D01*
D32*
X414454340Y-297815000D02*
X414454340Y-306030000D01*
X417931600Y-293878000D02*
X414578800Y-297230800D01*
X417804600Y-295021000D02*
X414451800Y-298373800D01*
D33*
X400685000Y-302260000D02*
X400685000Y-299720000D01*
D34*
X408305000Y-304165000D02*
X408305000Y-306070000D01*
X405993600Y-301853600D02*
X408305000Y-304165000D01*
X405765000Y-301625000D02*
X405993600Y-301853600D01*
X405765000Y-283210000D02*
X405765000Y-301625000D01*
D32*
X401637500Y-302577500D02*
X401320000Y-302895000D01*
X401637500Y-299402500D02*
X401637500Y-302577500D01*
D33*
X401320000Y-302895000D02*
X400685000Y-302260000D01*
X402590000Y-304165000D02*
X401320000Y-302895000D01*
D32*
X400685000Y-300355000D02*
X401637500Y-299402500D01*
X401637500Y-299402500D02*
X402590000Y-298450000D01*
D34*
X403225000Y-303530000D02*
X402590000Y-302895000D01*
X403225000Y-322580000D02*
X403225000Y-303530000D01*
X401955000Y-323850000D02*
X403225000Y-322580000D01*
X400685000Y-323850000D02*
X401955000Y-323850000D01*
D32*
X516930000Y-245745000D02*
X516930000Y-244435000D01*
X518160000Y-243205000D02*
X520700000Y-243205000D01*
X516930000Y-244435000D02*
X518160000Y-243205000D01*
D34*
X520700000Y-243205000D02*
X528320000Y-250825000D01*
X520065000Y-242570000D02*
X520700000Y-243205000D01*
D32*
X516930000Y-244435000D02*
X516930000Y-243800000D01*
D34*
X520065000Y-240665000D02*
X520065000Y-242570000D01*
D32*
X516930000Y-243800000D02*
X520065000Y-240665000D01*
D34*
X520065000Y-228600000D02*
X520065000Y-240665000D01*
D31*
X425450000Y-342265000D02*
X425450000Y-348615000D01*
X427355000Y-340360000D02*
X425450000Y-342265000D01*
X429895000Y-340360000D02*
X427355000Y-340360000D01*
X436245000Y-334010000D02*
X429895000Y-340360000D01*
X427990000Y-342265000D02*
X427990000Y-348615000D01*
X428625000Y-341630000D02*
X427990000Y-342265000D01*
X431165000Y-341630000D02*
X428625000Y-341630000D01*
X436245000Y-336550000D02*
X431165000Y-341630000D01*
X379095000Y-212090000D02*
X374650000Y-212090000D01*
X381000000Y-213995000D02*
X379095000Y-212090000D01*
X385445000Y-213995000D02*
X381000000Y-213995000D01*
X385445000Y-218440000D02*
X385445000Y-213995000D01*
X386715000Y-219710000D02*
X385445000Y-218440000D01*
X387985000Y-219710000D02*
X386715000Y-219710000D01*
X389255000Y-220980000D02*
X387985000Y-219710000D01*
X389255000Y-240030000D02*
X389255000Y-220980000D01*
X403225000Y-254000000D02*
X389255000Y-240030000D01*
X386080000Y-213360000D02*
X387350000Y-213360000D01*
X385445000Y-213995000D02*
X386080000Y-213360000D01*
D32*
X400685000Y-275590000D02*
X400685000Y-278130000D01*
X400685000Y-278130000D02*
X402590000Y-280035000D01*
X402590000Y-280035000D02*
X402590000Y-299085000D01*
X402590000Y-299085000D02*
X402590000Y-304165000D01*
D35*
X470535000Y-313095000D02*
X470495000Y-313055000D01*
D34*
X511810000Y-353695000D02*
X513080000Y-352425000D01*
X511175000Y-352425000D02*
X510540000Y-353060000D01*
X511810000Y-351790000D02*
X513080000Y-350520000D01*
X520700000Y-354965000D02*
X527367500Y-348297500D01*
X514985000Y-354965000D02*
X519430000Y-354965000D01*
X506380000Y-350805000D02*
X509905000Y-354330000D01*
X525780000Y-354965000D02*
X526415000Y-354330000D01*
X516255000Y-354965000D02*
X525780000Y-354965000D01*
X513080000Y-353060000D02*
X515620000Y-355600000D01*
X508635000Y-354330000D02*
X514350000Y-354330000D01*
X513080000Y-353060000D02*
X514350000Y-354330000D01*
X513080000Y-338455000D02*
X513080000Y-353060000D01*
D31*
X414655000Y-220980000D02*
X415925000Y-222250000D01*
X415925000Y-222250000D02*
X434340000Y-222250000D01*
X434340000Y-222250000D02*
X440690000Y-215900000D01*
X440690000Y-215900000D02*
X442595000Y-215900000D01*
X443865000Y-224790000D02*
X445135000Y-223520000D01*
X441325000Y-224790000D02*
X443865000Y-224790000D01*
X427990000Y-232410000D02*
X433705000Y-232410000D01*
X426720000Y-233680000D02*
X427990000Y-232410000D01*
X419735000Y-233680000D02*
X426720000Y-233680000D01*
X433705000Y-232410000D02*
X441325000Y-224790000D01*
X414655000Y-238760000D02*
X419735000Y-233680000D01*
X441325000Y-223520000D02*
X442595000Y-223520000D01*
X433705000Y-231140000D02*
X441325000Y-223520000D01*
X427990000Y-231140000D02*
X433705000Y-231140000D01*
X426720000Y-232410000D02*
X427990000Y-231140000D01*
X418465000Y-232410000D02*
X426720000Y-232410000D01*
X414655000Y-236220000D02*
X418465000Y-232410000D01*
X427990000Y-229870000D02*
X433070000Y-229870000D01*
X426720000Y-231140000D02*
X427990000Y-229870000D01*
X433070000Y-229870000D02*
X440690000Y-222250000D01*
X417195000Y-231140000D02*
X426720000Y-231140000D01*
X414655000Y-233680000D02*
X417195000Y-231140000D01*
X440690000Y-220980000D02*
X442595000Y-220980000D01*
X433070000Y-228600000D02*
X440690000Y-220980000D01*
X426720000Y-229870000D02*
X427990000Y-228600000D01*
X415925000Y-229870000D02*
X426720000Y-229870000D01*
X427990000Y-228600000D02*
X433070000Y-228600000D01*
X414655000Y-231140000D02*
X415925000Y-229870000D01*
X433070000Y-227330000D02*
X440690000Y-219710000D01*
X427990000Y-227330000D02*
X433070000Y-227330000D01*
X426720000Y-228600000D02*
X427990000Y-227330000D01*
X414655000Y-228600000D02*
X426720000Y-228600000D01*
X440690000Y-218440000D02*
X442595000Y-218440000D01*
X433070000Y-226060000D02*
X440690000Y-218440000D01*
X427990000Y-226060000D02*
X433070000Y-226060000D01*
X426720000Y-227330000D02*
X427990000Y-226060000D01*
X415925000Y-227330000D02*
X426720000Y-227330000D01*
X414655000Y-226060000D02*
X415925000Y-227330000D01*
X433070000Y-224790000D02*
X440690000Y-217170000D01*
X415925000Y-224790000D02*
X433070000Y-224790000D01*
X414655000Y-223520000D02*
X415925000Y-224790000D01*
X428625000Y-233680000D02*
X417195000Y-245110000D01*
X442595000Y-233680000D02*
X428625000Y-233680000D01*
X429260000Y-234950000D02*
X419100000Y-245110000D01*
X440690000Y-234950000D02*
X429260000Y-234950000D01*
X429895000Y-236220000D02*
X421005000Y-245110000D01*
X442595000Y-236220000D02*
X429895000Y-236220000D01*
X430530000Y-237490000D02*
X422910000Y-245110000D01*
X440690000Y-237490000D02*
X430530000Y-237490000D01*
X431165000Y-238760000D02*
X424815000Y-245110000D01*
X429895000Y-241935000D02*
X426720000Y-245110000D01*
X431800000Y-240030000D02*
X429895000Y-241935000D01*
X435610000Y-240030000D02*
X431800000Y-240030000D01*
X447675000Y-241300000D02*
X458470000Y-241300000D01*
X432435000Y-241300000D02*
X447675000Y-241300000D01*
X428625000Y-245110000D02*
X432435000Y-241300000D01*
X480695000Y-242570000D02*
X433070000Y-242570000D01*
X433070000Y-242570000D02*
X430530000Y-245110000D01*
X483235000Y-240030000D02*
X480695000Y-242570000D01*
X447675000Y-244475000D02*
X447040000Y-245110000D01*
X454660000Y-244475000D02*
X447675000Y-244475000D01*
X455295000Y-245110000D02*
X454660000Y-244475000D01*
X481965000Y-245110000D02*
X455295000Y-245110000D01*
X484505000Y-242570000D02*
X481965000Y-245110000D01*
X499110000Y-242570000D02*
X484505000Y-242570000D01*
X502285000Y-239395000D02*
X499110000Y-242570000D01*
X502285000Y-234950000D02*
X502285000Y-239395000D01*
X506095000Y-231140000D02*
X502285000Y-234950000D01*
X447040000Y-245110000D02*
X434340000Y-245110000D01*
X508635000Y-231140000D02*
X506095000Y-231140000D01*
D32*
X474345000Y-334010000D02*
X474345000Y-320675000D01*
X467995000Y-340360000D02*
X474345000Y-334010000D01*
X467995000Y-353060000D02*
X467995000Y-340360000D01*
D31*
X433705000Y-243840000D02*
X432435000Y-245110000D01*
X481330000Y-243840000D02*
X433705000Y-243840000D01*
X483870000Y-241300000D02*
X481330000Y-243840000D01*
X498475000Y-241300000D02*
X483870000Y-241300000D01*
X501015000Y-238760000D02*
X498475000Y-241300000D01*
X501015000Y-229870000D02*
X501015000Y-238760000D01*
%TD*%
M02*
