%TF.GenerationSoftware,KiCad,Pcbnew,(5.1.10)-1*%
%TF.CreationDate,2021-10-04T17:48:38-06:00*%
%TF.ProjectId,retroboard,72657472-6f62-46f6-9172-642e6b696361,rev?*%
%TF.SameCoordinates,Original*%
%TF.FileFunction,Copper,L2,Bot*%
%TF.FilePolarity,Positive*%
%FSLAX46Y46*%
G04 Gerber Fmt 4.6, Leading zero omitted, Abs format (unit mm)*
G04 Created by KiCad (PCBNEW (5.1.10)-1) date 2021-10-04 17:48:38*
%MOMM*%
%LPD*%
G01*
G04 APERTURE LIST*
%TA.AperFunction,ComponentPad*%
%ADD10C,1.600000*%
%TD*%
%TA.AperFunction,ComponentPad*%
%ADD11O,1.600000X1.600000*%
%TD*%
%TA.AperFunction,ComponentPad*%
%ADD12C,1.800000*%
%TD*%
%TA.AperFunction,ComponentPad*%
%ADD13R,1.800000X1.800000*%
%TD*%
%TA.AperFunction,ComponentPad*%
%ADD14R,1.600000X1.600000*%
%TD*%
%TA.AperFunction,ComponentPad*%
%ADD15C,7.600000*%
%TD*%
%TA.AperFunction,ComponentPad*%
%ADD16C,1.700000*%
%TD*%
%TA.AperFunction,ComponentPad*%
%ADD17O,1.700000X1.700000*%
%TD*%
%TA.AperFunction,ComponentPad*%
%ADD18R,1.700000X1.700000*%
%TD*%
%TA.AperFunction,ComponentPad*%
%ADD19C,3.300000*%
%TD*%
%TA.AperFunction,ComponentPad*%
%ADD20C,1.524000*%
%TD*%
%TA.AperFunction,ComponentPad*%
%ADD21C,2.000000*%
%TD*%
%TA.AperFunction,ComponentPad*%
%ADD22C,1.500000*%
%TD*%
%TA.AperFunction,ComponentPad*%
%ADD23R,3.500000X3.500000*%
%TD*%
%TA.AperFunction,ComponentPad*%
%ADD24R,2.000000X1.905000*%
%TD*%
%TA.AperFunction,ComponentPad*%
%ADD25O,2.000000X1.905000*%
%TD*%
%TA.AperFunction,ViaPad*%
%ADD26C,0.800000*%
%TD*%
%TA.AperFunction,Conductor*%
%ADD27C,0.250000*%
%TD*%
%TA.AperFunction,Conductor*%
%ADD28C,1.600000*%
%TD*%
%TA.AperFunction,Conductor*%
%ADD29C,2.000000*%
%TD*%
%TA.AperFunction,Conductor*%
%ADD30C,1.000000*%
%TD*%
%TA.AperFunction,Conductor*%
%ADD31C,2.500000*%
%TD*%
%TA.AperFunction,Conductor*%
%ADD32C,4.000000*%
%TD*%
G04 APERTURE END LIST*
D10*
%TO.P,4.7k\u03A9,1*%
%TO.N,N/C*%
X474345000Y-320675000D03*
D11*
%TO.P,4.7k\u03A9,2*%
X474345000Y-313055000D03*
%TD*%
D12*
%TO.P,Power,2*%
%TO.N,N/C*%
X470535000Y-353060000D03*
D13*
%TO.P,Power,1*%
X467995000Y-353060000D03*
%TD*%
D14*
%TO.P,1uf,1*%
%TO.N,N/C*%
X519430000Y-245745000D03*
D10*
%TO.P,1uf,2*%
X516930000Y-245745000D03*
%TD*%
%TO.P,0.1uf,2*%
%TO.N,N/C*%
X429220000Y-187960000D03*
%TO.P,0.1uf,1*%
X426720000Y-187960000D03*
%TD*%
%TO.P,0.1uf,1*%
%TO.N,N/C*%
X414655000Y-187960000D03*
%TO.P,0.1uf,2*%
X417155000Y-187960000D03*
%TD*%
%TO.P,0.1uf,1*%
%TO.N,N/C*%
X422275000Y-218440000D03*
%TO.P,0.1uf,2*%
X424775000Y-218440000D03*
%TD*%
D14*
%TO.P,74573,1*%
%TO.N,N/C*%
X428625000Y-316230000D03*
D11*
%TO.P,74573,11*%
X436245000Y-339090000D03*
%TO.P,74573,2*%
X428625000Y-318770000D03*
%TO.P,74573,12*%
X436245000Y-336550000D03*
%TO.P,74573,3*%
X428625000Y-321310000D03*
%TO.P,74573,13*%
X436245000Y-334010000D03*
%TO.P,74573,4*%
X428625000Y-323850000D03*
%TO.P,74573,14*%
X436245000Y-331470000D03*
%TO.P,74573,5*%
X428625000Y-326390000D03*
%TO.P,74573,15*%
X436245000Y-328930000D03*
%TO.P,74573,6*%
X428625000Y-328930000D03*
%TO.P,74573,16*%
X436245000Y-326390000D03*
%TO.P,74573,7*%
X428625000Y-331470000D03*
%TO.P,74573,17*%
X436245000Y-323850000D03*
%TO.P,74573,8*%
X428625000Y-334010000D03*
%TO.P,74573,18*%
X436245000Y-321310000D03*
%TO.P,74573,9*%
X428625000Y-336550000D03*
%TO.P,74573,19*%
X436245000Y-318770000D03*
%TO.P,74573,10*%
X428625000Y-339090000D03*
%TO.P,74573,20*%
X436245000Y-316230000D03*
%TD*%
D14*
%TO.P,74573,1*%
%TO.N,N/C*%
X445770000Y-316230000D03*
D11*
%TO.P,74573,11*%
X453390000Y-339090000D03*
%TO.P,74573,2*%
X445770000Y-318770000D03*
%TO.P,74573,12*%
X453390000Y-336550000D03*
%TO.P,74573,3*%
X445770000Y-321310000D03*
%TO.P,74573,13*%
X453390000Y-334010000D03*
%TO.P,74573,4*%
X445770000Y-323850000D03*
%TO.P,74573,14*%
X453390000Y-331470000D03*
%TO.P,74573,5*%
X445770000Y-326390000D03*
%TO.P,74573,15*%
X453390000Y-328930000D03*
%TO.P,74573,6*%
X445770000Y-328930000D03*
%TO.P,74573,16*%
X453390000Y-326390000D03*
%TO.P,74573,7*%
X445770000Y-331470000D03*
%TO.P,74573,17*%
X453390000Y-323850000D03*
%TO.P,74573,8*%
X445770000Y-334010000D03*
%TO.P,74573,18*%
X453390000Y-321310000D03*
%TO.P,74573,9*%
X445770000Y-336550000D03*
%TO.P,74573,19*%
X453390000Y-318770000D03*
%TO.P,74573,10*%
X445770000Y-339090000D03*
%TO.P,74573,20*%
X453390000Y-316230000D03*
%TD*%
%TO.P,7404,14*%
%TO.N,N/C*%
X470535000Y-316230000D03*
%TO.P,7404,7*%
X462915000Y-331470000D03*
%TO.P,7404,13*%
X470535000Y-318770000D03*
%TO.P,7404,6*%
X462915000Y-328930000D03*
%TO.P,7404,12*%
X470535000Y-321310000D03*
%TO.P,7404,5*%
X462915000Y-326390000D03*
%TO.P,7404,11*%
X470535000Y-323850000D03*
%TO.P,7404,4*%
X462915000Y-323850000D03*
%TO.P,7404,10*%
X470535000Y-326390000D03*
%TO.P,7404,3*%
X462915000Y-321310000D03*
%TO.P,7404,9*%
X470535000Y-328930000D03*
%TO.P,7404,2*%
X462915000Y-318770000D03*
%TO.P,7404,8*%
X470535000Y-331470000D03*
D14*
%TO.P,7404,1*%
X462915000Y-316230000D03*
%TD*%
D10*
%TO.P,20pf,1*%
%TO.N,N/C*%
X382687200Y-226060000D03*
%TO.P,20pf,2*%
X380187200Y-226060000D03*
%TD*%
D15*
%TO.P, ,1*%
%TO.N,N/C*%
X432435000Y-217170000D03*
%TD*%
%TO.P, ,1*%
%TO.N,N/C*%
X473075000Y-300355000D03*
%TD*%
D10*
%TO.P,1uf,2*%
%TO.N,N/C*%
X502325000Y-245745000D03*
D14*
%TO.P,1uf,1*%
X504825000Y-245745000D03*
%TD*%
D10*
%TO.P,0.1uf,1*%
%TO.N,N/C*%
X383540000Y-218440000D03*
%TO.P,0.1uf,2*%
X383540000Y-215940000D03*
%TD*%
%TO.P,0.1uf,2*%
%TO.N,N/C*%
X470495000Y-313055000D03*
%TO.P,0.1uf,1*%
X467995000Y-313055000D03*
%TD*%
D16*
%TO.P, ,8*%
%TO.N,N/C*%
X459740000Y-348615000D03*
D17*
%TO.P, ,7*%
X457200000Y-348615000D03*
%TO.P, ,6*%
X454660000Y-348615000D03*
%TO.P, ,5*%
X452120000Y-348615000D03*
%TO.P, ,4*%
X449580000Y-348615000D03*
%TO.P, ,3*%
X447040000Y-348615000D03*
%TO.P, ,2*%
X444500000Y-348615000D03*
D18*
%TO.P, ,1*%
X441960000Y-348615000D03*
%TD*%
%TO.P, ,1*%
%TO.N,N/C*%
X410210000Y-348615000D03*
D17*
%TO.P, ,2*%
X412750000Y-348615000D03*
%TO.P, ,3*%
X415290000Y-348615000D03*
%TO.P, ,4*%
X417830000Y-348615000D03*
%TO.P, ,5*%
X420370000Y-348615000D03*
%TO.P, ,6*%
X422910000Y-348615000D03*
%TO.P, ,7*%
X425450000Y-348615000D03*
D16*
%TO.P, ,8*%
X427990000Y-348615000D03*
%TD*%
D10*
%TO.P,1uf,2*%
%TO.N,N/C*%
X464185000Y-303570000D03*
D14*
%TO.P,1uf,1*%
X464185000Y-306070000D03*
%TD*%
%TO.P,1uf,1*%
%TO.N,N/C*%
X451485000Y-245745000D03*
D10*
%TO.P,1uf,2*%
X448985000Y-245745000D03*
%TD*%
%TO.P,0.1uf,1*%
%TO.N,N/C*%
X412115000Y-306070000D03*
%TO.P,0.1uf,2*%
X414615000Y-306070000D03*
%TD*%
%TO.P,0.1uf,2*%
%TO.N,N/C*%
X414615000Y-257810000D03*
%TO.P,0.1uf,1*%
X412115000Y-257810000D03*
%TD*%
%TO.P,0.1uf,2*%
%TO.N,N/C*%
X414615000Y-281940000D03*
%TO.P,0.1uf,1*%
X412115000Y-281940000D03*
%TD*%
%TO.P,0.1uf,2*%
%TO.N,N/C*%
X391120000Y-316865000D03*
%TO.P,0.1uf,1*%
X388620000Y-316865000D03*
%TD*%
%TO.P,0.1uf,1*%
%TO.N,N/C*%
X450850000Y-313055000D03*
%TO.P,0.1uf,2*%
X453350000Y-313055000D03*
%TD*%
%TO.P,0.1uf,1*%
%TO.N,N/C*%
X433705000Y-313055000D03*
%TO.P,0.1uf,2*%
X436205000Y-313055000D03*
%TD*%
%TO.P,0.1uf,1*%
%TO.N,N/C*%
X373380000Y-316865000D03*
%TO.P,0.1uf,2*%
X375880000Y-316865000D03*
%TD*%
D11*
%TO.P,74595,16*%
%TO.N,N/C*%
X375920000Y-321310000D03*
%TO.P,74595,8*%
X368300000Y-339090000D03*
%TO.P,74595,15*%
X375920000Y-323850000D03*
%TO.P,74595,7*%
X368300000Y-336550000D03*
%TO.P,74595,14*%
X375920000Y-326390000D03*
%TO.P,74595,6*%
X368300000Y-334010000D03*
%TO.P,74595,13*%
X375920000Y-328930000D03*
%TO.P,74595,5*%
X368300000Y-331470000D03*
%TO.P,74595,12*%
X375920000Y-331470000D03*
%TO.P,74595,4*%
X368300000Y-328930000D03*
%TO.P,74595,11*%
X375920000Y-334010000D03*
%TO.P,74595,3*%
X368300000Y-326390000D03*
%TO.P,74595,10*%
X375920000Y-336550000D03*
%TO.P,74595,2*%
X368300000Y-323850000D03*
%TO.P,74595,9*%
X375920000Y-339090000D03*
D14*
%TO.P,74595,1*%
X368300000Y-321310000D03*
%TD*%
D10*
%TO.P,0.1uf,2*%
%TO.N,N/C*%
X375880000Y-290830000D03*
%TO.P,0.1uf,1*%
X373380000Y-290830000D03*
%TD*%
D14*
%TO.P,74138,1*%
%TO.N,N/C*%
X400685000Y-306070000D03*
D11*
%TO.P,74138,9*%
X408305000Y-323850000D03*
%TO.P,74138,2*%
X400685000Y-308610000D03*
%TO.P,74138,10*%
X408305000Y-321310000D03*
%TO.P,74138,3*%
X400685000Y-311150000D03*
%TO.P,74138,11*%
X408305000Y-318770000D03*
%TO.P,74138,4*%
X400685000Y-313690000D03*
%TO.P,74138,12*%
X408305000Y-316230000D03*
%TO.P,74138,5*%
X400685000Y-316230000D03*
%TO.P,74138,13*%
X408305000Y-313690000D03*
%TO.P,74138,6*%
X400685000Y-318770000D03*
%TO.P,74138,14*%
X408305000Y-311150000D03*
%TO.P,74138,7*%
X400685000Y-321310000D03*
%TO.P,74138,15*%
X408305000Y-308610000D03*
%TO.P,74138,8*%
X400685000Y-323850000D03*
%TO.P,74138,16*%
X408305000Y-306070000D03*
%TD*%
D19*
%TO.P,PS/2,7*%
%TO.N,N/C*%
X384575000Y-353275000D03*
X371075000Y-353275000D03*
D20*
%TO.P,PS/2,4*%
X374425000Y-350275000D03*
%TO.P,PS/2,6*%
X374425000Y-347775000D03*
%TO.P,PS/2,3*%
X381225000Y-350275000D03*
%TO.P,PS/2,5*%
X381225000Y-347775000D03*
%TO.P,PS/2,2*%
X376525000Y-350275000D03*
%TO.P,PS/2,1*%
X379125000Y-350275000D03*
D19*
%TO.P,PS/2,7*%
X377825000Y-354075000D03*
%TD*%
D11*
%TO.P,74595,16*%
%TO.N,N/C*%
X391160000Y-321310000D03*
%TO.P,74595,8*%
X383540000Y-339090000D03*
%TO.P,74595,15*%
X391160000Y-323850000D03*
%TO.P,74595,7*%
X383540000Y-336550000D03*
%TO.P,74595,14*%
X391160000Y-326390000D03*
%TO.P,74595,6*%
X383540000Y-334010000D03*
%TO.P,74595,13*%
X391160000Y-328930000D03*
%TO.P,74595,5*%
X383540000Y-331470000D03*
%TO.P,74595,12*%
X391160000Y-331470000D03*
%TO.P,74595,4*%
X383540000Y-328930000D03*
%TO.P,74595,11*%
X391160000Y-334010000D03*
%TO.P,74595,3*%
X383540000Y-326390000D03*
%TO.P,74595,10*%
X391160000Y-336550000D03*
%TO.P,74595,2*%
X383540000Y-323850000D03*
%TO.P,74595,9*%
X391160000Y-339090000D03*
D14*
%TO.P,74595,1*%
X383540000Y-321310000D03*
%TD*%
D11*
%TO.P,7404,14*%
%TO.N,N/C*%
X375920000Y-295275000D03*
%TO.P,7404,7*%
X368300000Y-310515000D03*
%TO.P,7404,13*%
X375920000Y-297815000D03*
%TO.P,7404,6*%
X368300000Y-307975000D03*
%TO.P,7404,12*%
X375920000Y-300355000D03*
%TO.P,7404,5*%
X368300000Y-305435000D03*
%TO.P,7404,11*%
X375920000Y-302895000D03*
%TO.P,7404,4*%
X368300000Y-302895000D03*
%TO.P,7404,10*%
X375920000Y-305435000D03*
%TO.P,7404,3*%
X368300000Y-300355000D03*
%TO.P,7404,9*%
X375920000Y-307975000D03*
%TO.P,7404,2*%
X368300000Y-297815000D03*
%TO.P,7404,8*%
X375920000Y-310515000D03*
D14*
%TO.P,7404,1*%
X368300000Y-295275000D03*
%TD*%
D11*
%TO.P,74138,16*%
%TO.N,N/C*%
X408305000Y-281940000D03*
%TO.P,74138,8*%
X400685000Y-299720000D03*
%TO.P,74138,15*%
X408305000Y-284480000D03*
%TO.P,74138,7*%
X400685000Y-297180000D03*
%TO.P,74138,14*%
X408305000Y-287020000D03*
%TO.P,74138,6*%
X400685000Y-294640000D03*
%TO.P,74138,13*%
X408305000Y-289560000D03*
%TO.P,74138,5*%
X400685000Y-292100000D03*
%TO.P,74138,12*%
X408305000Y-292100000D03*
%TO.P,74138,4*%
X400685000Y-289560000D03*
%TO.P,74138,11*%
X408305000Y-294640000D03*
%TO.P,74138,3*%
X400685000Y-287020000D03*
%TO.P,74138,10*%
X408305000Y-297180000D03*
%TO.P,74138,2*%
X400685000Y-284480000D03*
%TO.P,74138,9*%
X408305000Y-299720000D03*
D14*
%TO.P,74138,1*%
X400685000Y-281940000D03*
%TD*%
%TO.P,4.7uf,1*%
%TO.N,N/C*%
X374650000Y-207010000D03*
D10*
%TO.P,4.7uf,2*%
X377150000Y-207010000D03*
%TD*%
D11*
%TO.P,10k\u03A9,2*%
%TO.N,N/C*%
X382270000Y-212090000D03*
D10*
%TO.P,10k\u03A9,1*%
X374650000Y-212090000D03*
%TD*%
%TO.P,0.1uf,2*%
%TO.N,N/C*%
X430490000Y-255270000D03*
%TO.P,0.1uf,1*%
X427990000Y-255270000D03*
%TD*%
%TO.P,0.1uf,2*%
%TO.N,N/C*%
X443190000Y-255270000D03*
%TO.P,0.1uf,1*%
X440690000Y-255270000D03*
%TD*%
%TO.P,0.1uf,2*%
%TO.N,N/C*%
X455890000Y-255270000D03*
%TO.P,0.1uf,1*%
X453390000Y-255270000D03*
%TD*%
%TO.P,0.1uf,2*%
%TO.N,N/C*%
X468590000Y-255270000D03*
%TO.P,0.1uf,1*%
X466090000Y-255270000D03*
%TD*%
%TO.P,0.1uf,2*%
%TO.N,N/C*%
X481290000Y-255270000D03*
%TO.P,0.1uf,1*%
X478790000Y-255270000D03*
%TD*%
%TO.P,0.1uf,2*%
%TO.N,N/C*%
X493990000Y-255270000D03*
%TO.P,0.1uf,1*%
X491490000Y-255270000D03*
%TD*%
%TO.P,0.1uf,2*%
%TO.N,N/C*%
X506690000Y-255270000D03*
%TO.P,0.1uf,1*%
X504190000Y-255270000D03*
%TD*%
%TO.P,0.1uf,2*%
%TO.N,N/C*%
X509230000Y-311150000D03*
%TO.P,0.1uf,1*%
X506730000Y-311150000D03*
%TD*%
%TO.P,0.1uf,1*%
%TO.N,N/C*%
X500380000Y-311150000D03*
%TO.P,0.1uf,2*%
X502880000Y-311150000D03*
%TD*%
%TO.P,1uf,2*%
%TO.N,N/C*%
X506770000Y-316230000D03*
D14*
%TO.P,1uf,1*%
X509270000Y-316230000D03*
%TD*%
%TO.P,10uf,1*%
%TO.N,N/C*%
X506730000Y-339090000D03*
D10*
%TO.P,10uf,2*%
X509230000Y-339090000D03*
%TD*%
%TO.P,1uf,2*%
%TO.N,N/C*%
X502880000Y-316230000D03*
D14*
%TO.P,1uf,1*%
X500380000Y-316230000D03*
%TD*%
D10*
%TO.P,10uf,2*%
%TO.N,N/C*%
X509270000Y-332740000D03*
D14*
%TO.P,10uf,1*%
X506770000Y-332740000D03*
%TD*%
D17*
%TO.P,ISP,6*%
%TO.N,N/C*%
X379730000Y-201930000D03*
%TO.P,ISP,5*%
X377190000Y-201930000D03*
%TO.P,ISP,4*%
X379730000Y-199390000D03*
%TO.P,ISP,3*%
X377190000Y-199390000D03*
%TO.P,ISP,2*%
X379730000Y-196850000D03*
D18*
%TO.P,ISP,1*%
X377190000Y-196850000D03*
%TD*%
D14*
%TO.P,74138,1*%
%TO.N,N/C*%
X400685000Y-257810000D03*
D11*
%TO.P,74138,9*%
X408305000Y-275590000D03*
%TO.P,74138,2*%
X400685000Y-260350000D03*
%TO.P,74138,10*%
X408305000Y-273050000D03*
%TO.P,74138,3*%
X400685000Y-262890000D03*
%TO.P,74138,11*%
X408305000Y-270510000D03*
%TO.P,74138,4*%
X400685000Y-265430000D03*
%TO.P,74138,12*%
X408305000Y-267970000D03*
%TO.P,74138,5*%
X400685000Y-267970000D03*
%TO.P,74138,13*%
X408305000Y-265430000D03*
%TO.P,74138,6*%
X400685000Y-270510000D03*
%TO.P,74138,14*%
X408305000Y-262890000D03*
%TO.P,74138,7*%
X400685000Y-273050000D03*
%TO.P,74138,15*%
X408305000Y-260350000D03*
%TO.P,74138,8*%
X400685000Y-275590000D03*
%TO.P,74138,16*%
X408305000Y-257810000D03*
%TD*%
D21*
%TO.P,Reset,2*%
%TO.N,N/C*%
X361895000Y-195580000D03*
%TO.P,Reset,1*%
X366395000Y-195580000D03*
%TO.P,Reset,2*%
X361895000Y-202080000D03*
%TO.P,Reset,1*%
X366395000Y-202080000D03*
%TD*%
D22*
%TO.P,Osc,2*%
%TO.N,N/C*%
X380185000Y-231140000D03*
%TO.P,Osc,1*%
X375285000Y-231140000D03*
%TD*%
D10*
%TO.P,20pf,2*%
%TO.N,N/C*%
X372785000Y-226060000D03*
%TO.P,20pf,1*%
X375285000Y-226060000D03*
%TD*%
%TO.P,0.1uf,1*%
%TO.N,N/C*%
X516890000Y-255270000D03*
%TO.P,0.1uf,2*%
X519390000Y-255270000D03*
%TD*%
%TO.P,12V DC,3*%
%TO.N,N/C*%
%TA.AperFunction,ComponentPad*%
G36*
G01*
X510400000Y-349555000D02*
X508650000Y-349555000D01*
G75*
G02*
X507775000Y-348680000I0J875000D01*
G01*
X507775000Y-346930000D01*
G75*
G02*
X508650000Y-346055000I875000J0D01*
G01*
X510400000Y-346055000D01*
G75*
G02*
X511275000Y-346930000I0J-875000D01*
G01*
X511275000Y-348680000D01*
G75*
G02*
X510400000Y-349555000I-875000J0D01*
G01*
G37*
%TD.AperFunction*%
%TO.P,12V DC,2*%
%TA.AperFunction,ComponentPad*%
G36*
G01*
X505825000Y-352305000D02*
X503825000Y-352305000D01*
G75*
G02*
X503075000Y-351555000I0J750000D01*
G01*
X503075000Y-350055000D01*
G75*
G02*
X503825000Y-349305000I750000J0D01*
G01*
X505825000Y-349305000D01*
G75*
G02*
X506575000Y-350055000I0J-750000D01*
G01*
X506575000Y-351555000D01*
G75*
G02*
X505825000Y-352305000I-750000J0D01*
G01*
G37*
%TD.AperFunction*%
D23*
%TO.P,12V DC,1*%
X504825000Y-344805000D03*
%TD*%
D24*
%TO.P,7805,1*%
%TO.N,N/C*%
X498094000Y-334010000D03*
D25*
%TO.P,7805,2*%
X498094000Y-331470000D03*
%TO.P,7805,3*%
X498094000Y-328930000D03*
%TD*%
%TO.P,7805,3*%
%TO.N,N/C*%
X509016000Y-327660000D03*
%TO.P,7805,2*%
X509016000Y-325120000D03*
D24*
%TO.P,7805,1*%
X509016000Y-322580000D03*
%TD*%
D14*
%TO.P,RAM2,1*%
%TO.N,N/C*%
X445770000Y-257810000D03*
D11*
%TO.P,RAM2,15*%
X453390000Y-290830000D03*
%TO.P,RAM2,2*%
X445770000Y-260350000D03*
%TO.P,RAM2,16*%
X453390000Y-288290000D03*
%TO.P,RAM2,3*%
X445770000Y-262890000D03*
%TO.P,RAM2,17*%
X453390000Y-285750000D03*
%TO.P,RAM2,4*%
X445770000Y-265430000D03*
%TO.P,RAM2,18*%
X453390000Y-283210000D03*
%TO.P,RAM2,5*%
X445770000Y-267970000D03*
%TO.P,RAM2,19*%
X453390000Y-280670000D03*
%TO.P,RAM2,6*%
X445770000Y-270510000D03*
%TO.P,RAM2,20*%
X453390000Y-278130000D03*
%TO.P,RAM2,7*%
X445770000Y-273050000D03*
%TO.P,RAM2,21*%
X453390000Y-275590000D03*
%TO.P,RAM2,8*%
X445770000Y-275590000D03*
%TO.P,RAM2,22*%
X453390000Y-273050000D03*
%TO.P,RAM2,9*%
X445770000Y-278130000D03*
%TO.P,RAM2,23*%
X453390000Y-270510000D03*
%TO.P,RAM2,10*%
X445770000Y-280670000D03*
%TO.P,RAM2,24*%
X453390000Y-267970000D03*
%TO.P,RAM2,11*%
X445770000Y-283210000D03*
%TO.P,RAM2,25*%
X453390000Y-265430000D03*
%TO.P,RAM2,12*%
X445770000Y-285750000D03*
%TO.P,RAM2,26*%
X453390000Y-262890000D03*
%TO.P,RAM2,13*%
X445770000Y-288290000D03*
%TO.P,RAM2,27*%
X453390000Y-260350000D03*
%TO.P,RAM2,14*%
X445770000Y-290830000D03*
%TO.P,RAM2,28*%
X453390000Y-257810000D03*
%TD*%
D14*
%TO.P,RAM1,1*%
%TO.N,N/C*%
X433070000Y-257810000D03*
D11*
%TO.P,RAM1,15*%
X440690000Y-290830000D03*
%TO.P,RAM1,2*%
X433070000Y-260350000D03*
%TO.P,RAM1,16*%
X440690000Y-288290000D03*
%TO.P,RAM1,3*%
X433070000Y-262890000D03*
%TO.P,RAM1,17*%
X440690000Y-285750000D03*
%TO.P,RAM1,4*%
X433070000Y-265430000D03*
%TO.P,RAM1,18*%
X440690000Y-283210000D03*
%TO.P,RAM1,5*%
X433070000Y-267970000D03*
%TO.P,RAM1,19*%
X440690000Y-280670000D03*
%TO.P,RAM1,6*%
X433070000Y-270510000D03*
%TO.P,RAM1,20*%
X440690000Y-278130000D03*
%TO.P,RAM1,7*%
X433070000Y-273050000D03*
%TO.P,RAM1,21*%
X440690000Y-275590000D03*
%TO.P,RAM1,8*%
X433070000Y-275590000D03*
%TO.P,RAM1,22*%
X440690000Y-273050000D03*
%TO.P,RAM1,9*%
X433070000Y-278130000D03*
%TO.P,RAM1,23*%
X440690000Y-270510000D03*
%TO.P,RAM1,10*%
X433070000Y-280670000D03*
%TO.P,RAM1,24*%
X440690000Y-267970000D03*
%TO.P,RAM1,11*%
X433070000Y-283210000D03*
%TO.P,RAM1,25*%
X440690000Y-265430000D03*
%TO.P,RAM1,12*%
X433070000Y-285750000D03*
%TO.P,RAM1,26*%
X440690000Y-262890000D03*
%TO.P,RAM1,13*%
X433070000Y-288290000D03*
%TO.P,RAM1,27*%
X440690000Y-260350000D03*
%TO.P,RAM1,14*%
X433070000Y-290830000D03*
%TO.P,RAM1,28*%
X440690000Y-257810000D03*
%TD*%
%TO.P,RAM0,28*%
%TO.N,N/C*%
X427990000Y-257810000D03*
%TO.P,RAM0,14*%
X420370000Y-290830000D03*
%TO.P,RAM0,27*%
X427990000Y-260350000D03*
%TO.P,RAM0,13*%
X420370000Y-288290000D03*
%TO.P,RAM0,26*%
X427990000Y-262890000D03*
%TO.P,RAM0,12*%
X420370000Y-285750000D03*
%TO.P,RAM0,25*%
X427990000Y-265430000D03*
%TO.P,RAM0,11*%
X420370000Y-283210000D03*
%TO.P,RAM0,24*%
X427990000Y-267970000D03*
%TO.P,RAM0,10*%
X420370000Y-280670000D03*
%TO.P,RAM0,23*%
X427990000Y-270510000D03*
%TO.P,RAM0,9*%
X420370000Y-278130000D03*
%TO.P,RAM0,22*%
X427990000Y-273050000D03*
%TO.P,RAM0,8*%
X420370000Y-275590000D03*
%TO.P,RAM0,21*%
X427990000Y-275590000D03*
%TO.P,RAM0,7*%
X420370000Y-273050000D03*
%TO.P,RAM0,20*%
X427990000Y-278130000D03*
%TO.P,RAM0,6*%
X420370000Y-270510000D03*
%TO.P,RAM0,19*%
X427990000Y-280670000D03*
%TO.P,RAM0,5*%
X420370000Y-267970000D03*
%TO.P,RAM0,18*%
X427990000Y-283210000D03*
%TO.P,RAM0,4*%
X420370000Y-265430000D03*
%TO.P,RAM0,17*%
X427990000Y-285750000D03*
%TO.P,RAM0,3*%
X420370000Y-262890000D03*
%TO.P,RAM0,16*%
X427990000Y-288290000D03*
%TO.P,RAM0,2*%
X420370000Y-260350000D03*
%TO.P,RAM0,15*%
X427990000Y-290830000D03*
D14*
%TO.P,RAM0,1*%
X420370000Y-257810000D03*
%TD*%
%TO.P,RAM7,1*%
%TO.N,N/C*%
X509270000Y-257810000D03*
D11*
%TO.P,RAM7,15*%
X516890000Y-290830000D03*
%TO.P,RAM7,2*%
X509270000Y-260350000D03*
%TO.P,RAM7,16*%
X516890000Y-288290000D03*
%TO.P,RAM7,3*%
X509270000Y-262890000D03*
%TO.P,RAM7,17*%
X516890000Y-285750000D03*
%TO.P,RAM7,4*%
X509270000Y-265430000D03*
%TO.P,RAM7,18*%
X516890000Y-283210000D03*
%TO.P,RAM7,5*%
X509270000Y-267970000D03*
%TO.P,RAM7,19*%
X516890000Y-280670000D03*
%TO.P,RAM7,6*%
X509270000Y-270510000D03*
%TO.P,RAM7,20*%
X516890000Y-278130000D03*
%TO.P,RAM7,7*%
X509270000Y-273050000D03*
%TO.P,RAM7,21*%
X516890000Y-275590000D03*
%TO.P,RAM7,8*%
X509270000Y-275590000D03*
%TO.P,RAM7,22*%
X516890000Y-273050000D03*
%TO.P,RAM7,9*%
X509270000Y-278130000D03*
%TO.P,RAM7,23*%
X516890000Y-270510000D03*
%TO.P,RAM7,10*%
X509270000Y-280670000D03*
%TO.P,RAM7,24*%
X516890000Y-267970000D03*
%TO.P,RAM7,11*%
X509270000Y-283210000D03*
%TO.P,RAM7,25*%
X516890000Y-265430000D03*
%TO.P,RAM7,12*%
X509270000Y-285750000D03*
%TO.P,RAM7,26*%
X516890000Y-262890000D03*
%TO.P,RAM7,13*%
X509270000Y-288290000D03*
%TO.P,RAM7,27*%
X516890000Y-260350000D03*
%TO.P,RAM7,14*%
X509270000Y-290830000D03*
%TO.P,RAM7,28*%
X516890000Y-257810000D03*
%TD*%
D14*
%TO.P,RAM6,1*%
%TO.N,N/C*%
X496570000Y-257810000D03*
D11*
%TO.P,RAM6,15*%
X504190000Y-290830000D03*
%TO.P,RAM6,2*%
X496570000Y-260350000D03*
%TO.P,RAM6,16*%
X504190000Y-288290000D03*
%TO.P,RAM6,3*%
X496570000Y-262890000D03*
%TO.P,RAM6,17*%
X504190000Y-285750000D03*
%TO.P,RAM6,4*%
X496570000Y-265430000D03*
%TO.P,RAM6,18*%
X504190000Y-283210000D03*
%TO.P,RAM6,5*%
X496570000Y-267970000D03*
%TO.P,RAM6,19*%
X504190000Y-280670000D03*
%TO.P,RAM6,6*%
X496570000Y-270510000D03*
%TO.P,RAM6,20*%
X504190000Y-278130000D03*
%TO.P,RAM6,7*%
X496570000Y-273050000D03*
%TO.P,RAM6,21*%
X504190000Y-275590000D03*
%TO.P,RAM6,8*%
X496570000Y-275590000D03*
%TO.P,RAM6,22*%
X504190000Y-273050000D03*
%TO.P,RAM6,9*%
X496570000Y-278130000D03*
%TO.P,RAM6,23*%
X504190000Y-270510000D03*
%TO.P,RAM6,10*%
X496570000Y-280670000D03*
%TO.P,RAM6,24*%
X504190000Y-267970000D03*
%TO.P,RAM6,11*%
X496570000Y-283210000D03*
%TO.P,RAM6,25*%
X504190000Y-265430000D03*
%TO.P,RAM6,12*%
X496570000Y-285750000D03*
%TO.P,RAM6,26*%
X504190000Y-262890000D03*
%TO.P,RAM6,13*%
X496570000Y-288290000D03*
%TO.P,RAM6,27*%
X504190000Y-260350000D03*
%TO.P,RAM6,14*%
X496570000Y-290830000D03*
%TO.P,RAM6,28*%
X504190000Y-257810000D03*
%TD*%
D14*
%TO.P,RAM5,1*%
%TO.N,N/C*%
X483870000Y-257810000D03*
D11*
%TO.P,RAM5,15*%
X491490000Y-290830000D03*
%TO.P,RAM5,2*%
X483870000Y-260350000D03*
%TO.P,RAM5,16*%
X491490000Y-288290000D03*
%TO.P,RAM5,3*%
X483870000Y-262890000D03*
%TO.P,RAM5,17*%
X491490000Y-285750000D03*
%TO.P,RAM5,4*%
X483870000Y-265430000D03*
%TO.P,RAM5,18*%
X491490000Y-283210000D03*
%TO.P,RAM5,5*%
X483870000Y-267970000D03*
%TO.P,RAM5,19*%
X491490000Y-280670000D03*
%TO.P,RAM5,6*%
X483870000Y-270510000D03*
%TO.P,RAM5,20*%
X491490000Y-278130000D03*
%TO.P,RAM5,7*%
X483870000Y-273050000D03*
%TO.P,RAM5,21*%
X491490000Y-275590000D03*
%TO.P,RAM5,8*%
X483870000Y-275590000D03*
%TO.P,RAM5,22*%
X491490000Y-273050000D03*
%TO.P,RAM5,9*%
X483870000Y-278130000D03*
%TO.P,RAM5,23*%
X491490000Y-270510000D03*
%TO.P,RAM5,10*%
X483870000Y-280670000D03*
%TO.P,RAM5,24*%
X491490000Y-267970000D03*
%TO.P,RAM5,11*%
X483870000Y-283210000D03*
%TO.P,RAM5,25*%
X491490000Y-265430000D03*
%TO.P,RAM5,12*%
X483870000Y-285750000D03*
%TO.P,RAM5,26*%
X491490000Y-262890000D03*
%TO.P,RAM5,13*%
X483870000Y-288290000D03*
%TO.P,RAM5,27*%
X491490000Y-260350000D03*
%TO.P,RAM5,14*%
X483870000Y-290830000D03*
%TO.P,RAM5,28*%
X491490000Y-257810000D03*
%TD*%
D14*
%TO.P,RAM4,1*%
%TO.N,N/C*%
X471170000Y-257810000D03*
D11*
%TO.P,RAM4,15*%
X478790000Y-290830000D03*
%TO.P,RAM4,2*%
X471170000Y-260350000D03*
%TO.P,RAM4,16*%
X478790000Y-288290000D03*
%TO.P,RAM4,3*%
X471170000Y-262890000D03*
%TO.P,RAM4,17*%
X478790000Y-285750000D03*
%TO.P,RAM4,4*%
X471170000Y-265430000D03*
%TO.P,RAM4,18*%
X478790000Y-283210000D03*
%TO.P,RAM4,5*%
X471170000Y-267970000D03*
%TO.P,RAM4,19*%
X478790000Y-280670000D03*
%TO.P,RAM4,6*%
X471170000Y-270510000D03*
%TO.P,RAM4,20*%
X478790000Y-278130000D03*
%TO.P,RAM4,7*%
X471170000Y-273050000D03*
%TO.P,RAM4,21*%
X478790000Y-275590000D03*
%TO.P,RAM4,8*%
X471170000Y-275590000D03*
%TO.P,RAM4,22*%
X478790000Y-273050000D03*
%TO.P,RAM4,9*%
X471170000Y-278130000D03*
%TO.P,RAM4,23*%
X478790000Y-270510000D03*
%TO.P,RAM4,10*%
X471170000Y-280670000D03*
%TO.P,RAM4,24*%
X478790000Y-267970000D03*
%TO.P,RAM4,11*%
X471170000Y-283210000D03*
%TO.P,RAM4,25*%
X478790000Y-265430000D03*
%TO.P,RAM4,12*%
X471170000Y-285750000D03*
%TO.P,RAM4,26*%
X478790000Y-262890000D03*
%TO.P,RAM4,13*%
X471170000Y-288290000D03*
%TO.P,RAM4,27*%
X478790000Y-260350000D03*
%TO.P,RAM4,14*%
X471170000Y-290830000D03*
%TO.P,RAM4,28*%
X478790000Y-257810000D03*
%TD*%
D14*
%TO.P,RAM3,1*%
%TO.N,N/C*%
X458470000Y-257810000D03*
D11*
%TO.P,RAM3,15*%
X466090000Y-290830000D03*
%TO.P,RAM3,2*%
X458470000Y-260350000D03*
%TO.P,RAM3,16*%
X466090000Y-288290000D03*
%TO.P,RAM3,3*%
X458470000Y-262890000D03*
%TO.P,RAM3,17*%
X466090000Y-285750000D03*
%TO.P,RAM3,4*%
X458470000Y-265430000D03*
%TO.P,RAM3,18*%
X466090000Y-283210000D03*
%TO.P,RAM3,5*%
X458470000Y-267970000D03*
%TO.P,RAM3,19*%
X466090000Y-280670000D03*
%TO.P,RAM3,6*%
X458470000Y-270510000D03*
%TO.P,RAM3,20*%
X466090000Y-278130000D03*
%TO.P,RAM3,7*%
X458470000Y-273050000D03*
%TO.P,RAM3,21*%
X466090000Y-275590000D03*
%TO.P,RAM3,8*%
X458470000Y-275590000D03*
%TO.P,RAM3,22*%
X466090000Y-273050000D03*
%TO.P,RAM3,9*%
X458470000Y-278130000D03*
%TO.P,RAM3,23*%
X466090000Y-270510000D03*
%TO.P,RAM3,10*%
X458470000Y-280670000D03*
%TO.P,RAM3,24*%
X466090000Y-267970000D03*
%TO.P,RAM3,11*%
X458470000Y-283210000D03*
%TO.P,RAM3,25*%
X466090000Y-265430000D03*
%TO.P,RAM3,12*%
X458470000Y-285750000D03*
%TO.P,RAM3,26*%
X466090000Y-262890000D03*
%TO.P,RAM3,13*%
X458470000Y-288290000D03*
%TO.P,RAM3,27*%
X466090000Y-260350000D03*
%TO.P,RAM3,14*%
X458470000Y-290830000D03*
%TO.P,RAM3,28*%
X466090000Y-257810000D03*
%TD*%
%TO.P,74573,20*%
%TO.N,N/C*%
X414655000Y-190500000D03*
%TO.P,74573,10*%
X407035000Y-213360000D03*
%TO.P,74573,19*%
X414655000Y-193040000D03*
%TO.P,74573,9*%
X407035000Y-210820000D03*
%TO.P,74573,18*%
X414655000Y-195580000D03*
%TO.P,74573,8*%
X407035000Y-208280000D03*
%TO.P,74573,17*%
X414655000Y-198120000D03*
%TO.P,74573,7*%
X407035000Y-205740000D03*
%TO.P,74573,16*%
X414655000Y-200660000D03*
%TO.P,74573,6*%
X407035000Y-203200000D03*
%TO.P,74573,15*%
X414655000Y-203200000D03*
%TO.P,74573,5*%
X407035000Y-200660000D03*
%TO.P,74573,14*%
X414655000Y-205740000D03*
%TO.P,74573,4*%
X407035000Y-198120000D03*
%TO.P,74573,13*%
X414655000Y-208280000D03*
%TO.P,74573,3*%
X407035000Y-195580000D03*
%TO.P,74573,12*%
X414655000Y-210820000D03*
%TO.P,74573,2*%
X407035000Y-193040000D03*
%TO.P,74573,11*%
X414655000Y-213360000D03*
D14*
%TO.P,74573,1*%
X407035000Y-190500000D03*
%TD*%
D17*
%TO.P,Slot 1,40*%
%TO.N,N/C*%
X442595000Y-238760000D03*
%TO.P,Slot 1,39*%
X445135000Y-238760000D03*
%TO.P,Slot 1,38*%
X442595000Y-236220000D03*
%TO.P,Slot 1,37*%
X445135000Y-236220000D03*
%TO.P,Slot 1,36*%
X442595000Y-233680000D03*
%TO.P,Slot 1,35*%
X445135000Y-233680000D03*
%TO.P,Slot 1,34*%
X442595000Y-231140000D03*
%TO.P,Slot 1,33*%
X445135000Y-231140000D03*
%TO.P,Slot 1,32*%
X442595000Y-228600000D03*
%TO.P,Slot 1,31*%
X445135000Y-228600000D03*
%TO.P,Slot 1,30*%
X442595000Y-226060000D03*
%TO.P,Slot 1,29*%
X445135000Y-226060000D03*
%TO.P,Slot 1,28*%
X442595000Y-223520000D03*
%TO.P,Slot 1,27*%
X445135000Y-223520000D03*
%TO.P,Slot 1,26*%
X442595000Y-220980000D03*
%TO.P,Slot 1,25*%
X445135000Y-220980000D03*
%TO.P,Slot 1,24*%
X442595000Y-218440000D03*
%TO.P,Slot 1,23*%
X445135000Y-218440000D03*
%TO.P,Slot 1,22*%
X442595000Y-215900000D03*
%TO.P,Slot 1,21*%
X445135000Y-215900000D03*
%TO.P,Slot 1,20*%
X442595000Y-213360000D03*
%TO.P,Slot 1,19*%
X445135000Y-213360000D03*
%TO.P,Slot 1,18*%
X442595000Y-210820000D03*
%TO.P,Slot 1,17*%
X445135000Y-210820000D03*
%TO.P,Slot 1,16*%
X442595000Y-208280000D03*
%TO.P,Slot 1,15*%
X445135000Y-208280000D03*
%TO.P,Slot 1,14*%
X442595000Y-205740000D03*
%TO.P,Slot 1,13*%
X445135000Y-205740000D03*
%TO.P,Slot 1,12*%
X442595000Y-203200000D03*
%TO.P,Slot 1,11*%
X445135000Y-203200000D03*
%TO.P,Slot 1,10*%
X442595000Y-200660000D03*
%TO.P,Slot 1,9*%
X445135000Y-200660000D03*
%TO.P,Slot 1,8*%
X442595000Y-198120000D03*
%TO.P,Slot 1,7*%
X445135000Y-198120000D03*
%TO.P,Slot 1,6*%
X442595000Y-195580000D03*
%TO.P,Slot 1,5*%
X445135000Y-195580000D03*
%TO.P,Slot 1,4*%
X442595000Y-193040000D03*
%TO.P,Slot 1,3*%
X445135000Y-193040000D03*
%TO.P,Slot 1,2*%
X442595000Y-190500000D03*
D18*
%TO.P,Slot 1,1*%
X445135000Y-190500000D03*
%TD*%
D17*
%TO.P,Slot 2,40*%
%TO.N,N/C*%
X460375000Y-238760000D03*
%TO.P,Slot 2,39*%
X462915000Y-238760000D03*
%TO.P,Slot 2,38*%
X460375000Y-236220000D03*
%TO.P,Slot 2,37*%
X462915000Y-236220000D03*
%TO.P,Slot 2,36*%
X460375000Y-233680000D03*
%TO.P,Slot 2,35*%
X462915000Y-233680000D03*
%TO.P,Slot 2,34*%
X460375000Y-231140000D03*
%TO.P,Slot 2,33*%
X462915000Y-231140000D03*
%TO.P,Slot 2,32*%
X460375000Y-228600000D03*
%TO.P,Slot 2,31*%
X462915000Y-228600000D03*
%TO.P,Slot 2,30*%
X460375000Y-226060000D03*
%TO.P,Slot 2,29*%
X462915000Y-226060000D03*
%TO.P,Slot 2,28*%
X460375000Y-223520000D03*
%TO.P,Slot 2,27*%
X462915000Y-223520000D03*
%TO.P,Slot 2,26*%
X460375000Y-220980000D03*
%TO.P,Slot 2,25*%
X462915000Y-220980000D03*
%TO.P,Slot 2,24*%
X460375000Y-218440000D03*
%TO.P,Slot 2,23*%
X462915000Y-218440000D03*
%TO.P,Slot 2,22*%
X460375000Y-215900000D03*
%TO.P,Slot 2,21*%
X462915000Y-215900000D03*
%TO.P,Slot 2,20*%
X460375000Y-213360000D03*
%TO.P,Slot 2,19*%
X462915000Y-213360000D03*
%TO.P,Slot 2,18*%
X460375000Y-210820000D03*
%TO.P,Slot 2,17*%
X462915000Y-210820000D03*
%TO.P,Slot 2,16*%
X460375000Y-208280000D03*
%TO.P,Slot 2,15*%
X462915000Y-208280000D03*
%TO.P,Slot 2,14*%
X460375000Y-205740000D03*
%TO.P,Slot 2,13*%
X462915000Y-205740000D03*
%TO.P,Slot 2,12*%
X460375000Y-203200000D03*
%TO.P,Slot 2,11*%
X462915000Y-203200000D03*
%TO.P,Slot 2,10*%
X460375000Y-200660000D03*
%TO.P,Slot 2,9*%
X462915000Y-200660000D03*
%TO.P,Slot 2,8*%
X460375000Y-198120000D03*
%TO.P,Slot 2,7*%
X462915000Y-198120000D03*
%TO.P,Slot 2,6*%
X460375000Y-195580000D03*
%TO.P,Slot 2,5*%
X462915000Y-195580000D03*
%TO.P,Slot 2,4*%
X460375000Y-193040000D03*
%TO.P,Slot 2,3*%
X462915000Y-193040000D03*
%TO.P,Slot 2,2*%
X460375000Y-190500000D03*
D18*
%TO.P,Slot 2,1*%
X462915000Y-190500000D03*
%TD*%
D17*
%TO.P,Slot 3,40*%
%TO.N,N/C*%
X478155000Y-238760000D03*
%TO.P,Slot 3,39*%
X480695000Y-238760000D03*
%TO.P,Slot 3,38*%
X478155000Y-236220000D03*
%TO.P,Slot 3,37*%
X480695000Y-236220000D03*
%TO.P,Slot 3,36*%
X478155000Y-233680000D03*
%TO.P,Slot 3,35*%
X480695000Y-233680000D03*
%TO.P,Slot 3,34*%
X478155000Y-231140000D03*
%TO.P,Slot 3,33*%
X480695000Y-231140000D03*
%TO.P,Slot 3,32*%
X478155000Y-228600000D03*
%TO.P,Slot 3,31*%
X480695000Y-228600000D03*
%TO.P,Slot 3,30*%
X478155000Y-226060000D03*
%TO.P,Slot 3,29*%
X480695000Y-226060000D03*
%TO.P,Slot 3,28*%
X478155000Y-223520000D03*
%TO.P,Slot 3,27*%
X480695000Y-223520000D03*
%TO.P,Slot 3,26*%
X478155000Y-220980000D03*
%TO.P,Slot 3,25*%
X480695000Y-220980000D03*
%TO.P,Slot 3,24*%
X478155000Y-218440000D03*
%TO.P,Slot 3,23*%
X480695000Y-218440000D03*
%TO.P,Slot 3,22*%
X478155000Y-215900000D03*
%TO.P,Slot 3,21*%
X480695000Y-215900000D03*
%TO.P,Slot 3,20*%
X478155000Y-213360000D03*
%TO.P,Slot 3,19*%
X480695000Y-213360000D03*
%TO.P,Slot 3,18*%
X478155000Y-210820000D03*
%TO.P,Slot 3,17*%
X480695000Y-210820000D03*
%TO.P,Slot 3,16*%
X478155000Y-208280000D03*
%TO.P,Slot 3,15*%
X480695000Y-208280000D03*
%TO.P,Slot 3,14*%
X478155000Y-205740000D03*
%TO.P,Slot 3,13*%
X480695000Y-205740000D03*
%TO.P,Slot 3,12*%
X478155000Y-203200000D03*
%TO.P,Slot 3,11*%
X480695000Y-203200000D03*
%TO.P,Slot 3,10*%
X478155000Y-200660000D03*
%TO.P,Slot 3,9*%
X480695000Y-200660000D03*
%TO.P,Slot 3,8*%
X478155000Y-198120000D03*
%TO.P,Slot 3,7*%
X480695000Y-198120000D03*
%TO.P,Slot 3,6*%
X478155000Y-195580000D03*
%TO.P,Slot 3,5*%
X480695000Y-195580000D03*
%TO.P,Slot 3,4*%
X478155000Y-193040000D03*
%TO.P,Slot 3,3*%
X480695000Y-193040000D03*
%TO.P,Slot 3,2*%
X478155000Y-190500000D03*
D18*
%TO.P,Slot 3,1*%
X480695000Y-190500000D03*
%TD*%
D17*
%TO.P,Slot 4,40*%
%TO.N,N/C*%
X495935000Y-238760000D03*
%TO.P,Slot 4,39*%
X498475000Y-238760000D03*
%TO.P,Slot 4,38*%
X495935000Y-236220000D03*
%TO.P,Slot 4,37*%
X498475000Y-236220000D03*
%TO.P,Slot 4,36*%
X495935000Y-233680000D03*
%TO.P,Slot 4,35*%
X498475000Y-233680000D03*
%TO.P,Slot 4,34*%
X495935000Y-231140000D03*
%TO.P,Slot 4,33*%
X498475000Y-231140000D03*
%TO.P,Slot 4,32*%
X495935000Y-228600000D03*
%TO.P,Slot 4,31*%
X498475000Y-228600000D03*
%TO.P,Slot 4,30*%
X495935000Y-226060000D03*
%TO.P,Slot 4,29*%
X498475000Y-226060000D03*
%TO.P,Slot 4,28*%
X495935000Y-223520000D03*
%TO.P,Slot 4,27*%
X498475000Y-223520000D03*
%TO.P,Slot 4,26*%
X495935000Y-220980000D03*
%TO.P,Slot 4,25*%
X498475000Y-220980000D03*
%TO.P,Slot 4,24*%
X495935000Y-218440000D03*
%TO.P,Slot 4,23*%
X498475000Y-218440000D03*
%TO.P,Slot 4,22*%
X495935000Y-215900000D03*
%TO.P,Slot 4,21*%
X498475000Y-215900000D03*
%TO.P,Slot 4,20*%
X495935000Y-213360000D03*
%TO.P,Slot 4,19*%
X498475000Y-213360000D03*
%TO.P,Slot 4,18*%
X495935000Y-210820000D03*
%TO.P,Slot 4,17*%
X498475000Y-210820000D03*
%TO.P,Slot 4,16*%
X495935000Y-208280000D03*
%TO.P,Slot 4,15*%
X498475000Y-208280000D03*
%TO.P,Slot 4,14*%
X495935000Y-205740000D03*
%TO.P,Slot 4,13*%
X498475000Y-205740000D03*
%TO.P,Slot 4,12*%
X495935000Y-203200000D03*
%TO.P,Slot 4,11*%
X498475000Y-203200000D03*
%TO.P,Slot 4,10*%
X495935000Y-200660000D03*
%TO.P,Slot 4,9*%
X498475000Y-200660000D03*
%TO.P,Slot 4,8*%
X495935000Y-198120000D03*
%TO.P,Slot 4,7*%
X498475000Y-198120000D03*
%TO.P,Slot 4,6*%
X495935000Y-195580000D03*
%TO.P,Slot 4,5*%
X498475000Y-195580000D03*
%TO.P,Slot 4,4*%
X495935000Y-193040000D03*
%TO.P,Slot 4,3*%
X498475000Y-193040000D03*
%TO.P,Slot 4,2*%
X495935000Y-190500000D03*
D18*
%TO.P,Slot 4,1*%
X498475000Y-190500000D03*
%TD*%
%TO.P,Slot 5,1*%
%TO.N,N/C*%
X516255000Y-190500000D03*
D17*
%TO.P,Slot 5,2*%
X513715000Y-190500000D03*
%TO.P,Slot 5,3*%
X516255000Y-193040000D03*
%TO.P,Slot 5,4*%
X513715000Y-193040000D03*
%TO.P,Slot 5,5*%
X516255000Y-195580000D03*
%TO.P,Slot 5,6*%
X513715000Y-195580000D03*
%TO.P,Slot 5,7*%
X516255000Y-198120000D03*
%TO.P,Slot 5,8*%
X513715000Y-198120000D03*
%TO.P,Slot 5,9*%
X516255000Y-200660000D03*
%TO.P,Slot 5,10*%
X513715000Y-200660000D03*
%TO.P,Slot 5,11*%
X516255000Y-203200000D03*
%TO.P,Slot 5,12*%
X513715000Y-203200000D03*
%TO.P,Slot 5,13*%
X516255000Y-205740000D03*
%TO.P,Slot 5,14*%
X513715000Y-205740000D03*
%TO.P,Slot 5,15*%
X516255000Y-208280000D03*
%TO.P,Slot 5,16*%
X513715000Y-208280000D03*
%TO.P,Slot 5,17*%
X516255000Y-210820000D03*
%TO.P,Slot 5,18*%
X513715000Y-210820000D03*
%TO.P,Slot 5,19*%
X516255000Y-213360000D03*
%TO.P,Slot 5,20*%
X513715000Y-213360000D03*
%TO.P,Slot 5,21*%
X516255000Y-215900000D03*
%TO.P,Slot 5,22*%
X513715000Y-215900000D03*
%TO.P,Slot 5,23*%
X516255000Y-218440000D03*
%TO.P,Slot 5,24*%
X513715000Y-218440000D03*
%TO.P,Slot 5,25*%
X516255000Y-220980000D03*
%TO.P,Slot 5,26*%
X513715000Y-220980000D03*
%TO.P,Slot 5,27*%
X516255000Y-223520000D03*
%TO.P,Slot 5,28*%
X513715000Y-223520000D03*
%TO.P,Slot 5,29*%
X516255000Y-226060000D03*
%TO.P,Slot 5,30*%
X513715000Y-226060000D03*
%TO.P,Slot 5,31*%
X516255000Y-228600000D03*
%TO.P,Slot 5,32*%
X513715000Y-228600000D03*
%TO.P,Slot 5,33*%
X516255000Y-231140000D03*
%TO.P,Slot 5,34*%
X513715000Y-231140000D03*
%TO.P,Slot 5,35*%
X516255000Y-233680000D03*
%TO.P,Slot 5,36*%
X513715000Y-233680000D03*
%TO.P,Slot 5,37*%
X516255000Y-236220000D03*
%TO.P,Slot 5,38*%
X513715000Y-236220000D03*
%TO.P,Slot 5,39*%
X516255000Y-238760000D03*
%TO.P,Slot 5,40*%
X513715000Y-238760000D03*
%TD*%
D14*
%TO.P,74573,1*%
%TO.N,N/C*%
X407035000Y-218440000D03*
D11*
%TO.P,74573,11*%
X414655000Y-241300000D03*
%TO.P,74573,2*%
X407035000Y-220980000D03*
%TO.P,74573,12*%
X414655000Y-238760000D03*
%TO.P,74573,3*%
X407035000Y-223520000D03*
%TO.P,74573,13*%
X414655000Y-236220000D03*
%TO.P,74573,4*%
X407035000Y-226060000D03*
%TO.P,74573,14*%
X414655000Y-233680000D03*
%TO.P,74573,5*%
X407035000Y-228600000D03*
%TO.P,74573,15*%
X414655000Y-231140000D03*
%TO.P,74573,6*%
X407035000Y-231140000D03*
%TO.P,74573,16*%
X414655000Y-228600000D03*
%TO.P,74573,7*%
X407035000Y-233680000D03*
%TO.P,74573,17*%
X414655000Y-226060000D03*
%TO.P,74573,8*%
X407035000Y-236220000D03*
%TO.P,74573,18*%
X414655000Y-223520000D03*
%TO.P,74573,9*%
X407035000Y-238760000D03*
%TO.P,74573,19*%
X414655000Y-220980000D03*
%TO.P,74573,10*%
X407035000Y-241300000D03*
%TO.P,74573,20*%
X414655000Y-218440000D03*
%TD*%
D14*
%TO.P,74245,1*%
%TO.N,N/C*%
X419100000Y-190500000D03*
D11*
%TO.P,74245,11*%
X426720000Y-213360000D03*
%TO.P,74245,2*%
X419100000Y-193040000D03*
%TO.P,74245,12*%
X426720000Y-210820000D03*
%TO.P,74245,3*%
X419100000Y-195580000D03*
%TO.P,74245,13*%
X426720000Y-208280000D03*
%TO.P,74245,4*%
X419100000Y-198120000D03*
%TO.P,74245,14*%
X426720000Y-205740000D03*
%TO.P,74245,5*%
X419100000Y-200660000D03*
%TO.P,74245,15*%
X426720000Y-203200000D03*
%TO.P,74245,6*%
X419100000Y-203200000D03*
%TO.P,74245,16*%
X426720000Y-200660000D03*
%TO.P,74245,7*%
X419100000Y-205740000D03*
%TO.P,74245,17*%
X426720000Y-198120000D03*
%TO.P,74245,8*%
X419100000Y-208280000D03*
%TO.P,74245,18*%
X426720000Y-195580000D03*
%TO.P,74245,9*%
X419100000Y-210820000D03*
%TO.P,74245,19*%
X426720000Y-193040000D03*
%TO.P,74245,10*%
X419100000Y-213360000D03*
%TO.P,74245,20*%
X426720000Y-190500000D03*
%TD*%
D14*
%TO.P,ATmega644,1*%
%TO.N,N/C*%
X387350000Y-193040000D03*
D11*
%TO.P,ATmega644,21*%
X402590000Y-241300000D03*
%TO.P,ATmega644,2*%
X387350000Y-195580000D03*
%TO.P,ATmega644,22*%
X402590000Y-238760000D03*
%TO.P,ATmega644,3*%
X387350000Y-198120000D03*
%TO.P,ATmega644,23*%
X402590000Y-236220000D03*
%TO.P,ATmega644,4*%
X387350000Y-200660000D03*
%TO.P,ATmega644,24*%
X402590000Y-233680000D03*
%TO.P,ATmega644,5*%
X387350000Y-203200000D03*
%TO.P,ATmega644,25*%
X402590000Y-231140000D03*
%TO.P,ATmega644,6*%
X387350000Y-205740000D03*
%TO.P,ATmega644,26*%
X402590000Y-228600000D03*
%TO.P,ATmega644,7*%
X387350000Y-208280000D03*
%TO.P,ATmega644,27*%
X402590000Y-226060000D03*
%TO.P,ATmega644,8*%
X387350000Y-210820000D03*
%TO.P,ATmega644,28*%
X402590000Y-223520000D03*
%TO.P,ATmega644,9*%
X387350000Y-213360000D03*
%TO.P,ATmega644,29*%
X402590000Y-220980000D03*
%TO.P,ATmega644,10*%
X387350000Y-215900000D03*
%TO.P,ATmega644,30*%
X402590000Y-218440000D03*
%TO.P,ATmega644,11*%
X387350000Y-218440000D03*
%TO.P,ATmega644,31*%
X402590000Y-215900000D03*
%TO.P,ATmega644,12*%
X387350000Y-220980000D03*
%TO.P,ATmega644,32*%
X402590000Y-213360000D03*
%TO.P,ATmega644,13*%
X387350000Y-223520000D03*
%TO.P,ATmega644,33*%
X402590000Y-210820000D03*
%TO.P,ATmega644,14*%
X387350000Y-226060000D03*
%TO.P,ATmega644,34*%
X402590000Y-208280000D03*
%TO.P,ATmega644,15*%
X387350000Y-228600000D03*
%TO.P,ATmega644,35*%
X402590000Y-205740000D03*
%TO.P,ATmega644,16*%
X387350000Y-231140000D03*
%TO.P,ATmega644,36*%
X402590000Y-203200000D03*
%TO.P,ATmega644,17*%
X387350000Y-233680000D03*
%TO.P,ATmega644,37*%
X402590000Y-200660000D03*
%TO.P,ATmega644,18*%
X387350000Y-236220000D03*
%TO.P,ATmega644,38*%
X402590000Y-198120000D03*
%TO.P,ATmega644,19*%
X387350000Y-238760000D03*
%TO.P,ATmega644,39*%
X402590000Y-195580000D03*
%TO.P,ATmega644,20*%
X387350000Y-241300000D03*
%TO.P,ATmega644,40*%
X402590000Y-193040000D03*
%TD*%
D15*
%TO.P, ,1*%
%TO.N,N/C*%
X527050000Y-186690000D03*
%TD*%
%TO.P, ,1*%
%TO.N,N/C*%
X360680000Y-186690000D03*
%TD*%
%TO.P, ,1*%
%TO.N,N/C*%
X360680000Y-353695000D03*
%TD*%
%TO.P, ,1*%
%TO.N,N/C*%
X527050000Y-353695000D03*
%TD*%
D26*
%TO.N,*%
X440690000Y-194310000D03*
X440690000Y-196850000D03*
X440690000Y-199390000D03*
X440690000Y-217170000D03*
X440690000Y-219710000D03*
X440690000Y-222250000D03*
X426085000Y-223520000D03*
X426085000Y-226060000D03*
X440690000Y-234950000D03*
X440690000Y-237490000D03*
X455930000Y-194310000D03*
X454660000Y-195580000D03*
X449580000Y-199390000D03*
X450215000Y-286385000D03*
X448945000Y-288290000D03*
X447675000Y-289560000D03*
X437515000Y-285115000D03*
X436245000Y-281940000D03*
X434975000Y-279400000D03*
X453390000Y-196850000D03*
X448310000Y-200660000D03*
X450850000Y-198120000D03*
X473710000Y-207010000D03*
X468630000Y-210820000D03*
X466090000Y-213360000D03*
X471170000Y-209550000D03*
X474980000Y-205740000D03*
X467360000Y-212090000D03*
X469900000Y-210185000D03*
X472440000Y-208280000D03*
X492125000Y-217170000D03*
X485775000Y-220980000D03*
X489585000Y-219710000D03*
X493395000Y-215900000D03*
X484505000Y-222250000D03*
X487045000Y-219710000D03*
X490855000Y-218440000D03*
X474980000Y-241300000D03*
X473710000Y-241300000D03*
X472440000Y-241300000D03*
X471170000Y-241300000D03*
X476885000Y-281940000D03*
X475615000Y-278765000D03*
X474345000Y-275590000D03*
X473075000Y-273050000D03*
X469900000Y-241300000D03*
X464185000Y-271780000D03*
X468630000Y-241300000D03*
X462915000Y-268605000D03*
X467360000Y-241300000D03*
X461645000Y-265430000D03*
X466090000Y-241300000D03*
X460375000Y-262890000D03*
X502285000Y-265430000D03*
X501015000Y-267335000D03*
X499745000Y-274320000D03*
X498475000Y-269240000D03*
X489585000Y-261620000D03*
X488315000Y-262255000D03*
X487045000Y-257810000D03*
X511175000Y-228600000D03*
X509905000Y-229870000D03*
X511175000Y-245745000D03*
X511175000Y-259080000D03*
X509905000Y-245745000D03*
X483235000Y-229870000D03*
X438785000Y-288290000D03*
X452120000Y-197485000D03*
X447040000Y-229870000D03*
X483235000Y-240030000D03*
X458470000Y-241300000D03*
X435610000Y-240030000D03*
X430530000Y-245110000D03*
X428625000Y-245110000D03*
X426720000Y-245110000D03*
X501015000Y-229870000D03*
X432435000Y-245110000D03*
X417195000Y-245110000D03*
X419100000Y-245110000D03*
X421005000Y-245110000D03*
X422910000Y-245110000D03*
X421005000Y-216535000D03*
X433070000Y-238760000D03*
X431165000Y-238760000D03*
X424815000Y-245110000D03*
X419735000Y-215265000D03*
X418465000Y-216535000D03*
X419735000Y-223520000D03*
X418465000Y-226060000D03*
X434340000Y-245110000D03*
X508635000Y-231140000D03*
X392430000Y-250190000D03*
X391160000Y-251460000D03*
X389890000Y-252730000D03*
X394970000Y-247650000D03*
X393700000Y-248920000D03*
X396240000Y-257810000D03*
X392430000Y-262255000D03*
X433070000Y-297180000D03*
X434975000Y-297180000D03*
X438785000Y-297180000D03*
X445770000Y-297180000D03*
X447675000Y-297180000D03*
X457200000Y-193040000D03*
X451485000Y-284480000D03*
X393700000Y-264160000D03*
X394970000Y-260350000D03*
X436880000Y-297180000D03*
X393700000Y-323850000D03*
X386715000Y-327660000D03*
X410210000Y-277495000D03*
X396240000Y-284480000D03*
X394970000Y-287020000D03*
X393700000Y-289560000D03*
X392430000Y-292100000D03*
X449580000Y-297180000D03*
X368300000Y-318135000D03*
X371475000Y-325120000D03*
X451485000Y-297180000D03*
X408305000Y-326390000D03*
X417830000Y-321310000D03*
X416560000Y-322580000D03*
X415290000Y-323850000D03*
X414020000Y-325120000D03*
X412750000Y-326390000D03*
X410845000Y-326390000D03*
X431165000Y-314960000D03*
X404495000Y-207010000D03*
X404495000Y-241300000D03*
X408940000Y-245745000D03*
X403225000Y-254000000D03*
%TD*%
D27*
%TO.N,*%
X462915000Y-213360000D02*
X469265000Y-213360000D01*
D28*
X460375000Y-190500000D02*
X480695000Y-190500000D01*
D27*
X462915000Y-195580000D02*
X469265000Y-195580000D01*
X470535000Y-223520000D02*
X478155000Y-223520000D01*
X469265000Y-222250000D02*
X470535000Y-223520000D01*
X461645000Y-222250000D02*
X469265000Y-222250000D01*
X460375000Y-223520000D02*
X461645000Y-222250000D01*
X479425000Y-214630000D02*
X480695000Y-213360000D01*
X470535000Y-214630000D02*
X479425000Y-214630000D01*
X469265000Y-213360000D02*
X470535000Y-214630000D01*
X470535000Y-213360000D02*
X478155000Y-213360000D01*
X469265000Y-212090000D02*
X470535000Y-213360000D01*
X461645000Y-212090000D02*
X469265000Y-212090000D01*
X460375000Y-213360000D02*
X461645000Y-212090000D01*
X479425000Y-212090000D02*
X480695000Y-210820000D01*
X470535000Y-212090000D02*
X479425000Y-212090000D01*
X469265000Y-210820000D02*
X470535000Y-212090000D01*
X470535000Y-210820000D02*
X478155000Y-210820000D01*
X469265000Y-209550000D02*
X470535000Y-210820000D01*
X461645000Y-209550000D02*
X469265000Y-209550000D01*
X479425000Y-209550000D02*
X480695000Y-208280000D01*
X460375000Y-210820000D02*
X461645000Y-209550000D01*
X462915000Y-210820000D02*
X469265000Y-210820000D01*
X469265000Y-208280000D02*
X470535000Y-209550000D01*
X470535000Y-208280000D02*
X478155000Y-208280000D01*
X462915000Y-208280000D02*
X469265000Y-208280000D01*
X469265000Y-207010000D02*
X470535000Y-208280000D01*
X461645000Y-207010000D02*
X469265000Y-207010000D01*
X460375000Y-208280000D02*
X461645000Y-207010000D01*
X470535000Y-205740000D02*
X478155000Y-205740000D01*
X469265000Y-204470000D02*
X470535000Y-205740000D01*
X461645000Y-204470000D02*
X469265000Y-204470000D01*
X469265000Y-205740000D02*
X470535000Y-207010000D01*
X460375000Y-205740000D02*
X461645000Y-204470000D01*
X470535000Y-207010000D02*
X479425000Y-207010000D01*
X479425000Y-207010000D02*
X480695000Y-205740000D01*
X462915000Y-205740000D02*
X469265000Y-205740000D01*
X470535000Y-209550000D02*
X479425000Y-209550000D01*
D28*
X460375000Y-203200000D02*
X480695000Y-203200000D01*
D27*
X461645000Y-227330000D02*
X469265000Y-227330000D01*
X460375000Y-228600000D02*
X461645000Y-227330000D01*
X470535000Y-229870000D02*
X479425000Y-229870000D01*
D28*
X460375000Y-226060000D02*
X480695000Y-226060000D01*
D27*
X470535000Y-218440000D02*
X478155000Y-218440000D01*
X469265000Y-217170000D02*
X470535000Y-218440000D01*
X461645000Y-217170000D02*
X469265000Y-217170000D01*
X460375000Y-218440000D02*
X461645000Y-217170000D01*
X470535000Y-219710000D02*
X479425000Y-219710000D01*
X479425000Y-219710000D02*
X480695000Y-218440000D01*
X469265000Y-218440000D02*
X470535000Y-219710000D01*
X462915000Y-218440000D02*
X469265000Y-218440000D01*
X479425000Y-217170000D02*
X480695000Y-215900000D01*
X469265000Y-215900000D02*
X470535000Y-217170000D01*
X462915000Y-215900000D02*
X469265000Y-215900000D01*
X470535000Y-215900000D02*
X478155000Y-215900000D01*
X469265000Y-214630000D02*
X470535000Y-215900000D01*
X469265000Y-220980000D02*
X470535000Y-222250000D01*
X479425000Y-222250000D02*
X480695000Y-220980000D01*
X470535000Y-222250000D02*
X479425000Y-222250000D01*
X460375000Y-215900000D02*
X461645000Y-214630000D01*
X461645000Y-214630000D02*
X469265000Y-214630000D01*
X469265000Y-227330000D02*
X470535000Y-228600000D01*
X470535000Y-228600000D02*
X478155000Y-228600000D01*
X469265000Y-228600000D02*
X470535000Y-229870000D01*
X462915000Y-228600000D02*
X469265000Y-228600000D01*
X461645000Y-219710000D02*
X469265000Y-219710000D01*
X462915000Y-220980000D02*
X469265000Y-220980000D01*
X479425000Y-229870000D02*
X480695000Y-228600000D01*
X460375000Y-220980000D02*
X461645000Y-219710000D01*
X470535000Y-217170000D02*
X479425000Y-217170000D01*
X470535000Y-220980000D02*
X478155000Y-220980000D01*
X469265000Y-219710000D02*
X470535000Y-220980000D01*
X504825000Y-212090000D02*
X506095000Y-213360000D01*
X497205000Y-207010000D02*
X504825000Y-207010000D01*
X504825000Y-218440000D02*
X506095000Y-219710000D01*
X495935000Y-205740000D02*
X497205000Y-204470000D01*
X514985000Y-199390000D02*
X516255000Y-198120000D01*
X504825000Y-215900000D02*
X506095000Y-217170000D01*
X495935000Y-198120000D02*
X497205000Y-196850000D01*
X504825000Y-196850000D02*
X506095000Y-198120000D01*
D28*
X495935000Y-203200000D02*
X516255000Y-203200000D01*
D27*
X495935000Y-215900000D02*
X497205000Y-214630000D01*
X506095000Y-208280000D02*
X513715000Y-208280000D01*
X506095000Y-196850000D02*
X514985000Y-196850000D01*
X497205000Y-222250000D02*
X504825000Y-222250000D01*
X497205000Y-214630000D02*
X504825000Y-214630000D01*
X514985000Y-212090000D02*
X516255000Y-210820000D01*
X514985000Y-207010000D02*
X516255000Y-205740000D01*
X514985000Y-196850000D02*
X516255000Y-195580000D01*
X498475000Y-205740000D02*
X504825000Y-205740000D01*
X506095000Y-213360000D02*
X513715000Y-213360000D01*
X504825000Y-213360000D02*
X506095000Y-214630000D01*
X506095000Y-218440000D02*
X513715000Y-218440000D01*
X506095000Y-199390000D02*
X514985000Y-199390000D01*
X506095000Y-229870000D02*
X509905000Y-229870000D01*
X506095000Y-223520000D02*
X513715000Y-223520000D01*
X514985000Y-224790000D02*
X516255000Y-223520000D01*
X504825000Y-200660000D02*
X506095000Y-201930000D01*
X504825000Y-214630000D02*
X506095000Y-215900000D01*
X506095000Y-210820000D02*
X513715000Y-210820000D01*
X504825000Y-199390000D02*
X506095000Y-200660000D01*
X498475000Y-198120000D02*
X504825000Y-198120000D01*
X495935000Y-228600000D02*
X497205000Y-227330000D01*
D28*
X495935000Y-226060000D02*
X516255000Y-226060000D01*
D27*
X498475000Y-215900000D02*
X504825000Y-215900000D01*
X497205000Y-217170000D02*
X504825000Y-217170000D01*
X495935000Y-218440000D02*
X497205000Y-217170000D01*
X498475000Y-228600000D02*
X504825000Y-228600000D01*
X498475000Y-223520000D02*
X504825000Y-223520000D01*
X504825000Y-195580000D02*
X506095000Y-196850000D01*
X506095000Y-198120000D02*
X513715000Y-198120000D01*
X504825000Y-227330000D02*
X506095000Y-228600000D01*
X497205000Y-204470000D02*
X504825000Y-204470000D01*
X506095000Y-228600000D02*
X511175000Y-228600000D01*
X504825000Y-223520000D02*
X506095000Y-224790000D01*
X514985000Y-219710000D02*
X516255000Y-218440000D01*
X504825000Y-220980000D02*
X506095000Y-222250000D01*
X514985000Y-222250000D02*
X516255000Y-220980000D01*
X504825000Y-208280000D02*
X506095000Y-209550000D01*
X504825000Y-207010000D02*
X506095000Y-208280000D01*
X497205000Y-196850000D02*
X504825000Y-196850000D01*
X514985000Y-217170000D02*
X516255000Y-215900000D01*
X506095000Y-212090000D02*
X514985000Y-212090000D01*
X498475000Y-210820000D02*
X504825000Y-210820000D01*
X498475000Y-218440000D02*
X504825000Y-218440000D01*
X506095000Y-214630000D02*
X514985000Y-214630000D01*
X498475000Y-213360000D02*
X504825000Y-213360000D01*
X514985000Y-201930000D02*
X516255000Y-200660000D01*
X514985000Y-214630000D02*
X516255000Y-213360000D01*
X506095000Y-209550000D02*
X514985000Y-209550000D01*
X498475000Y-208280000D02*
X504825000Y-208280000D01*
X506095000Y-222250000D02*
X514985000Y-222250000D01*
X506095000Y-201930000D02*
X514985000Y-201930000D01*
X495935000Y-210820000D02*
X497205000Y-209550000D01*
X495935000Y-223520000D02*
X497205000Y-222250000D01*
X497205000Y-191770000D02*
X504825000Y-191770000D01*
X497205000Y-209550000D02*
X504825000Y-209550000D01*
X506095000Y-220980000D02*
X513715000Y-220980000D01*
X504825000Y-198120000D02*
X506095000Y-199390000D01*
X506095000Y-194310000D02*
X514985000Y-194310000D01*
X504825000Y-204470000D02*
X506095000Y-205740000D01*
X514985000Y-229870000D02*
X516255000Y-228600000D01*
X498475000Y-193040000D02*
X504825000Y-193040000D01*
X498475000Y-195580000D02*
X504825000Y-195580000D01*
X506095000Y-200660000D02*
X513715000Y-200660000D01*
X504825000Y-222250000D02*
X506095000Y-223520000D01*
X504825000Y-194310000D02*
X506095000Y-195580000D01*
X495935000Y-213360000D02*
X497205000Y-212090000D01*
X506095000Y-207010000D02*
X514985000Y-207010000D01*
X506095000Y-195580000D02*
X513715000Y-195580000D01*
X497205000Y-199390000D02*
X504825000Y-199390000D01*
X495935000Y-220980000D02*
X497205000Y-219710000D01*
X497205000Y-227330000D02*
X504825000Y-227330000D01*
X504825000Y-219710000D02*
X506095000Y-220980000D01*
X495935000Y-193040000D02*
X497205000Y-191770000D01*
X504825000Y-210820000D02*
X506095000Y-212090000D01*
X506095000Y-193040000D02*
X513715000Y-193040000D01*
X504825000Y-228600000D02*
X506095000Y-229870000D01*
X495935000Y-200660000D02*
X497205000Y-199390000D01*
X497205000Y-212090000D02*
X504825000Y-212090000D01*
X514985000Y-194310000D02*
X516255000Y-193040000D01*
X514985000Y-209550000D02*
X516255000Y-208280000D01*
X504825000Y-205740000D02*
X506095000Y-207010000D01*
X506095000Y-205740000D02*
X513715000Y-205740000D01*
X495935000Y-195580000D02*
X497205000Y-194310000D01*
X498475000Y-220980000D02*
X504825000Y-220980000D01*
X504825000Y-217170000D02*
X506095000Y-218440000D01*
X506095000Y-217170000D02*
X514985000Y-217170000D01*
X504825000Y-209550000D02*
X506095000Y-210820000D01*
X495935000Y-208280000D02*
X497205000Y-207010000D01*
X497205000Y-194310000D02*
X504825000Y-194310000D01*
X504825000Y-193040000D02*
X506095000Y-194310000D01*
X506095000Y-215900000D02*
X513715000Y-215900000D01*
X497205000Y-219710000D02*
X504825000Y-219710000D01*
X504825000Y-191770000D02*
X506095000Y-193040000D01*
X498475000Y-200660000D02*
X504825000Y-200660000D01*
X506095000Y-219710000D02*
X514985000Y-219710000D01*
X506095000Y-224790000D02*
X514985000Y-224790000D01*
X460375000Y-238760000D02*
X461645000Y-237490000D01*
X469265000Y-233680000D02*
X470535000Y-234950000D01*
X469265000Y-238760000D02*
X470535000Y-240030000D01*
X461645000Y-232410000D02*
X469265000Y-232410000D01*
X470535000Y-240030000D02*
X479425000Y-240030000D01*
X470535000Y-238760000D02*
X478155000Y-238760000D01*
X461645000Y-234950000D02*
X469265000Y-234950000D01*
X462915000Y-233680000D02*
X469265000Y-233680000D01*
X460375000Y-236220000D02*
X461645000Y-234950000D01*
X469265000Y-231140000D02*
X470535000Y-232410000D01*
X470535000Y-234950000D02*
X479425000Y-234950000D01*
X479425000Y-237490000D02*
X480695000Y-236220000D01*
X469265000Y-232410000D02*
X470535000Y-233680000D01*
X469265000Y-234950000D02*
X470535000Y-236220000D01*
X470535000Y-236220000D02*
X478155000Y-236220000D01*
X462915000Y-236220000D02*
X469265000Y-236220000D01*
X470535000Y-233680000D02*
X478155000Y-233680000D01*
X460375000Y-233680000D02*
X461645000Y-232410000D01*
X470535000Y-237490000D02*
X479425000Y-237490000D01*
X479425000Y-240030000D02*
X480695000Y-238760000D01*
X461645000Y-237490000D02*
X469265000Y-237490000D01*
X469265000Y-237490000D02*
X470535000Y-238760000D01*
X479425000Y-232410000D02*
X480695000Y-231140000D01*
X479425000Y-234950000D02*
X480695000Y-233680000D01*
X462915000Y-231140000D02*
X469265000Y-231140000D01*
X469265000Y-236220000D02*
X470535000Y-237490000D01*
X462915000Y-238760000D02*
X469265000Y-238760000D01*
X470535000Y-232410000D02*
X479425000Y-232410000D01*
X498475000Y-236220000D02*
X504825000Y-236220000D01*
X514985000Y-240030000D02*
X516255000Y-238760000D01*
X497205000Y-237490000D02*
X504825000Y-237490000D01*
X498475000Y-231140000D02*
X504825000Y-231140000D01*
X514985000Y-237490000D02*
X516255000Y-236220000D01*
X498475000Y-233680000D02*
X504825000Y-233680000D01*
X495935000Y-233680000D02*
X497205000Y-232410000D01*
X495935000Y-236220000D02*
X497205000Y-234950000D01*
X504825000Y-238760000D02*
X506095000Y-240030000D01*
X504825000Y-232410000D02*
X506095000Y-233680000D01*
X514985000Y-232410000D02*
X516255000Y-231140000D01*
X506095000Y-236220000D02*
X513715000Y-236220000D01*
X506095000Y-240030000D02*
X514985000Y-240030000D01*
X497205000Y-232410000D02*
X504825000Y-232410000D01*
X506095000Y-234950000D02*
X514985000Y-234950000D01*
X506095000Y-232410000D02*
X514985000Y-232410000D01*
X506095000Y-233680000D02*
X513715000Y-233680000D01*
X504825000Y-236220000D02*
X506095000Y-237490000D01*
X497205000Y-234950000D02*
X504825000Y-234950000D01*
X498475000Y-238760000D02*
X504825000Y-238760000D01*
X504825000Y-233680000D02*
X506095000Y-234950000D01*
X506095000Y-237490000D02*
X514985000Y-237490000D01*
X504825000Y-231140000D02*
X506095000Y-232410000D01*
X495935000Y-238760000D02*
X497205000Y-237490000D01*
X506095000Y-238760000D02*
X513715000Y-238760000D01*
X514985000Y-234950000D02*
X516255000Y-233680000D01*
X504825000Y-237490000D02*
X506095000Y-238760000D01*
X504825000Y-234950000D02*
X506095000Y-236220000D01*
X406400000Y-213360000D02*
X407035000Y-213360000D01*
D29*
X396240000Y-215900000D02*
X393700000Y-218440000D01*
D27*
X443865000Y-194310000D02*
X445135000Y-193040000D01*
X440690000Y-194310000D02*
X443865000Y-194310000D01*
X443865000Y-196850000D02*
X445135000Y-195580000D01*
X440690000Y-196850000D02*
X443865000Y-196850000D01*
X443865000Y-199390000D02*
X445135000Y-198120000D01*
X440690000Y-199390000D02*
X443865000Y-199390000D01*
X443865000Y-217170000D02*
X445135000Y-215900000D01*
X440690000Y-217170000D02*
X443865000Y-217170000D01*
X443865000Y-219710000D02*
X445135000Y-218440000D01*
X440690000Y-219710000D02*
X443865000Y-219710000D01*
X443865000Y-222250000D02*
X445135000Y-220980000D01*
X440690000Y-222250000D02*
X443865000Y-222250000D01*
X431165000Y-194310000D02*
X442595000Y-205740000D01*
X417830000Y-194310000D02*
X431165000Y-194310000D01*
X416560000Y-193040000D02*
X417830000Y-194310000D01*
X414655000Y-193040000D02*
X416560000Y-193040000D01*
X441325000Y-208280000D02*
X442595000Y-208280000D01*
X432435000Y-199390000D02*
X441325000Y-208280000D01*
X417830000Y-199390000D02*
X432435000Y-199390000D01*
X416560000Y-198120000D02*
X417830000Y-199390000D01*
X414655000Y-198120000D02*
X416560000Y-198120000D01*
X443865000Y-207010000D02*
X445135000Y-205740000D01*
X441960000Y-207010000D02*
X443865000Y-207010000D01*
X431800000Y-196850000D02*
X441960000Y-207010000D01*
X417830000Y-196850000D02*
X431800000Y-196850000D01*
X416560000Y-195580000D02*
X417830000Y-196850000D01*
X414655000Y-195580000D02*
X416560000Y-195580000D01*
D28*
X413385000Y-218440000D02*
X414655000Y-218440000D01*
X412115000Y-217170000D02*
X413385000Y-218440000D01*
X413385000Y-190500000D02*
X412115000Y-191770000D01*
X412115000Y-191770000D02*
X412115000Y-217170000D01*
X414655000Y-190500000D02*
X413385000Y-190500000D01*
D27*
X422910000Y-189230000D02*
X426720000Y-193040000D01*
X411480000Y-189230000D02*
X422910000Y-189230000D01*
X410210000Y-190500000D02*
X411480000Y-189230000D01*
X407035000Y-190500000D02*
X410210000Y-190500000D01*
X417195000Y-238760000D02*
X414655000Y-241300000D01*
X417195000Y-218440000D02*
X417195000Y-238760000D01*
X414655000Y-215900000D02*
X417195000Y-218440000D01*
X414655000Y-213360000D02*
X414655000Y-215900000D01*
X445135000Y-233680000D02*
X443865000Y-234950000D01*
X443865000Y-234950000D02*
X441325000Y-234950000D01*
X441325000Y-234950000D02*
X440690000Y-234950000D01*
D30*
X430490000Y-255270000D02*
X430490000Y-289520000D01*
X431800000Y-290830000D02*
X433070000Y-290830000D01*
X430490000Y-289520000D02*
X431800000Y-290830000D01*
X469900000Y-290830000D02*
X471170000Y-290830000D01*
X468590000Y-255270000D02*
X468590000Y-289520000D01*
X468590000Y-289520000D02*
X469900000Y-290830000D01*
X508000000Y-290830000D02*
X509270000Y-290830000D01*
X506690000Y-255270000D02*
X506690000Y-289520000D01*
X506690000Y-289520000D02*
X508000000Y-290830000D01*
D29*
X393700000Y-218440000D02*
X396240000Y-220980000D01*
X396240000Y-215900000D02*
X396240000Y-220980000D01*
X396240000Y-218440000D02*
X394970000Y-218440000D01*
D27*
X462915000Y-200660000D02*
X469265000Y-200660000D01*
X469265000Y-200660000D02*
X470535000Y-201930000D01*
X470535000Y-201930000D02*
X479425000Y-201930000D01*
X479425000Y-201930000D02*
X480695000Y-200660000D01*
X460375000Y-200660000D02*
X461645000Y-199390000D01*
X461645000Y-199390000D02*
X469265000Y-199390000D01*
X469265000Y-199390000D02*
X470535000Y-200660000D01*
X470535000Y-200660000D02*
X478155000Y-200660000D01*
X462915000Y-198120000D02*
X469265000Y-198120000D01*
X469265000Y-198120000D02*
X470535000Y-199390000D01*
X470535000Y-199390000D02*
X479425000Y-199390000D01*
X479425000Y-199390000D02*
X480695000Y-198120000D01*
X460375000Y-198120000D02*
X461645000Y-196850000D01*
X461645000Y-196850000D02*
X469265000Y-196850000D01*
X469265000Y-196850000D02*
X470535000Y-198120000D01*
X470535000Y-198120000D02*
X478155000Y-198120000D01*
X460375000Y-193040000D02*
X461645000Y-191770000D01*
X470535000Y-193040000D02*
X478155000Y-193040000D01*
X461645000Y-191770000D02*
X469265000Y-191770000D01*
X469265000Y-191770000D02*
X470535000Y-193040000D01*
X462915000Y-193040000D02*
X469265000Y-193040000D01*
X469265000Y-193040000D02*
X470535000Y-194310000D01*
X470535000Y-194310000D02*
X479425000Y-194310000D01*
X479425000Y-194310000D02*
X480695000Y-193040000D01*
X460375000Y-195580000D02*
X461645000Y-194310000D01*
X470535000Y-195580000D02*
X478155000Y-195580000D01*
X461645000Y-194310000D02*
X469265000Y-194310000D01*
X469265000Y-194310000D02*
X470535000Y-195580000D01*
X469265000Y-195580000D02*
X470535000Y-196850000D01*
X470535000Y-196850000D02*
X479425000Y-196850000D01*
X479425000Y-196850000D02*
X480695000Y-195580000D01*
X489585000Y-219710000D02*
X489585000Y-245745000D01*
X489585000Y-245745000D02*
X498475000Y-254635000D01*
X498475000Y-254635000D02*
X498475000Y-269240000D01*
X499745000Y-254635000D02*
X499745000Y-274320000D01*
X490855000Y-245745000D02*
X499745000Y-254635000D01*
X490855000Y-218440000D02*
X490855000Y-245745000D01*
X501015000Y-254635000D02*
X501015000Y-267335000D01*
X492125000Y-245745000D02*
X501015000Y-254635000D01*
X492125000Y-217170000D02*
X492125000Y-245745000D01*
X502285000Y-254635000D02*
X502285000Y-265430000D01*
X493395000Y-245745000D02*
X502285000Y-254635000D01*
X493395000Y-215900000D02*
X493395000Y-245745000D01*
X511175000Y-228600000D02*
X513715000Y-228600000D01*
X509905000Y-229870000D02*
X514985000Y-229870000D01*
X366395000Y-195580000D02*
X366395000Y-202080000D01*
X483235000Y-229870000D02*
X483235000Y-240030000D01*
X460375000Y-231140000D02*
X459105000Y-231140000D01*
X459105000Y-231140000D02*
X458470000Y-231775000D01*
X458470000Y-231775000D02*
X458470000Y-241300000D01*
X497205000Y-229870000D02*
X501015000Y-229870000D01*
X495935000Y-231140000D02*
X497205000Y-229870000D01*
X408940000Y-270510000D02*
X408305000Y-270510000D01*
D29*
X398780000Y-215900000D02*
X397510000Y-215900000D01*
X397510000Y-215900000D02*
X396240000Y-215900000D01*
D28*
X407035000Y-213360000D02*
X408305000Y-213360000D01*
X408305000Y-213360000D02*
X409575000Y-214630000D01*
X409575000Y-214630000D02*
X409575000Y-240030000D01*
X406831800Y-244043200D02*
X405003000Y-244043200D01*
X408127200Y-242747800D02*
X406831800Y-244043200D01*
X409575000Y-241300000D02*
X407035000Y-243840000D01*
X409575000Y-239801400D02*
X409575000Y-241300000D01*
X408127200Y-241300000D02*
X407035000Y-241300000D01*
X409448000Y-239979200D02*
X408127200Y-241300000D01*
D27*
X473075000Y-251460000D02*
X473075000Y-273050000D01*
X471170000Y-249555000D02*
X473075000Y-251460000D01*
X471170000Y-241300000D02*
X471170000Y-249555000D01*
X474345000Y-251460000D02*
X474345000Y-275590000D01*
X472440000Y-249555000D02*
X474345000Y-251460000D01*
X472440000Y-241300000D02*
X472440000Y-249555000D01*
X475615000Y-251460000D02*
X475615000Y-278765000D01*
X473710000Y-249555000D02*
X475615000Y-251460000D01*
X473710000Y-241300000D02*
X473710000Y-249555000D01*
X476885000Y-251460000D02*
X476885000Y-281940000D01*
X474980000Y-249555000D02*
X476885000Y-251460000D01*
X474980000Y-241300000D02*
X474980000Y-249555000D01*
X464185000Y-255270000D02*
X464185000Y-271780000D01*
X469900000Y-249555000D02*
X464185000Y-255270000D01*
X469900000Y-241300000D02*
X469900000Y-249555000D01*
X462915000Y-255270000D02*
X462915000Y-268605000D01*
X468630000Y-249555000D02*
X462915000Y-255270000D01*
X468630000Y-241300000D02*
X468630000Y-249555000D01*
X461645000Y-255270000D02*
X461645000Y-265430000D01*
X467360000Y-249555000D02*
X461645000Y-255270000D01*
X467360000Y-241300000D02*
X467360000Y-249555000D01*
X460375000Y-255270000D02*
X460375000Y-262890000D01*
X466090000Y-249555000D02*
X460375000Y-255270000D01*
X466090000Y-241300000D02*
X466090000Y-249555000D01*
X487045000Y-252095000D02*
X487045000Y-257810000D01*
X484505000Y-249555000D02*
X487045000Y-252095000D01*
X484505000Y-222250000D02*
X484505000Y-249555000D01*
D31*
X360680000Y-185420000D02*
X360680000Y-186690000D01*
X361950000Y-184150000D02*
X360680000Y-185420000D01*
X397510000Y-184150000D02*
X400050000Y-184150000D01*
X396240000Y-190500000D02*
X400050000Y-186690000D01*
X400050000Y-186690000D02*
X397510000Y-184150000D01*
X400685000Y-187325000D02*
X400050000Y-186690000D01*
X389255000Y-184150000D02*
X389890000Y-184150000D01*
X397510000Y-184150000D02*
X389255000Y-184150000D01*
X389255000Y-184150000D02*
X360680000Y-184150000D01*
X393065000Y-185420000D02*
X396240000Y-185420000D01*
X396240000Y-185420000D02*
X398145000Y-187325000D01*
X393065000Y-185420000D02*
X393700000Y-185420000D01*
X393700000Y-185420000D02*
X396240000Y-187960000D01*
X428625000Y-184150000D02*
X431165000Y-186690000D01*
X400050000Y-184150000D02*
X428625000Y-184150000D01*
X358140000Y-191825000D02*
X358140000Y-191770000D01*
X358140000Y-186690000D02*
X358140000Y-191770000D01*
X358235000Y-205740000D02*
X358140000Y-205740000D01*
X358140000Y-191770000D02*
X358140000Y-205740000D01*
X360045000Y-202565000D02*
X360727500Y-203247500D01*
X360045000Y-195580000D02*
X360045000Y-202565000D01*
X360727500Y-203247500D02*
X358235000Y-205740000D01*
X361895000Y-202080000D02*
X360727500Y-203247500D01*
X512445000Y-189230000D02*
X517525000Y-184150000D01*
D28*
X480695000Y-190500000D02*
X496570000Y-190500000D01*
X496570000Y-190500000D02*
X516255000Y-190500000D01*
X495935000Y-190500000D02*
X496570000Y-190500000D01*
X445135000Y-190500000D02*
X460375000Y-190500000D01*
D31*
X517525000Y-184150000D02*
X527050000Y-184150000D01*
D28*
X516255000Y-190500000D02*
X518795000Y-187960000D01*
D31*
X529590000Y-350520000D02*
X529590000Y-353695000D01*
X504825000Y-351155000D02*
X509905000Y-356235000D01*
X529590000Y-346075000D02*
X529590000Y-345440000D01*
X529590000Y-345440000D02*
X529590000Y-351155000D01*
X527367500Y-348297500D02*
X527367500Y-348932500D01*
X529590000Y-351155000D02*
X528320000Y-349885000D01*
X528320000Y-347345000D02*
X529590000Y-346075000D01*
X525780000Y-185420000D02*
X527050000Y-186690000D01*
X521335000Y-185420000D02*
X525780000Y-185420000D01*
X521335000Y-185420000D02*
X521335000Y-186055000D01*
X521335000Y-186055000D02*
X528320000Y-193040000D01*
X528955000Y-190500000D02*
X529590000Y-191135000D01*
X528320000Y-190500000D02*
X528955000Y-190500000D01*
X529590000Y-191135000D02*
X529590000Y-345440000D01*
X529590000Y-186690000D02*
X529590000Y-191135000D01*
X521335000Y-187960000D02*
X519430000Y-187960000D01*
X519430000Y-187960000D02*
X519112500Y-187642500D01*
X519112500Y-187642500D02*
X521335000Y-185420000D01*
X495935000Y-203200000D02*
X480695000Y-203200000D01*
X359700000Y-187670000D02*
X360680000Y-186690000D01*
X359700000Y-193385000D02*
X359700000Y-187670000D01*
X361895000Y-195580000D02*
X359700000Y-193385000D01*
X359700000Y-193385000D02*
X358140000Y-191825000D01*
X360680000Y-186690000D02*
X362585000Y-186690000D01*
X362585000Y-186690000D02*
X363220000Y-186055000D01*
X392430000Y-186055000D02*
X393065000Y-185420000D01*
X363220000Y-186055000D02*
X392430000Y-186055000D01*
D27*
X513715000Y-231140000D02*
X508635000Y-231140000D01*
D28*
X511175000Y-311150000D02*
X512445000Y-309880000D01*
X509230000Y-311150000D02*
X511175000Y-311150000D01*
X511175000Y-311150000D02*
X512445000Y-312420000D01*
D31*
X512445000Y-312420000D02*
X512445000Y-309880000D01*
X512445000Y-325755000D02*
X512445000Y-312420000D01*
D28*
X509270000Y-316230000D02*
X511215000Y-316230000D01*
X511175000Y-316230000D02*
X512445000Y-314960000D01*
X511175000Y-316230000D02*
X512445000Y-317500000D01*
D31*
X521970000Y-203835000D02*
X521335000Y-203200000D01*
X512445000Y-304800000D02*
X521970000Y-295275000D01*
X512445000Y-309880000D02*
X512445000Y-304800000D01*
X522605000Y-206375000D02*
X519430000Y-203200000D01*
D28*
X516255000Y-203200000D02*
X517525000Y-203200000D01*
X521970000Y-207645000D02*
X521970000Y-208915000D01*
X517525000Y-203200000D02*
X521970000Y-207645000D01*
D31*
X521970000Y-208915000D02*
X521970000Y-203835000D01*
X516255000Y-203200000D02*
X521335000Y-203200000D01*
D30*
X377190000Y-207010000D02*
X379770000Y-207010000D01*
X455890000Y-255270000D02*
X455930000Y-255310000D01*
D31*
X383775000Y-354075000D02*
X384575000Y-353275000D01*
X377825000Y-354075000D02*
X383775000Y-354075000D01*
X371875000Y-354075000D02*
X371075000Y-353275000D01*
X377825000Y-354075000D02*
X371875000Y-354075000D01*
X368115000Y-356235000D02*
X371075000Y-353275000D01*
X367030000Y-356235000D02*
X368115000Y-356235000D01*
X384575000Y-353275000D02*
X384575000Y-353460000D01*
X371475000Y-355600000D02*
X370205000Y-354330000D01*
X384175000Y-355600000D02*
X371475000Y-355600000D01*
X383540000Y-356235000D02*
X384175000Y-355600000D01*
X367030000Y-356235000D02*
X383540000Y-356235000D01*
X384575000Y-355200000D02*
X383540000Y-356235000D01*
X384575000Y-353275000D02*
X384575000Y-355200000D01*
D28*
X381225000Y-351565000D02*
X379730000Y-353060000D01*
D31*
X379730000Y-353060000D02*
X383541800Y-353060000D01*
X371475000Y-353060000D02*
X379730000Y-353060000D01*
D28*
X381635000Y-350520000D02*
X383950000Y-352835000D01*
D27*
X404495000Y-290830000D02*
X400685000Y-294640000D01*
X404495000Y-285750000D02*
X404495000Y-290830000D01*
X408305000Y-281940000D02*
X404495000Y-285750000D01*
X375920000Y-305435000D02*
X375920000Y-307975000D01*
X375920000Y-302895000D02*
X375920000Y-300355000D01*
D31*
X367030000Y-356235000D02*
X360680000Y-356235000D01*
X499395000Y-356235000D02*
X504825000Y-350805000D01*
X499395000Y-356235000D02*
X511810000Y-356235000D01*
X511810000Y-356235000D02*
X527050000Y-356235000D01*
X509905000Y-356235000D02*
X511810000Y-356235000D01*
X505777500Y-354012500D02*
X503872500Y-354012500D01*
X506095000Y-354330000D02*
X505777500Y-354012500D01*
X502920000Y-354965000D02*
X503872500Y-354012500D01*
X506095000Y-350520000D02*
X507365000Y-351790000D01*
X502285000Y-350520000D02*
X506095000Y-350520000D01*
D28*
X381635000Y-340995000D02*
X383082800Y-339547200D01*
X381000000Y-340995000D02*
X382270000Y-340995000D01*
D31*
X383540000Y-339547200D02*
X383540000Y-342265000D01*
D28*
X381000000Y-340995000D02*
X382092200Y-340995000D01*
X368300000Y-339090000D02*
X370205000Y-340995000D01*
D27*
X438785000Y-288290000D02*
X438785000Y-297180000D01*
D31*
X384575000Y-353275000D02*
X384595000Y-353275000D01*
D29*
X521930000Y-244475000D02*
X521970000Y-244475000D01*
X519644000Y-245745000D02*
X522184000Y-243205000D01*
D31*
X521970000Y-244475000D02*
X521970000Y-208915000D01*
D29*
X521930000Y-249555000D02*
X521970000Y-249555000D01*
X519644000Y-245745000D02*
X522184000Y-248285000D01*
D31*
X521970000Y-295275000D02*
X521970000Y-249555000D01*
D29*
X519644000Y-245745000D02*
X522224000Y-245745000D01*
D31*
X521970000Y-247015000D02*
X521970000Y-244475000D01*
X521970000Y-249555000D02*
X521970000Y-247015000D01*
D27*
X389890000Y-326390000D02*
X391160000Y-326390000D01*
X388620000Y-327660000D02*
X389890000Y-326390000D01*
X388620000Y-335915000D02*
X388620000Y-327660000D01*
X386715000Y-337820000D02*
X388620000Y-335915000D01*
X382270000Y-337820000D02*
X386715000Y-337820000D01*
X381000000Y-339090000D02*
X382270000Y-337820000D01*
X375920000Y-339090000D02*
X381000000Y-339090000D01*
X381000000Y-328930000D02*
X375920000Y-334010000D01*
X381000000Y-306070000D02*
X381000000Y-328930000D01*
X377825000Y-302895000D02*
X381000000Y-306070000D01*
X375920000Y-302895000D02*
X377825000Y-302895000D01*
X379095000Y-328295000D02*
X375920000Y-331470000D01*
X379095000Y-313690000D02*
X379095000Y-328295000D01*
X375920000Y-310515000D02*
X379095000Y-313690000D01*
D28*
X368935000Y-339090000D02*
X368300000Y-339090000D01*
D27*
X392430000Y-322580000D02*
X393700000Y-323850000D01*
X387985000Y-322580000D02*
X392430000Y-322580000D01*
X386715000Y-321310000D02*
X387985000Y-322580000D01*
X383540000Y-321310000D02*
X386715000Y-321310000D01*
X400685000Y-284480000D02*
X396240000Y-284480000D01*
X400685000Y-287020000D02*
X394970000Y-287020000D01*
X400685000Y-289560000D02*
X393700000Y-289560000D01*
X400685000Y-292100000D02*
X392430000Y-292100000D01*
D28*
X368300000Y-340360000D02*
X368300000Y-339090000D01*
X369570000Y-341630000D02*
X368300000Y-340360000D01*
X369570000Y-338455000D02*
X369887500Y-338137500D01*
X369887500Y-338137500D02*
X368935000Y-339090000D01*
X370840000Y-337185000D02*
X369887500Y-338137500D01*
X374015000Y-340995000D02*
X381000000Y-340995000D01*
X372745000Y-340995000D02*
X374015000Y-340995000D01*
X370205000Y-340995000D02*
X372745000Y-340995000D01*
X370840000Y-340360000D02*
X371475000Y-339725000D01*
X369570000Y-340360000D02*
X370840000Y-340360000D01*
X371475000Y-339725000D02*
X372745000Y-340995000D01*
X369887500Y-338137500D02*
X371475000Y-339725000D01*
X369570000Y-341630000D02*
X369570000Y-340360000D01*
X369570000Y-340360000D02*
X369570000Y-338455000D01*
D31*
X384575000Y-349650000D02*
X384575000Y-350920000D01*
X384575000Y-353275000D02*
X384575000Y-349650000D01*
D28*
X381254000Y-350291400D02*
X382709000Y-350291400D01*
X382680000Y-350275000D02*
X382680000Y-350295000D01*
X383305000Y-350920000D02*
X384575000Y-350920000D01*
X382680000Y-350295000D02*
X383305000Y-350920000D01*
X398780000Y-343535000D02*
X398145000Y-344170000D01*
X393700000Y-303530000D02*
X391160000Y-303530000D01*
D27*
X421640000Y-284480000D02*
X408305000Y-284480000D01*
X427990000Y-278130000D02*
X421640000Y-284480000D01*
D28*
X399732500Y-342582500D02*
X398449800Y-343865200D01*
D31*
X410845000Y-344170000D02*
X419735000Y-344170000D01*
X419735000Y-344170000D02*
X421005000Y-344170000D01*
X421005000Y-344170000D02*
X426085000Y-344170000D01*
D27*
X368300000Y-305435000D02*
X370205000Y-305435000D01*
X396240000Y-257810000D02*
X400685000Y-257810000D01*
X394970000Y-260350000D02*
X399415000Y-260350000D01*
X399415000Y-260350000D02*
X400685000Y-260350000D01*
D31*
X511759200Y-327964800D02*
X511124200Y-327329800D01*
X513029200Y-327964800D02*
X511759200Y-327964800D01*
X511124200Y-327329800D02*
X512394200Y-326059800D01*
X510489200Y-327964800D02*
X511124200Y-327329800D01*
X527367500Y-348297500D02*
X528320000Y-347345000D01*
X528320000Y-195580000D02*
X522605000Y-189865000D01*
X522605000Y-189865000D02*
X516890000Y-189865000D01*
X516890000Y-189865000D02*
X519112500Y-187642500D01*
D27*
X447675000Y-293370000D02*
X447675000Y-297180000D01*
X448945000Y-292100000D02*
X447675000Y-293370000D01*
X448945000Y-288290000D02*
X448945000Y-292100000D01*
X449580000Y-292735000D02*
X449580000Y-297180000D01*
X450215000Y-292100000D02*
X449580000Y-292735000D01*
X450215000Y-286385000D02*
X450215000Y-292100000D01*
X445770000Y-294005000D02*
X445770000Y-297180000D01*
X447675000Y-292100000D02*
X445770000Y-294005000D01*
X447675000Y-289560000D02*
X447675000Y-292100000D01*
X451485000Y-284480000D02*
X451485000Y-297180000D01*
X436880000Y-292735000D02*
X436880000Y-297180000D01*
X437515000Y-292100000D02*
X436880000Y-292735000D01*
X437515000Y-285115000D02*
X437515000Y-292100000D01*
X434975000Y-293370000D02*
X434975000Y-297180000D01*
X436245000Y-292100000D02*
X434975000Y-293370000D01*
X436245000Y-281940000D02*
X436245000Y-292100000D01*
X433070000Y-294005000D02*
X433070000Y-297180000D01*
X434975000Y-292100000D02*
X433070000Y-294005000D01*
X434975000Y-279400000D02*
X434975000Y-292100000D01*
D31*
X496570000Y-356235000D02*
X498792500Y-354012500D01*
X498792500Y-354012500D02*
X502285000Y-350520000D01*
D27*
X368300000Y-300355000D02*
X370205000Y-300355000D01*
D31*
X405765000Y-303530000D02*
X408305000Y-306070000D01*
D28*
X453390000Y-310515000D02*
X452120000Y-309245000D01*
D27*
X440055000Y-320040000D02*
X441325000Y-318770000D01*
X440055000Y-322580000D02*
X441325000Y-321310000D01*
X440055000Y-325120000D02*
X441325000Y-323850000D01*
X440055000Y-327660000D02*
X441325000Y-326390000D01*
X440055000Y-330200000D02*
X441325000Y-328930000D01*
X440055000Y-332740000D02*
X441325000Y-331470000D01*
X440055000Y-335280000D02*
X441325000Y-334010000D01*
X440055000Y-337820000D02*
X441325000Y-336550000D01*
D28*
X428625000Y-340360000D02*
X426085000Y-342900000D01*
X428625000Y-340360000D02*
X431165000Y-342900000D01*
D27*
X441325000Y-336550000D02*
X445770000Y-336550000D01*
X441325000Y-334010000D02*
X445770000Y-334010000D01*
X441325000Y-331470000D02*
X445770000Y-331470000D01*
X441325000Y-328930000D02*
X445770000Y-328930000D01*
X441325000Y-326390000D02*
X445770000Y-326390000D01*
X441325000Y-323850000D02*
X445770000Y-323850000D01*
X441325000Y-321310000D02*
X445770000Y-321310000D01*
X441325000Y-318770000D02*
X445770000Y-318770000D01*
X370840000Y-295275000D02*
X368300000Y-295275000D01*
D28*
X370840000Y-293370000D02*
X373380000Y-290830000D01*
X370840000Y-295275000D02*
X370840000Y-293370000D01*
X375880000Y-295235000D02*
X375920000Y-295275000D01*
X375880000Y-290830000D02*
X375880000Y-295235000D01*
X373380000Y-316865000D02*
X370840000Y-314325000D01*
X370840000Y-314325000D02*
X370840000Y-313690000D01*
X370840000Y-313055000D02*
X370840000Y-313690000D01*
X373380000Y-316865000D02*
X370840000Y-319405000D01*
X371475000Y-316865000D02*
X370840000Y-316230000D01*
X373380000Y-316865000D02*
X371475000Y-316865000D01*
X370840000Y-316230000D02*
X370840000Y-319405000D01*
X370840000Y-313690000D02*
X370840000Y-316230000D01*
D31*
X381000000Y-295275000D02*
X375920000Y-295275000D01*
X391160000Y-305435000D02*
X381000000Y-295275000D01*
X391160000Y-320852800D02*
X391160000Y-305181000D01*
X393065000Y-303530000D02*
X391160000Y-305435000D01*
X394970000Y-303530000D02*
X393065000Y-303530000D01*
X389255000Y-303530000D02*
X394970000Y-303530000D01*
X394970000Y-303530000D02*
X405765000Y-303530000D01*
D27*
X379525000Y-346075000D02*
X381225000Y-347775000D01*
X368935000Y-346075000D02*
X379525000Y-346075000D01*
X364490000Y-341630000D02*
X368935000Y-346075000D01*
X364490000Y-321945000D02*
X364490000Y-341630000D01*
X368300000Y-318135000D02*
X364490000Y-321945000D01*
D28*
X370840000Y-337820000D02*
X374015000Y-340995000D01*
X370840000Y-337185000D02*
X370840000Y-337820000D01*
X412115000Y-281940000D02*
X408305000Y-281940000D01*
D27*
X405130000Y-313690000D02*
X408305000Y-313690000D01*
X403860000Y-312420000D02*
X405130000Y-313690000D01*
X399415000Y-312420000D02*
X403860000Y-312420000D01*
X394970000Y-316865000D02*
X399415000Y-312420000D01*
X394970000Y-323850000D02*
X394970000Y-316865000D01*
X393700000Y-325120000D02*
X394970000Y-323850000D01*
X389255000Y-325120000D02*
X393700000Y-325120000D01*
X386715000Y-327660000D02*
X389255000Y-325120000D01*
X405130000Y-316230000D02*
X408305000Y-316230000D01*
X403860000Y-317500000D02*
X405130000Y-316230000D01*
X399415000Y-317500000D02*
X403860000Y-317500000D01*
X397510000Y-319405000D02*
X399415000Y-317500000D01*
X397510000Y-323850000D02*
X397510000Y-319405000D01*
X393065000Y-328295000D02*
X397510000Y-323850000D01*
X393065000Y-334645000D02*
X393065000Y-328295000D01*
X391160000Y-336550000D02*
X393065000Y-334645000D01*
X485775000Y-220980000D02*
X485775000Y-249555000D01*
X485775000Y-249555000D02*
X488315000Y-252095000D01*
X488315000Y-252095000D02*
X488315000Y-262255000D01*
X409575000Y-311150000D02*
X408305000Y-311150000D01*
X410210000Y-311785000D02*
X409575000Y-311150000D01*
X410210000Y-314325000D02*
X410210000Y-311785000D01*
X409575000Y-314960000D02*
X410210000Y-314325000D01*
X399415000Y-314960000D02*
X409575000Y-314960000D01*
X396240000Y-318135000D02*
X399415000Y-314960000D01*
X396240000Y-323850000D02*
X396240000Y-318135000D01*
X391160000Y-328930000D02*
X396240000Y-323850000D01*
X462915000Y-223520000D02*
X469265000Y-223520000D01*
X469265000Y-223520000D02*
X470535000Y-224790000D01*
X470535000Y-224790000D02*
X479425000Y-224790000D01*
X479425000Y-224790000D02*
X480695000Y-223520000D01*
X487045000Y-219710000D02*
X487045000Y-249555000D01*
X487045000Y-249555000D02*
X489585000Y-252095000D01*
X489585000Y-252095000D02*
X489585000Y-261620000D01*
D29*
X408940000Y-306070000D02*
X408305000Y-306070000D01*
D28*
X412115000Y-306070000D02*
X408305000Y-306070000D01*
X436245000Y-309880000D02*
X434975000Y-308610000D01*
X436245000Y-309880000D02*
X436245000Y-309245000D01*
D27*
X400685000Y-265430000D02*
X402590000Y-265430000D01*
X402590000Y-273685000D02*
X400685000Y-275590000D01*
X402590000Y-264795000D02*
X402590000Y-273685000D01*
X400685000Y-262890000D02*
X402590000Y-264795000D01*
D28*
X445770000Y-340360000D02*
X443230000Y-342900000D01*
X445770000Y-340360000D02*
X448310000Y-342900000D01*
D31*
X500380000Y-316230000D02*
X498475000Y-316230000D01*
X498094000Y-328625200D02*
X500380000Y-326339200D01*
D28*
X436245000Y-316230000D02*
X436245000Y-309880000D01*
X436245000Y-316230000D02*
X437515000Y-314960000D01*
X437515000Y-314960000D02*
X437515000Y-309880000D01*
X437515000Y-311150000D02*
X440055000Y-308610000D01*
X454660000Y-314960000D02*
X454660000Y-308610000D01*
X454660000Y-310515000D02*
X455930000Y-309245000D01*
X453390000Y-316230000D02*
X454660000Y-314960000D01*
X461010000Y-308610000D02*
X461645000Y-308610000D01*
D32*
X361252400Y-353275000D02*
X360832400Y-353695000D01*
X371075000Y-353275000D02*
X361252400Y-353275000D01*
D31*
X358140000Y-353695000D02*
X358140000Y-348615000D01*
X358140000Y-205740000D02*
X358140000Y-349885000D01*
D32*
X370840000Y-214630000D02*
X361895000Y-205685000D01*
X361895000Y-205685000D02*
X361895000Y-202080000D01*
X361895000Y-202080000D02*
X361895000Y-192460000D01*
X361315000Y-191770000D02*
X366767500Y-186317500D01*
D31*
X392747500Y-187007500D02*
X396240000Y-190500000D01*
X389890000Y-184150000D02*
X392747500Y-187007500D01*
D32*
X360045000Y-207645000D02*
X368300000Y-215900000D01*
X368300000Y-215265000D02*
X368300000Y-238760000D01*
X368300000Y-238760000D02*
X368300000Y-283210000D01*
X368300000Y-283210000D02*
X360045000Y-291465000D01*
X360045000Y-291465000D02*
X360680000Y-290830000D01*
X360680000Y-290830000D02*
X360680000Y-210820000D01*
X360680000Y-210820000D02*
X360680000Y-211455000D01*
X360680000Y-211455000D02*
X366395000Y-217170000D01*
X366395000Y-217170000D02*
X366395000Y-281305000D01*
X366395000Y-281305000D02*
X363220000Y-284480000D01*
X363220000Y-284480000D02*
X363220000Y-265430000D01*
X363220000Y-265430000D02*
X363220000Y-217170000D01*
X370840000Y-228600000D02*
X370840000Y-222250000D01*
D28*
X373380000Y-334645000D02*
X370840000Y-337185000D01*
X372110000Y-319405000D02*
X373380000Y-320675000D01*
X370840000Y-319405000D02*
X372110000Y-319405000D01*
X373380000Y-320675000D02*
X373380000Y-316865000D01*
X370840000Y-319405000D02*
X373380000Y-321945000D01*
X373380000Y-321945000D02*
X373380000Y-334645000D01*
X373380000Y-320675000D02*
X373380000Y-321945000D01*
X373380000Y-339725000D02*
X375285000Y-341630000D01*
X375285000Y-341630000D02*
X369570000Y-341630000D01*
X383540000Y-341630000D02*
X375285000Y-341630000D01*
X373380000Y-334645000D02*
X373380000Y-335915000D01*
X373380000Y-335915000D02*
X373380000Y-336550000D01*
X373380000Y-335915000D02*
X373380000Y-339725000D01*
X373380000Y-336550000D02*
X372110000Y-337820000D01*
D31*
X523875000Y-205740000D02*
X521335000Y-203200000D01*
X523875000Y-296545000D02*
X523875000Y-205740000D01*
X514350000Y-306070000D02*
X523875000Y-296545000D01*
X513664200Y-329869800D02*
X514299200Y-329234800D01*
X510489200Y-329869800D02*
X513664200Y-329869800D01*
X508965200Y-328345800D02*
X510489200Y-329869800D01*
D27*
X432435000Y-337820000D02*
X440055000Y-337820000D01*
X431165000Y-336550000D02*
X432435000Y-337820000D01*
X428625000Y-336550000D02*
X431165000Y-336550000D01*
X432435000Y-335280000D02*
X440055000Y-335280000D01*
X431165000Y-334010000D02*
X432435000Y-335280000D01*
X428625000Y-334010000D02*
X431165000Y-334010000D01*
X432435000Y-332740000D02*
X440055000Y-332740000D01*
X431165000Y-331470000D02*
X432435000Y-332740000D01*
X428625000Y-331470000D02*
X431165000Y-331470000D01*
X432435000Y-330200000D02*
X440055000Y-330200000D01*
X431165000Y-328930000D02*
X432435000Y-330200000D01*
X428625000Y-328930000D02*
X431165000Y-328930000D01*
X432435000Y-327660000D02*
X440055000Y-327660000D01*
X431165000Y-326390000D02*
X432435000Y-327660000D01*
X428625000Y-326390000D02*
X431165000Y-326390000D01*
X432435000Y-325120000D02*
X440055000Y-325120000D01*
X431165000Y-323850000D02*
X432435000Y-325120000D01*
X428625000Y-323850000D02*
X431165000Y-323850000D01*
X432435000Y-322580000D02*
X440055000Y-322580000D01*
X431165000Y-321310000D02*
X432435000Y-322580000D01*
X428625000Y-321310000D02*
X431165000Y-321310000D01*
X432435000Y-320040000D02*
X440055000Y-320040000D01*
X431165000Y-318770000D02*
X432435000Y-320040000D01*
X428625000Y-318770000D02*
X431165000Y-318770000D01*
D31*
X386080000Y-354330000D02*
X391795000Y-354330000D01*
X386715000Y-353060000D02*
X393065000Y-353060000D01*
X384575000Y-350920000D02*
X386715000Y-353060000D01*
X474980000Y-308610000D02*
X465455000Y-308610000D01*
X478155000Y-308610000D02*
X474980000Y-308610000D01*
X489585000Y-308610000D02*
X478155000Y-308610000D01*
D28*
X462915000Y-340360000D02*
X465455000Y-342900000D01*
X462915000Y-340360000D02*
X460375000Y-342900000D01*
D31*
X506380000Y-350805000D02*
X508635000Y-353060000D01*
X528320000Y-298450000D02*
X528320000Y-195580000D01*
X528320000Y-347345000D02*
X528320000Y-298450000D01*
D27*
X365760000Y-340360000D02*
X365760000Y-327025000D01*
X369570000Y-344170000D02*
X365760000Y-340360000D01*
X381000000Y-344170000D02*
X369570000Y-344170000D01*
X365760000Y-327025000D02*
X367665000Y-325120000D01*
X382905000Y-346075000D02*
X381000000Y-344170000D01*
X382905000Y-347980000D02*
X382905000Y-346075000D01*
X381889000Y-348996000D02*
X382905000Y-347980000D01*
X367665000Y-325120000D02*
X371475000Y-325120000D01*
X380404000Y-348996000D02*
X381889000Y-348996000D01*
X379125000Y-350275000D02*
X380404000Y-348996000D01*
D31*
X385445000Y-348215000D02*
X385445000Y-347345000D01*
X387985000Y-350755000D02*
X385445000Y-348215000D01*
X385045000Y-349650000D02*
X385445000Y-349250000D01*
X384575000Y-349650000D02*
X385045000Y-349650000D01*
D28*
X385445000Y-347510000D02*
X385445000Y-346710000D01*
X382680000Y-350275000D02*
X385445000Y-347510000D01*
X384810000Y-349250000D02*
X384810000Y-345440000D01*
X384810000Y-344805000D02*
X384810000Y-349250000D01*
X381635000Y-341630000D02*
X384810000Y-344805000D01*
X381254000Y-350316800D02*
X381254000Y-351606800D01*
D32*
X364797500Y-349557500D02*
X360045000Y-344805000D01*
X367357500Y-349557500D02*
X364797500Y-349557500D01*
X371075000Y-353275000D02*
X367357500Y-349557500D01*
X359410000Y-347345000D02*
X359410000Y-347980000D01*
X360987500Y-349557500D02*
X364797500Y-349557500D01*
X359410000Y-347980000D02*
X360987500Y-349557500D01*
D29*
X471805000Y-307975000D02*
X472440000Y-307975000D01*
D28*
X470535000Y-310515000D02*
X469265000Y-309245000D01*
D30*
X456565000Y-289560000D02*
X457835000Y-290830000D01*
X456565000Y-278765000D02*
X456565000Y-289560000D01*
X457835000Y-290830000D02*
X458470000Y-290830000D01*
X455930000Y-278130000D02*
X456565000Y-278765000D01*
X455930000Y-255310000D02*
X455930000Y-278130000D01*
D27*
X443230000Y-237490000D02*
X440690000Y-237490000D01*
X444500000Y-236220000D02*
X443230000Y-237490000D01*
X445135000Y-236220000D02*
X444500000Y-236220000D01*
X437515000Y-232410000D02*
X431165000Y-238760000D01*
X443865000Y-232410000D02*
X437515000Y-232410000D01*
X445135000Y-231140000D02*
X443865000Y-232410000D01*
X434975000Y-252730000D02*
X434975000Y-279400000D01*
X448310000Y-239395000D02*
X434975000Y-252730000D01*
X448310000Y-200660000D02*
X448310000Y-239395000D01*
X436245000Y-252730000D02*
X436245000Y-281940000D01*
X449580000Y-239395000D02*
X436245000Y-252730000D01*
X449580000Y-199390000D02*
X449580000Y-239395000D01*
X437515000Y-252730000D02*
X437515000Y-285115000D01*
X450850000Y-239395000D02*
X437515000Y-252730000D01*
X450850000Y-198120000D02*
X450850000Y-239395000D01*
D30*
X383580000Y-215900000D02*
X383540000Y-215940000D01*
X387350000Y-215900000D02*
X383580000Y-215900000D01*
D27*
X382270000Y-213380000D02*
X382270000Y-212090000D01*
X383500000Y-214610000D02*
X382270000Y-213380000D01*
X383500000Y-215900000D02*
X383500000Y-214610000D01*
X451485000Y-255270000D02*
X451485000Y-284480000D01*
X451485000Y-254000000D02*
X451485000Y-255270000D01*
X457200000Y-248285000D02*
X451485000Y-254000000D01*
X457200000Y-193040000D02*
X457200000Y-248285000D01*
X450215000Y-259715000D02*
X450215000Y-286385000D01*
X450215000Y-254000000D02*
X450215000Y-259715000D01*
X455930000Y-248285000D02*
X450215000Y-254000000D01*
X455930000Y-194310000D02*
X455930000Y-248285000D01*
X448945000Y-268605000D02*
X448945000Y-288290000D01*
X448945000Y-254000000D02*
X448945000Y-268605000D01*
X454660000Y-248285000D02*
X448945000Y-254000000D01*
X454660000Y-195580000D02*
X454660000Y-248285000D01*
X447675000Y-254000000D02*
X447675000Y-289560000D01*
X453390000Y-248285000D02*
X447675000Y-254000000D01*
X453390000Y-196850000D02*
X453390000Y-248285000D01*
X452120000Y-197485000D02*
X452120000Y-239395000D01*
X452120000Y-239395000D02*
X438785000Y-252730000D01*
X438785000Y-252730000D02*
X438785000Y-288290000D01*
X514350000Y-270510000D02*
X516890000Y-273050000D01*
X514350000Y-254635000D02*
X514350000Y-270510000D01*
X511175000Y-251460000D02*
X514350000Y-254635000D01*
X511175000Y-245745000D02*
X511175000Y-251460000D01*
X509905000Y-251460000D02*
X509905000Y-245745000D01*
X511175000Y-252730000D02*
X509905000Y-251460000D01*
X511175000Y-259080000D02*
X511175000Y-252730000D01*
D31*
X385445000Y-341630000D02*
X383540000Y-339725000D01*
X385445000Y-348380000D02*
X385445000Y-341630000D01*
X385445000Y-343535000D02*
X396875000Y-343535000D01*
D27*
X435610000Y-240030000D02*
X436245000Y-240665000D01*
X436245000Y-240665000D02*
X445770000Y-240665000D01*
X445770000Y-240665000D02*
X447040000Y-239395000D01*
X447040000Y-239395000D02*
X447040000Y-229870000D01*
D31*
X504540000Y-350520000D02*
X504825000Y-350805000D01*
X480377500Y-354012500D02*
X480060000Y-354330000D01*
X393065000Y-351155000D02*
X388620000Y-351155000D01*
X390525000Y-347980000D02*
X386080000Y-347980000D01*
X390525000Y-348615000D02*
X386080000Y-348615000D01*
X390525000Y-350520000D02*
X386080000Y-350520000D01*
X393065000Y-347345000D02*
X389890000Y-350520000D01*
D29*
X445770000Y-339090000D02*
X445770000Y-342265000D01*
X428625000Y-339090000D02*
X428625000Y-342265000D01*
D31*
X393065000Y-346710000D02*
X387350000Y-346710000D01*
X386080000Y-346710000D02*
X392430000Y-346710000D01*
X393065000Y-344170000D02*
X393065000Y-346710000D01*
X392430000Y-346710000D02*
X392430000Y-348615000D01*
X394335000Y-344170000D02*
X396240000Y-344170000D01*
X393700000Y-344805000D02*
X394335000Y-344170000D01*
X386080000Y-344805000D02*
X393700000Y-344805000D01*
X393065000Y-344805000D02*
X393065000Y-346710000D01*
X426085000Y-344170000D02*
X428625000Y-344170000D01*
X428625000Y-344170000D02*
X429260000Y-344170000D01*
X429260000Y-344170000D02*
X438150000Y-344170000D01*
X438150000Y-344170000D02*
X440690000Y-344170000D01*
X440690000Y-344170000D02*
X462915000Y-344170000D01*
X388620000Y-356235000D02*
X390525000Y-356235000D01*
X383540000Y-356235000D02*
X388620000Y-356235000D01*
X390525000Y-356235000D02*
X392430000Y-354330000D01*
X392430000Y-354330000D02*
X393700000Y-353060000D01*
X393065000Y-351790000D02*
X394335000Y-353060000D01*
X393065000Y-350520000D02*
X393065000Y-351790000D01*
X393065000Y-353060000D02*
X393065000Y-350520000D01*
X393065000Y-350520000D02*
X393065000Y-346710000D01*
X394970000Y-344170000D02*
X419100000Y-344170000D01*
X419100000Y-344170000D02*
X426085000Y-344170000D01*
X464820000Y-346075000D02*
X462915000Y-344170000D01*
X430530000Y-343535000D02*
X433070000Y-346075000D01*
X439420000Y-343535000D02*
X436245000Y-346710000D01*
X522605000Y-321310000D02*
X521970000Y-321945000D01*
X526415000Y-321310000D02*
X522605000Y-321310000D01*
X525145000Y-323215000D02*
X525145000Y-327025000D01*
X523875000Y-321945000D02*
X523875000Y-327660000D01*
X522605000Y-328930000D02*
X525780000Y-328930000D01*
X521970000Y-328295000D02*
X522605000Y-328930000D01*
X521970000Y-321945000D02*
X521970000Y-328295000D01*
X480060000Y-328295000D02*
X480060000Y-334010000D01*
X481330000Y-329565000D02*
X481330000Y-333375000D01*
X482600000Y-329565000D02*
X482600000Y-333375000D01*
X483870000Y-329565000D02*
X483870000Y-333375000D01*
X478790000Y-327660000D02*
X483870000Y-327660000D01*
X478155000Y-328295000D02*
X478790000Y-327660000D01*
X478790000Y-335280000D02*
X478155000Y-334645000D01*
X483870000Y-335280000D02*
X478790000Y-335280000D01*
X484505000Y-334645000D02*
X483870000Y-335280000D01*
X484505000Y-328295000D02*
X484505000Y-334645000D01*
X483870000Y-327660000D02*
X484505000Y-328295000D01*
X478155000Y-331470000D02*
X478155000Y-339725000D01*
X478155000Y-334645000D02*
X478155000Y-331470000D01*
X462915000Y-344170000D02*
X473710000Y-344170000D01*
X478155000Y-331470000D02*
X478155000Y-328295000D01*
X483870000Y-327660000D02*
X500380000Y-344170000D01*
X479425000Y-336550000D02*
X479425000Y-340360000D01*
X479425000Y-340360000D02*
X478790000Y-340995000D01*
X486410000Y-334645000D02*
X483870000Y-337185000D01*
X483870000Y-337185000D02*
X481330000Y-337185000D01*
X500380000Y-347980000D02*
X502920000Y-350520000D01*
X502920000Y-350520000D02*
X504540000Y-350520000D01*
X500380000Y-347345000D02*
X500380000Y-347980000D01*
X500380000Y-350520000D02*
X502920000Y-350520000D01*
X500380000Y-344170000D02*
X500380000Y-347345000D01*
X500380000Y-347345000D02*
X500380000Y-350520000D01*
X411480000Y-307340000D02*
X411480000Y-306705000D01*
X411480000Y-306705000D02*
X410845000Y-306070000D01*
X410845000Y-306070000D02*
X408305000Y-306070000D01*
X434340000Y-309245000D02*
X413385000Y-309245000D01*
X436880000Y-311785000D02*
X434340000Y-309245000D01*
X436880000Y-310515000D02*
X436880000Y-311785000D01*
X434975000Y-308610000D02*
X436880000Y-310515000D01*
X391795000Y-346710000D02*
X393700000Y-344805000D01*
D27*
X428625000Y-321310000D02*
X417830000Y-321310000D01*
X419735000Y-215265000D02*
X419735000Y-223520000D01*
X418465000Y-216535000D02*
X418465000Y-226060000D01*
X443865000Y-209550000D02*
X445135000Y-208280000D01*
X441325000Y-209550000D02*
X443865000Y-209550000D01*
X433705000Y-201930000D02*
X441325000Y-209550000D01*
X417830000Y-201930000D02*
X433705000Y-201930000D01*
X416560000Y-200660000D02*
X417830000Y-201930000D01*
X414655000Y-200660000D02*
X416560000Y-200660000D01*
X441325000Y-210820000D02*
X442595000Y-210820000D01*
X434975000Y-204470000D02*
X441325000Y-210820000D01*
X417830000Y-204470000D02*
X434975000Y-204470000D01*
X416560000Y-203200000D02*
X417830000Y-204470000D01*
X414655000Y-203200000D02*
X416560000Y-203200000D01*
X443865000Y-212090000D02*
X445135000Y-210820000D01*
X441325000Y-212090000D02*
X443865000Y-212090000D01*
X436245000Y-207010000D02*
X441325000Y-212090000D01*
X417830000Y-207010000D02*
X436245000Y-207010000D01*
X416560000Y-205740000D02*
X417830000Y-207010000D01*
X414655000Y-205740000D02*
X416560000Y-205740000D01*
X441325000Y-213360000D02*
X442595000Y-213360000D01*
X437515000Y-209550000D02*
X441325000Y-213360000D01*
X417830000Y-209550000D02*
X437515000Y-209550000D01*
X416560000Y-208280000D02*
X417830000Y-209550000D01*
X414655000Y-208280000D02*
X416560000Y-208280000D01*
X443865000Y-214630000D02*
X445135000Y-213360000D01*
X441325000Y-214630000D02*
X443865000Y-214630000D01*
X438785000Y-212090000D02*
X441325000Y-214630000D01*
X417830000Y-212090000D02*
X438785000Y-212090000D01*
X416560000Y-210820000D02*
X417830000Y-212090000D01*
X414655000Y-210820000D02*
X416560000Y-210820000D01*
X443865000Y-229870000D02*
X445135000Y-228600000D01*
X437515000Y-229870000D02*
X443865000Y-229870000D01*
X433705000Y-226060000D02*
X437515000Y-229870000D01*
X426085000Y-226060000D02*
X433705000Y-226060000D01*
X437515000Y-228600000D02*
X442595000Y-228600000D01*
X432435000Y-223520000D02*
X437515000Y-228600000D01*
X426085000Y-223520000D02*
X432435000Y-223520000D01*
D30*
X495300000Y-290830000D02*
X496570000Y-290830000D01*
X494030000Y-289560000D02*
X495300000Y-290830000D01*
X494030000Y-255310000D02*
X494030000Y-289560000D01*
X493990000Y-255270000D02*
X494030000Y-255310000D01*
X482600000Y-290830000D02*
X483870000Y-290830000D01*
X481965000Y-290195000D02*
X482600000Y-290830000D01*
X481965000Y-279400000D02*
X481965000Y-290195000D01*
X481330000Y-278765000D02*
X481965000Y-279400000D01*
X481330000Y-255310000D02*
X481330000Y-278765000D01*
X481290000Y-255270000D02*
X481330000Y-255310000D01*
D31*
X446405000Y-309245000D02*
X438150000Y-309245000D01*
X490855000Y-308610000D02*
X488315000Y-308610000D01*
X498094000Y-315849000D02*
X490855000Y-308610000D01*
X492125000Y-307975000D02*
X490220000Y-307975000D01*
X500380000Y-316230000D02*
X492125000Y-307975000D01*
X462915000Y-306705000D02*
X460375000Y-309245000D01*
X466725000Y-307975000D02*
X465455000Y-306705000D01*
X465455000Y-306705000D02*
X462915000Y-306705000D01*
X412750000Y-308610000D02*
X410210000Y-306070000D01*
X413385000Y-309245000D02*
X412750000Y-308610000D01*
D27*
X394335000Y-264160000D02*
X393700000Y-264160000D01*
X400685000Y-270510000D02*
X394335000Y-264160000D01*
X394970000Y-262255000D02*
X400685000Y-267970000D01*
X392430000Y-262255000D02*
X394970000Y-262255000D01*
D31*
X442595000Y-226060000D02*
X440055000Y-226060000D01*
D29*
X432435000Y-218440000D02*
X432435000Y-217170000D01*
D31*
X440055000Y-226060000D02*
X435610000Y-221615000D01*
D29*
X435610000Y-221615000D02*
X432435000Y-218440000D01*
X432435000Y-217170000D02*
X433705000Y-217170000D01*
X435610000Y-218440000D02*
X435610000Y-221615000D01*
X429260000Y-218440000D02*
X429260000Y-215900000D01*
X429260000Y-215900000D02*
X431165000Y-213995000D01*
X431165000Y-213995000D02*
X433705000Y-213995000D01*
X433705000Y-213995000D02*
X435610000Y-215900000D01*
X435610000Y-215900000D02*
X435610000Y-219075000D01*
X435610000Y-219075000D02*
X434340000Y-220345000D01*
X431165000Y-220345000D02*
X429260000Y-218440000D01*
X434975000Y-220345000D02*
X431165000Y-220345000D01*
D27*
X431800000Y-240030000D02*
X433070000Y-238760000D01*
X422275000Y-240030000D02*
X431800000Y-240030000D01*
X421005000Y-238760000D02*
X422275000Y-240030000D01*
X421005000Y-216535000D02*
X421005000Y-238760000D01*
X412750000Y-287020000D02*
X408305000Y-287020000D01*
X424180000Y-298450000D02*
X412750000Y-287020000D01*
X439420000Y-298450000D02*
X424180000Y-298450000D01*
X442595000Y-295275000D02*
X439420000Y-298450000D01*
X442595000Y-280035000D02*
X442595000Y-295275000D01*
X440690000Y-278130000D02*
X442595000Y-280035000D01*
D28*
X453390000Y-316230000D02*
X453390000Y-308610000D01*
D29*
X435610000Y-308610000D02*
X434975000Y-308610000D01*
D27*
X403225000Y-297180000D02*
X400685000Y-297180000D01*
X516890000Y-278130000D02*
X514985000Y-280035000D01*
X417195000Y-306070000D02*
X412750000Y-301625000D01*
X514985000Y-280035000D02*
X514985000Y-287655000D01*
X514985000Y-287655000D02*
X510540000Y-292100000D01*
X510540000Y-292100000D02*
X499745000Y-292100000D01*
X499745000Y-292100000D02*
X498475000Y-293370000D01*
X498475000Y-293370000D02*
X487680000Y-293370000D01*
X487680000Y-293370000D02*
X485775000Y-295275000D01*
X485775000Y-295275000D02*
X467360000Y-295275000D01*
X467360000Y-295275000D02*
X456565000Y-306070000D01*
X456565000Y-306070000D02*
X417195000Y-306070000D01*
X412750000Y-301625000D02*
X407670000Y-301625000D01*
X407670000Y-301625000D02*
X403225000Y-297180000D01*
X485140000Y-294005000D02*
X466725000Y-294005000D01*
X412750000Y-299720000D02*
X408305000Y-299720000D01*
X487045000Y-292100000D02*
X485140000Y-294005000D01*
X417830000Y-304800000D02*
X412750000Y-299720000D01*
X497840000Y-292100000D02*
X487045000Y-292100000D01*
X455930000Y-304800000D02*
X417830000Y-304800000D01*
X502285000Y-287655000D02*
X497840000Y-292100000D01*
X466725000Y-294005000D02*
X455930000Y-304800000D01*
X502285000Y-280035000D02*
X502285000Y-287655000D01*
X504190000Y-278130000D02*
X502285000Y-280035000D01*
X412750000Y-297180000D02*
X408305000Y-297180000D01*
X419100000Y-303530000D02*
X412750000Y-297180000D01*
X455295000Y-303530000D02*
X419100000Y-303530000D01*
X465455000Y-293370000D02*
X455295000Y-303530000D01*
X483870000Y-293370000D02*
X465455000Y-293370000D01*
X489585000Y-287655000D02*
X483870000Y-293370000D01*
X489585000Y-280035000D02*
X489585000Y-287655000D01*
X491490000Y-278130000D02*
X489585000Y-280035000D01*
X412750000Y-294640000D02*
X408305000Y-294640000D01*
X420370000Y-302260000D02*
X412750000Y-294640000D01*
X454660000Y-302260000D02*
X420370000Y-302260000D01*
X464820000Y-292100000D02*
X454660000Y-302260000D01*
X480060000Y-292100000D02*
X464820000Y-292100000D01*
X480695000Y-291465000D02*
X480060000Y-292100000D01*
X480695000Y-280035000D02*
X480695000Y-291465000D01*
X478790000Y-278130000D02*
X480695000Y-280035000D01*
X412750000Y-292100000D02*
X408305000Y-292100000D01*
X421640000Y-300990000D02*
X412750000Y-292100000D01*
X454025000Y-300990000D02*
X421640000Y-300990000D01*
X464185000Y-290830000D02*
X454025000Y-300990000D01*
X464185000Y-280035000D02*
X464185000Y-290830000D01*
X466090000Y-278130000D02*
X464185000Y-280035000D01*
X412750000Y-289560000D02*
X408305000Y-289560000D01*
X422910000Y-299720000D02*
X412750000Y-289560000D01*
X450850000Y-299720000D02*
X422910000Y-299720000D01*
X454660000Y-295910000D02*
X450850000Y-299720000D01*
X454660000Y-279400000D02*
X454660000Y-295910000D01*
X453390000Y-278130000D02*
X454660000Y-279400000D01*
D31*
X461645000Y-308610000D02*
X412750000Y-308610000D01*
X462280000Y-307975000D02*
X461645000Y-308610000D01*
X490855000Y-307975000D02*
X462280000Y-307975000D01*
X491490000Y-308610000D02*
X490855000Y-307975000D01*
X361950000Y-296545000D02*
X361950000Y-243205000D01*
X374015000Y-284480000D02*
X361950000Y-296545000D01*
X374015000Y-234950000D02*
X374015000Y-284480000D01*
X370840000Y-214630000D02*
X370840000Y-215265000D01*
X370840000Y-222250000D02*
X370840000Y-220980000D01*
D28*
X371157500Y-231457500D02*
X371157500Y-232092500D01*
D31*
X368935000Y-229870000D02*
X371157500Y-232092500D01*
D28*
X373062500Y-229552500D02*
X373062500Y-233997500D01*
D31*
X373062500Y-233997500D02*
X374015000Y-234950000D01*
X371157500Y-232092500D02*
X373062500Y-233997500D01*
D28*
X374015000Y-228600000D02*
X373062500Y-229552500D01*
X373062500Y-229552500D02*
X371157500Y-231457500D01*
X372785000Y-227370000D02*
X372785000Y-226060000D01*
X374015000Y-228600000D02*
X372785000Y-227370000D01*
X372785000Y-224195000D02*
X370840000Y-222250000D01*
X372785000Y-226060000D02*
X372785000Y-224195000D01*
X374015000Y-218440000D02*
X370840000Y-215265000D01*
X371475000Y-220980000D02*
X370840000Y-220980000D01*
X374015000Y-218440000D02*
X371475000Y-220980000D01*
X372745000Y-218440000D02*
X370840000Y-216535000D01*
X374015000Y-218440000D02*
X372745000Y-218440000D01*
D32*
X370840000Y-216535000D02*
X370840000Y-214630000D01*
X370840000Y-222250000D02*
X370840000Y-216535000D01*
D30*
X379730000Y-216535000D02*
X378460000Y-217805000D01*
X379730000Y-201930000D02*
X379730000Y-217170000D01*
X379730000Y-216535000D02*
X381000000Y-217805000D01*
D31*
X498094000Y-316230000D02*
X500380000Y-316230000D01*
X498094000Y-328574400D02*
X498094000Y-316230000D01*
X500380000Y-326136000D02*
X500380000Y-316458600D01*
X498348000Y-328168000D02*
X500380000Y-326136000D01*
X508965200Y-327964800D02*
X510489200Y-327964800D01*
X508965200Y-327964800D02*
X508965200Y-328345800D01*
D27*
X405765000Y-247650000D02*
X394970000Y-247650000D01*
X414655000Y-238760000D02*
X405765000Y-247650000D01*
D28*
X423545000Y-213360000D02*
X426085000Y-215900000D01*
X419100000Y-213360000D02*
X422910000Y-213360000D01*
X422910000Y-213360000D02*
X423545000Y-213360000D01*
X426085000Y-215900000D02*
X426085000Y-216535000D01*
X428625000Y-216535000D02*
X427355000Y-217805000D01*
X428625000Y-215900000D02*
X428625000Y-216535000D01*
X427355000Y-217805000D02*
X428625000Y-219075000D01*
X426085000Y-216535000D02*
X427355000Y-217805000D01*
X426085000Y-215900000D02*
X428625000Y-215900000D01*
X428625000Y-215900000D02*
X429260000Y-215900000D01*
X429260000Y-220980000D02*
X434975000Y-220980000D01*
X422910000Y-214630000D02*
X429260000Y-220980000D01*
X422910000Y-213360000D02*
X422910000Y-214630000D01*
X428625000Y-221615000D02*
X435610000Y-221615000D01*
X420370000Y-213360000D02*
X428625000Y-221615000D01*
X419100000Y-213360000D02*
X420370000Y-213360000D01*
D31*
X433705000Y-350520000D02*
X430530000Y-353695000D01*
X436880000Y-351155000D02*
X439420000Y-353695000D01*
X421005000Y-354330000D02*
X453390000Y-354330000D01*
X465455000Y-350520000D02*
X461645000Y-354330000D01*
X392430000Y-354330000D02*
X419100000Y-354330000D01*
X419100000Y-354330000D02*
X421005000Y-354330000D01*
X432435000Y-344170000D02*
X432435000Y-354330000D01*
X437515000Y-344170000D02*
X437515000Y-354330000D01*
X438150000Y-356235000D02*
X388620000Y-356235000D01*
X396240000Y-217170000D02*
X396240000Y-190500000D01*
X394970000Y-218440000D02*
X396240000Y-217170000D01*
D28*
X470495000Y-311825000D02*
X473075000Y-309245000D01*
X470495000Y-313055000D02*
X470495000Y-311825000D01*
X465455000Y-331470000D02*
X462915000Y-331470000D01*
X462915000Y-342265000D02*
X462280000Y-342900000D01*
D31*
X477520000Y-342900000D02*
X462280000Y-342900000D01*
D28*
X465455000Y-331470000D02*
X462915000Y-334010000D01*
X462915000Y-334010000D02*
X462915000Y-342265000D01*
X462915000Y-331470000D02*
X462915000Y-334010000D01*
X466725000Y-330200000D02*
X465455000Y-331470000D01*
X467995000Y-313055000D02*
X466725000Y-314325000D01*
D27*
X470535000Y-318770000D02*
X466725000Y-318770000D01*
D28*
X466725000Y-314325000D02*
X466725000Y-318770000D01*
D27*
X470535000Y-323850000D02*
X466725000Y-323850000D01*
X470535000Y-328930000D02*
X466725000Y-328930000D01*
D28*
X466725000Y-328930000D02*
X466725000Y-330200000D01*
X466725000Y-321310000D02*
X466725000Y-323850000D01*
X466725000Y-318770000D02*
X466725000Y-321310000D01*
D27*
X462915000Y-326390000D02*
X466725000Y-326390000D01*
D28*
X466725000Y-326390000D02*
X466725000Y-328930000D01*
X466725000Y-323850000D02*
X466725000Y-326390000D01*
D31*
X405765000Y-344170000D02*
X405765000Y-351155000D01*
X405130000Y-351155000D02*
X407035000Y-353060000D01*
X404495000Y-346710000D02*
X408305000Y-342900000D01*
D32*
X395605000Y-351790000D02*
X395605000Y-344805000D01*
X398780000Y-351790000D02*
X398780000Y-344805000D01*
X401955000Y-351790000D02*
X401955000Y-344805000D01*
D27*
X417830000Y-331470000D02*
X412750000Y-326390000D01*
X428625000Y-331470000D02*
X417830000Y-331470000D01*
X417830000Y-328930000D02*
X414020000Y-325120000D01*
X428625000Y-328930000D02*
X417830000Y-328930000D01*
X417830000Y-326390000D02*
X415290000Y-323850000D01*
X428625000Y-326390000D02*
X417830000Y-326390000D01*
X417830000Y-323850000D02*
X416560000Y-322580000D01*
X428625000Y-323850000D02*
X417830000Y-323850000D01*
X445770000Y-314960000D02*
X445770000Y-316230000D01*
X447675000Y-313055000D02*
X445770000Y-314960000D01*
X450850000Y-313055000D02*
X447675000Y-313055000D01*
X414655000Y-314960000D02*
X431165000Y-314960000D01*
X408305000Y-321310000D02*
X414655000Y-314960000D01*
D31*
X478155000Y-339725000D02*
X473710000Y-344170000D01*
D32*
X466090000Y-346710000D02*
X498475000Y-346710000D01*
X466725000Y-344170000D02*
X499110000Y-344170000D01*
X480060000Y-341630000D02*
X495300000Y-341630000D01*
X486410000Y-332740000D02*
X492760000Y-339090000D01*
X485140000Y-334645000D02*
X491490000Y-340995000D01*
X481330000Y-338455000D02*
X486410000Y-338455000D01*
X487362500Y-354012500D02*
X487680000Y-354330000D01*
X480377500Y-354012500D02*
X487362500Y-354012500D01*
X487680000Y-354330000D02*
X496570000Y-354330000D01*
D29*
X405130000Y-243840000D02*
X407035000Y-241935000D01*
X400685000Y-243840000D02*
X405130000Y-243840000D01*
X399415000Y-242570000D02*
X400685000Y-243840000D01*
X399415000Y-224155000D02*
X399415000Y-242570000D01*
X396240000Y-220980000D02*
X399415000Y-224155000D01*
D31*
X382905000Y-218440000D02*
X387350000Y-218440000D01*
X393700000Y-218440000D02*
X373380000Y-218440000D01*
D27*
X434975000Y-238760000D02*
X442595000Y-238760000D01*
X432435000Y-241300000D02*
X434975000Y-238760000D01*
X419100000Y-241300000D02*
X432435000Y-241300000D01*
X414020000Y-246380000D02*
X419100000Y-241300000D01*
X409575000Y-246380000D02*
X408940000Y-245745000D01*
X414020000Y-246380000D02*
X409575000Y-246380000D01*
X407035000Y-215265000D02*
X407035000Y-218440000D01*
X405765000Y-213995000D02*
X407035000Y-215265000D01*
X405765000Y-191770000D02*
X405765000Y-213995000D01*
X407035000Y-190500000D02*
X405765000Y-191770000D01*
X404495000Y-213360000D02*
X404495000Y-241300000D01*
X404495000Y-207010000D02*
X404495000Y-213360000D01*
X459105000Y-316230000D02*
X462915000Y-316230000D01*
X457835000Y-317500000D02*
X459105000Y-316230000D01*
X435610000Y-317500000D02*
X457835000Y-317500000D01*
X431800000Y-313690000D02*
X435610000Y-317500000D01*
X413385000Y-313690000D02*
X431800000Y-313690000D01*
X408305000Y-318770000D02*
X413385000Y-313690000D01*
X457200000Y-335280000D02*
X453390000Y-339090000D01*
X457200000Y-329565000D02*
X457200000Y-335280000D01*
X462915000Y-323850000D02*
X457200000Y-329565000D01*
X418465000Y-334010000D02*
X410845000Y-326390000D01*
X428625000Y-334010000D02*
X418465000Y-334010000D01*
X428625000Y-336550000D02*
X418465000Y-336550000D01*
X418465000Y-336550000D02*
X408305000Y-326390000D01*
D31*
X403860000Y-344805000D02*
X403860000Y-351790000D01*
X433705000Y-343535000D02*
X433705000Y-353695000D01*
X435610000Y-343535000D02*
X435610000Y-353695000D01*
X401955000Y-342900000D02*
X399415000Y-342900000D01*
X403225000Y-342900000D02*
X401955000Y-342900000D01*
D30*
X444500000Y-290830000D02*
X445770000Y-290830000D01*
X443865000Y-290195000D02*
X444500000Y-290830000D01*
X443865000Y-279400000D02*
X443865000Y-290195000D01*
X443230000Y-278765000D02*
X443865000Y-279400000D01*
X443230000Y-255310000D02*
X443230000Y-278765000D01*
X443190000Y-255270000D02*
X443230000Y-255310000D01*
X448945000Y-245785000D02*
X448985000Y-245745000D01*
X448945000Y-249515000D02*
X448945000Y-245785000D01*
X443190000Y-255270000D02*
X448945000Y-249515000D01*
X506690000Y-252690000D02*
X506690000Y-255270000D01*
X502325000Y-248325000D02*
X506690000Y-252690000D01*
X502325000Y-245745000D02*
X502325000Y-248325000D01*
X374015000Y-228600000D02*
X370840000Y-228600000D01*
D28*
X381000000Y-228600000D02*
X374015000Y-228600000D01*
X382687200Y-226912800D02*
X381000000Y-228600000D01*
X382687200Y-226060000D02*
X382687200Y-226912800D01*
D32*
X367347500Y-187007500D02*
X392747500Y-187007500D01*
X369570000Y-186690000D02*
X370205000Y-186690000D01*
X361950000Y-194310000D02*
X369570000Y-186690000D01*
D31*
X516255000Y-188595000D02*
X520700000Y-184150000D01*
X433070000Y-188595000D02*
X516255000Y-188595000D01*
X429895000Y-185420000D02*
X433070000Y-188595000D01*
X401320000Y-185420000D02*
X429895000Y-185420000D01*
X400050000Y-184150000D02*
X401320000Y-185420000D01*
D28*
X417155000Y-187960000D02*
X417155000Y-186650000D01*
X417155000Y-186650000D02*
X415925000Y-185420000D01*
X417155000Y-187960000D02*
X419695000Y-185420000D01*
D29*
X433387500Y-190500000D02*
X445135000Y-190500000D01*
X428307500Y-185420000D02*
X433387500Y-190500000D01*
X403860000Y-185420000D02*
X428307500Y-185420000D01*
X397510000Y-191770000D02*
X403860000Y-185420000D01*
X397510000Y-215900000D02*
X397510000Y-191770000D01*
D28*
X400685000Y-337820000D02*
X396875000Y-341630000D01*
D31*
X385445000Y-341630000D02*
X396875000Y-341630000D01*
D28*
X400685000Y-337820000D02*
X405765000Y-342900000D01*
D31*
X405765000Y-342900000D02*
X403225000Y-342900000D01*
X462280000Y-342900000D02*
X405765000Y-342900000D01*
D28*
X400685000Y-337820000D02*
X400685000Y-339725000D01*
X400685000Y-339725000D02*
X398145000Y-342265000D01*
X401955000Y-340360000D02*
X400685000Y-341630000D01*
X402590000Y-340995000D02*
X402590000Y-341630000D01*
D31*
X400685000Y-323850000D02*
X400685000Y-339725000D01*
D32*
X367357500Y-349557500D02*
X360680000Y-342880000D01*
X360680000Y-342880000D02*
X360680000Y-294640000D01*
X360680000Y-294640000D02*
X370840000Y-284480000D01*
X370840000Y-284480000D02*
X370840000Y-228600000D01*
X371475000Y-238125000D02*
X371475000Y-282575000D01*
D28*
X369570000Y-310515000D02*
X370840000Y-309245000D01*
X370840000Y-309245000D02*
X370840000Y-295275000D01*
X368300000Y-310515000D02*
X369570000Y-310515000D01*
X370840000Y-311785000D02*
X370840000Y-309245000D01*
X370840000Y-313055000D02*
X370840000Y-311785000D01*
X369570000Y-310515000D02*
X370840000Y-311785000D01*
D29*
X399415000Y-217805000D02*
X401320000Y-215900000D01*
X401320000Y-215900000D02*
X398780000Y-215900000D01*
X399415000Y-224155000D02*
X399415000Y-217805000D01*
X402590000Y-215900000D02*
X401320000Y-215900000D01*
X398145000Y-218440000D02*
X397192500Y-217487500D01*
X398145000Y-220980000D02*
X398145000Y-218440000D01*
X397192500Y-217487500D02*
X396240000Y-218440000D01*
X398780000Y-215900000D02*
X397192500Y-217487500D01*
D32*
X478155000Y-351790000D02*
X506095000Y-351790000D01*
D29*
X473710000Y-351790000D02*
X478155000Y-351790000D01*
D31*
X472440000Y-350520000D02*
X474980000Y-353060000D01*
X478155000Y-354330000D02*
X478790000Y-353695000D01*
D27*
X456565000Y-325120000D02*
X459105000Y-322580000D01*
X452120000Y-325120000D02*
X456565000Y-325120000D01*
X449580000Y-327660000D02*
X452120000Y-325120000D01*
X449580000Y-335280000D02*
X449580000Y-327660000D01*
X447040000Y-337820000D02*
X449580000Y-335280000D01*
X459105000Y-322580000D02*
X462915000Y-318770000D01*
X441325000Y-337820000D02*
X447040000Y-337820000D01*
X440055000Y-339090000D02*
X441325000Y-337820000D01*
X436245000Y-339090000D02*
X440055000Y-339090000D01*
D31*
X508635000Y-353060000D02*
X511810000Y-356235000D01*
X526415000Y-300355000D02*
X528320000Y-298450000D01*
X526415000Y-348615000D02*
X526415000Y-300355000D01*
X518795000Y-356235000D02*
X526415000Y-348615000D01*
X511810000Y-356235000D02*
X518795000Y-356235000D01*
X519430000Y-356235000D02*
X527367500Y-348297500D01*
X516890000Y-356235000D02*
X519430000Y-356235000D01*
X526415000Y-354330000D02*
X527050000Y-353695000D01*
X522605000Y-354330000D02*
X526415000Y-354330000D01*
X521335000Y-355600000D02*
X522605000Y-354330000D01*
X509905000Y-354965000D02*
X520065000Y-354965000D01*
X508635000Y-353060000D02*
X511175000Y-355600000D01*
X514299200Y-326974200D02*
X514299200Y-306374800D01*
X514299200Y-329234800D02*
X514299200Y-326974200D01*
D28*
X472440000Y-313055000D02*
X470535000Y-314960000D01*
X474345000Y-313055000D02*
X472440000Y-313055000D01*
X470535000Y-314960000D02*
X470535000Y-316230000D01*
X470535000Y-310515000D02*
X470535000Y-314960000D01*
X470495000Y-313055000D02*
X472400000Y-311150000D01*
D31*
X472400000Y-311150000D02*
X474345000Y-311150000D01*
D28*
X474345000Y-313055000D02*
X478155000Y-309245000D01*
D31*
X490855000Y-309245000D02*
X478155000Y-309245000D01*
D28*
X474980000Y-311150000D02*
X476885000Y-309245000D01*
X474345000Y-311150000D02*
X474980000Y-311150000D01*
D31*
X476885000Y-309245000D02*
X445770000Y-309245000D01*
X478155000Y-309245000D02*
X476885000Y-309245000D01*
D27*
X418465000Y-269240000D02*
X410210000Y-277495000D01*
X421640000Y-269240000D02*
X418465000Y-269240000D01*
X426085000Y-264795000D02*
X421640000Y-269240000D01*
X426085000Y-253365000D02*
X426085000Y-264795000D01*
X434340000Y-245110000D02*
X426085000Y-253365000D01*
X417195000Y-267970000D02*
X408305000Y-267970000D01*
X421640000Y-266700000D02*
X418465000Y-266700000D01*
X424815000Y-263525000D02*
X421640000Y-266700000D01*
X424815000Y-252730000D02*
X424815000Y-263525000D01*
X418465000Y-266700000D02*
X417195000Y-267970000D01*
X432435000Y-245110000D02*
X424815000Y-252730000D01*
X409575000Y-264160000D02*
X408305000Y-265430000D01*
X421640000Y-264160000D02*
X409575000Y-264160000D01*
X423545000Y-252095000D02*
X423545000Y-262255000D01*
X423545000Y-262255000D02*
X421640000Y-264160000D01*
X430530000Y-245110000D02*
X423545000Y-252095000D01*
X409575000Y-261620000D02*
X408305000Y-262890000D01*
X421640000Y-261620000D02*
X409575000Y-261620000D01*
X422275000Y-260985000D02*
X421640000Y-261620000D01*
X422275000Y-251460000D02*
X422275000Y-260985000D01*
X428625000Y-245110000D02*
X422275000Y-251460000D01*
X417195000Y-260350000D02*
X408305000Y-260350000D01*
X418465000Y-259080000D02*
X417195000Y-260350000D01*
X418465000Y-253365000D02*
X418465000Y-259080000D01*
X426720000Y-245110000D02*
X418465000Y-253365000D01*
D31*
X476885000Y-354965000D02*
X476885000Y-352425000D01*
X478155000Y-356235000D02*
X499395000Y-356235000D01*
X460375000Y-356235000D02*
X424180000Y-356235000D01*
X466725000Y-349885000D02*
X460375000Y-356235000D01*
X464185000Y-351155000D02*
X464185000Y-346075000D01*
X464820000Y-351790000D02*
X464185000Y-351155000D01*
X463550000Y-353060000D02*
X464820000Y-351790000D01*
X387350000Y-353060000D02*
X463550000Y-353060000D01*
X446405000Y-354330000D02*
X459740000Y-354330000D01*
D28*
X470535000Y-353060000D02*
X470535000Y-351790000D01*
X467995000Y-349250000D02*
X467360000Y-349250000D01*
X470535000Y-351790000D02*
X467995000Y-349250000D01*
D32*
X466090000Y-349250000D02*
X467360000Y-349250000D01*
D28*
X474980000Y-353060000D02*
X475297500Y-353377500D01*
X470535000Y-353060000D02*
X474980000Y-353060000D01*
D31*
X475297500Y-353377500D02*
X478155000Y-356235000D01*
X474345000Y-352425000D02*
X475297500Y-353377500D01*
D28*
X470535000Y-353060000D02*
X471805000Y-351790000D01*
X471805000Y-351790000D02*
X469265000Y-349250000D01*
D32*
X469265000Y-349250000D02*
X498475000Y-349250000D01*
X467360000Y-349250000D02*
X469265000Y-349250000D01*
D27*
X393700000Y-232410000D02*
X387350000Y-226060000D01*
X393700000Y-248920000D02*
X393700000Y-232410000D01*
X392430000Y-233680000D02*
X387350000Y-228600000D01*
X392430000Y-250190000D02*
X392430000Y-233680000D01*
X391160000Y-234950000D02*
X387350000Y-231140000D01*
X391160000Y-251460000D02*
X391160000Y-234950000D01*
X389890000Y-236220000D02*
X387350000Y-233680000D01*
X389890000Y-252730000D02*
X389890000Y-236220000D01*
X415925000Y-254000000D02*
X424815000Y-245110000D01*
X403225000Y-254000000D02*
X415925000Y-254000000D01*
X406400000Y-252730000D02*
X389890000Y-252730000D01*
X415290000Y-252730000D02*
X406400000Y-252730000D01*
X422910000Y-245110000D02*
X415290000Y-252730000D01*
X406400000Y-251460000D02*
X391160000Y-251460000D01*
X414655000Y-251460000D02*
X406400000Y-251460000D01*
X421005000Y-245110000D02*
X414655000Y-251460000D01*
X406400000Y-250190000D02*
X392430000Y-250190000D01*
X414020000Y-250190000D02*
X406400000Y-250190000D01*
X419100000Y-245110000D02*
X414020000Y-250190000D01*
X406400000Y-248920000D02*
X393700000Y-248920000D01*
X413385000Y-248920000D02*
X406400000Y-248920000D01*
X417195000Y-245110000D02*
X413385000Y-248920000D01*
%TD*%
M02*
