%TF.GenerationSoftware,KiCad,Pcbnew,(5.1.10)-1*%
%TF.CreationDate,2021-10-04T17:48:38-06:00*%
%TF.ProjectId,retroboard,72657472-6f62-46f6-9172-642e6b696361,rev?*%
%TF.SameCoordinates,Original*%
%TF.FileFunction,Legend,Top*%
%TF.FilePolarity,Positive*%
%FSLAX46Y46*%
G04 Gerber Fmt 4.6, Leading zero omitted, Abs format (unit mm)*
G04 Created by KiCad (PCBNEW (5.1.10)-1) date 2021-10-04 17:48:38*
%MOMM*%
%LPD*%
G01*
G04 APERTURE LIST*
%ADD10C,0.120000*%
%ADD11C,0.150000*%
%ADD12C,0.200000*%
%ADD13C,0.100000*%
G04 APERTURE END LIST*
D10*
X380365000Y-234950000D02*
X381000000Y-234950000D01*
X380365000Y-234315000D02*
X380365000Y-234950000D01*
X379730000Y-234315000D02*
X380365000Y-234315000D01*
X379730000Y-234950000D02*
X379730000Y-234315000D01*
X379095000Y-234950000D02*
X379730000Y-234950000D01*
X379095000Y-234315000D02*
X379095000Y-234950000D01*
X378460000Y-234315000D02*
X379095000Y-234315000D01*
X378460000Y-234950000D02*
X378460000Y-234315000D01*
X377825000Y-234950000D02*
X378460000Y-234950000D01*
X377825000Y-234315000D02*
X377825000Y-234950000D01*
X377190000Y-234315000D02*
X377825000Y-234315000D01*
X377190000Y-234950000D02*
X377190000Y-234315000D01*
X376555000Y-234950000D02*
X377190000Y-234950000D01*
X376555000Y-234315000D02*
X376555000Y-234950000D01*
X375920000Y-234315000D02*
X376555000Y-234315000D01*
X375920000Y-234950000D02*
X375920000Y-234315000D01*
X375285000Y-234950000D02*
X375920000Y-234950000D01*
X375285000Y-234315000D02*
X375285000Y-234950000D01*
X374650000Y-234315000D02*
X375285000Y-234315000D01*
X374650000Y-234950000D02*
X374650000Y-234315000D01*
X374015000Y-234950000D02*
X374650000Y-234950000D01*
D11*
X513659761Y-355671428D02*
X514421666Y-355671428D01*
X514040714Y-356052380D02*
X514040714Y-355290476D01*
X514897857Y-356052380D02*
X514897857Y-355385714D01*
X514897857Y-355052380D02*
X514850238Y-355100000D01*
X514897857Y-355147619D01*
X514945476Y-355100000D01*
X514897857Y-355052380D01*
X514897857Y-355147619D01*
X515374047Y-355385714D02*
X515374047Y-356052380D01*
X515374047Y-355480952D02*
X515421666Y-355433333D01*
X515516904Y-355385714D01*
X515659761Y-355385714D01*
X515755000Y-355433333D01*
X515802619Y-355528571D01*
X515802619Y-356052380D01*
X516231190Y-356004761D02*
X516326428Y-356052380D01*
X516516904Y-356052380D01*
X516612142Y-356004761D01*
X516659761Y-355909523D01*
X516659761Y-355861904D01*
X516612142Y-355766666D01*
X516516904Y-355719047D01*
X516374047Y-355719047D01*
X516278809Y-355671428D01*
X516231190Y-355576190D01*
X516231190Y-355528571D01*
X516278809Y-355433333D01*
X516374047Y-355385714D01*
X516516904Y-355385714D01*
X516612142Y-355433333D01*
X517088333Y-356052380D02*
X517088333Y-355385714D01*
X517088333Y-355052380D02*
X517040714Y-355100000D01*
X517088333Y-355147619D01*
X517135952Y-355100000D01*
X517088333Y-355052380D01*
X517088333Y-355147619D01*
X517993095Y-356052380D02*
X517993095Y-355052380D01*
X517993095Y-356004761D02*
X517897857Y-356052380D01*
X517707380Y-356052380D01*
X517612142Y-356004761D01*
X517564523Y-355957142D01*
X517516904Y-355861904D01*
X517516904Y-355576190D01*
X517564523Y-355480952D01*
X517612142Y-355433333D01*
X517707380Y-355385714D01*
X517897857Y-355385714D01*
X517993095Y-355433333D01*
X518850238Y-356004761D02*
X518755000Y-356052380D01*
X518564523Y-356052380D01*
X518469285Y-356004761D01*
X518421666Y-355909523D01*
X518421666Y-355528571D01*
X518469285Y-355433333D01*
X518564523Y-355385714D01*
X518755000Y-355385714D01*
X518850238Y-355433333D01*
X518897857Y-355528571D01*
X518897857Y-355623809D01*
X518421666Y-355719047D01*
D12*
X401747619Y-355530476D02*
X401747619Y-354280476D01*
X402223809Y-354280476D01*
X402342857Y-354340000D01*
X402402380Y-354399523D01*
X402461904Y-354518571D01*
X402461904Y-354697142D01*
X402402380Y-354816190D01*
X402342857Y-354875714D01*
X402223809Y-354935238D01*
X401747619Y-354935238D01*
X403235714Y-354280476D02*
X403473809Y-354280476D01*
X403592857Y-354340000D01*
X403711904Y-354459047D01*
X403771428Y-354697142D01*
X403771428Y-355113809D01*
X403711904Y-355351904D01*
X403592857Y-355470952D01*
X403473809Y-355530476D01*
X403235714Y-355530476D01*
X403116666Y-355470952D01*
X402997619Y-355351904D01*
X402938095Y-355113809D01*
X402938095Y-354697142D01*
X402997619Y-354459047D01*
X403116666Y-354340000D01*
X403235714Y-354280476D01*
X405021428Y-355530476D02*
X404604761Y-354935238D01*
X404307142Y-355530476D02*
X404307142Y-354280476D01*
X404783333Y-354280476D01*
X404902380Y-354340000D01*
X404961904Y-354399523D01*
X405021428Y-354518571D01*
X405021428Y-354697142D01*
X404961904Y-354816190D01*
X404902380Y-354875714D01*
X404783333Y-354935238D01*
X404307142Y-354935238D01*
X405378571Y-354280476D02*
X406092857Y-354280476D01*
X405735714Y-355530476D02*
X405735714Y-354280476D01*
X407402380Y-355173333D02*
X407997619Y-355173333D01*
X407283333Y-355530476D02*
X407700000Y-354280476D01*
X408116666Y-355530476D01*
X433497619Y-355530476D02*
X433497619Y-354280476D01*
X433973809Y-354280476D01*
X434092857Y-354340000D01*
X434152380Y-354399523D01*
X434211904Y-354518571D01*
X434211904Y-354697142D01*
X434152380Y-354816190D01*
X434092857Y-354875714D01*
X433973809Y-354935238D01*
X433497619Y-354935238D01*
X434985714Y-354280476D02*
X435223809Y-354280476D01*
X435342857Y-354340000D01*
X435461904Y-354459047D01*
X435521428Y-354697142D01*
X435521428Y-355113809D01*
X435461904Y-355351904D01*
X435342857Y-355470952D01*
X435223809Y-355530476D01*
X434985714Y-355530476D01*
X434866666Y-355470952D01*
X434747619Y-355351904D01*
X434688095Y-355113809D01*
X434688095Y-354697142D01*
X434747619Y-354459047D01*
X434866666Y-354340000D01*
X434985714Y-354280476D01*
X436771428Y-355530476D02*
X436354761Y-354935238D01*
X436057142Y-355530476D02*
X436057142Y-354280476D01*
X436533333Y-354280476D01*
X436652380Y-354340000D01*
X436711904Y-354399523D01*
X436771428Y-354518571D01*
X436771428Y-354697142D01*
X436711904Y-354816190D01*
X436652380Y-354875714D01*
X436533333Y-354935238D01*
X436057142Y-354935238D01*
X437128571Y-354280476D02*
X437842857Y-354280476D01*
X437485714Y-355530476D02*
X437485714Y-354280476D01*
X439628571Y-354875714D02*
X439807142Y-354935238D01*
X439866666Y-354994761D01*
X439926190Y-355113809D01*
X439926190Y-355292380D01*
X439866666Y-355411428D01*
X439807142Y-355470952D01*
X439688095Y-355530476D01*
X439211904Y-355530476D01*
X439211904Y-354280476D01*
X439628571Y-354280476D01*
X439747619Y-354340000D01*
X439807142Y-354399523D01*
X439866666Y-354518571D01*
X439866666Y-354637619D01*
X439807142Y-354756666D01*
X439747619Y-354816190D01*
X439628571Y-354875714D01*
X439211904Y-354875714D01*
D11*
X372836428Y-197189285D02*
X372836428Y-196439285D01*
X373086428Y-196975000D01*
X373336428Y-196439285D01*
X373336428Y-197189285D01*
X373693571Y-197189285D02*
X373693571Y-196439285D01*
X374015000Y-197153571D02*
X374122142Y-197189285D01*
X374300714Y-197189285D01*
X374372142Y-197153571D01*
X374407857Y-197117857D01*
X374443571Y-197046428D01*
X374443571Y-196975000D01*
X374407857Y-196903571D01*
X374372142Y-196867857D01*
X374300714Y-196832142D01*
X374157857Y-196796428D01*
X374086428Y-196760714D01*
X374050714Y-196725000D01*
X374015000Y-196653571D01*
X374015000Y-196582142D01*
X374050714Y-196510714D01*
X374086428Y-196475000D01*
X374157857Y-196439285D01*
X374336428Y-196439285D01*
X374443571Y-196475000D01*
X374907857Y-196439285D02*
X375050714Y-196439285D01*
X375122142Y-196475000D01*
X375193571Y-196546428D01*
X375229285Y-196689285D01*
X375229285Y-196939285D01*
X375193571Y-197082142D01*
X375122142Y-197153571D01*
X375050714Y-197189285D01*
X374907857Y-197189285D01*
X374836428Y-197153571D01*
X374765000Y-197082142D01*
X374729285Y-196939285D01*
X374729285Y-196689285D01*
X374765000Y-196546428D01*
X374836428Y-196475000D01*
X374907857Y-196439285D01*
X373568571Y-199657857D02*
X373532857Y-199693571D01*
X373425714Y-199729285D01*
X373354285Y-199729285D01*
X373247142Y-199693571D01*
X373175714Y-199622142D01*
X373140000Y-199550714D01*
X373104285Y-199407857D01*
X373104285Y-199300714D01*
X373140000Y-199157857D01*
X373175714Y-199086428D01*
X373247142Y-199015000D01*
X373354285Y-198979285D01*
X373425714Y-198979285D01*
X373532857Y-199015000D01*
X373568571Y-199050714D01*
X374247142Y-199729285D02*
X373890000Y-199729285D01*
X373890000Y-198979285D01*
X374497142Y-199729285D02*
X374497142Y-198979285D01*
X374925714Y-199729285D02*
X374604285Y-199300714D01*
X374925714Y-198979285D02*
X374497142Y-199407857D01*
X372925714Y-202269285D02*
X372675714Y-201912142D01*
X372497142Y-202269285D02*
X372497142Y-201519285D01*
X372782857Y-201519285D01*
X372854285Y-201555000D01*
X372890000Y-201590714D01*
X372925714Y-201662142D01*
X372925714Y-201769285D01*
X372890000Y-201840714D01*
X372854285Y-201876428D01*
X372782857Y-201912142D01*
X372497142Y-201912142D01*
X373247142Y-201876428D02*
X373497142Y-201876428D01*
X373604285Y-202269285D02*
X373247142Y-202269285D01*
X373247142Y-201519285D01*
X373604285Y-201519285D01*
X373890000Y-202233571D02*
X373997142Y-202269285D01*
X374175714Y-202269285D01*
X374247142Y-202233571D01*
X374282857Y-202197857D01*
X374318571Y-202126428D01*
X374318571Y-202055000D01*
X374282857Y-201983571D01*
X374247142Y-201947857D01*
X374175714Y-201912142D01*
X374032857Y-201876428D01*
X373961428Y-201840714D01*
X373925714Y-201805000D01*
X373890000Y-201733571D01*
X373890000Y-201662142D01*
X373925714Y-201590714D01*
X373961428Y-201555000D01*
X374032857Y-201519285D01*
X374211428Y-201519285D01*
X374318571Y-201555000D01*
X374640000Y-201876428D02*
X374890000Y-201876428D01*
X374997142Y-202269285D02*
X374640000Y-202269285D01*
X374640000Y-201519285D01*
X374997142Y-201519285D01*
X375211428Y-201519285D02*
X375640000Y-201519285D01*
X375425714Y-202269285D02*
X375425714Y-201519285D01*
X381726428Y-199729285D02*
X381726428Y-198979285D01*
X381976428Y-199515000D01*
X382226428Y-198979285D01*
X382226428Y-199729285D01*
X382726428Y-198979285D02*
X382869285Y-198979285D01*
X382940714Y-199015000D01*
X383012142Y-199086428D01*
X383047857Y-199229285D01*
X383047857Y-199479285D01*
X383012142Y-199622142D01*
X382940714Y-199693571D01*
X382869285Y-199729285D01*
X382726428Y-199729285D01*
X382655000Y-199693571D01*
X382583571Y-199622142D01*
X382547857Y-199479285D01*
X382547857Y-199229285D01*
X382583571Y-199086428D01*
X382655000Y-199015000D01*
X382726428Y-198979285D01*
X383333571Y-199693571D02*
X383440714Y-199729285D01*
X383619285Y-199729285D01*
X383690714Y-199693571D01*
X383726428Y-199657857D01*
X383762142Y-199586428D01*
X383762142Y-199515000D01*
X383726428Y-199443571D01*
X383690714Y-199407857D01*
X383619285Y-199372142D01*
X383476428Y-199336428D01*
X383405000Y-199300714D01*
X383369285Y-199265000D01*
X383333571Y-199193571D01*
X383333571Y-199122142D01*
X383369285Y-199050714D01*
X383405000Y-199015000D01*
X383476428Y-198979285D01*
X383655000Y-198979285D01*
X383762142Y-199015000D01*
X384083571Y-199729285D02*
X384083571Y-198979285D01*
X382333571Y-201555000D02*
X382262142Y-201519285D01*
X382155000Y-201519285D01*
X382047857Y-201555000D01*
X381976428Y-201626428D01*
X381940714Y-201697857D01*
X381905000Y-201840714D01*
X381905000Y-201947857D01*
X381940714Y-202090714D01*
X381976428Y-202162142D01*
X382047857Y-202233571D01*
X382155000Y-202269285D01*
X382226428Y-202269285D01*
X382333571Y-202233571D01*
X382369285Y-202197857D01*
X382369285Y-201947857D01*
X382226428Y-201947857D01*
X382690714Y-202269285D02*
X382690714Y-201519285D01*
X383119285Y-202269285D01*
X383119285Y-201519285D01*
X383476428Y-202269285D02*
X383476428Y-201519285D01*
X383655000Y-201519285D01*
X383762142Y-201555000D01*
X383833571Y-201626428D01*
X383869285Y-201697857D01*
X383905000Y-201840714D01*
X383905000Y-201947857D01*
X383869285Y-202090714D01*
X383833571Y-202162142D01*
X383762142Y-202233571D01*
X383655000Y-202269285D01*
X383476428Y-202269285D01*
X485648000Y-331470000D02*
X485648000Y-353695000D01*
X479933000Y-331470000D02*
X479933000Y-353695000D01*
X484378000Y-331470000D02*
X484378000Y-353695000D01*
X486918000Y-331470000D02*
X486918000Y-353695000D01*
X492633000Y-331470000D02*
X492633000Y-353695000D01*
X477393000Y-331470000D02*
X477393000Y-353695000D01*
X491363000Y-331470000D02*
X491363000Y-353695000D01*
X478663000Y-331470000D02*
X478663000Y-353695000D01*
X493903000Y-331470000D02*
X493903000Y-353695000D01*
X479933000Y-309245000D02*
X479933000Y-331470000D01*
X485648000Y-309245000D02*
X485648000Y-331470000D01*
X484378000Y-309245000D02*
X484378000Y-331470000D01*
X486918000Y-309245000D02*
X486918000Y-331470000D01*
X492633000Y-309245000D02*
X492633000Y-331470000D01*
X477393000Y-309245000D02*
X477393000Y-331470000D01*
X491363000Y-309245000D02*
X491363000Y-331470000D01*
X478663000Y-309245000D02*
X478663000Y-331470000D01*
X493903000Y-309245000D02*
X493903000Y-331470000D01*
X513207000Y-347345000D02*
X513207000Y-325120000D01*
X528447000Y-347345000D02*
X528447000Y-325120000D01*
X515747000Y-347345000D02*
X515747000Y-325120000D01*
X529717000Y-347345000D02*
X529717000Y-325120000D01*
X514477000Y-347345000D02*
X514477000Y-325120000D01*
X520192000Y-347345000D02*
X520192000Y-325120000D01*
X522732000Y-347345000D02*
X522732000Y-325120000D01*
X521462000Y-347345000D02*
X521462000Y-325120000D01*
X527177000Y-347345000D02*
X527177000Y-325120000D01*
X513207000Y-325120000D02*
X513207000Y-302895000D01*
X528447000Y-325120000D02*
X528447000Y-302895000D01*
X515747000Y-325120000D02*
X515747000Y-302895000D01*
X529717000Y-325120000D02*
X529717000Y-302895000D01*
X514477000Y-325120000D02*
X514477000Y-302895000D01*
X520192000Y-325120000D02*
X520192000Y-302895000D01*
X522732000Y-325120000D02*
X522732000Y-302895000D01*
X521462000Y-325120000D02*
X521462000Y-302895000D01*
X527177000Y-325120000D02*
X527177000Y-302895000D01*
D10*
%TO.C,4.7k\u03A9*%
X473305000Y-320135000D02*
X472975000Y-320135000D01*
X472975000Y-320135000D02*
X472975000Y-313595000D01*
X472975000Y-313595000D02*
X473305000Y-313595000D01*
X475385000Y-320135000D02*
X475715000Y-320135000D01*
X475715000Y-320135000D02*
X475715000Y-313595000D01*
X475715000Y-313595000D02*
X475385000Y-313595000D01*
%TO.C,Power*%
X471765000Y-353060000D02*
G75*
G03*
X471765000Y-353060000I-2500000J0D01*
G01*
X466705000Y-351515000D02*
X466705000Y-354605000D01*
X472255000Y-353059538D02*
G75*
G02*
X466705000Y-354604830I-2990000J-462D01*
G01*
X472255000Y-353060462D02*
G75*
G03*
X466705000Y-351515170I-2990000J462D01*
G01*
%TO.C,1uf*%
X520734775Y-247470000D02*
X520734775Y-246970000D01*
X520984775Y-247220000D02*
X520484775Y-247220000D01*
X515579000Y-246029000D02*
X515579000Y-245461000D01*
X515619000Y-246263000D02*
X515619000Y-245227000D01*
X515659000Y-246422000D02*
X515659000Y-245068000D01*
X515699000Y-246550000D02*
X515699000Y-244940000D01*
X515739000Y-246660000D02*
X515739000Y-244830000D01*
X515779000Y-246756000D02*
X515779000Y-244734000D01*
X515819000Y-246843000D02*
X515819000Y-244647000D01*
X515859000Y-246923000D02*
X515859000Y-244567000D01*
X515899000Y-244705000D02*
X515899000Y-244494000D01*
X515899000Y-246996000D02*
X515899000Y-246785000D01*
X515939000Y-244705000D02*
X515939000Y-244426000D01*
X515939000Y-247064000D02*
X515939000Y-246785000D01*
X515979000Y-244705000D02*
X515979000Y-244362000D01*
X515979000Y-247128000D02*
X515979000Y-246785000D01*
X516019000Y-244705000D02*
X516019000Y-244302000D01*
X516019000Y-247188000D02*
X516019000Y-246785000D01*
X516059000Y-244705000D02*
X516059000Y-244245000D01*
X516059000Y-247245000D02*
X516059000Y-246785000D01*
X516099000Y-244705000D02*
X516099000Y-244191000D01*
X516099000Y-247299000D02*
X516099000Y-246785000D01*
X516139000Y-244705000D02*
X516139000Y-244140000D01*
X516139000Y-247350000D02*
X516139000Y-246785000D01*
X516179000Y-244705000D02*
X516179000Y-244092000D01*
X516179000Y-247398000D02*
X516179000Y-246785000D01*
X516219000Y-244705000D02*
X516219000Y-244046000D01*
X516219000Y-247444000D02*
X516219000Y-246785000D01*
X516259000Y-244705000D02*
X516259000Y-244002000D01*
X516259000Y-247488000D02*
X516259000Y-246785000D01*
X516299000Y-244705000D02*
X516299000Y-243960000D01*
X516299000Y-247530000D02*
X516299000Y-246785000D01*
X516339000Y-244705000D02*
X516339000Y-243919000D01*
X516339000Y-247571000D02*
X516339000Y-246785000D01*
X516379000Y-244705000D02*
X516379000Y-243881000D01*
X516379000Y-247609000D02*
X516379000Y-246785000D01*
X516419000Y-244705000D02*
X516419000Y-243844000D01*
X516419000Y-247646000D02*
X516419000Y-246785000D01*
X516459000Y-244705000D02*
X516459000Y-243808000D01*
X516459000Y-247682000D02*
X516459000Y-246785000D01*
X516499000Y-244705000D02*
X516499000Y-243774000D01*
X516499000Y-247716000D02*
X516499000Y-246785000D01*
X516539000Y-244705000D02*
X516539000Y-243741000D01*
X516539000Y-247749000D02*
X516539000Y-246785000D01*
X516579000Y-244705000D02*
X516579000Y-243710000D01*
X516579000Y-247780000D02*
X516579000Y-246785000D01*
X516619000Y-244705000D02*
X516619000Y-243680000D01*
X516619000Y-247810000D02*
X516619000Y-246785000D01*
X516659000Y-244705000D02*
X516659000Y-243650000D01*
X516659000Y-247840000D02*
X516659000Y-246785000D01*
X516699000Y-244705000D02*
X516699000Y-243623000D01*
X516699000Y-247867000D02*
X516699000Y-246785000D01*
X516739000Y-244705000D02*
X516739000Y-243596000D01*
X516739000Y-247894000D02*
X516739000Y-246785000D01*
X516779000Y-244705000D02*
X516779000Y-243570000D01*
X516779000Y-247920000D02*
X516779000Y-246785000D01*
X516819000Y-244705000D02*
X516819000Y-243545000D01*
X516819000Y-247945000D02*
X516819000Y-246785000D01*
X516859000Y-244705000D02*
X516859000Y-243521000D01*
X516859000Y-247969000D02*
X516859000Y-246785000D01*
X516899000Y-244705000D02*
X516899000Y-243498000D01*
X516899000Y-247992000D02*
X516899000Y-246785000D01*
X516939000Y-244705000D02*
X516939000Y-243477000D01*
X516939000Y-248013000D02*
X516939000Y-246785000D01*
X516979000Y-244705000D02*
X516979000Y-243455000D01*
X516979000Y-248035000D02*
X516979000Y-246785000D01*
X517019000Y-244705000D02*
X517019000Y-243435000D01*
X517019000Y-248055000D02*
X517019000Y-246785000D01*
X517059000Y-244705000D02*
X517059000Y-243416000D01*
X517059000Y-248074000D02*
X517059000Y-246785000D01*
X517099000Y-244705000D02*
X517099000Y-243397000D01*
X517099000Y-248093000D02*
X517099000Y-246785000D01*
X517139000Y-244705000D02*
X517139000Y-243380000D01*
X517139000Y-248110000D02*
X517139000Y-246785000D01*
X517179000Y-244705000D02*
X517179000Y-243363000D01*
X517179000Y-248127000D02*
X517179000Y-246785000D01*
X517219000Y-244705000D02*
X517219000Y-243347000D01*
X517219000Y-248143000D02*
X517219000Y-246785000D01*
X517259000Y-244705000D02*
X517259000Y-243331000D01*
X517259000Y-248159000D02*
X517259000Y-246785000D01*
X517299000Y-244705000D02*
X517299000Y-243317000D01*
X517299000Y-248173000D02*
X517299000Y-246785000D01*
X517339000Y-244705000D02*
X517339000Y-243303000D01*
X517339000Y-248187000D02*
X517339000Y-246785000D01*
X517379000Y-244705000D02*
X517379000Y-243290000D01*
X517379000Y-248200000D02*
X517379000Y-246785000D01*
X517419000Y-244705000D02*
X517419000Y-243277000D01*
X517419000Y-248213000D02*
X517419000Y-246785000D01*
X517459000Y-244705000D02*
X517459000Y-243265000D01*
X517459000Y-248225000D02*
X517459000Y-246785000D01*
X517500000Y-244705000D02*
X517500000Y-243254000D01*
X517500000Y-248236000D02*
X517500000Y-246785000D01*
X517540000Y-244705000D02*
X517540000Y-243244000D01*
X517540000Y-248246000D02*
X517540000Y-246785000D01*
X517580000Y-244705000D02*
X517580000Y-243234000D01*
X517580000Y-248256000D02*
X517580000Y-246785000D01*
X517620000Y-244705000D02*
X517620000Y-243225000D01*
X517620000Y-248265000D02*
X517620000Y-246785000D01*
X517660000Y-244705000D02*
X517660000Y-243217000D01*
X517660000Y-248273000D02*
X517660000Y-246785000D01*
X517700000Y-244705000D02*
X517700000Y-243209000D01*
X517700000Y-248281000D02*
X517700000Y-246785000D01*
X517740000Y-244705000D02*
X517740000Y-243202000D01*
X517740000Y-248288000D02*
X517740000Y-246785000D01*
X517780000Y-244705000D02*
X517780000Y-243195000D01*
X517780000Y-248295000D02*
X517780000Y-246785000D01*
X517820000Y-244705000D02*
X517820000Y-243189000D01*
X517820000Y-248301000D02*
X517820000Y-246785000D01*
X517860000Y-244705000D02*
X517860000Y-243184000D01*
X517860000Y-248306000D02*
X517860000Y-246785000D01*
X517900000Y-244705000D02*
X517900000Y-243180000D01*
X517900000Y-248310000D02*
X517900000Y-246785000D01*
X517940000Y-244705000D02*
X517940000Y-243176000D01*
X517940000Y-248314000D02*
X517940000Y-246785000D01*
X517980000Y-248318000D02*
X517980000Y-243172000D01*
X518020000Y-248321000D02*
X518020000Y-243169000D01*
X518060000Y-248323000D02*
X518060000Y-243167000D01*
X518100000Y-248324000D02*
X518100000Y-243166000D01*
X518140000Y-248325000D02*
X518140000Y-243165000D01*
X518180000Y-248325000D02*
X518180000Y-243165000D01*
X520800000Y-245745000D02*
G75*
G03*
X520800000Y-245745000I-2620000J0D01*
G01*
%TO.C,0.1uf*%
X427341000Y-188880000D02*
X428599000Y-188880000D01*
X427341000Y-187040000D02*
X428599000Y-187040000D01*
X415276000Y-188880000D02*
X416534000Y-188880000D01*
X415276000Y-187040000D02*
X416534000Y-187040000D01*
X422896000Y-219360000D02*
X424154000Y-219360000D01*
X422896000Y-217520000D02*
X424154000Y-217520000D01*
%TO.C,74573*%
X435085000Y-314900000D02*
X433435000Y-314900000D01*
X435085000Y-340420000D02*
X435085000Y-314900000D01*
X429785000Y-340420000D02*
X435085000Y-340420000D01*
X429785000Y-314900000D02*
X429785000Y-340420000D01*
X431435000Y-314900000D02*
X429785000Y-314900000D01*
X433435000Y-314900000D02*
G75*
G02*
X431435000Y-314900000I-1000000J0D01*
G01*
X452230000Y-314900000D02*
X450580000Y-314900000D01*
X452230000Y-340420000D02*
X452230000Y-314900000D01*
X446930000Y-340420000D02*
X452230000Y-340420000D01*
X446930000Y-314900000D02*
X446930000Y-340420000D01*
X448580000Y-314900000D02*
X446930000Y-314900000D01*
X450580000Y-314900000D02*
G75*
G02*
X448580000Y-314900000I-1000000J0D01*
G01*
%TO.C,7404*%
X465725000Y-314900000D02*
X464075000Y-314900000D01*
X464075000Y-314900000D02*
X464075000Y-332800000D01*
X464075000Y-332800000D02*
X469375000Y-332800000D01*
X469375000Y-332800000D02*
X469375000Y-314900000D01*
X469375000Y-314900000D02*
X467725000Y-314900000D01*
X467725000Y-314900000D02*
G75*
G02*
X465725000Y-314900000I-1000000J0D01*
G01*
%TO.C,20pf*%
X382066200Y-225140000D02*
X380808200Y-225140000D01*
X382066200Y-226980000D02*
X380808200Y-226980000D01*
%TO.C,1uf*%
X506129775Y-247470000D02*
X506129775Y-246970000D01*
X506379775Y-247220000D02*
X505879775Y-247220000D01*
X500974000Y-246029000D02*
X500974000Y-245461000D01*
X501014000Y-246263000D02*
X501014000Y-245227000D01*
X501054000Y-246422000D02*
X501054000Y-245068000D01*
X501094000Y-246550000D02*
X501094000Y-244940000D01*
X501134000Y-246660000D02*
X501134000Y-244830000D01*
X501174000Y-246756000D02*
X501174000Y-244734000D01*
X501214000Y-246843000D02*
X501214000Y-244647000D01*
X501254000Y-246923000D02*
X501254000Y-244567000D01*
X501294000Y-244705000D02*
X501294000Y-244494000D01*
X501294000Y-246996000D02*
X501294000Y-246785000D01*
X501334000Y-244705000D02*
X501334000Y-244426000D01*
X501334000Y-247064000D02*
X501334000Y-246785000D01*
X501374000Y-244705000D02*
X501374000Y-244362000D01*
X501374000Y-247128000D02*
X501374000Y-246785000D01*
X501414000Y-244705000D02*
X501414000Y-244302000D01*
X501414000Y-247188000D02*
X501414000Y-246785000D01*
X501454000Y-244705000D02*
X501454000Y-244245000D01*
X501454000Y-247245000D02*
X501454000Y-246785000D01*
X501494000Y-244705000D02*
X501494000Y-244191000D01*
X501494000Y-247299000D02*
X501494000Y-246785000D01*
X501534000Y-244705000D02*
X501534000Y-244140000D01*
X501534000Y-247350000D02*
X501534000Y-246785000D01*
X501574000Y-244705000D02*
X501574000Y-244092000D01*
X501574000Y-247398000D02*
X501574000Y-246785000D01*
X501614000Y-244705000D02*
X501614000Y-244046000D01*
X501614000Y-247444000D02*
X501614000Y-246785000D01*
X501654000Y-244705000D02*
X501654000Y-244002000D01*
X501654000Y-247488000D02*
X501654000Y-246785000D01*
X501694000Y-244705000D02*
X501694000Y-243960000D01*
X501694000Y-247530000D02*
X501694000Y-246785000D01*
X501734000Y-244705000D02*
X501734000Y-243919000D01*
X501734000Y-247571000D02*
X501734000Y-246785000D01*
X501774000Y-244705000D02*
X501774000Y-243881000D01*
X501774000Y-247609000D02*
X501774000Y-246785000D01*
X501814000Y-244705000D02*
X501814000Y-243844000D01*
X501814000Y-247646000D02*
X501814000Y-246785000D01*
X501854000Y-244705000D02*
X501854000Y-243808000D01*
X501854000Y-247682000D02*
X501854000Y-246785000D01*
X501894000Y-244705000D02*
X501894000Y-243774000D01*
X501894000Y-247716000D02*
X501894000Y-246785000D01*
X501934000Y-244705000D02*
X501934000Y-243741000D01*
X501934000Y-247749000D02*
X501934000Y-246785000D01*
X501974000Y-244705000D02*
X501974000Y-243710000D01*
X501974000Y-247780000D02*
X501974000Y-246785000D01*
X502014000Y-244705000D02*
X502014000Y-243680000D01*
X502014000Y-247810000D02*
X502014000Y-246785000D01*
X502054000Y-244705000D02*
X502054000Y-243650000D01*
X502054000Y-247840000D02*
X502054000Y-246785000D01*
X502094000Y-244705000D02*
X502094000Y-243623000D01*
X502094000Y-247867000D02*
X502094000Y-246785000D01*
X502134000Y-244705000D02*
X502134000Y-243596000D01*
X502134000Y-247894000D02*
X502134000Y-246785000D01*
X502174000Y-244705000D02*
X502174000Y-243570000D01*
X502174000Y-247920000D02*
X502174000Y-246785000D01*
X502214000Y-244705000D02*
X502214000Y-243545000D01*
X502214000Y-247945000D02*
X502214000Y-246785000D01*
X502254000Y-244705000D02*
X502254000Y-243521000D01*
X502254000Y-247969000D02*
X502254000Y-246785000D01*
X502294000Y-244705000D02*
X502294000Y-243498000D01*
X502294000Y-247992000D02*
X502294000Y-246785000D01*
X502334000Y-244705000D02*
X502334000Y-243477000D01*
X502334000Y-248013000D02*
X502334000Y-246785000D01*
X502374000Y-244705000D02*
X502374000Y-243455000D01*
X502374000Y-248035000D02*
X502374000Y-246785000D01*
X502414000Y-244705000D02*
X502414000Y-243435000D01*
X502414000Y-248055000D02*
X502414000Y-246785000D01*
X502454000Y-244705000D02*
X502454000Y-243416000D01*
X502454000Y-248074000D02*
X502454000Y-246785000D01*
X502494000Y-244705000D02*
X502494000Y-243397000D01*
X502494000Y-248093000D02*
X502494000Y-246785000D01*
X502534000Y-244705000D02*
X502534000Y-243380000D01*
X502534000Y-248110000D02*
X502534000Y-246785000D01*
X502574000Y-244705000D02*
X502574000Y-243363000D01*
X502574000Y-248127000D02*
X502574000Y-246785000D01*
X502614000Y-244705000D02*
X502614000Y-243347000D01*
X502614000Y-248143000D02*
X502614000Y-246785000D01*
X502654000Y-244705000D02*
X502654000Y-243331000D01*
X502654000Y-248159000D02*
X502654000Y-246785000D01*
X502694000Y-244705000D02*
X502694000Y-243317000D01*
X502694000Y-248173000D02*
X502694000Y-246785000D01*
X502734000Y-244705000D02*
X502734000Y-243303000D01*
X502734000Y-248187000D02*
X502734000Y-246785000D01*
X502774000Y-244705000D02*
X502774000Y-243290000D01*
X502774000Y-248200000D02*
X502774000Y-246785000D01*
X502814000Y-244705000D02*
X502814000Y-243277000D01*
X502814000Y-248213000D02*
X502814000Y-246785000D01*
X502854000Y-244705000D02*
X502854000Y-243265000D01*
X502854000Y-248225000D02*
X502854000Y-246785000D01*
X502895000Y-244705000D02*
X502895000Y-243254000D01*
X502895000Y-248236000D02*
X502895000Y-246785000D01*
X502935000Y-244705000D02*
X502935000Y-243244000D01*
X502935000Y-248246000D02*
X502935000Y-246785000D01*
X502975000Y-244705000D02*
X502975000Y-243234000D01*
X502975000Y-248256000D02*
X502975000Y-246785000D01*
X503015000Y-244705000D02*
X503015000Y-243225000D01*
X503015000Y-248265000D02*
X503015000Y-246785000D01*
X503055000Y-244705000D02*
X503055000Y-243217000D01*
X503055000Y-248273000D02*
X503055000Y-246785000D01*
X503095000Y-244705000D02*
X503095000Y-243209000D01*
X503095000Y-248281000D02*
X503095000Y-246785000D01*
X503135000Y-244705000D02*
X503135000Y-243202000D01*
X503135000Y-248288000D02*
X503135000Y-246785000D01*
X503175000Y-244705000D02*
X503175000Y-243195000D01*
X503175000Y-248295000D02*
X503175000Y-246785000D01*
X503215000Y-244705000D02*
X503215000Y-243189000D01*
X503215000Y-248301000D02*
X503215000Y-246785000D01*
X503255000Y-244705000D02*
X503255000Y-243184000D01*
X503255000Y-248306000D02*
X503255000Y-246785000D01*
X503295000Y-244705000D02*
X503295000Y-243180000D01*
X503295000Y-248310000D02*
X503295000Y-246785000D01*
X503335000Y-244705000D02*
X503335000Y-243176000D01*
X503335000Y-248314000D02*
X503335000Y-246785000D01*
X503375000Y-248318000D02*
X503375000Y-243172000D01*
X503415000Y-248321000D02*
X503415000Y-243169000D01*
X503455000Y-248323000D02*
X503455000Y-243167000D01*
X503495000Y-248324000D02*
X503495000Y-243166000D01*
X503535000Y-248325000D02*
X503535000Y-243165000D01*
X503575000Y-248325000D02*
X503575000Y-243165000D01*
X506195000Y-245745000D02*
G75*
G03*
X506195000Y-245745000I-2620000J0D01*
G01*
%TO.C,0.1uf*%
X384460000Y-217819000D02*
X384460000Y-216561000D01*
X382620000Y-217819000D02*
X382620000Y-216561000D01*
X468616000Y-313975000D02*
X469874000Y-313975000D01*
X468616000Y-312135000D02*
X469874000Y-312135000D01*
%TO.C, *%
X461010000Y-347345000D02*
X461010000Y-348615000D01*
X459740000Y-347345000D02*
X461010000Y-347345000D01*
X441580000Y-349657929D02*
X441580000Y-350055000D01*
X442340000Y-349657929D02*
X442340000Y-350055000D01*
X441580000Y-358715000D02*
X441580000Y-352715000D01*
X442340000Y-358715000D02*
X441580000Y-358715000D01*
X442340000Y-352715000D02*
X442340000Y-358715000D01*
X443230000Y-350055000D02*
X443230000Y-352715000D01*
X444120000Y-349657929D02*
X444120000Y-350055000D01*
X444880000Y-349657929D02*
X444880000Y-350055000D01*
X444120000Y-358715000D02*
X444120000Y-352715000D01*
X444880000Y-358715000D02*
X444120000Y-358715000D01*
X444880000Y-352715000D02*
X444880000Y-358715000D01*
X445770000Y-350055000D02*
X445770000Y-352715000D01*
X446660000Y-349657929D02*
X446660000Y-350055000D01*
X447420000Y-349657929D02*
X447420000Y-350055000D01*
X446660000Y-358715000D02*
X446660000Y-352715000D01*
X447420000Y-358715000D02*
X446660000Y-358715000D01*
X447420000Y-352715000D02*
X447420000Y-358715000D01*
X448310000Y-350055000D02*
X448310000Y-352715000D01*
X449200000Y-349657929D02*
X449200000Y-350055000D01*
X449960000Y-349657929D02*
X449960000Y-350055000D01*
X449200000Y-358715000D02*
X449200000Y-352715000D01*
X449960000Y-358715000D02*
X449200000Y-358715000D01*
X449960000Y-352715000D02*
X449960000Y-358715000D01*
X450850000Y-350055000D02*
X450850000Y-352715000D01*
X451740000Y-349657929D02*
X451740000Y-350055000D01*
X452500000Y-349657929D02*
X452500000Y-350055000D01*
X451740000Y-358715000D02*
X451740000Y-352715000D01*
X452500000Y-358715000D02*
X451740000Y-358715000D01*
X452500000Y-352715000D02*
X452500000Y-358715000D01*
X453390000Y-350055000D02*
X453390000Y-352715000D01*
X454280000Y-349657929D02*
X454280000Y-350055000D01*
X455040000Y-349657929D02*
X455040000Y-350055000D01*
X454280000Y-358715000D02*
X454280000Y-352715000D01*
X455040000Y-358715000D02*
X454280000Y-358715000D01*
X455040000Y-352715000D02*
X455040000Y-358715000D01*
X455930000Y-350055000D02*
X455930000Y-352715000D01*
X456820000Y-349657929D02*
X456820000Y-350055000D01*
X457580000Y-349657929D02*
X457580000Y-350055000D01*
X456820000Y-358715000D02*
X456820000Y-352715000D01*
X457580000Y-358715000D02*
X456820000Y-358715000D01*
X457580000Y-352715000D02*
X457580000Y-358715000D01*
X458470000Y-350055000D02*
X458470000Y-352715000D01*
X459360000Y-349725000D02*
X459360000Y-350055000D01*
X460120000Y-349725000D02*
X460120000Y-350055000D01*
X459460000Y-352715000D02*
X459460000Y-358715000D01*
X441800000Y-352715000D02*
X441800000Y-358715000D01*
X441920000Y-352715000D02*
X441920000Y-358715000D01*
X442040000Y-352715000D02*
X442040000Y-358715000D01*
X442160000Y-352715000D02*
X442160000Y-358715000D01*
X460060000Y-352715000D02*
X460060000Y-358715000D01*
X459360000Y-358715000D02*
X459360000Y-352715000D01*
X460120000Y-358715000D02*
X459360000Y-358715000D01*
X460120000Y-352715000D02*
X460120000Y-358715000D01*
X461070000Y-352715000D02*
X461070000Y-350055000D01*
X440630000Y-352715000D02*
X461070000Y-352715000D01*
X440630000Y-350055000D02*
X440630000Y-352715000D01*
X461070000Y-350055000D02*
X440630000Y-350055000D01*
X442257200Y-352715000D02*
X442257200Y-358715000D01*
X441698400Y-352715000D02*
X441698400Y-358715000D01*
X429260000Y-347345000D02*
X429260000Y-348615000D01*
X427990000Y-347345000D02*
X429260000Y-347345000D01*
X409830000Y-349657929D02*
X409830000Y-350055000D01*
X410590000Y-349657929D02*
X410590000Y-350055000D01*
X409830000Y-358715000D02*
X409830000Y-352715000D01*
X410590000Y-358715000D02*
X409830000Y-358715000D01*
X410590000Y-352715000D02*
X410590000Y-358715000D01*
X411480000Y-350055000D02*
X411480000Y-352715000D01*
X412370000Y-349657929D02*
X412370000Y-350055000D01*
X413130000Y-349657929D02*
X413130000Y-350055000D01*
X412370000Y-358715000D02*
X412370000Y-352715000D01*
X413130000Y-358715000D02*
X412370000Y-358715000D01*
X413130000Y-352715000D02*
X413130000Y-358715000D01*
X414020000Y-350055000D02*
X414020000Y-352715000D01*
X414910000Y-349657929D02*
X414910000Y-350055000D01*
X415670000Y-349657929D02*
X415670000Y-350055000D01*
X414910000Y-358715000D02*
X414910000Y-352715000D01*
X415670000Y-358715000D02*
X414910000Y-358715000D01*
X415670000Y-352715000D02*
X415670000Y-358715000D01*
X416560000Y-350055000D02*
X416560000Y-352715000D01*
X417450000Y-349657929D02*
X417450000Y-350055000D01*
X418210000Y-349657929D02*
X418210000Y-350055000D01*
X417450000Y-358715000D02*
X417450000Y-352715000D01*
X418210000Y-358715000D02*
X417450000Y-358715000D01*
X418210000Y-352715000D02*
X418210000Y-358715000D01*
X419100000Y-350055000D02*
X419100000Y-352715000D01*
X419990000Y-349657929D02*
X419990000Y-350055000D01*
X420750000Y-349657929D02*
X420750000Y-350055000D01*
X419990000Y-358715000D02*
X419990000Y-352715000D01*
X420750000Y-358715000D02*
X419990000Y-358715000D01*
X420750000Y-352715000D02*
X420750000Y-358715000D01*
X421640000Y-350055000D02*
X421640000Y-352715000D01*
X422530000Y-349657929D02*
X422530000Y-350055000D01*
X423290000Y-349657929D02*
X423290000Y-350055000D01*
X422530000Y-358715000D02*
X422530000Y-352715000D01*
X423290000Y-358715000D02*
X422530000Y-358715000D01*
X423290000Y-352715000D02*
X423290000Y-358715000D01*
X424180000Y-350055000D02*
X424180000Y-352715000D01*
X425070000Y-349657929D02*
X425070000Y-350055000D01*
X425830000Y-349657929D02*
X425830000Y-350055000D01*
X425070000Y-358715000D02*
X425070000Y-352715000D01*
X425830000Y-358715000D02*
X425070000Y-358715000D01*
X425830000Y-352715000D02*
X425830000Y-358715000D01*
X426720000Y-350055000D02*
X426720000Y-352715000D01*
X427610000Y-349725000D02*
X427610000Y-350055000D01*
X428370000Y-349725000D02*
X428370000Y-350055000D01*
X427710000Y-352715000D02*
X427710000Y-358715000D01*
X410050000Y-352715000D02*
X410050000Y-358715000D01*
X410170000Y-352715000D02*
X410170000Y-358715000D01*
X410290000Y-352715000D02*
X410290000Y-358715000D01*
X410410000Y-352715000D02*
X410410000Y-358715000D01*
X428310000Y-352715000D02*
X428310000Y-358715000D01*
X427610000Y-358715000D02*
X427610000Y-352715000D01*
X428370000Y-358715000D02*
X427610000Y-358715000D01*
X428370000Y-352715000D02*
X428370000Y-358715000D01*
X429320000Y-352715000D02*
X429320000Y-350055000D01*
X408880000Y-352715000D02*
X429320000Y-352715000D01*
X408880000Y-350055000D02*
X408880000Y-352715000D01*
X429320000Y-350055000D02*
X408880000Y-350055000D01*
X410507200Y-352715000D02*
X410507200Y-358715000D01*
X409948400Y-352715000D02*
X409948400Y-358715000D01*
%TO.C,1uf*%
X462460000Y-307374775D02*
X462960000Y-307374775D01*
X462710000Y-307624775D02*
X462710000Y-307124775D01*
X463901000Y-302219000D02*
X464469000Y-302219000D01*
X463667000Y-302259000D02*
X464703000Y-302259000D01*
X463508000Y-302299000D02*
X464862000Y-302299000D01*
X463380000Y-302339000D02*
X464990000Y-302339000D01*
X463270000Y-302379000D02*
X465100000Y-302379000D01*
X463174000Y-302419000D02*
X465196000Y-302419000D01*
X463087000Y-302459000D02*
X465283000Y-302459000D01*
X463007000Y-302499000D02*
X465363000Y-302499000D01*
X465225000Y-302539000D02*
X465436000Y-302539000D01*
X462934000Y-302539000D02*
X463145000Y-302539000D01*
X465225000Y-302579000D02*
X465504000Y-302579000D01*
X462866000Y-302579000D02*
X463145000Y-302579000D01*
X465225000Y-302619000D02*
X465568000Y-302619000D01*
X462802000Y-302619000D02*
X463145000Y-302619000D01*
X465225000Y-302659000D02*
X465628000Y-302659000D01*
X462742000Y-302659000D02*
X463145000Y-302659000D01*
X465225000Y-302699000D02*
X465685000Y-302699000D01*
X462685000Y-302699000D02*
X463145000Y-302699000D01*
X465225000Y-302739000D02*
X465739000Y-302739000D01*
X462631000Y-302739000D02*
X463145000Y-302739000D01*
X465225000Y-302779000D02*
X465790000Y-302779000D01*
X462580000Y-302779000D02*
X463145000Y-302779000D01*
X465225000Y-302819000D02*
X465838000Y-302819000D01*
X462532000Y-302819000D02*
X463145000Y-302819000D01*
X465225000Y-302859000D02*
X465884000Y-302859000D01*
X462486000Y-302859000D02*
X463145000Y-302859000D01*
X465225000Y-302899000D02*
X465928000Y-302899000D01*
X462442000Y-302899000D02*
X463145000Y-302899000D01*
X465225000Y-302939000D02*
X465970000Y-302939000D01*
X462400000Y-302939000D02*
X463145000Y-302939000D01*
X465225000Y-302979000D02*
X466011000Y-302979000D01*
X462359000Y-302979000D02*
X463145000Y-302979000D01*
X465225000Y-303019000D02*
X466049000Y-303019000D01*
X462321000Y-303019000D02*
X463145000Y-303019000D01*
X465225000Y-303059000D02*
X466086000Y-303059000D01*
X462284000Y-303059000D02*
X463145000Y-303059000D01*
X465225000Y-303099000D02*
X466122000Y-303099000D01*
X462248000Y-303099000D02*
X463145000Y-303099000D01*
X465225000Y-303139000D02*
X466156000Y-303139000D01*
X462214000Y-303139000D02*
X463145000Y-303139000D01*
X465225000Y-303179000D02*
X466189000Y-303179000D01*
X462181000Y-303179000D02*
X463145000Y-303179000D01*
X465225000Y-303219000D02*
X466220000Y-303219000D01*
X462150000Y-303219000D02*
X463145000Y-303219000D01*
X465225000Y-303259000D02*
X466250000Y-303259000D01*
X462120000Y-303259000D02*
X463145000Y-303259000D01*
X465225000Y-303299000D02*
X466280000Y-303299000D01*
X462090000Y-303299000D02*
X463145000Y-303299000D01*
X465225000Y-303339000D02*
X466307000Y-303339000D01*
X462063000Y-303339000D02*
X463145000Y-303339000D01*
X465225000Y-303379000D02*
X466334000Y-303379000D01*
X462036000Y-303379000D02*
X463145000Y-303379000D01*
X465225000Y-303419000D02*
X466360000Y-303419000D01*
X462010000Y-303419000D02*
X463145000Y-303419000D01*
X465225000Y-303459000D02*
X466385000Y-303459000D01*
X461985000Y-303459000D02*
X463145000Y-303459000D01*
X465225000Y-303499000D02*
X466409000Y-303499000D01*
X461961000Y-303499000D02*
X463145000Y-303499000D01*
X465225000Y-303539000D02*
X466432000Y-303539000D01*
X461938000Y-303539000D02*
X463145000Y-303539000D01*
X465225000Y-303579000D02*
X466453000Y-303579000D01*
X461917000Y-303579000D02*
X463145000Y-303579000D01*
X465225000Y-303619000D02*
X466475000Y-303619000D01*
X461895000Y-303619000D02*
X463145000Y-303619000D01*
X465225000Y-303659000D02*
X466495000Y-303659000D01*
X461875000Y-303659000D02*
X463145000Y-303659000D01*
X465225000Y-303699000D02*
X466514000Y-303699000D01*
X461856000Y-303699000D02*
X463145000Y-303699000D01*
X465225000Y-303739000D02*
X466533000Y-303739000D01*
X461837000Y-303739000D02*
X463145000Y-303739000D01*
X465225000Y-303779000D02*
X466550000Y-303779000D01*
X461820000Y-303779000D02*
X463145000Y-303779000D01*
X465225000Y-303819000D02*
X466567000Y-303819000D01*
X461803000Y-303819000D02*
X463145000Y-303819000D01*
X465225000Y-303859000D02*
X466583000Y-303859000D01*
X461787000Y-303859000D02*
X463145000Y-303859000D01*
X465225000Y-303899000D02*
X466599000Y-303899000D01*
X461771000Y-303899000D02*
X463145000Y-303899000D01*
X465225000Y-303939000D02*
X466613000Y-303939000D01*
X461757000Y-303939000D02*
X463145000Y-303939000D01*
X465225000Y-303979000D02*
X466627000Y-303979000D01*
X461743000Y-303979000D02*
X463145000Y-303979000D01*
X465225000Y-304019000D02*
X466640000Y-304019000D01*
X461730000Y-304019000D02*
X463145000Y-304019000D01*
X465225000Y-304059000D02*
X466653000Y-304059000D01*
X461717000Y-304059000D02*
X463145000Y-304059000D01*
X465225000Y-304099000D02*
X466665000Y-304099000D01*
X461705000Y-304099000D02*
X463145000Y-304099000D01*
X465225000Y-304140000D02*
X466676000Y-304140000D01*
X461694000Y-304140000D02*
X463145000Y-304140000D01*
X465225000Y-304180000D02*
X466686000Y-304180000D01*
X461684000Y-304180000D02*
X463145000Y-304180000D01*
X465225000Y-304220000D02*
X466696000Y-304220000D01*
X461674000Y-304220000D02*
X463145000Y-304220000D01*
X465225000Y-304260000D02*
X466705000Y-304260000D01*
X461665000Y-304260000D02*
X463145000Y-304260000D01*
X465225000Y-304300000D02*
X466713000Y-304300000D01*
X461657000Y-304300000D02*
X463145000Y-304300000D01*
X465225000Y-304340000D02*
X466721000Y-304340000D01*
X461649000Y-304340000D02*
X463145000Y-304340000D01*
X465225000Y-304380000D02*
X466728000Y-304380000D01*
X461642000Y-304380000D02*
X463145000Y-304380000D01*
X465225000Y-304420000D02*
X466735000Y-304420000D01*
X461635000Y-304420000D02*
X463145000Y-304420000D01*
X465225000Y-304460000D02*
X466741000Y-304460000D01*
X461629000Y-304460000D02*
X463145000Y-304460000D01*
X465225000Y-304500000D02*
X466746000Y-304500000D01*
X461624000Y-304500000D02*
X463145000Y-304500000D01*
X465225000Y-304540000D02*
X466750000Y-304540000D01*
X461620000Y-304540000D02*
X463145000Y-304540000D01*
X465225000Y-304580000D02*
X466754000Y-304580000D01*
X461616000Y-304580000D02*
X463145000Y-304580000D01*
X461612000Y-304620000D02*
X466758000Y-304620000D01*
X461609000Y-304660000D02*
X466761000Y-304660000D01*
X461607000Y-304700000D02*
X466763000Y-304700000D01*
X461606000Y-304740000D02*
X466764000Y-304740000D01*
X461605000Y-304780000D02*
X466765000Y-304780000D01*
X461605000Y-304820000D02*
X466765000Y-304820000D01*
X466805000Y-304820000D02*
G75*
G03*
X466805000Y-304820000I-2620000J0D01*
G01*
X452789775Y-247470000D02*
X452789775Y-246970000D01*
X453039775Y-247220000D02*
X452539775Y-247220000D01*
X447634000Y-246029000D02*
X447634000Y-245461000D01*
X447674000Y-246263000D02*
X447674000Y-245227000D01*
X447714000Y-246422000D02*
X447714000Y-245068000D01*
X447754000Y-246550000D02*
X447754000Y-244940000D01*
X447794000Y-246660000D02*
X447794000Y-244830000D01*
X447834000Y-246756000D02*
X447834000Y-244734000D01*
X447874000Y-246843000D02*
X447874000Y-244647000D01*
X447914000Y-246923000D02*
X447914000Y-244567000D01*
X447954000Y-244705000D02*
X447954000Y-244494000D01*
X447954000Y-246996000D02*
X447954000Y-246785000D01*
X447994000Y-244705000D02*
X447994000Y-244426000D01*
X447994000Y-247064000D02*
X447994000Y-246785000D01*
X448034000Y-244705000D02*
X448034000Y-244362000D01*
X448034000Y-247128000D02*
X448034000Y-246785000D01*
X448074000Y-244705000D02*
X448074000Y-244302000D01*
X448074000Y-247188000D02*
X448074000Y-246785000D01*
X448114000Y-244705000D02*
X448114000Y-244245000D01*
X448114000Y-247245000D02*
X448114000Y-246785000D01*
X448154000Y-244705000D02*
X448154000Y-244191000D01*
X448154000Y-247299000D02*
X448154000Y-246785000D01*
X448194000Y-244705000D02*
X448194000Y-244140000D01*
X448194000Y-247350000D02*
X448194000Y-246785000D01*
X448234000Y-244705000D02*
X448234000Y-244092000D01*
X448234000Y-247398000D02*
X448234000Y-246785000D01*
X448274000Y-244705000D02*
X448274000Y-244046000D01*
X448274000Y-247444000D02*
X448274000Y-246785000D01*
X448314000Y-244705000D02*
X448314000Y-244002000D01*
X448314000Y-247488000D02*
X448314000Y-246785000D01*
X448354000Y-244705000D02*
X448354000Y-243960000D01*
X448354000Y-247530000D02*
X448354000Y-246785000D01*
X448394000Y-244705000D02*
X448394000Y-243919000D01*
X448394000Y-247571000D02*
X448394000Y-246785000D01*
X448434000Y-244705000D02*
X448434000Y-243881000D01*
X448434000Y-247609000D02*
X448434000Y-246785000D01*
X448474000Y-244705000D02*
X448474000Y-243844000D01*
X448474000Y-247646000D02*
X448474000Y-246785000D01*
X448514000Y-244705000D02*
X448514000Y-243808000D01*
X448514000Y-247682000D02*
X448514000Y-246785000D01*
X448554000Y-244705000D02*
X448554000Y-243774000D01*
X448554000Y-247716000D02*
X448554000Y-246785000D01*
X448594000Y-244705000D02*
X448594000Y-243741000D01*
X448594000Y-247749000D02*
X448594000Y-246785000D01*
X448634000Y-244705000D02*
X448634000Y-243710000D01*
X448634000Y-247780000D02*
X448634000Y-246785000D01*
X448674000Y-244705000D02*
X448674000Y-243680000D01*
X448674000Y-247810000D02*
X448674000Y-246785000D01*
X448714000Y-244705000D02*
X448714000Y-243650000D01*
X448714000Y-247840000D02*
X448714000Y-246785000D01*
X448754000Y-244705000D02*
X448754000Y-243623000D01*
X448754000Y-247867000D02*
X448754000Y-246785000D01*
X448794000Y-244705000D02*
X448794000Y-243596000D01*
X448794000Y-247894000D02*
X448794000Y-246785000D01*
X448834000Y-244705000D02*
X448834000Y-243570000D01*
X448834000Y-247920000D02*
X448834000Y-246785000D01*
X448874000Y-244705000D02*
X448874000Y-243545000D01*
X448874000Y-247945000D02*
X448874000Y-246785000D01*
X448914000Y-244705000D02*
X448914000Y-243521000D01*
X448914000Y-247969000D02*
X448914000Y-246785000D01*
X448954000Y-244705000D02*
X448954000Y-243498000D01*
X448954000Y-247992000D02*
X448954000Y-246785000D01*
X448994000Y-244705000D02*
X448994000Y-243477000D01*
X448994000Y-248013000D02*
X448994000Y-246785000D01*
X449034000Y-244705000D02*
X449034000Y-243455000D01*
X449034000Y-248035000D02*
X449034000Y-246785000D01*
X449074000Y-244705000D02*
X449074000Y-243435000D01*
X449074000Y-248055000D02*
X449074000Y-246785000D01*
X449114000Y-244705000D02*
X449114000Y-243416000D01*
X449114000Y-248074000D02*
X449114000Y-246785000D01*
X449154000Y-244705000D02*
X449154000Y-243397000D01*
X449154000Y-248093000D02*
X449154000Y-246785000D01*
X449194000Y-244705000D02*
X449194000Y-243380000D01*
X449194000Y-248110000D02*
X449194000Y-246785000D01*
X449234000Y-244705000D02*
X449234000Y-243363000D01*
X449234000Y-248127000D02*
X449234000Y-246785000D01*
X449274000Y-244705000D02*
X449274000Y-243347000D01*
X449274000Y-248143000D02*
X449274000Y-246785000D01*
X449314000Y-244705000D02*
X449314000Y-243331000D01*
X449314000Y-248159000D02*
X449314000Y-246785000D01*
X449354000Y-244705000D02*
X449354000Y-243317000D01*
X449354000Y-248173000D02*
X449354000Y-246785000D01*
X449394000Y-244705000D02*
X449394000Y-243303000D01*
X449394000Y-248187000D02*
X449394000Y-246785000D01*
X449434000Y-244705000D02*
X449434000Y-243290000D01*
X449434000Y-248200000D02*
X449434000Y-246785000D01*
X449474000Y-244705000D02*
X449474000Y-243277000D01*
X449474000Y-248213000D02*
X449474000Y-246785000D01*
X449514000Y-244705000D02*
X449514000Y-243265000D01*
X449514000Y-248225000D02*
X449514000Y-246785000D01*
X449555000Y-244705000D02*
X449555000Y-243254000D01*
X449555000Y-248236000D02*
X449555000Y-246785000D01*
X449595000Y-244705000D02*
X449595000Y-243244000D01*
X449595000Y-248246000D02*
X449595000Y-246785000D01*
X449635000Y-244705000D02*
X449635000Y-243234000D01*
X449635000Y-248256000D02*
X449635000Y-246785000D01*
X449675000Y-244705000D02*
X449675000Y-243225000D01*
X449675000Y-248265000D02*
X449675000Y-246785000D01*
X449715000Y-244705000D02*
X449715000Y-243217000D01*
X449715000Y-248273000D02*
X449715000Y-246785000D01*
X449755000Y-244705000D02*
X449755000Y-243209000D01*
X449755000Y-248281000D02*
X449755000Y-246785000D01*
X449795000Y-244705000D02*
X449795000Y-243202000D01*
X449795000Y-248288000D02*
X449795000Y-246785000D01*
X449835000Y-244705000D02*
X449835000Y-243195000D01*
X449835000Y-248295000D02*
X449835000Y-246785000D01*
X449875000Y-244705000D02*
X449875000Y-243189000D01*
X449875000Y-248301000D02*
X449875000Y-246785000D01*
X449915000Y-244705000D02*
X449915000Y-243184000D01*
X449915000Y-248306000D02*
X449915000Y-246785000D01*
X449955000Y-244705000D02*
X449955000Y-243180000D01*
X449955000Y-248310000D02*
X449955000Y-246785000D01*
X449995000Y-244705000D02*
X449995000Y-243176000D01*
X449995000Y-248314000D02*
X449995000Y-246785000D01*
X450035000Y-248318000D02*
X450035000Y-243172000D01*
X450075000Y-248321000D02*
X450075000Y-243169000D01*
X450115000Y-248323000D02*
X450115000Y-243167000D01*
X450155000Y-248324000D02*
X450155000Y-243166000D01*
X450195000Y-248325000D02*
X450195000Y-243165000D01*
X450235000Y-248325000D02*
X450235000Y-243165000D01*
X452855000Y-245745000D02*
G75*
G03*
X452855000Y-245745000I-2620000J0D01*
G01*
%TO.C,0.1uf*%
X412736000Y-306990000D02*
X413994000Y-306990000D01*
X412736000Y-305150000D02*
X413994000Y-305150000D01*
X412736000Y-258730000D02*
X413994000Y-258730000D01*
X412736000Y-256890000D02*
X413994000Y-256890000D01*
X412736000Y-282860000D02*
X413994000Y-282860000D01*
X412736000Y-281020000D02*
X413994000Y-281020000D01*
X389241000Y-317785000D02*
X390499000Y-317785000D01*
X389241000Y-315945000D02*
X390499000Y-315945000D01*
X451471000Y-313975000D02*
X452729000Y-313975000D01*
X451471000Y-312135000D02*
X452729000Y-312135000D01*
X434326000Y-313975000D02*
X435584000Y-313975000D01*
X434326000Y-312135000D02*
X435584000Y-312135000D01*
X374001000Y-317785000D02*
X375259000Y-317785000D01*
X374001000Y-315945000D02*
X375259000Y-315945000D01*
%TO.C,74595*%
X371110000Y-319980000D02*
X369460000Y-319980000D01*
X369460000Y-319980000D02*
X369460000Y-340420000D01*
X369460000Y-340420000D02*
X374760000Y-340420000D01*
X374760000Y-340420000D02*
X374760000Y-319980000D01*
X374760000Y-319980000D02*
X373110000Y-319980000D01*
X373110000Y-319980000D02*
G75*
G02*
X371110000Y-319980000I-1000000J0D01*
G01*
%TO.C,0.1uf*%
X374001000Y-291750000D02*
X375259000Y-291750000D01*
X374001000Y-289910000D02*
X375259000Y-289910000D01*
%TO.C,74138*%
X403495000Y-304740000D02*
X401845000Y-304740000D01*
X401845000Y-304740000D02*
X401845000Y-325180000D01*
X401845000Y-325180000D02*
X407145000Y-325180000D01*
X407145000Y-325180000D02*
X407145000Y-304740000D01*
X407145000Y-304740000D02*
X405495000Y-304740000D01*
X405495000Y-304740000D02*
G75*
G02*
X403495000Y-304740000I-1000000J0D01*
G01*
D11*
%TO.C,PS/2*%
X386625000Y-356275000D02*
X369025000Y-356275000D01*
X369025000Y-356275000D02*
X369025000Y-345775000D01*
X369025000Y-345775000D02*
X386625000Y-345775000D01*
X386625000Y-345775000D02*
X386625000Y-356275000D01*
D10*
%TO.C,74595*%
X386350000Y-319980000D02*
X384700000Y-319980000D01*
X384700000Y-319980000D02*
X384700000Y-340420000D01*
X384700000Y-340420000D02*
X390000000Y-340420000D01*
X390000000Y-340420000D02*
X390000000Y-319980000D01*
X390000000Y-319980000D02*
X388350000Y-319980000D01*
X388350000Y-319980000D02*
G75*
G02*
X386350000Y-319980000I-1000000J0D01*
G01*
%TO.C,7404*%
X374760000Y-293945000D02*
X373110000Y-293945000D01*
X374760000Y-311845000D02*
X374760000Y-293945000D01*
X369460000Y-311845000D02*
X374760000Y-311845000D01*
X369460000Y-293945000D02*
X369460000Y-311845000D01*
X371110000Y-293945000D02*
X369460000Y-293945000D01*
X373110000Y-293945000D02*
G75*
G02*
X371110000Y-293945000I-1000000J0D01*
G01*
%TO.C,A15*%
X398210000Y-270510000D02*
G75*
G03*
X398210000Y-270510000I-700000J0D01*
G01*
%TO.C,A16*%
X396940000Y-273050000D02*
G75*
G03*
X396940000Y-273050000I-700000J0D01*
G01*
%TO.C,A17*%
X395670000Y-275590000D02*
G75*
G03*
X395670000Y-275590000I-700000J0D01*
G01*
%TO.C,A18*%
X394400000Y-278130000D02*
G75*
G03*
X394400000Y-278130000I-700000J0D01*
G01*
%TO.C,A19*%
X393130000Y-280670000D02*
G75*
G03*
X393130000Y-280670000I-700000J0D01*
G01*
%TO.C,74138*%
X403495000Y-280610000D02*
X401845000Y-280610000D01*
X401845000Y-280610000D02*
X401845000Y-301050000D01*
X401845000Y-301050000D02*
X407145000Y-301050000D01*
X407145000Y-301050000D02*
X407145000Y-280610000D01*
X407145000Y-280610000D02*
X405495000Y-280610000D01*
X405495000Y-280610000D02*
G75*
G02*
X403495000Y-280610000I-1000000J0D01*
G01*
%TO.C,4.7uf*%
X378520000Y-207010000D02*
G75*
G03*
X378520000Y-207010000I-2620000J0D01*
G01*
X375900000Y-204430000D02*
X375900000Y-209590000D01*
X375940000Y-204430000D02*
X375940000Y-209590000D01*
X375980000Y-204431000D02*
X375980000Y-209589000D01*
X376020000Y-204432000D02*
X376020000Y-209588000D01*
X376060000Y-204434000D02*
X376060000Y-209586000D01*
X376100000Y-204437000D02*
X376100000Y-209583000D01*
X376140000Y-204441000D02*
X376140000Y-205970000D01*
X376140000Y-208050000D02*
X376140000Y-209579000D01*
X376180000Y-204445000D02*
X376180000Y-205970000D01*
X376180000Y-208050000D02*
X376180000Y-209575000D01*
X376220000Y-204449000D02*
X376220000Y-205970000D01*
X376220000Y-208050000D02*
X376220000Y-209571000D01*
X376260000Y-204454000D02*
X376260000Y-205970000D01*
X376260000Y-208050000D02*
X376260000Y-209566000D01*
X376300000Y-204460000D02*
X376300000Y-205970000D01*
X376300000Y-208050000D02*
X376300000Y-209560000D01*
X376340000Y-204467000D02*
X376340000Y-205970000D01*
X376340000Y-208050000D02*
X376340000Y-209553000D01*
X376380000Y-204474000D02*
X376380000Y-205970000D01*
X376380000Y-208050000D02*
X376380000Y-209546000D01*
X376420000Y-204482000D02*
X376420000Y-205970000D01*
X376420000Y-208050000D02*
X376420000Y-209538000D01*
X376460000Y-204490000D02*
X376460000Y-205970000D01*
X376460000Y-208050000D02*
X376460000Y-209530000D01*
X376500000Y-204499000D02*
X376500000Y-205970000D01*
X376500000Y-208050000D02*
X376500000Y-209521000D01*
X376540000Y-204509000D02*
X376540000Y-205970000D01*
X376540000Y-208050000D02*
X376540000Y-209511000D01*
X376580000Y-204519000D02*
X376580000Y-205970000D01*
X376580000Y-208050000D02*
X376580000Y-209501000D01*
X376621000Y-204530000D02*
X376621000Y-205970000D01*
X376621000Y-208050000D02*
X376621000Y-209490000D01*
X376661000Y-204542000D02*
X376661000Y-205970000D01*
X376661000Y-208050000D02*
X376661000Y-209478000D01*
X376701000Y-204555000D02*
X376701000Y-205970000D01*
X376701000Y-208050000D02*
X376701000Y-209465000D01*
X376741000Y-204568000D02*
X376741000Y-205970000D01*
X376741000Y-208050000D02*
X376741000Y-209452000D01*
X376781000Y-204582000D02*
X376781000Y-205970000D01*
X376781000Y-208050000D02*
X376781000Y-209438000D01*
X376821000Y-204596000D02*
X376821000Y-205970000D01*
X376821000Y-208050000D02*
X376821000Y-209424000D01*
X376861000Y-204612000D02*
X376861000Y-205970000D01*
X376861000Y-208050000D02*
X376861000Y-209408000D01*
X376901000Y-204628000D02*
X376901000Y-205970000D01*
X376901000Y-208050000D02*
X376901000Y-209392000D01*
X376941000Y-204645000D02*
X376941000Y-205970000D01*
X376941000Y-208050000D02*
X376941000Y-209375000D01*
X376981000Y-204662000D02*
X376981000Y-205970000D01*
X376981000Y-208050000D02*
X376981000Y-209358000D01*
X377021000Y-204681000D02*
X377021000Y-205970000D01*
X377021000Y-208050000D02*
X377021000Y-209339000D01*
X377061000Y-204700000D02*
X377061000Y-205970000D01*
X377061000Y-208050000D02*
X377061000Y-209320000D01*
X377101000Y-204720000D02*
X377101000Y-205970000D01*
X377101000Y-208050000D02*
X377101000Y-209300000D01*
X377141000Y-204742000D02*
X377141000Y-205970000D01*
X377141000Y-208050000D02*
X377141000Y-209278000D01*
X377181000Y-204763000D02*
X377181000Y-205970000D01*
X377181000Y-208050000D02*
X377181000Y-209257000D01*
X377221000Y-204786000D02*
X377221000Y-205970000D01*
X377221000Y-208050000D02*
X377221000Y-209234000D01*
X377261000Y-204810000D02*
X377261000Y-205970000D01*
X377261000Y-208050000D02*
X377261000Y-209210000D01*
X377301000Y-204835000D02*
X377301000Y-205970000D01*
X377301000Y-208050000D02*
X377301000Y-209185000D01*
X377341000Y-204861000D02*
X377341000Y-205970000D01*
X377341000Y-208050000D02*
X377341000Y-209159000D01*
X377381000Y-204888000D02*
X377381000Y-205970000D01*
X377381000Y-208050000D02*
X377381000Y-209132000D01*
X377421000Y-204915000D02*
X377421000Y-205970000D01*
X377421000Y-208050000D02*
X377421000Y-209105000D01*
X377461000Y-204945000D02*
X377461000Y-205970000D01*
X377461000Y-208050000D02*
X377461000Y-209075000D01*
X377501000Y-204975000D02*
X377501000Y-205970000D01*
X377501000Y-208050000D02*
X377501000Y-209045000D01*
X377541000Y-205006000D02*
X377541000Y-205970000D01*
X377541000Y-208050000D02*
X377541000Y-209014000D01*
X377581000Y-205039000D02*
X377581000Y-205970000D01*
X377581000Y-208050000D02*
X377581000Y-208981000D01*
X377621000Y-205073000D02*
X377621000Y-205970000D01*
X377621000Y-208050000D02*
X377621000Y-208947000D01*
X377661000Y-205109000D02*
X377661000Y-205970000D01*
X377661000Y-208050000D02*
X377661000Y-208911000D01*
X377701000Y-205146000D02*
X377701000Y-205970000D01*
X377701000Y-208050000D02*
X377701000Y-208874000D01*
X377741000Y-205184000D02*
X377741000Y-205970000D01*
X377741000Y-208050000D02*
X377741000Y-208836000D01*
X377781000Y-205225000D02*
X377781000Y-205970000D01*
X377781000Y-208050000D02*
X377781000Y-208795000D01*
X377821000Y-205267000D02*
X377821000Y-205970000D01*
X377821000Y-208050000D02*
X377821000Y-208753000D01*
X377861000Y-205311000D02*
X377861000Y-205970000D01*
X377861000Y-208050000D02*
X377861000Y-208709000D01*
X377901000Y-205357000D02*
X377901000Y-205970000D01*
X377901000Y-208050000D02*
X377901000Y-208663000D01*
X377941000Y-205405000D02*
X377941000Y-205970000D01*
X377941000Y-208050000D02*
X377941000Y-208615000D01*
X377981000Y-205456000D02*
X377981000Y-205970000D01*
X377981000Y-208050000D02*
X377981000Y-208564000D01*
X378021000Y-205510000D02*
X378021000Y-205970000D01*
X378021000Y-208050000D02*
X378021000Y-208510000D01*
X378061000Y-205567000D02*
X378061000Y-205970000D01*
X378061000Y-208050000D02*
X378061000Y-208453000D01*
X378101000Y-205627000D02*
X378101000Y-205970000D01*
X378101000Y-208050000D02*
X378101000Y-208393000D01*
X378141000Y-205691000D02*
X378141000Y-205970000D01*
X378141000Y-208050000D02*
X378141000Y-208329000D01*
X378181000Y-205759000D02*
X378181000Y-205970000D01*
X378181000Y-208050000D02*
X378181000Y-208261000D01*
X378221000Y-205832000D02*
X378221000Y-208188000D01*
X378261000Y-205912000D02*
X378261000Y-208108000D01*
X378301000Y-205999000D02*
X378301000Y-208021000D01*
X378341000Y-206095000D02*
X378341000Y-207925000D01*
X378381000Y-206205000D02*
X378381000Y-207815000D01*
X378421000Y-206333000D02*
X378421000Y-207687000D01*
X378461000Y-206492000D02*
X378461000Y-207528000D01*
X378501000Y-206726000D02*
X378501000Y-207294000D01*
X373095225Y-205535000D02*
X373595225Y-205535000D01*
X373345225Y-205285000D02*
X373345225Y-205785000D01*
%TO.C,10k\u03A9*%
X375190000Y-211050000D02*
X375190000Y-210720000D01*
X375190000Y-210720000D02*
X381730000Y-210720000D01*
X381730000Y-210720000D02*
X381730000Y-211050000D01*
X375190000Y-213130000D02*
X375190000Y-213460000D01*
X375190000Y-213460000D02*
X381730000Y-213460000D01*
X381730000Y-213460000D02*
X381730000Y-213130000D01*
%TO.C,0.1uf*%
X428611000Y-256190000D02*
X429869000Y-256190000D01*
X428611000Y-254350000D02*
X429869000Y-254350000D01*
X441311000Y-256190000D02*
X442569000Y-256190000D01*
X441311000Y-254350000D02*
X442569000Y-254350000D01*
X454011000Y-256190000D02*
X455269000Y-256190000D01*
X454011000Y-254350000D02*
X455269000Y-254350000D01*
X466711000Y-256190000D02*
X467969000Y-256190000D01*
X466711000Y-254350000D02*
X467969000Y-254350000D01*
X479411000Y-256190000D02*
X480669000Y-256190000D01*
X479411000Y-254350000D02*
X480669000Y-254350000D01*
X492111000Y-256190000D02*
X493369000Y-256190000D01*
X492111000Y-254350000D02*
X493369000Y-254350000D01*
X504811000Y-256190000D02*
X506069000Y-256190000D01*
X504811000Y-254350000D02*
X506069000Y-254350000D01*
X507351000Y-312070000D02*
X508609000Y-312070000D01*
X507351000Y-310230000D02*
X508609000Y-310230000D01*
X501001000Y-312070000D02*
X502259000Y-312070000D01*
X501001000Y-310230000D02*
X502259000Y-310230000D01*
%TO.C,1uf*%
X510640000Y-316230000D02*
G75*
G03*
X510640000Y-316230000I-2620000J0D01*
G01*
X508020000Y-318810000D02*
X508020000Y-313650000D01*
X507980000Y-318810000D02*
X507980000Y-313650000D01*
X507940000Y-318809000D02*
X507940000Y-313651000D01*
X507900000Y-318808000D02*
X507900000Y-313652000D01*
X507860000Y-318806000D02*
X507860000Y-313654000D01*
X507820000Y-318803000D02*
X507820000Y-313657000D01*
X507780000Y-318799000D02*
X507780000Y-317270000D01*
X507780000Y-315190000D02*
X507780000Y-313661000D01*
X507740000Y-318795000D02*
X507740000Y-317270000D01*
X507740000Y-315190000D02*
X507740000Y-313665000D01*
X507700000Y-318791000D02*
X507700000Y-317270000D01*
X507700000Y-315190000D02*
X507700000Y-313669000D01*
X507660000Y-318786000D02*
X507660000Y-317270000D01*
X507660000Y-315190000D02*
X507660000Y-313674000D01*
X507620000Y-318780000D02*
X507620000Y-317270000D01*
X507620000Y-315190000D02*
X507620000Y-313680000D01*
X507580000Y-318773000D02*
X507580000Y-317270000D01*
X507580000Y-315190000D02*
X507580000Y-313687000D01*
X507540000Y-318766000D02*
X507540000Y-317270000D01*
X507540000Y-315190000D02*
X507540000Y-313694000D01*
X507500000Y-318758000D02*
X507500000Y-317270000D01*
X507500000Y-315190000D02*
X507500000Y-313702000D01*
X507460000Y-318750000D02*
X507460000Y-317270000D01*
X507460000Y-315190000D02*
X507460000Y-313710000D01*
X507420000Y-318741000D02*
X507420000Y-317270000D01*
X507420000Y-315190000D02*
X507420000Y-313719000D01*
X507380000Y-318731000D02*
X507380000Y-317270000D01*
X507380000Y-315190000D02*
X507380000Y-313729000D01*
X507340000Y-318721000D02*
X507340000Y-317270000D01*
X507340000Y-315190000D02*
X507340000Y-313739000D01*
X507299000Y-318710000D02*
X507299000Y-317270000D01*
X507299000Y-315190000D02*
X507299000Y-313750000D01*
X507259000Y-318698000D02*
X507259000Y-317270000D01*
X507259000Y-315190000D02*
X507259000Y-313762000D01*
X507219000Y-318685000D02*
X507219000Y-317270000D01*
X507219000Y-315190000D02*
X507219000Y-313775000D01*
X507179000Y-318672000D02*
X507179000Y-317270000D01*
X507179000Y-315190000D02*
X507179000Y-313788000D01*
X507139000Y-318658000D02*
X507139000Y-317270000D01*
X507139000Y-315190000D02*
X507139000Y-313802000D01*
X507099000Y-318644000D02*
X507099000Y-317270000D01*
X507099000Y-315190000D02*
X507099000Y-313816000D01*
X507059000Y-318628000D02*
X507059000Y-317270000D01*
X507059000Y-315190000D02*
X507059000Y-313832000D01*
X507019000Y-318612000D02*
X507019000Y-317270000D01*
X507019000Y-315190000D02*
X507019000Y-313848000D01*
X506979000Y-318595000D02*
X506979000Y-317270000D01*
X506979000Y-315190000D02*
X506979000Y-313865000D01*
X506939000Y-318578000D02*
X506939000Y-317270000D01*
X506939000Y-315190000D02*
X506939000Y-313882000D01*
X506899000Y-318559000D02*
X506899000Y-317270000D01*
X506899000Y-315190000D02*
X506899000Y-313901000D01*
X506859000Y-318540000D02*
X506859000Y-317270000D01*
X506859000Y-315190000D02*
X506859000Y-313920000D01*
X506819000Y-318520000D02*
X506819000Y-317270000D01*
X506819000Y-315190000D02*
X506819000Y-313940000D01*
X506779000Y-318498000D02*
X506779000Y-317270000D01*
X506779000Y-315190000D02*
X506779000Y-313962000D01*
X506739000Y-318477000D02*
X506739000Y-317270000D01*
X506739000Y-315190000D02*
X506739000Y-313983000D01*
X506699000Y-318454000D02*
X506699000Y-317270000D01*
X506699000Y-315190000D02*
X506699000Y-314006000D01*
X506659000Y-318430000D02*
X506659000Y-317270000D01*
X506659000Y-315190000D02*
X506659000Y-314030000D01*
X506619000Y-318405000D02*
X506619000Y-317270000D01*
X506619000Y-315190000D02*
X506619000Y-314055000D01*
X506579000Y-318379000D02*
X506579000Y-317270000D01*
X506579000Y-315190000D02*
X506579000Y-314081000D01*
X506539000Y-318352000D02*
X506539000Y-317270000D01*
X506539000Y-315190000D02*
X506539000Y-314108000D01*
X506499000Y-318325000D02*
X506499000Y-317270000D01*
X506499000Y-315190000D02*
X506499000Y-314135000D01*
X506459000Y-318295000D02*
X506459000Y-317270000D01*
X506459000Y-315190000D02*
X506459000Y-314165000D01*
X506419000Y-318265000D02*
X506419000Y-317270000D01*
X506419000Y-315190000D02*
X506419000Y-314195000D01*
X506379000Y-318234000D02*
X506379000Y-317270000D01*
X506379000Y-315190000D02*
X506379000Y-314226000D01*
X506339000Y-318201000D02*
X506339000Y-317270000D01*
X506339000Y-315190000D02*
X506339000Y-314259000D01*
X506299000Y-318167000D02*
X506299000Y-317270000D01*
X506299000Y-315190000D02*
X506299000Y-314293000D01*
X506259000Y-318131000D02*
X506259000Y-317270000D01*
X506259000Y-315190000D02*
X506259000Y-314329000D01*
X506219000Y-318094000D02*
X506219000Y-317270000D01*
X506219000Y-315190000D02*
X506219000Y-314366000D01*
X506179000Y-318056000D02*
X506179000Y-317270000D01*
X506179000Y-315190000D02*
X506179000Y-314404000D01*
X506139000Y-318015000D02*
X506139000Y-317270000D01*
X506139000Y-315190000D02*
X506139000Y-314445000D01*
X506099000Y-317973000D02*
X506099000Y-317270000D01*
X506099000Y-315190000D02*
X506099000Y-314487000D01*
X506059000Y-317929000D02*
X506059000Y-317270000D01*
X506059000Y-315190000D02*
X506059000Y-314531000D01*
X506019000Y-317883000D02*
X506019000Y-317270000D01*
X506019000Y-315190000D02*
X506019000Y-314577000D01*
X505979000Y-317835000D02*
X505979000Y-317270000D01*
X505979000Y-315190000D02*
X505979000Y-314625000D01*
X505939000Y-317784000D02*
X505939000Y-317270000D01*
X505939000Y-315190000D02*
X505939000Y-314676000D01*
X505899000Y-317730000D02*
X505899000Y-317270000D01*
X505899000Y-315190000D02*
X505899000Y-314730000D01*
X505859000Y-317673000D02*
X505859000Y-317270000D01*
X505859000Y-315190000D02*
X505859000Y-314787000D01*
X505819000Y-317613000D02*
X505819000Y-317270000D01*
X505819000Y-315190000D02*
X505819000Y-314847000D01*
X505779000Y-317549000D02*
X505779000Y-317270000D01*
X505779000Y-315190000D02*
X505779000Y-314911000D01*
X505739000Y-317481000D02*
X505739000Y-317270000D01*
X505739000Y-315190000D02*
X505739000Y-314979000D01*
X505699000Y-317408000D02*
X505699000Y-315052000D01*
X505659000Y-317328000D02*
X505659000Y-315132000D01*
X505619000Y-317241000D02*
X505619000Y-315219000D01*
X505579000Y-317145000D02*
X505579000Y-315315000D01*
X505539000Y-317035000D02*
X505539000Y-315425000D01*
X505499000Y-316907000D02*
X505499000Y-315553000D01*
X505459000Y-316748000D02*
X505459000Y-315712000D01*
X505419000Y-316514000D02*
X505419000Y-315946000D01*
X510824775Y-317705000D02*
X510324775Y-317705000D01*
X510574775Y-317955000D02*
X510574775Y-317455000D01*
%TO.C,10uf*%
X510600000Y-339090000D02*
G75*
G03*
X510600000Y-339090000I-2620000J0D01*
G01*
X507980000Y-336510000D02*
X507980000Y-341670000D01*
X508020000Y-336510000D02*
X508020000Y-341670000D01*
X508060000Y-336511000D02*
X508060000Y-341669000D01*
X508100000Y-336512000D02*
X508100000Y-341668000D01*
X508140000Y-336514000D02*
X508140000Y-341666000D01*
X508180000Y-336517000D02*
X508180000Y-341663000D01*
X508220000Y-336521000D02*
X508220000Y-338050000D01*
X508220000Y-340130000D02*
X508220000Y-341659000D01*
X508260000Y-336525000D02*
X508260000Y-338050000D01*
X508260000Y-340130000D02*
X508260000Y-341655000D01*
X508300000Y-336529000D02*
X508300000Y-338050000D01*
X508300000Y-340130000D02*
X508300000Y-341651000D01*
X508340000Y-336534000D02*
X508340000Y-338050000D01*
X508340000Y-340130000D02*
X508340000Y-341646000D01*
X508380000Y-336540000D02*
X508380000Y-338050000D01*
X508380000Y-340130000D02*
X508380000Y-341640000D01*
X508420000Y-336547000D02*
X508420000Y-338050000D01*
X508420000Y-340130000D02*
X508420000Y-341633000D01*
X508460000Y-336554000D02*
X508460000Y-338050000D01*
X508460000Y-340130000D02*
X508460000Y-341626000D01*
X508500000Y-336562000D02*
X508500000Y-338050000D01*
X508500000Y-340130000D02*
X508500000Y-341618000D01*
X508540000Y-336570000D02*
X508540000Y-338050000D01*
X508540000Y-340130000D02*
X508540000Y-341610000D01*
X508580000Y-336579000D02*
X508580000Y-338050000D01*
X508580000Y-340130000D02*
X508580000Y-341601000D01*
X508620000Y-336589000D02*
X508620000Y-338050000D01*
X508620000Y-340130000D02*
X508620000Y-341591000D01*
X508660000Y-336599000D02*
X508660000Y-338050000D01*
X508660000Y-340130000D02*
X508660000Y-341581000D01*
X508701000Y-336610000D02*
X508701000Y-338050000D01*
X508701000Y-340130000D02*
X508701000Y-341570000D01*
X508741000Y-336622000D02*
X508741000Y-338050000D01*
X508741000Y-340130000D02*
X508741000Y-341558000D01*
X508781000Y-336635000D02*
X508781000Y-338050000D01*
X508781000Y-340130000D02*
X508781000Y-341545000D01*
X508821000Y-336648000D02*
X508821000Y-338050000D01*
X508821000Y-340130000D02*
X508821000Y-341532000D01*
X508861000Y-336662000D02*
X508861000Y-338050000D01*
X508861000Y-340130000D02*
X508861000Y-341518000D01*
X508901000Y-336676000D02*
X508901000Y-338050000D01*
X508901000Y-340130000D02*
X508901000Y-341504000D01*
X508941000Y-336692000D02*
X508941000Y-338050000D01*
X508941000Y-340130000D02*
X508941000Y-341488000D01*
X508981000Y-336708000D02*
X508981000Y-338050000D01*
X508981000Y-340130000D02*
X508981000Y-341472000D01*
X509021000Y-336725000D02*
X509021000Y-338050000D01*
X509021000Y-340130000D02*
X509021000Y-341455000D01*
X509061000Y-336742000D02*
X509061000Y-338050000D01*
X509061000Y-340130000D02*
X509061000Y-341438000D01*
X509101000Y-336761000D02*
X509101000Y-338050000D01*
X509101000Y-340130000D02*
X509101000Y-341419000D01*
X509141000Y-336780000D02*
X509141000Y-338050000D01*
X509141000Y-340130000D02*
X509141000Y-341400000D01*
X509181000Y-336800000D02*
X509181000Y-338050000D01*
X509181000Y-340130000D02*
X509181000Y-341380000D01*
X509221000Y-336822000D02*
X509221000Y-338050000D01*
X509221000Y-340130000D02*
X509221000Y-341358000D01*
X509261000Y-336843000D02*
X509261000Y-338050000D01*
X509261000Y-340130000D02*
X509261000Y-341337000D01*
X509301000Y-336866000D02*
X509301000Y-338050000D01*
X509301000Y-340130000D02*
X509301000Y-341314000D01*
X509341000Y-336890000D02*
X509341000Y-338050000D01*
X509341000Y-340130000D02*
X509341000Y-341290000D01*
X509381000Y-336915000D02*
X509381000Y-338050000D01*
X509381000Y-340130000D02*
X509381000Y-341265000D01*
X509421000Y-336941000D02*
X509421000Y-338050000D01*
X509421000Y-340130000D02*
X509421000Y-341239000D01*
X509461000Y-336968000D02*
X509461000Y-338050000D01*
X509461000Y-340130000D02*
X509461000Y-341212000D01*
X509501000Y-336995000D02*
X509501000Y-338050000D01*
X509501000Y-340130000D02*
X509501000Y-341185000D01*
X509541000Y-337025000D02*
X509541000Y-338050000D01*
X509541000Y-340130000D02*
X509541000Y-341155000D01*
X509581000Y-337055000D02*
X509581000Y-338050000D01*
X509581000Y-340130000D02*
X509581000Y-341125000D01*
X509621000Y-337086000D02*
X509621000Y-338050000D01*
X509621000Y-340130000D02*
X509621000Y-341094000D01*
X509661000Y-337119000D02*
X509661000Y-338050000D01*
X509661000Y-340130000D02*
X509661000Y-341061000D01*
X509701000Y-337153000D02*
X509701000Y-338050000D01*
X509701000Y-340130000D02*
X509701000Y-341027000D01*
X509741000Y-337189000D02*
X509741000Y-338050000D01*
X509741000Y-340130000D02*
X509741000Y-340991000D01*
X509781000Y-337226000D02*
X509781000Y-338050000D01*
X509781000Y-340130000D02*
X509781000Y-340954000D01*
X509821000Y-337264000D02*
X509821000Y-338050000D01*
X509821000Y-340130000D02*
X509821000Y-340916000D01*
X509861000Y-337305000D02*
X509861000Y-338050000D01*
X509861000Y-340130000D02*
X509861000Y-340875000D01*
X509901000Y-337347000D02*
X509901000Y-338050000D01*
X509901000Y-340130000D02*
X509901000Y-340833000D01*
X509941000Y-337391000D02*
X509941000Y-338050000D01*
X509941000Y-340130000D02*
X509941000Y-340789000D01*
X509981000Y-337437000D02*
X509981000Y-338050000D01*
X509981000Y-340130000D02*
X509981000Y-340743000D01*
X510021000Y-337485000D02*
X510021000Y-338050000D01*
X510021000Y-340130000D02*
X510021000Y-340695000D01*
X510061000Y-337536000D02*
X510061000Y-338050000D01*
X510061000Y-340130000D02*
X510061000Y-340644000D01*
X510101000Y-337590000D02*
X510101000Y-338050000D01*
X510101000Y-340130000D02*
X510101000Y-340590000D01*
X510141000Y-337647000D02*
X510141000Y-338050000D01*
X510141000Y-340130000D02*
X510141000Y-340533000D01*
X510181000Y-337707000D02*
X510181000Y-338050000D01*
X510181000Y-340130000D02*
X510181000Y-340473000D01*
X510221000Y-337771000D02*
X510221000Y-338050000D01*
X510221000Y-340130000D02*
X510221000Y-340409000D01*
X510261000Y-337839000D02*
X510261000Y-338050000D01*
X510261000Y-340130000D02*
X510261000Y-340341000D01*
X510301000Y-337912000D02*
X510301000Y-340268000D01*
X510341000Y-337992000D02*
X510341000Y-340188000D01*
X510381000Y-338079000D02*
X510381000Y-340101000D01*
X510421000Y-338175000D02*
X510421000Y-340005000D01*
X510461000Y-338285000D02*
X510461000Y-339895000D01*
X510501000Y-338413000D02*
X510501000Y-339767000D01*
X510541000Y-338572000D02*
X510541000Y-339608000D01*
X510581000Y-338806000D02*
X510581000Y-339374000D01*
X505175225Y-337615000D02*
X505675225Y-337615000D01*
X505425225Y-337365000D02*
X505425225Y-337865000D01*
%TO.C,1uf*%
X499075225Y-314505000D02*
X499075225Y-315005000D01*
X498825225Y-314755000D02*
X499325225Y-314755000D01*
X504231000Y-315946000D02*
X504231000Y-316514000D01*
X504191000Y-315712000D02*
X504191000Y-316748000D01*
X504151000Y-315553000D02*
X504151000Y-316907000D01*
X504111000Y-315425000D02*
X504111000Y-317035000D01*
X504071000Y-315315000D02*
X504071000Y-317145000D01*
X504031000Y-315219000D02*
X504031000Y-317241000D01*
X503991000Y-315132000D02*
X503991000Y-317328000D01*
X503951000Y-315052000D02*
X503951000Y-317408000D01*
X503911000Y-317270000D02*
X503911000Y-317481000D01*
X503911000Y-314979000D02*
X503911000Y-315190000D01*
X503871000Y-317270000D02*
X503871000Y-317549000D01*
X503871000Y-314911000D02*
X503871000Y-315190000D01*
X503831000Y-317270000D02*
X503831000Y-317613000D01*
X503831000Y-314847000D02*
X503831000Y-315190000D01*
X503791000Y-317270000D02*
X503791000Y-317673000D01*
X503791000Y-314787000D02*
X503791000Y-315190000D01*
X503751000Y-317270000D02*
X503751000Y-317730000D01*
X503751000Y-314730000D02*
X503751000Y-315190000D01*
X503711000Y-317270000D02*
X503711000Y-317784000D01*
X503711000Y-314676000D02*
X503711000Y-315190000D01*
X503671000Y-317270000D02*
X503671000Y-317835000D01*
X503671000Y-314625000D02*
X503671000Y-315190000D01*
X503631000Y-317270000D02*
X503631000Y-317883000D01*
X503631000Y-314577000D02*
X503631000Y-315190000D01*
X503591000Y-317270000D02*
X503591000Y-317929000D01*
X503591000Y-314531000D02*
X503591000Y-315190000D01*
X503551000Y-317270000D02*
X503551000Y-317973000D01*
X503551000Y-314487000D02*
X503551000Y-315190000D01*
X503511000Y-317270000D02*
X503511000Y-318015000D01*
X503511000Y-314445000D02*
X503511000Y-315190000D01*
X503471000Y-317270000D02*
X503471000Y-318056000D01*
X503471000Y-314404000D02*
X503471000Y-315190000D01*
X503431000Y-317270000D02*
X503431000Y-318094000D01*
X503431000Y-314366000D02*
X503431000Y-315190000D01*
X503391000Y-317270000D02*
X503391000Y-318131000D01*
X503391000Y-314329000D02*
X503391000Y-315190000D01*
X503351000Y-317270000D02*
X503351000Y-318167000D01*
X503351000Y-314293000D02*
X503351000Y-315190000D01*
X503311000Y-317270000D02*
X503311000Y-318201000D01*
X503311000Y-314259000D02*
X503311000Y-315190000D01*
X503271000Y-317270000D02*
X503271000Y-318234000D01*
X503271000Y-314226000D02*
X503271000Y-315190000D01*
X503231000Y-317270000D02*
X503231000Y-318265000D01*
X503231000Y-314195000D02*
X503231000Y-315190000D01*
X503191000Y-317270000D02*
X503191000Y-318295000D01*
X503191000Y-314165000D02*
X503191000Y-315190000D01*
X503151000Y-317270000D02*
X503151000Y-318325000D01*
X503151000Y-314135000D02*
X503151000Y-315190000D01*
X503111000Y-317270000D02*
X503111000Y-318352000D01*
X503111000Y-314108000D02*
X503111000Y-315190000D01*
X503071000Y-317270000D02*
X503071000Y-318379000D01*
X503071000Y-314081000D02*
X503071000Y-315190000D01*
X503031000Y-317270000D02*
X503031000Y-318405000D01*
X503031000Y-314055000D02*
X503031000Y-315190000D01*
X502991000Y-317270000D02*
X502991000Y-318430000D01*
X502991000Y-314030000D02*
X502991000Y-315190000D01*
X502951000Y-317270000D02*
X502951000Y-318454000D01*
X502951000Y-314006000D02*
X502951000Y-315190000D01*
X502911000Y-317270000D02*
X502911000Y-318477000D01*
X502911000Y-313983000D02*
X502911000Y-315190000D01*
X502871000Y-317270000D02*
X502871000Y-318498000D01*
X502871000Y-313962000D02*
X502871000Y-315190000D01*
X502831000Y-317270000D02*
X502831000Y-318520000D01*
X502831000Y-313940000D02*
X502831000Y-315190000D01*
X502791000Y-317270000D02*
X502791000Y-318540000D01*
X502791000Y-313920000D02*
X502791000Y-315190000D01*
X502751000Y-317270000D02*
X502751000Y-318559000D01*
X502751000Y-313901000D02*
X502751000Y-315190000D01*
X502711000Y-317270000D02*
X502711000Y-318578000D01*
X502711000Y-313882000D02*
X502711000Y-315190000D01*
X502671000Y-317270000D02*
X502671000Y-318595000D01*
X502671000Y-313865000D02*
X502671000Y-315190000D01*
X502631000Y-317270000D02*
X502631000Y-318612000D01*
X502631000Y-313848000D02*
X502631000Y-315190000D01*
X502591000Y-317270000D02*
X502591000Y-318628000D01*
X502591000Y-313832000D02*
X502591000Y-315190000D01*
X502551000Y-317270000D02*
X502551000Y-318644000D01*
X502551000Y-313816000D02*
X502551000Y-315190000D01*
X502511000Y-317270000D02*
X502511000Y-318658000D01*
X502511000Y-313802000D02*
X502511000Y-315190000D01*
X502471000Y-317270000D02*
X502471000Y-318672000D01*
X502471000Y-313788000D02*
X502471000Y-315190000D01*
X502431000Y-317270000D02*
X502431000Y-318685000D01*
X502431000Y-313775000D02*
X502431000Y-315190000D01*
X502391000Y-317270000D02*
X502391000Y-318698000D01*
X502391000Y-313762000D02*
X502391000Y-315190000D01*
X502351000Y-317270000D02*
X502351000Y-318710000D01*
X502351000Y-313750000D02*
X502351000Y-315190000D01*
X502310000Y-317270000D02*
X502310000Y-318721000D01*
X502310000Y-313739000D02*
X502310000Y-315190000D01*
X502270000Y-317270000D02*
X502270000Y-318731000D01*
X502270000Y-313729000D02*
X502270000Y-315190000D01*
X502230000Y-317270000D02*
X502230000Y-318741000D01*
X502230000Y-313719000D02*
X502230000Y-315190000D01*
X502190000Y-317270000D02*
X502190000Y-318750000D01*
X502190000Y-313710000D02*
X502190000Y-315190000D01*
X502150000Y-317270000D02*
X502150000Y-318758000D01*
X502150000Y-313702000D02*
X502150000Y-315190000D01*
X502110000Y-317270000D02*
X502110000Y-318766000D01*
X502110000Y-313694000D02*
X502110000Y-315190000D01*
X502070000Y-317270000D02*
X502070000Y-318773000D01*
X502070000Y-313687000D02*
X502070000Y-315190000D01*
X502030000Y-317270000D02*
X502030000Y-318780000D01*
X502030000Y-313680000D02*
X502030000Y-315190000D01*
X501990000Y-317270000D02*
X501990000Y-318786000D01*
X501990000Y-313674000D02*
X501990000Y-315190000D01*
X501950000Y-317270000D02*
X501950000Y-318791000D01*
X501950000Y-313669000D02*
X501950000Y-315190000D01*
X501910000Y-317270000D02*
X501910000Y-318795000D01*
X501910000Y-313665000D02*
X501910000Y-315190000D01*
X501870000Y-317270000D02*
X501870000Y-318799000D01*
X501870000Y-313661000D02*
X501870000Y-315190000D01*
X501830000Y-313657000D02*
X501830000Y-318803000D01*
X501790000Y-313654000D02*
X501790000Y-318806000D01*
X501750000Y-313652000D02*
X501750000Y-318808000D01*
X501710000Y-313651000D02*
X501710000Y-318809000D01*
X501670000Y-313650000D02*
X501670000Y-318810000D01*
X501630000Y-313650000D02*
X501630000Y-318810000D01*
X504250000Y-316230000D02*
G75*
G03*
X504250000Y-316230000I-2620000J0D01*
G01*
%TO.C,10uf*%
X510640000Y-332740000D02*
G75*
G03*
X510640000Y-332740000I-2620000J0D01*
G01*
X508020000Y-330160000D02*
X508020000Y-335320000D01*
X508060000Y-330160000D02*
X508060000Y-335320000D01*
X508100000Y-330161000D02*
X508100000Y-335319000D01*
X508140000Y-330162000D02*
X508140000Y-335318000D01*
X508180000Y-330164000D02*
X508180000Y-335316000D01*
X508220000Y-330167000D02*
X508220000Y-335313000D01*
X508260000Y-330171000D02*
X508260000Y-331700000D01*
X508260000Y-333780000D02*
X508260000Y-335309000D01*
X508300000Y-330175000D02*
X508300000Y-331700000D01*
X508300000Y-333780000D02*
X508300000Y-335305000D01*
X508340000Y-330179000D02*
X508340000Y-331700000D01*
X508340000Y-333780000D02*
X508340000Y-335301000D01*
X508380000Y-330184000D02*
X508380000Y-331700000D01*
X508380000Y-333780000D02*
X508380000Y-335296000D01*
X508420000Y-330190000D02*
X508420000Y-331700000D01*
X508420000Y-333780000D02*
X508420000Y-335290000D01*
X508460000Y-330197000D02*
X508460000Y-331700000D01*
X508460000Y-333780000D02*
X508460000Y-335283000D01*
X508500000Y-330204000D02*
X508500000Y-331700000D01*
X508500000Y-333780000D02*
X508500000Y-335276000D01*
X508540000Y-330212000D02*
X508540000Y-331700000D01*
X508540000Y-333780000D02*
X508540000Y-335268000D01*
X508580000Y-330220000D02*
X508580000Y-331700000D01*
X508580000Y-333780000D02*
X508580000Y-335260000D01*
X508620000Y-330229000D02*
X508620000Y-331700000D01*
X508620000Y-333780000D02*
X508620000Y-335251000D01*
X508660000Y-330239000D02*
X508660000Y-331700000D01*
X508660000Y-333780000D02*
X508660000Y-335241000D01*
X508700000Y-330249000D02*
X508700000Y-331700000D01*
X508700000Y-333780000D02*
X508700000Y-335231000D01*
X508741000Y-330260000D02*
X508741000Y-331700000D01*
X508741000Y-333780000D02*
X508741000Y-335220000D01*
X508781000Y-330272000D02*
X508781000Y-331700000D01*
X508781000Y-333780000D02*
X508781000Y-335208000D01*
X508821000Y-330285000D02*
X508821000Y-331700000D01*
X508821000Y-333780000D02*
X508821000Y-335195000D01*
X508861000Y-330298000D02*
X508861000Y-331700000D01*
X508861000Y-333780000D02*
X508861000Y-335182000D01*
X508901000Y-330312000D02*
X508901000Y-331700000D01*
X508901000Y-333780000D02*
X508901000Y-335168000D01*
X508941000Y-330326000D02*
X508941000Y-331700000D01*
X508941000Y-333780000D02*
X508941000Y-335154000D01*
X508981000Y-330342000D02*
X508981000Y-331700000D01*
X508981000Y-333780000D02*
X508981000Y-335138000D01*
X509021000Y-330358000D02*
X509021000Y-331700000D01*
X509021000Y-333780000D02*
X509021000Y-335122000D01*
X509061000Y-330375000D02*
X509061000Y-331700000D01*
X509061000Y-333780000D02*
X509061000Y-335105000D01*
X509101000Y-330392000D02*
X509101000Y-331700000D01*
X509101000Y-333780000D02*
X509101000Y-335088000D01*
X509141000Y-330411000D02*
X509141000Y-331700000D01*
X509141000Y-333780000D02*
X509141000Y-335069000D01*
X509181000Y-330430000D02*
X509181000Y-331700000D01*
X509181000Y-333780000D02*
X509181000Y-335050000D01*
X509221000Y-330450000D02*
X509221000Y-331700000D01*
X509221000Y-333780000D02*
X509221000Y-335030000D01*
X509261000Y-330472000D02*
X509261000Y-331700000D01*
X509261000Y-333780000D02*
X509261000Y-335008000D01*
X509301000Y-330493000D02*
X509301000Y-331700000D01*
X509301000Y-333780000D02*
X509301000Y-334987000D01*
X509341000Y-330516000D02*
X509341000Y-331700000D01*
X509341000Y-333780000D02*
X509341000Y-334964000D01*
X509381000Y-330540000D02*
X509381000Y-331700000D01*
X509381000Y-333780000D02*
X509381000Y-334940000D01*
X509421000Y-330565000D02*
X509421000Y-331700000D01*
X509421000Y-333780000D02*
X509421000Y-334915000D01*
X509461000Y-330591000D02*
X509461000Y-331700000D01*
X509461000Y-333780000D02*
X509461000Y-334889000D01*
X509501000Y-330618000D02*
X509501000Y-331700000D01*
X509501000Y-333780000D02*
X509501000Y-334862000D01*
X509541000Y-330645000D02*
X509541000Y-331700000D01*
X509541000Y-333780000D02*
X509541000Y-334835000D01*
X509581000Y-330675000D02*
X509581000Y-331700000D01*
X509581000Y-333780000D02*
X509581000Y-334805000D01*
X509621000Y-330705000D02*
X509621000Y-331700000D01*
X509621000Y-333780000D02*
X509621000Y-334775000D01*
X509661000Y-330736000D02*
X509661000Y-331700000D01*
X509661000Y-333780000D02*
X509661000Y-334744000D01*
X509701000Y-330769000D02*
X509701000Y-331700000D01*
X509701000Y-333780000D02*
X509701000Y-334711000D01*
X509741000Y-330803000D02*
X509741000Y-331700000D01*
X509741000Y-333780000D02*
X509741000Y-334677000D01*
X509781000Y-330839000D02*
X509781000Y-331700000D01*
X509781000Y-333780000D02*
X509781000Y-334641000D01*
X509821000Y-330876000D02*
X509821000Y-331700000D01*
X509821000Y-333780000D02*
X509821000Y-334604000D01*
X509861000Y-330914000D02*
X509861000Y-331700000D01*
X509861000Y-333780000D02*
X509861000Y-334566000D01*
X509901000Y-330955000D02*
X509901000Y-331700000D01*
X509901000Y-333780000D02*
X509901000Y-334525000D01*
X509941000Y-330997000D02*
X509941000Y-331700000D01*
X509941000Y-333780000D02*
X509941000Y-334483000D01*
X509981000Y-331041000D02*
X509981000Y-331700000D01*
X509981000Y-333780000D02*
X509981000Y-334439000D01*
X510021000Y-331087000D02*
X510021000Y-331700000D01*
X510021000Y-333780000D02*
X510021000Y-334393000D01*
X510061000Y-331135000D02*
X510061000Y-331700000D01*
X510061000Y-333780000D02*
X510061000Y-334345000D01*
X510101000Y-331186000D02*
X510101000Y-331700000D01*
X510101000Y-333780000D02*
X510101000Y-334294000D01*
X510141000Y-331240000D02*
X510141000Y-331700000D01*
X510141000Y-333780000D02*
X510141000Y-334240000D01*
X510181000Y-331297000D02*
X510181000Y-331700000D01*
X510181000Y-333780000D02*
X510181000Y-334183000D01*
X510221000Y-331357000D02*
X510221000Y-331700000D01*
X510221000Y-333780000D02*
X510221000Y-334123000D01*
X510261000Y-331421000D02*
X510261000Y-331700000D01*
X510261000Y-333780000D02*
X510261000Y-334059000D01*
X510301000Y-331489000D02*
X510301000Y-331700000D01*
X510301000Y-333780000D02*
X510301000Y-333991000D01*
X510341000Y-331562000D02*
X510341000Y-333918000D01*
X510381000Y-331642000D02*
X510381000Y-333838000D01*
X510421000Y-331729000D02*
X510421000Y-333751000D01*
X510461000Y-331825000D02*
X510461000Y-333655000D01*
X510501000Y-331935000D02*
X510501000Y-333545000D01*
X510541000Y-332063000D02*
X510541000Y-333417000D01*
X510581000Y-332222000D02*
X510581000Y-333258000D01*
X510621000Y-332456000D02*
X510621000Y-333024000D01*
X505215225Y-331265000D02*
X505715225Y-331265000D01*
X505465225Y-331015000D02*
X505465225Y-331515000D01*
%TO.C,ISP*%
X375860000Y-195520000D02*
X377190000Y-195520000D01*
X375860000Y-196850000D02*
X375860000Y-195520000D01*
X378460000Y-195520000D02*
X381060000Y-195520000D01*
X378460000Y-198120000D02*
X378460000Y-195520000D01*
X375860000Y-198120000D02*
X378460000Y-198120000D01*
X381060000Y-195520000D02*
X381060000Y-203260000D01*
X375860000Y-198120000D02*
X375860000Y-203260000D01*
X375860000Y-203260000D02*
X381060000Y-203260000D01*
%TO.C,74138*%
X403495000Y-256480000D02*
X401845000Y-256480000D01*
X401845000Y-256480000D02*
X401845000Y-276920000D01*
X401845000Y-276920000D02*
X407145000Y-276920000D01*
X407145000Y-276920000D02*
X407145000Y-256480000D01*
X407145000Y-256480000D02*
X405495000Y-256480000D01*
X405495000Y-256480000D02*
G75*
G02*
X403495000Y-256480000I-1000000J0D01*
G01*
%TO.C,Reset*%
X360895000Y-196580000D02*
X360895000Y-201080000D01*
X364895000Y-195330000D02*
X363395000Y-195330000D01*
X367395000Y-201080000D02*
X367395000Y-196580000D01*
X363395000Y-202330000D02*
X364895000Y-202330000D01*
%TO.C,Osc*%
X374610000Y-233665000D02*
X380860000Y-233665000D01*
X374610000Y-228615000D02*
X380860000Y-228615000D01*
X380860000Y-233665000D02*
G75*
G03*
X380860000Y-228615000I0J2525000D01*
G01*
X374610000Y-233665000D02*
G75*
G02*
X374610000Y-228615000I0J2525000D01*
G01*
%TO.C,20pf*%
X374664000Y-225140000D02*
X373406000Y-225140000D01*
X374664000Y-226980000D02*
X373406000Y-226980000D01*
%TO.C,0.1uf*%
X517511000Y-256190000D02*
X518769000Y-256190000D01*
X517511000Y-254350000D02*
X518769000Y-254350000D01*
%TO.C,12V DC*%
X501075000Y-343705000D02*
X500025000Y-343705000D01*
X500025000Y-344755000D02*
X500025000Y-343705000D01*
X509425000Y-349805000D02*
X509425000Y-358605000D01*
X509425000Y-358605000D02*
X500225000Y-358605000D01*
X506725000Y-343905000D02*
X509425000Y-343905000D01*
X509425000Y-343905000D02*
X509425000Y-345805000D01*
X500225000Y-358605000D02*
X500225000Y-343905000D01*
X500225000Y-343905000D02*
X502825000Y-343905000D01*
%TO.C,7805*%
X494404000Y-328930000D02*
X496944000Y-328930000D01*
X494404000Y-331470000D02*
X496944000Y-331470000D01*
X494404000Y-334010000D02*
X496944000Y-334010000D01*
X478514000Y-326350000D02*
X494404000Y-326350000D01*
X478514000Y-336590000D02*
X494404000Y-336590000D01*
X478514000Y-336590000D02*
X478514000Y-326350000D01*
X494404000Y-336590000D02*
X494404000Y-326350000D01*
X512706000Y-327660000D02*
X510166000Y-327660000D01*
X512706000Y-325120000D02*
X510166000Y-325120000D01*
X512706000Y-322580000D02*
X510166000Y-322580000D01*
X528596000Y-330240000D02*
X512706000Y-330240000D01*
X528596000Y-320000000D02*
X512706000Y-320000000D01*
X528596000Y-320000000D02*
X528596000Y-330240000D01*
X512706000Y-320000000D02*
X512706000Y-330240000D01*
%TO.C,RAM2*%
X454720000Y-256420000D02*
X444440000Y-256420000D01*
X454720000Y-292220000D02*
X454720000Y-256420000D01*
X444440000Y-292220000D02*
X454720000Y-292220000D01*
X444440000Y-256420000D02*
X444440000Y-292220000D01*
X452230000Y-256480000D02*
X450580000Y-256480000D01*
X452230000Y-292160000D02*
X452230000Y-256480000D01*
X446930000Y-292160000D02*
X452230000Y-292160000D01*
X446930000Y-256480000D02*
X446930000Y-292160000D01*
X448580000Y-256480000D02*
X446930000Y-256480000D01*
X450580000Y-256480000D02*
G75*
G02*
X448580000Y-256480000I-1000000J0D01*
G01*
%TO.C,RAM1*%
X442020000Y-256420000D02*
X431740000Y-256420000D01*
X442020000Y-292220000D02*
X442020000Y-256420000D01*
X431740000Y-292220000D02*
X442020000Y-292220000D01*
X431740000Y-256420000D02*
X431740000Y-292220000D01*
X439530000Y-256480000D02*
X437880000Y-256480000D01*
X439530000Y-292160000D02*
X439530000Y-256480000D01*
X434230000Y-292160000D02*
X439530000Y-292160000D01*
X434230000Y-256480000D02*
X434230000Y-292160000D01*
X435880000Y-256480000D02*
X434230000Y-256480000D01*
X437880000Y-256480000D02*
G75*
G02*
X435880000Y-256480000I-1000000J0D01*
G01*
%TO.C,RAM0*%
X429320000Y-256420000D02*
X419040000Y-256420000D01*
X429320000Y-292220000D02*
X429320000Y-256420000D01*
X419040000Y-292220000D02*
X429320000Y-292220000D01*
X419040000Y-256420000D02*
X419040000Y-292220000D01*
X426830000Y-256480000D02*
X425180000Y-256480000D01*
X426830000Y-292160000D02*
X426830000Y-256480000D01*
X421530000Y-292160000D02*
X426830000Y-292160000D01*
X421530000Y-256480000D02*
X421530000Y-292160000D01*
X423180000Y-256480000D02*
X421530000Y-256480000D01*
X425180000Y-256480000D02*
G75*
G02*
X423180000Y-256480000I-1000000J0D01*
G01*
%TO.C,RAM7*%
X518220000Y-256420000D02*
X507940000Y-256420000D01*
X518220000Y-292220000D02*
X518220000Y-256420000D01*
X507940000Y-292220000D02*
X518220000Y-292220000D01*
X507940000Y-256420000D02*
X507940000Y-292220000D01*
X515730000Y-256480000D02*
X514080000Y-256480000D01*
X515730000Y-292160000D02*
X515730000Y-256480000D01*
X510430000Y-292160000D02*
X515730000Y-292160000D01*
X510430000Y-256480000D02*
X510430000Y-292160000D01*
X512080000Y-256480000D02*
X510430000Y-256480000D01*
X514080000Y-256480000D02*
G75*
G02*
X512080000Y-256480000I-1000000J0D01*
G01*
%TO.C,RAM6*%
X505520000Y-256420000D02*
X495240000Y-256420000D01*
X505520000Y-292220000D02*
X505520000Y-256420000D01*
X495240000Y-292220000D02*
X505520000Y-292220000D01*
X495240000Y-256420000D02*
X495240000Y-292220000D01*
X503030000Y-256480000D02*
X501380000Y-256480000D01*
X503030000Y-292160000D02*
X503030000Y-256480000D01*
X497730000Y-292160000D02*
X503030000Y-292160000D01*
X497730000Y-256480000D02*
X497730000Y-292160000D01*
X499380000Y-256480000D02*
X497730000Y-256480000D01*
X501380000Y-256480000D02*
G75*
G02*
X499380000Y-256480000I-1000000J0D01*
G01*
%TO.C,RAM5*%
X492820000Y-256420000D02*
X482540000Y-256420000D01*
X492820000Y-292220000D02*
X492820000Y-256420000D01*
X482540000Y-292220000D02*
X492820000Y-292220000D01*
X482540000Y-256420000D02*
X482540000Y-292220000D01*
X490330000Y-256480000D02*
X488680000Y-256480000D01*
X490330000Y-292160000D02*
X490330000Y-256480000D01*
X485030000Y-292160000D02*
X490330000Y-292160000D01*
X485030000Y-256480000D02*
X485030000Y-292160000D01*
X486680000Y-256480000D02*
X485030000Y-256480000D01*
X488680000Y-256480000D02*
G75*
G02*
X486680000Y-256480000I-1000000J0D01*
G01*
%TO.C,RAM4*%
X480120000Y-256420000D02*
X469840000Y-256420000D01*
X480120000Y-292220000D02*
X480120000Y-256420000D01*
X469840000Y-292220000D02*
X480120000Y-292220000D01*
X469840000Y-256420000D02*
X469840000Y-292220000D01*
X477630000Y-256480000D02*
X475980000Y-256480000D01*
X477630000Y-292160000D02*
X477630000Y-256480000D01*
X472330000Y-292160000D02*
X477630000Y-292160000D01*
X472330000Y-256480000D02*
X472330000Y-292160000D01*
X473980000Y-256480000D02*
X472330000Y-256480000D01*
X475980000Y-256480000D02*
G75*
G02*
X473980000Y-256480000I-1000000J0D01*
G01*
%TO.C,RAM3*%
X467420000Y-256420000D02*
X457140000Y-256420000D01*
X467420000Y-292220000D02*
X467420000Y-256420000D01*
X457140000Y-292220000D02*
X467420000Y-292220000D01*
X457140000Y-256420000D02*
X457140000Y-292220000D01*
X464930000Y-256480000D02*
X463280000Y-256480000D01*
X464930000Y-292160000D02*
X464930000Y-256480000D01*
X459630000Y-292160000D02*
X464930000Y-292160000D01*
X459630000Y-256480000D02*
X459630000Y-292160000D01*
X461280000Y-256480000D02*
X459630000Y-256480000D01*
X463280000Y-256480000D02*
G75*
G02*
X461280000Y-256480000I-1000000J0D01*
G01*
%TO.C,74573*%
X409845000Y-189170000D02*
X408195000Y-189170000D01*
X408195000Y-189170000D02*
X408195000Y-214690000D01*
X408195000Y-214690000D02*
X413495000Y-214690000D01*
X413495000Y-214690000D02*
X413495000Y-189170000D01*
X413495000Y-189170000D02*
X411845000Y-189170000D01*
X411845000Y-189170000D02*
G75*
G02*
X409845000Y-189170000I-1000000J0D01*
G01*
%TO.C,Slot 1*%
X445135000Y-189170000D02*
X446465000Y-189170000D01*
X446465000Y-189170000D02*
X446465000Y-190500000D01*
X443865000Y-189170000D02*
X443865000Y-191770000D01*
X443865000Y-191770000D02*
X446465000Y-191770000D01*
X446465000Y-191770000D02*
X446465000Y-240090000D01*
X441265000Y-240090000D02*
X446465000Y-240090000D01*
X441265000Y-189170000D02*
X441265000Y-240090000D01*
X441265000Y-189170000D02*
X443865000Y-189170000D01*
%TO.C,Slot 2*%
X462915000Y-189170000D02*
X464245000Y-189170000D01*
X464245000Y-189170000D02*
X464245000Y-190500000D01*
X461645000Y-189170000D02*
X461645000Y-191770000D01*
X461645000Y-191770000D02*
X464245000Y-191770000D01*
X464245000Y-191770000D02*
X464245000Y-240090000D01*
X459045000Y-240090000D02*
X464245000Y-240090000D01*
X459045000Y-189170000D02*
X459045000Y-240090000D01*
X459045000Y-189170000D02*
X461645000Y-189170000D01*
%TO.C,Slot 3*%
X480695000Y-189170000D02*
X482025000Y-189170000D01*
X482025000Y-189170000D02*
X482025000Y-190500000D01*
X479425000Y-189170000D02*
X479425000Y-191770000D01*
X479425000Y-191770000D02*
X482025000Y-191770000D01*
X482025000Y-191770000D02*
X482025000Y-240090000D01*
X476825000Y-240090000D02*
X482025000Y-240090000D01*
X476825000Y-189170000D02*
X476825000Y-240090000D01*
X476825000Y-189170000D02*
X479425000Y-189170000D01*
%TO.C,Slot 4*%
X498475000Y-189170000D02*
X499805000Y-189170000D01*
X499805000Y-189170000D02*
X499805000Y-190500000D01*
X497205000Y-189170000D02*
X497205000Y-191770000D01*
X497205000Y-191770000D02*
X499805000Y-191770000D01*
X499805000Y-191770000D02*
X499805000Y-240090000D01*
X494605000Y-240090000D02*
X499805000Y-240090000D01*
X494605000Y-189170000D02*
X494605000Y-240090000D01*
X494605000Y-189170000D02*
X497205000Y-189170000D01*
%TO.C,Slot 5*%
X516255000Y-189170000D02*
X517585000Y-189170000D01*
X517585000Y-189170000D02*
X517585000Y-190500000D01*
X514985000Y-189170000D02*
X514985000Y-191770000D01*
X514985000Y-191770000D02*
X517585000Y-191770000D01*
X517585000Y-191770000D02*
X517585000Y-240090000D01*
X512385000Y-240090000D02*
X517585000Y-240090000D01*
X512385000Y-189170000D02*
X512385000Y-240090000D01*
X512385000Y-189170000D02*
X514985000Y-189170000D01*
%TO.C,74573*%
X409845000Y-217110000D02*
X408195000Y-217110000D01*
X408195000Y-217110000D02*
X408195000Y-242630000D01*
X408195000Y-242630000D02*
X413495000Y-242630000D01*
X413495000Y-242630000D02*
X413495000Y-217110000D01*
X413495000Y-217110000D02*
X411845000Y-217110000D01*
X411845000Y-217110000D02*
G75*
G02*
X409845000Y-217110000I-1000000J0D01*
G01*
%TO.C,74245*%
X421910000Y-189170000D02*
X420260000Y-189170000D01*
X420260000Y-189170000D02*
X420260000Y-214690000D01*
X420260000Y-214690000D02*
X425560000Y-214690000D01*
X425560000Y-214690000D02*
X425560000Y-189170000D01*
X425560000Y-189170000D02*
X423910000Y-189170000D01*
X423910000Y-189170000D02*
G75*
G02*
X421910000Y-189170000I-1000000J0D01*
G01*
%TO.C,ATmega644*%
X403920000Y-191650000D02*
X386020000Y-191650000D01*
X403920000Y-242690000D02*
X403920000Y-191650000D01*
X386020000Y-242690000D02*
X403920000Y-242690000D01*
X386020000Y-191650000D02*
X386020000Y-242690000D01*
X401430000Y-191710000D02*
X395970000Y-191710000D01*
X401430000Y-242630000D02*
X401430000Y-191710000D01*
X388510000Y-242630000D02*
X401430000Y-242630000D01*
X388510000Y-191710000D02*
X388510000Y-242630000D01*
X393970000Y-191710000D02*
X388510000Y-191710000D01*
X395970000Y-191710000D02*
G75*
G02*
X393970000Y-191710000I-1000000J0D01*
G01*
%TO.C,4.7k\u03A9*%
D11*
X474130714Y-318365000D02*
X474797380Y-318365000D01*
X473749761Y-318603095D02*
X474464047Y-318841190D01*
X474464047Y-318222142D01*
X474702142Y-317841190D02*
X474749761Y-317793571D01*
X474797380Y-317841190D01*
X474749761Y-317888809D01*
X474702142Y-317841190D01*
X474797380Y-317841190D01*
X473797380Y-317460238D02*
X473797380Y-316793571D01*
X474797380Y-317222142D01*
X474797380Y-316412619D02*
X473797380Y-316412619D01*
X474416428Y-316317380D02*
X474797380Y-316031666D01*
X474130714Y-316031666D02*
X474511666Y-316412619D01*
X474797380Y-315650714D02*
X474797380Y-315412619D01*
X474606904Y-315412619D01*
X474559285Y-315507857D01*
X474464047Y-315603095D01*
X474321190Y-315650714D01*
X474083095Y-315650714D01*
X473940238Y-315603095D01*
X473845000Y-315507857D01*
X473797380Y-315365000D01*
X473797380Y-315174523D01*
X473845000Y-315031666D01*
X473940238Y-314936428D01*
X474083095Y-314888809D01*
X474321190Y-314888809D01*
X474464047Y-314936428D01*
X474559285Y-315031666D01*
X474606904Y-315126904D01*
X474797380Y-315126904D01*
X474797380Y-314888809D01*
%TO.C,Power*%
X471733809Y-356687380D02*
X471733809Y-355687380D01*
X472114761Y-355687380D01*
X472210000Y-355735000D01*
X472257619Y-355782619D01*
X472305238Y-355877857D01*
X472305238Y-356020714D01*
X472257619Y-356115952D01*
X472210000Y-356163571D01*
X472114761Y-356211190D01*
X471733809Y-356211190D01*
X472876666Y-356687380D02*
X472781428Y-356639761D01*
X472733809Y-356592142D01*
X472686190Y-356496904D01*
X472686190Y-356211190D01*
X472733809Y-356115952D01*
X472781428Y-356068333D01*
X472876666Y-356020714D01*
X473019523Y-356020714D01*
X473114761Y-356068333D01*
X473162380Y-356115952D01*
X473210000Y-356211190D01*
X473210000Y-356496904D01*
X473162380Y-356592142D01*
X473114761Y-356639761D01*
X473019523Y-356687380D01*
X472876666Y-356687380D01*
X473543333Y-356020714D02*
X473733809Y-356687380D01*
X473924285Y-356211190D01*
X474114761Y-356687380D01*
X474305238Y-356020714D01*
X475067142Y-356639761D02*
X474971904Y-356687380D01*
X474781428Y-356687380D01*
X474686190Y-356639761D01*
X474638571Y-356544523D01*
X474638571Y-356163571D01*
X474686190Y-356068333D01*
X474781428Y-356020714D01*
X474971904Y-356020714D01*
X475067142Y-356068333D01*
X475114761Y-356163571D01*
X475114761Y-356258809D01*
X474638571Y-356354047D01*
X475543333Y-356687380D02*
X475543333Y-356020714D01*
X475543333Y-356211190D02*
X475590952Y-356115952D01*
X475638571Y-356068333D01*
X475733809Y-356020714D01*
X475829047Y-356020714D01*
%TO.C,1uf*%
D13*
X517820714Y-242274285D02*
X517392142Y-242274285D01*
X517606428Y-242274285D02*
X517606428Y-241524285D01*
X517535000Y-241631428D01*
X517463571Y-241702857D01*
X517392142Y-241738571D01*
X518463571Y-241774285D02*
X518463571Y-242274285D01*
X518142142Y-241774285D02*
X518142142Y-242167142D01*
X518177857Y-242238571D01*
X518249285Y-242274285D01*
X518356428Y-242274285D01*
X518427857Y-242238571D01*
X518463571Y-242202857D01*
X518713571Y-241774285D02*
X518999285Y-241774285D01*
X518820714Y-242274285D02*
X518820714Y-241631428D01*
X518856428Y-241560000D01*
X518927857Y-241524285D01*
X518999285Y-241524285D01*
%TO.C,0.1uf*%
D11*
X426490000Y-185507380D02*
X426585238Y-185507380D01*
X426680476Y-185555000D01*
X426728095Y-185602619D01*
X426775714Y-185697857D01*
X426823333Y-185888333D01*
X426823333Y-186126428D01*
X426775714Y-186316904D01*
X426728095Y-186412142D01*
X426680476Y-186459761D01*
X426585238Y-186507380D01*
X426490000Y-186507380D01*
X426394761Y-186459761D01*
X426347142Y-186412142D01*
X426299523Y-186316904D01*
X426251904Y-186126428D01*
X426251904Y-185888333D01*
X426299523Y-185697857D01*
X426347142Y-185602619D01*
X426394761Y-185555000D01*
X426490000Y-185507380D01*
X427251904Y-186412142D02*
X427299523Y-186459761D01*
X427251904Y-186507380D01*
X427204285Y-186459761D01*
X427251904Y-186412142D01*
X427251904Y-186507380D01*
X428251904Y-186507380D02*
X427680476Y-186507380D01*
X427966190Y-186507380D02*
X427966190Y-185507380D01*
X427870952Y-185650238D01*
X427775714Y-185745476D01*
X427680476Y-185793095D01*
X429109047Y-185840714D02*
X429109047Y-186507380D01*
X428680476Y-185840714D02*
X428680476Y-186364523D01*
X428728095Y-186459761D01*
X428823333Y-186507380D01*
X428966190Y-186507380D01*
X429061428Y-186459761D01*
X429109047Y-186412142D01*
X429442380Y-185840714D02*
X429823333Y-185840714D01*
X429585238Y-186507380D02*
X429585238Y-185650238D01*
X429632857Y-185555000D01*
X429728095Y-185507380D01*
X429823333Y-185507380D01*
X414425000Y-185507380D02*
X414520238Y-185507380D01*
X414615476Y-185555000D01*
X414663095Y-185602619D01*
X414710714Y-185697857D01*
X414758333Y-185888333D01*
X414758333Y-186126428D01*
X414710714Y-186316904D01*
X414663095Y-186412142D01*
X414615476Y-186459761D01*
X414520238Y-186507380D01*
X414425000Y-186507380D01*
X414329761Y-186459761D01*
X414282142Y-186412142D01*
X414234523Y-186316904D01*
X414186904Y-186126428D01*
X414186904Y-185888333D01*
X414234523Y-185697857D01*
X414282142Y-185602619D01*
X414329761Y-185555000D01*
X414425000Y-185507380D01*
X415186904Y-186412142D02*
X415234523Y-186459761D01*
X415186904Y-186507380D01*
X415139285Y-186459761D01*
X415186904Y-186412142D01*
X415186904Y-186507380D01*
X416186904Y-186507380D02*
X415615476Y-186507380D01*
X415901190Y-186507380D02*
X415901190Y-185507380D01*
X415805952Y-185650238D01*
X415710714Y-185745476D01*
X415615476Y-185793095D01*
X417044047Y-185840714D02*
X417044047Y-186507380D01*
X416615476Y-185840714D02*
X416615476Y-186364523D01*
X416663095Y-186459761D01*
X416758333Y-186507380D01*
X416901190Y-186507380D01*
X416996428Y-186459761D01*
X417044047Y-186412142D01*
X417377380Y-185840714D02*
X417758333Y-185840714D01*
X417520238Y-186507380D02*
X417520238Y-185650238D01*
X417567857Y-185555000D01*
X417663095Y-185507380D01*
X417758333Y-185507380D01*
X422045000Y-215987380D02*
X422140238Y-215987380D01*
X422235476Y-216035000D01*
X422283095Y-216082619D01*
X422330714Y-216177857D01*
X422378333Y-216368333D01*
X422378333Y-216606428D01*
X422330714Y-216796904D01*
X422283095Y-216892142D01*
X422235476Y-216939761D01*
X422140238Y-216987380D01*
X422045000Y-216987380D01*
X421949761Y-216939761D01*
X421902142Y-216892142D01*
X421854523Y-216796904D01*
X421806904Y-216606428D01*
X421806904Y-216368333D01*
X421854523Y-216177857D01*
X421902142Y-216082619D01*
X421949761Y-216035000D01*
X422045000Y-215987380D01*
X422806904Y-216892142D02*
X422854523Y-216939761D01*
X422806904Y-216987380D01*
X422759285Y-216939761D01*
X422806904Y-216892142D01*
X422806904Y-216987380D01*
X423806904Y-216987380D02*
X423235476Y-216987380D01*
X423521190Y-216987380D02*
X423521190Y-215987380D01*
X423425952Y-216130238D01*
X423330714Y-216225476D01*
X423235476Y-216273095D01*
X424664047Y-216320714D02*
X424664047Y-216987380D01*
X424235476Y-216320714D02*
X424235476Y-216844523D01*
X424283095Y-216939761D01*
X424378333Y-216987380D01*
X424521190Y-216987380D01*
X424616428Y-216939761D01*
X424664047Y-216892142D01*
X424997380Y-216320714D02*
X425378333Y-216320714D01*
X425140238Y-216987380D02*
X425140238Y-216130238D01*
X425187857Y-216035000D01*
X425283095Y-215987380D01*
X425378333Y-215987380D01*
%TO.C,74573*%
X427656904Y-313142380D02*
X428323571Y-313142380D01*
X427895000Y-314142380D01*
X429133095Y-313475714D02*
X429133095Y-314142380D01*
X428895000Y-313094761D02*
X428656904Y-313809047D01*
X429275952Y-313809047D01*
X430133095Y-313142380D02*
X429656904Y-313142380D01*
X429609285Y-313618571D01*
X429656904Y-313570952D01*
X429752142Y-313523333D01*
X429990238Y-313523333D01*
X430085476Y-313570952D01*
X430133095Y-313618571D01*
X430180714Y-313713809D01*
X430180714Y-313951904D01*
X430133095Y-314047142D01*
X430085476Y-314094761D01*
X429990238Y-314142380D01*
X429752142Y-314142380D01*
X429656904Y-314094761D01*
X429609285Y-314047142D01*
X430514047Y-313142380D02*
X431180714Y-313142380D01*
X430752142Y-314142380D01*
X431466428Y-313142380D02*
X432085476Y-313142380D01*
X431752142Y-313523333D01*
X431895000Y-313523333D01*
X431990238Y-313570952D01*
X432037857Y-313618571D01*
X432085476Y-313713809D01*
X432085476Y-313951904D01*
X432037857Y-314047142D01*
X431990238Y-314094761D01*
X431895000Y-314142380D01*
X431609285Y-314142380D01*
X431514047Y-314094761D01*
X431466428Y-314047142D01*
X444801904Y-313142380D02*
X445468571Y-313142380D01*
X445040000Y-314142380D01*
X446278095Y-313475714D02*
X446278095Y-314142380D01*
X446040000Y-313094761D02*
X445801904Y-313809047D01*
X446420952Y-313809047D01*
X447278095Y-313142380D02*
X446801904Y-313142380D01*
X446754285Y-313618571D01*
X446801904Y-313570952D01*
X446897142Y-313523333D01*
X447135238Y-313523333D01*
X447230476Y-313570952D01*
X447278095Y-313618571D01*
X447325714Y-313713809D01*
X447325714Y-313951904D01*
X447278095Y-314047142D01*
X447230476Y-314094761D01*
X447135238Y-314142380D01*
X446897142Y-314142380D01*
X446801904Y-314094761D01*
X446754285Y-314047142D01*
X447659047Y-313142380D02*
X448325714Y-313142380D01*
X447897142Y-314142380D01*
X448611428Y-313142380D02*
X449230476Y-313142380D01*
X448897142Y-313523333D01*
X449040000Y-313523333D01*
X449135238Y-313570952D01*
X449182857Y-313618571D01*
X449230476Y-313713809D01*
X449230476Y-313951904D01*
X449182857Y-314047142D01*
X449135238Y-314094761D01*
X449040000Y-314142380D01*
X448754285Y-314142380D01*
X448659047Y-314094761D01*
X448611428Y-314047142D01*
%TO.C,7404*%
X464963095Y-313352380D02*
X465629761Y-313352380D01*
X465201190Y-314352380D01*
X466439285Y-313685714D02*
X466439285Y-314352380D01*
X466201190Y-313304761D02*
X465963095Y-314019047D01*
X466582142Y-314019047D01*
X467153571Y-313352380D02*
X467248809Y-313352380D01*
X467344047Y-313400000D01*
X467391666Y-313447619D01*
X467439285Y-313542857D01*
X467486904Y-313733333D01*
X467486904Y-313971428D01*
X467439285Y-314161904D01*
X467391666Y-314257142D01*
X467344047Y-314304761D01*
X467248809Y-314352380D01*
X467153571Y-314352380D01*
X467058333Y-314304761D01*
X467010714Y-314257142D01*
X466963095Y-314161904D01*
X466915476Y-313971428D01*
X466915476Y-313733333D01*
X466963095Y-313542857D01*
X467010714Y-313447619D01*
X467058333Y-313400000D01*
X467153571Y-313352380D01*
X468344047Y-313685714D02*
X468344047Y-314352380D01*
X468105952Y-313304761D02*
X467867857Y-314019047D01*
X468486904Y-314019047D01*
%TO.C,20pf*%
D13*
X379917200Y-223702619D02*
X379964819Y-223655000D01*
X380060057Y-223607380D01*
X380298152Y-223607380D01*
X380393390Y-223655000D01*
X380441009Y-223702619D01*
X380488628Y-223797857D01*
X380488628Y-223893095D01*
X380441009Y-224035952D01*
X379869580Y-224607380D01*
X380488628Y-224607380D01*
X381107676Y-223607380D02*
X381202914Y-223607380D01*
X381298152Y-223655000D01*
X381345771Y-223702619D01*
X381393390Y-223797857D01*
X381441009Y-223988333D01*
X381441009Y-224226428D01*
X381393390Y-224416904D01*
X381345771Y-224512142D01*
X381298152Y-224559761D01*
X381202914Y-224607380D01*
X381107676Y-224607380D01*
X381012438Y-224559761D01*
X380964819Y-224512142D01*
X380917200Y-224416904D01*
X380869580Y-224226428D01*
X380869580Y-223988333D01*
X380917200Y-223797857D01*
X380964819Y-223702619D01*
X381012438Y-223655000D01*
X381107676Y-223607380D01*
X381869580Y-223940714D02*
X381869580Y-224940714D01*
X381869580Y-223988333D02*
X381964819Y-223940714D01*
X382155295Y-223940714D01*
X382250533Y-223988333D01*
X382298152Y-224035952D01*
X382345771Y-224131190D01*
X382345771Y-224416904D01*
X382298152Y-224512142D01*
X382250533Y-224559761D01*
X382155295Y-224607380D01*
X381964819Y-224607380D01*
X381869580Y-224559761D01*
X382631485Y-223940714D02*
X383012438Y-223940714D01*
X382774342Y-224607380D02*
X382774342Y-223750238D01*
X382821961Y-223655000D01*
X382917200Y-223607380D01*
X383012438Y-223607380D01*
%TO.C,1uf*%
X503215714Y-242274285D02*
X502787142Y-242274285D01*
X503001428Y-242274285D02*
X503001428Y-241524285D01*
X502930000Y-241631428D01*
X502858571Y-241702857D01*
X502787142Y-241738571D01*
X503858571Y-241774285D02*
X503858571Y-242274285D01*
X503537142Y-241774285D02*
X503537142Y-242167142D01*
X503572857Y-242238571D01*
X503644285Y-242274285D01*
X503751428Y-242274285D01*
X503822857Y-242238571D01*
X503858571Y-242202857D01*
X504108571Y-241774285D02*
X504394285Y-241774285D01*
X504215714Y-242274285D02*
X504215714Y-241631428D01*
X504251428Y-241560000D01*
X504322857Y-241524285D01*
X504394285Y-241524285D01*
%TO.C,0.1uf*%
D11*
X381087380Y-218035000D02*
X381087380Y-217939761D01*
X381135000Y-217844523D01*
X381182619Y-217796904D01*
X381277857Y-217749285D01*
X381468333Y-217701666D01*
X381706428Y-217701666D01*
X381896904Y-217749285D01*
X381992142Y-217796904D01*
X382039761Y-217844523D01*
X382087380Y-217939761D01*
X382087380Y-218035000D01*
X382039761Y-218130238D01*
X381992142Y-218177857D01*
X381896904Y-218225476D01*
X381706428Y-218273095D01*
X381468333Y-218273095D01*
X381277857Y-218225476D01*
X381182619Y-218177857D01*
X381135000Y-218130238D01*
X381087380Y-218035000D01*
X381992142Y-217273095D02*
X382039761Y-217225476D01*
X382087380Y-217273095D01*
X382039761Y-217320714D01*
X381992142Y-217273095D01*
X382087380Y-217273095D01*
X382087380Y-216273095D02*
X382087380Y-216844523D01*
X382087380Y-216558809D02*
X381087380Y-216558809D01*
X381230238Y-216654047D01*
X381325476Y-216749285D01*
X381373095Y-216844523D01*
X381420714Y-215415952D02*
X382087380Y-215415952D01*
X381420714Y-215844523D02*
X381944523Y-215844523D01*
X382039761Y-215796904D01*
X382087380Y-215701666D01*
X382087380Y-215558809D01*
X382039761Y-215463571D01*
X381992142Y-215415952D01*
X381420714Y-215082619D02*
X381420714Y-214701666D01*
X382087380Y-214939761D02*
X381230238Y-214939761D01*
X381135000Y-214892142D01*
X381087380Y-214796904D01*
X381087380Y-214701666D01*
X467765000Y-310602380D02*
X467860238Y-310602380D01*
X467955476Y-310650000D01*
X468003095Y-310697619D01*
X468050714Y-310792857D01*
X468098333Y-310983333D01*
X468098333Y-311221428D01*
X468050714Y-311411904D01*
X468003095Y-311507142D01*
X467955476Y-311554761D01*
X467860238Y-311602380D01*
X467765000Y-311602380D01*
X467669761Y-311554761D01*
X467622142Y-311507142D01*
X467574523Y-311411904D01*
X467526904Y-311221428D01*
X467526904Y-310983333D01*
X467574523Y-310792857D01*
X467622142Y-310697619D01*
X467669761Y-310650000D01*
X467765000Y-310602380D01*
X468526904Y-311507142D02*
X468574523Y-311554761D01*
X468526904Y-311602380D01*
X468479285Y-311554761D01*
X468526904Y-311507142D01*
X468526904Y-311602380D01*
X469526904Y-311602380D02*
X468955476Y-311602380D01*
X469241190Y-311602380D02*
X469241190Y-310602380D01*
X469145952Y-310745238D01*
X469050714Y-310840476D01*
X468955476Y-310888095D01*
X470384047Y-310935714D02*
X470384047Y-311602380D01*
X469955476Y-310935714D02*
X469955476Y-311459523D01*
X470003095Y-311554761D01*
X470098333Y-311602380D01*
X470241190Y-311602380D01*
X470336428Y-311554761D01*
X470384047Y-311507142D01*
X470717380Y-310935714D02*
X471098333Y-310935714D01*
X470860238Y-311602380D02*
X470860238Y-310745238D01*
X470907857Y-310650000D01*
X471003095Y-310602380D01*
X471098333Y-310602380D01*
%TO.C,1uf*%
D13*
X461349285Y-305159285D02*
X461349285Y-305587857D01*
X461349285Y-305373571D02*
X460599285Y-305373571D01*
X460706428Y-305445000D01*
X460777857Y-305516428D01*
X460813571Y-305587857D01*
X460849285Y-304516428D02*
X461349285Y-304516428D01*
X460849285Y-304837857D02*
X461242142Y-304837857D01*
X461313571Y-304802142D01*
X461349285Y-304730714D01*
X461349285Y-304623571D01*
X461313571Y-304552142D01*
X461277857Y-304516428D01*
X460849285Y-304266428D02*
X460849285Y-303980714D01*
X461349285Y-304159285D02*
X460706428Y-304159285D01*
X460635000Y-304123571D01*
X460599285Y-304052142D01*
X460599285Y-303980714D01*
X449875714Y-242274285D02*
X449447142Y-242274285D01*
X449661428Y-242274285D02*
X449661428Y-241524285D01*
X449590000Y-241631428D01*
X449518571Y-241702857D01*
X449447142Y-241738571D01*
X450518571Y-241774285D02*
X450518571Y-242274285D01*
X450197142Y-241774285D02*
X450197142Y-242167142D01*
X450232857Y-242238571D01*
X450304285Y-242274285D01*
X450411428Y-242274285D01*
X450482857Y-242238571D01*
X450518571Y-242202857D01*
X450768571Y-241774285D02*
X451054285Y-241774285D01*
X450875714Y-242274285D02*
X450875714Y-241631428D01*
X450911428Y-241560000D01*
X450982857Y-241524285D01*
X451054285Y-241524285D01*
%TO.C,0.1uf*%
D11*
X411885000Y-303617380D02*
X411980238Y-303617380D01*
X412075476Y-303665000D01*
X412123095Y-303712619D01*
X412170714Y-303807857D01*
X412218333Y-303998333D01*
X412218333Y-304236428D01*
X412170714Y-304426904D01*
X412123095Y-304522142D01*
X412075476Y-304569761D01*
X411980238Y-304617380D01*
X411885000Y-304617380D01*
X411789761Y-304569761D01*
X411742142Y-304522142D01*
X411694523Y-304426904D01*
X411646904Y-304236428D01*
X411646904Y-303998333D01*
X411694523Y-303807857D01*
X411742142Y-303712619D01*
X411789761Y-303665000D01*
X411885000Y-303617380D01*
X412646904Y-304522142D02*
X412694523Y-304569761D01*
X412646904Y-304617380D01*
X412599285Y-304569761D01*
X412646904Y-304522142D01*
X412646904Y-304617380D01*
X413646904Y-304617380D02*
X413075476Y-304617380D01*
X413361190Y-304617380D02*
X413361190Y-303617380D01*
X413265952Y-303760238D01*
X413170714Y-303855476D01*
X413075476Y-303903095D01*
X414504047Y-303950714D02*
X414504047Y-304617380D01*
X414075476Y-303950714D02*
X414075476Y-304474523D01*
X414123095Y-304569761D01*
X414218333Y-304617380D01*
X414361190Y-304617380D01*
X414456428Y-304569761D01*
X414504047Y-304522142D01*
X414837380Y-303950714D02*
X415218333Y-303950714D01*
X414980238Y-304617380D02*
X414980238Y-303760238D01*
X415027857Y-303665000D01*
X415123095Y-303617380D01*
X415218333Y-303617380D01*
X411885000Y-255357380D02*
X411980238Y-255357380D01*
X412075476Y-255405000D01*
X412123095Y-255452619D01*
X412170714Y-255547857D01*
X412218333Y-255738333D01*
X412218333Y-255976428D01*
X412170714Y-256166904D01*
X412123095Y-256262142D01*
X412075476Y-256309761D01*
X411980238Y-256357380D01*
X411885000Y-256357380D01*
X411789761Y-256309761D01*
X411742142Y-256262142D01*
X411694523Y-256166904D01*
X411646904Y-255976428D01*
X411646904Y-255738333D01*
X411694523Y-255547857D01*
X411742142Y-255452619D01*
X411789761Y-255405000D01*
X411885000Y-255357380D01*
X412646904Y-256262142D02*
X412694523Y-256309761D01*
X412646904Y-256357380D01*
X412599285Y-256309761D01*
X412646904Y-256262142D01*
X412646904Y-256357380D01*
X413646904Y-256357380D02*
X413075476Y-256357380D01*
X413361190Y-256357380D02*
X413361190Y-255357380D01*
X413265952Y-255500238D01*
X413170714Y-255595476D01*
X413075476Y-255643095D01*
X414504047Y-255690714D02*
X414504047Y-256357380D01*
X414075476Y-255690714D02*
X414075476Y-256214523D01*
X414123095Y-256309761D01*
X414218333Y-256357380D01*
X414361190Y-256357380D01*
X414456428Y-256309761D01*
X414504047Y-256262142D01*
X414837380Y-255690714D02*
X415218333Y-255690714D01*
X414980238Y-256357380D02*
X414980238Y-255500238D01*
X415027857Y-255405000D01*
X415123095Y-255357380D01*
X415218333Y-255357380D01*
X411885000Y-279487380D02*
X411980238Y-279487380D01*
X412075476Y-279535000D01*
X412123095Y-279582619D01*
X412170714Y-279677857D01*
X412218333Y-279868333D01*
X412218333Y-280106428D01*
X412170714Y-280296904D01*
X412123095Y-280392142D01*
X412075476Y-280439761D01*
X411980238Y-280487380D01*
X411885000Y-280487380D01*
X411789761Y-280439761D01*
X411742142Y-280392142D01*
X411694523Y-280296904D01*
X411646904Y-280106428D01*
X411646904Y-279868333D01*
X411694523Y-279677857D01*
X411742142Y-279582619D01*
X411789761Y-279535000D01*
X411885000Y-279487380D01*
X412646904Y-280392142D02*
X412694523Y-280439761D01*
X412646904Y-280487380D01*
X412599285Y-280439761D01*
X412646904Y-280392142D01*
X412646904Y-280487380D01*
X413646904Y-280487380D02*
X413075476Y-280487380D01*
X413361190Y-280487380D02*
X413361190Y-279487380D01*
X413265952Y-279630238D01*
X413170714Y-279725476D01*
X413075476Y-279773095D01*
X414504047Y-279820714D02*
X414504047Y-280487380D01*
X414075476Y-279820714D02*
X414075476Y-280344523D01*
X414123095Y-280439761D01*
X414218333Y-280487380D01*
X414361190Y-280487380D01*
X414456428Y-280439761D01*
X414504047Y-280392142D01*
X414837380Y-279820714D02*
X415218333Y-279820714D01*
X414980238Y-280487380D02*
X414980238Y-279630238D01*
X415027857Y-279535000D01*
X415123095Y-279487380D01*
X415218333Y-279487380D01*
X388390000Y-314412380D02*
X388485238Y-314412380D01*
X388580476Y-314460000D01*
X388628095Y-314507619D01*
X388675714Y-314602857D01*
X388723333Y-314793333D01*
X388723333Y-315031428D01*
X388675714Y-315221904D01*
X388628095Y-315317142D01*
X388580476Y-315364761D01*
X388485238Y-315412380D01*
X388390000Y-315412380D01*
X388294761Y-315364761D01*
X388247142Y-315317142D01*
X388199523Y-315221904D01*
X388151904Y-315031428D01*
X388151904Y-314793333D01*
X388199523Y-314602857D01*
X388247142Y-314507619D01*
X388294761Y-314460000D01*
X388390000Y-314412380D01*
X389151904Y-315317142D02*
X389199523Y-315364761D01*
X389151904Y-315412380D01*
X389104285Y-315364761D01*
X389151904Y-315317142D01*
X389151904Y-315412380D01*
X390151904Y-315412380D02*
X389580476Y-315412380D01*
X389866190Y-315412380D02*
X389866190Y-314412380D01*
X389770952Y-314555238D01*
X389675714Y-314650476D01*
X389580476Y-314698095D01*
X391009047Y-314745714D02*
X391009047Y-315412380D01*
X390580476Y-314745714D02*
X390580476Y-315269523D01*
X390628095Y-315364761D01*
X390723333Y-315412380D01*
X390866190Y-315412380D01*
X390961428Y-315364761D01*
X391009047Y-315317142D01*
X391342380Y-314745714D02*
X391723333Y-314745714D01*
X391485238Y-315412380D02*
X391485238Y-314555238D01*
X391532857Y-314460000D01*
X391628095Y-314412380D01*
X391723333Y-314412380D01*
X450620000Y-310602380D02*
X450715238Y-310602380D01*
X450810476Y-310650000D01*
X450858095Y-310697619D01*
X450905714Y-310792857D01*
X450953333Y-310983333D01*
X450953333Y-311221428D01*
X450905714Y-311411904D01*
X450858095Y-311507142D01*
X450810476Y-311554761D01*
X450715238Y-311602380D01*
X450620000Y-311602380D01*
X450524761Y-311554761D01*
X450477142Y-311507142D01*
X450429523Y-311411904D01*
X450381904Y-311221428D01*
X450381904Y-310983333D01*
X450429523Y-310792857D01*
X450477142Y-310697619D01*
X450524761Y-310650000D01*
X450620000Y-310602380D01*
X451381904Y-311507142D02*
X451429523Y-311554761D01*
X451381904Y-311602380D01*
X451334285Y-311554761D01*
X451381904Y-311507142D01*
X451381904Y-311602380D01*
X452381904Y-311602380D02*
X451810476Y-311602380D01*
X452096190Y-311602380D02*
X452096190Y-310602380D01*
X452000952Y-310745238D01*
X451905714Y-310840476D01*
X451810476Y-310888095D01*
X453239047Y-310935714D02*
X453239047Y-311602380D01*
X452810476Y-310935714D02*
X452810476Y-311459523D01*
X452858095Y-311554761D01*
X452953333Y-311602380D01*
X453096190Y-311602380D01*
X453191428Y-311554761D01*
X453239047Y-311507142D01*
X453572380Y-310935714D02*
X453953333Y-310935714D01*
X453715238Y-311602380D02*
X453715238Y-310745238D01*
X453762857Y-310650000D01*
X453858095Y-310602380D01*
X453953333Y-310602380D01*
X433475000Y-310602380D02*
X433570238Y-310602380D01*
X433665476Y-310650000D01*
X433713095Y-310697619D01*
X433760714Y-310792857D01*
X433808333Y-310983333D01*
X433808333Y-311221428D01*
X433760714Y-311411904D01*
X433713095Y-311507142D01*
X433665476Y-311554761D01*
X433570238Y-311602380D01*
X433475000Y-311602380D01*
X433379761Y-311554761D01*
X433332142Y-311507142D01*
X433284523Y-311411904D01*
X433236904Y-311221428D01*
X433236904Y-310983333D01*
X433284523Y-310792857D01*
X433332142Y-310697619D01*
X433379761Y-310650000D01*
X433475000Y-310602380D01*
X434236904Y-311507142D02*
X434284523Y-311554761D01*
X434236904Y-311602380D01*
X434189285Y-311554761D01*
X434236904Y-311507142D01*
X434236904Y-311602380D01*
X435236904Y-311602380D02*
X434665476Y-311602380D01*
X434951190Y-311602380D02*
X434951190Y-310602380D01*
X434855952Y-310745238D01*
X434760714Y-310840476D01*
X434665476Y-310888095D01*
X436094047Y-310935714D02*
X436094047Y-311602380D01*
X435665476Y-310935714D02*
X435665476Y-311459523D01*
X435713095Y-311554761D01*
X435808333Y-311602380D01*
X435951190Y-311602380D01*
X436046428Y-311554761D01*
X436094047Y-311507142D01*
X436427380Y-310935714D02*
X436808333Y-310935714D01*
X436570238Y-311602380D02*
X436570238Y-310745238D01*
X436617857Y-310650000D01*
X436713095Y-310602380D01*
X436808333Y-310602380D01*
X373150000Y-314412380D02*
X373245238Y-314412380D01*
X373340476Y-314460000D01*
X373388095Y-314507619D01*
X373435714Y-314602857D01*
X373483333Y-314793333D01*
X373483333Y-315031428D01*
X373435714Y-315221904D01*
X373388095Y-315317142D01*
X373340476Y-315364761D01*
X373245238Y-315412380D01*
X373150000Y-315412380D01*
X373054761Y-315364761D01*
X373007142Y-315317142D01*
X372959523Y-315221904D01*
X372911904Y-315031428D01*
X372911904Y-314793333D01*
X372959523Y-314602857D01*
X373007142Y-314507619D01*
X373054761Y-314460000D01*
X373150000Y-314412380D01*
X373911904Y-315317142D02*
X373959523Y-315364761D01*
X373911904Y-315412380D01*
X373864285Y-315364761D01*
X373911904Y-315317142D01*
X373911904Y-315412380D01*
X374911904Y-315412380D02*
X374340476Y-315412380D01*
X374626190Y-315412380D02*
X374626190Y-314412380D01*
X374530952Y-314555238D01*
X374435714Y-314650476D01*
X374340476Y-314698095D01*
X375769047Y-314745714D02*
X375769047Y-315412380D01*
X375340476Y-314745714D02*
X375340476Y-315269523D01*
X375388095Y-315364761D01*
X375483333Y-315412380D01*
X375626190Y-315412380D01*
X375721428Y-315364761D01*
X375769047Y-315317142D01*
X376102380Y-314745714D02*
X376483333Y-314745714D01*
X376245238Y-315412380D02*
X376245238Y-314555238D01*
X376292857Y-314460000D01*
X376388095Y-314412380D01*
X376483333Y-314412380D01*
%TO.C,74595*%
X369871904Y-318432380D02*
X370538571Y-318432380D01*
X370110000Y-319432380D01*
X371348095Y-318765714D02*
X371348095Y-319432380D01*
X371110000Y-318384761D02*
X370871904Y-319099047D01*
X371490952Y-319099047D01*
X372348095Y-318432380D02*
X371871904Y-318432380D01*
X371824285Y-318908571D01*
X371871904Y-318860952D01*
X371967142Y-318813333D01*
X372205238Y-318813333D01*
X372300476Y-318860952D01*
X372348095Y-318908571D01*
X372395714Y-319003809D01*
X372395714Y-319241904D01*
X372348095Y-319337142D01*
X372300476Y-319384761D01*
X372205238Y-319432380D01*
X371967142Y-319432380D01*
X371871904Y-319384761D01*
X371824285Y-319337142D01*
X372871904Y-319432380D02*
X373062380Y-319432380D01*
X373157619Y-319384761D01*
X373205238Y-319337142D01*
X373300476Y-319194285D01*
X373348095Y-319003809D01*
X373348095Y-318622857D01*
X373300476Y-318527619D01*
X373252857Y-318480000D01*
X373157619Y-318432380D01*
X372967142Y-318432380D01*
X372871904Y-318480000D01*
X372824285Y-318527619D01*
X372776666Y-318622857D01*
X372776666Y-318860952D01*
X372824285Y-318956190D01*
X372871904Y-319003809D01*
X372967142Y-319051428D01*
X373157619Y-319051428D01*
X373252857Y-319003809D01*
X373300476Y-318956190D01*
X373348095Y-318860952D01*
X374252857Y-318432380D02*
X373776666Y-318432380D01*
X373729047Y-318908571D01*
X373776666Y-318860952D01*
X373871904Y-318813333D01*
X374110000Y-318813333D01*
X374205238Y-318860952D01*
X374252857Y-318908571D01*
X374300476Y-319003809D01*
X374300476Y-319241904D01*
X374252857Y-319337142D01*
X374205238Y-319384761D01*
X374110000Y-319432380D01*
X373871904Y-319432380D01*
X373776666Y-319384761D01*
X373729047Y-319337142D01*
%TO.C,0.1uf*%
X373150000Y-288377380D02*
X373245238Y-288377380D01*
X373340476Y-288425000D01*
X373388095Y-288472619D01*
X373435714Y-288567857D01*
X373483333Y-288758333D01*
X373483333Y-288996428D01*
X373435714Y-289186904D01*
X373388095Y-289282142D01*
X373340476Y-289329761D01*
X373245238Y-289377380D01*
X373150000Y-289377380D01*
X373054761Y-289329761D01*
X373007142Y-289282142D01*
X372959523Y-289186904D01*
X372911904Y-288996428D01*
X372911904Y-288758333D01*
X372959523Y-288567857D01*
X373007142Y-288472619D01*
X373054761Y-288425000D01*
X373150000Y-288377380D01*
X373911904Y-289282142D02*
X373959523Y-289329761D01*
X373911904Y-289377380D01*
X373864285Y-289329761D01*
X373911904Y-289282142D01*
X373911904Y-289377380D01*
X374911904Y-289377380D02*
X374340476Y-289377380D01*
X374626190Y-289377380D02*
X374626190Y-288377380D01*
X374530952Y-288520238D01*
X374435714Y-288615476D01*
X374340476Y-288663095D01*
X375769047Y-288710714D02*
X375769047Y-289377380D01*
X375340476Y-288710714D02*
X375340476Y-289234523D01*
X375388095Y-289329761D01*
X375483333Y-289377380D01*
X375626190Y-289377380D01*
X375721428Y-289329761D01*
X375769047Y-289282142D01*
X376102380Y-288710714D02*
X376483333Y-288710714D01*
X376245238Y-289377380D02*
X376245238Y-288520238D01*
X376292857Y-288425000D01*
X376388095Y-288377380D01*
X376483333Y-288377380D01*
%TO.C,74138*%
X402256904Y-302982380D02*
X402923571Y-302982380D01*
X402495000Y-303982380D01*
X403733095Y-303315714D02*
X403733095Y-303982380D01*
X403495000Y-302934761D02*
X403256904Y-303649047D01*
X403875952Y-303649047D01*
X404780714Y-303982380D02*
X404209285Y-303982380D01*
X404495000Y-303982380D02*
X404495000Y-302982380D01*
X404399761Y-303125238D01*
X404304523Y-303220476D01*
X404209285Y-303268095D01*
X405114047Y-302982380D02*
X405733095Y-302982380D01*
X405399761Y-303363333D01*
X405542619Y-303363333D01*
X405637857Y-303410952D01*
X405685476Y-303458571D01*
X405733095Y-303553809D01*
X405733095Y-303791904D01*
X405685476Y-303887142D01*
X405637857Y-303934761D01*
X405542619Y-303982380D01*
X405256904Y-303982380D01*
X405161666Y-303934761D01*
X405114047Y-303887142D01*
X406304523Y-303410952D02*
X406209285Y-303363333D01*
X406161666Y-303315714D01*
X406114047Y-303220476D01*
X406114047Y-303172857D01*
X406161666Y-303077619D01*
X406209285Y-303030000D01*
X406304523Y-302982380D01*
X406495000Y-302982380D01*
X406590238Y-303030000D01*
X406637857Y-303077619D01*
X406685476Y-303172857D01*
X406685476Y-303220476D01*
X406637857Y-303315714D01*
X406590238Y-303363333D01*
X406495000Y-303410952D01*
X406304523Y-303410952D01*
X406209285Y-303458571D01*
X406161666Y-303506190D01*
X406114047Y-303601428D01*
X406114047Y-303791904D01*
X406161666Y-303887142D01*
X406209285Y-303934761D01*
X406304523Y-303982380D01*
X406495000Y-303982380D01*
X406590238Y-303934761D01*
X406637857Y-303887142D01*
X406685476Y-303791904D01*
X406685476Y-303601428D01*
X406637857Y-303506190D01*
X406590238Y-303458571D01*
X406495000Y-303410952D01*
%TO.C,PS/2*%
D12*
X388412619Y-355530476D02*
X388412619Y-354280476D01*
X388888809Y-354280476D01*
X389007857Y-354340000D01*
X389067380Y-354399523D01*
X389126904Y-354518571D01*
X389126904Y-354697142D01*
X389067380Y-354816190D01*
X389007857Y-354875714D01*
X388888809Y-354935238D01*
X388412619Y-354935238D01*
X389603095Y-355470952D02*
X389781666Y-355530476D01*
X390079285Y-355530476D01*
X390198333Y-355470952D01*
X390257857Y-355411428D01*
X390317380Y-355292380D01*
X390317380Y-355173333D01*
X390257857Y-355054285D01*
X390198333Y-354994761D01*
X390079285Y-354935238D01*
X389841190Y-354875714D01*
X389722142Y-354816190D01*
X389662619Y-354756666D01*
X389603095Y-354637619D01*
X389603095Y-354518571D01*
X389662619Y-354399523D01*
X389722142Y-354340000D01*
X389841190Y-354280476D01*
X390138809Y-354280476D01*
X390317380Y-354340000D01*
X391745952Y-354220952D02*
X390674523Y-355828095D01*
X392103095Y-354399523D02*
X392162619Y-354340000D01*
X392281666Y-354280476D01*
X392579285Y-354280476D01*
X392698333Y-354340000D01*
X392757857Y-354399523D01*
X392817380Y-354518571D01*
X392817380Y-354637619D01*
X392757857Y-354816190D01*
X392043571Y-355530476D01*
X392817380Y-355530476D01*
%TO.C,74595*%
D11*
X385111904Y-318432380D02*
X385778571Y-318432380D01*
X385350000Y-319432380D01*
X386588095Y-318765714D02*
X386588095Y-319432380D01*
X386350000Y-318384761D02*
X386111904Y-319099047D01*
X386730952Y-319099047D01*
X387588095Y-318432380D02*
X387111904Y-318432380D01*
X387064285Y-318908571D01*
X387111904Y-318860952D01*
X387207142Y-318813333D01*
X387445238Y-318813333D01*
X387540476Y-318860952D01*
X387588095Y-318908571D01*
X387635714Y-319003809D01*
X387635714Y-319241904D01*
X387588095Y-319337142D01*
X387540476Y-319384761D01*
X387445238Y-319432380D01*
X387207142Y-319432380D01*
X387111904Y-319384761D01*
X387064285Y-319337142D01*
X388111904Y-319432380D02*
X388302380Y-319432380D01*
X388397619Y-319384761D01*
X388445238Y-319337142D01*
X388540476Y-319194285D01*
X388588095Y-319003809D01*
X388588095Y-318622857D01*
X388540476Y-318527619D01*
X388492857Y-318480000D01*
X388397619Y-318432380D01*
X388207142Y-318432380D01*
X388111904Y-318480000D01*
X388064285Y-318527619D01*
X388016666Y-318622857D01*
X388016666Y-318860952D01*
X388064285Y-318956190D01*
X388111904Y-319003809D01*
X388207142Y-319051428D01*
X388397619Y-319051428D01*
X388492857Y-319003809D01*
X388540476Y-318956190D01*
X388588095Y-318860952D01*
X389492857Y-318432380D02*
X389016666Y-318432380D01*
X388969047Y-318908571D01*
X389016666Y-318860952D01*
X389111904Y-318813333D01*
X389350000Y-318813333D01*
X389445238Y-318860952D01*
X389492857Y-318908571D01*
X389540476Y-319003809D01*
X389540476Y-319241904D01*
X389492857Y-319337142D01*
X389445238Y-319384761D01*
X389350000Y-319432380D01*
X389111904Y-319432380D01*
X389016666Y-319384761D01*
X388969047Y-319337142D01*
%TO.C,7404*%
X370348095Y-292397380D02*
X371014761Y-292397380D01*
X370586190Y-293397380D01*
X371824285Y-292730714D02*
X371824285Y-293397380D01*
X371586190Y-292349761D02*
X371348095Y-293064047D01*
X371967142Y-293064047D01*
X372538571Y-292397380D02*
X372633809Y-292397380D01*
X372729047Y-292445000D01*
X372776666Y-292492619D01*
X372824285Y-292587857D01*
X372871904Y-292778333D01*
X372871904Y-293016428D01*
X372824285Y-293206904D01*
X372776666Y-293302142D01*
X372729047Y-293349761D01*
X372633809Y-293397380D01*
X372538571Y-293397380D01*
X372443333Y-293349761D01*
X372395714Y-293302142D01*
X372348095Y-293206904D01*
X372300476Y-293016428D01*
X372300476Y-292778333D01*
X372348095Y-292587857D01*
X372395714Y-292492619D01*
X372443333Y-292445000D01*
X372538571Y-292397380D01*
X373729047Y-292730714D02*
X373729047Y-293397380D01*
X373490952Y-292349761D02*
X373252857Y-293064047D01*
X373871904Y-293064047D01*
%TO.C,A15*%
D13*
X396750000Y-267712142D02*
X396750000Y-268069285D01*
X396535714Y-267640714D02*
X397285714Y-267890714D01*
X396535714Y-268140714D01*
X396535714Y-268783571D02*
X396535714Y-268355000D01*
X396535714Y-268569285D02*
X397285714Y-268569285D01*
X397178571Y-268497857D01*
X397107142Y-268426428D01*
X397071428Y-268355000D01*
X397285714Y-269462142D02*
X397285714Y-269105000D01*
X396928571Y-269069285D01*
X396964285Y-269105000D01*
X397000000Y-269176428D01*
X397000000Y-269355000D01*
X396964285Y-269426428D01*
X396928571Y-269462142D01*
X396857142Y-269497857D01*
X396678571Y-269497857D01*
X396607142Y-269462142D01*
X396571428Y-269426428D01*
X396535714Y-269355000D01*
X396535714Y-269176428D01*
X396571428Y-269105000D01*
X396607142Y-269069285D01*
%TO.C,A16*%
X395480000Y-270252142D02*
X395480000Y-270609285D01*
X395265714Y-270180714D02*
X396015714Y-270430714D01*
X395265714Y-270680714D01*
X395265714Y-271323571D02*
X395265714Y-270895000D01*
X395265714Y-271109285D02*
X396015714Y-271109285D01*
X395908571Y-271037857D01*
X395837142Y-270966428D01*
X395801428Y-270895000D01*
X396015714Y-271966428D02*
X396015714Y-271823571D01*
X395980000Y-271752142D01*
X395944285Y-271716428D01*
X395837142Y-271645000D01*
X395694285Y-271609285D01*
X395408571Y-271609285D01*
X395337142Y-271645000D01*
X395301428Y-271680714D01*
X395265714Y-271752142D01*
X395265714Y-271895000D01*
X395301428Y-271966428D01*
X395337142Y-272002142D01*
X395408571Y-272037857D01*
X395587142Y-272037857D01*
X395658571Y-272002142D01*
X395694285Y-271966428D01*
X395730000Y-271895000D01*
X395730000Y-271752142D01*
X395694285Y-271680714D01*
X395658571Y-271645000D01*
X395587142Y-271609285D01*
%TO.C,A17*%
X394210000Y-272792142D02*
X394210000Y-273149285D01*
X393995714Y-272720714D02*
X394745714Y-272970714D01*
X393995714Y-273220714D01*
X393995714Y-273863571D02*
X393995714Y-273435000D01*
X393995714Y-273649285D02*
X394745714Y-273649285D01*
X394638571Y-273577857D01*
X394567142Y-273506428D01*
X394531428Y-273435000D01*
X394745714Y-274113571D02*
X394745714Y-274613571D01*
X393995714Y-274292142D01*
%TO.C,A18*%
X392940000Y-275332142D02*
X392940000Y-275689285D01*
X392725714Y-275260714D02*
X393475714Y-275510714D01*
X392725714Y-275760714D01*
X392725714Y-276403571D02*
X392725714Y-275975000D01*
X392725714Y-276189285D02*
X393475714Y-276189285D01*
X393368571Y-276117857D01*
X393297142Y-276046428D01*
X393261428Y-275975000D01*
X393154285Y-276832142D02*
X393190000Y-276760714D01*
X393225714Y-276725000D01*
X393297142Y-276689285D01*
X393332857Y-276689285D01*
X393404285Y-276725000D01*
X393440000Y-276760714D01*
X393475714Y-276832142D01*
X393475714Y-276975000D01*
X393440000Y-277046428D01*
X393404285Y-277082142D01*
X393332857Y-277117857D01*
X393297142Y-277117857D01*
X393225714Y-277082142D01*
X393190000Y-277046428D01*
X393154285Y-276975000D01*
X393154285Y-276832142D01*
X393118571Y-276760714D01*
X393082857Y-276725000D01*
X393011428Y-276689285D01*
X392868571Y-276689285D01*
X392797142Y-276725000D01*
X392761428Y-276760714D01*
X392725714Y-276832142D01*
X392725714Y-276975000D01*
X392761428Y-277046428D01*
X392797142Y-277082142D01*
X392868571Y-277117857D01*
X393011428Y-277117857D01*
X393082857Y-277082142D01*
X393118571Y-277046428D01*
X393154285Y-276975000D01*
%TO.C,A19*%
X391670000Y-277872142D02*
X391670000Y-278229285D01*
X391455714Y-277800714D02*
X392205714Y-278050714D01*
X391455714Y-278300714D01*
X391455714Y-278943571D02*
X391455714Y-278515000D01*
X391455714Y-278729285D02*
X392205714Y-278729285D01*
X392098571Y-278657857D01*
X392027142Y-278586428D01*
X391991428Y-278515000D01*
X391455714Y-279300714D02*
X391455714Y-279443571D01*
X391491428Y-279515000D01*
X391527142Y-279550714D01*
X391634285Y-279622142D01*
X391777142Y-279657857D01*
X392062857Y-279657857D01*
X392134285Y-279622142D01*
X392170000Y-279586428D01*
X392205714Y-279515000D01*
X392205714Y-279372142D01*
X392170000Y-279300714D01*
X392134285Y-279265000D01*
X392062857Y-279229285D01*
X391884285Y-279229285D01*
X391812857Y-279265000D01*
X391777142Y-279300714D01*
X391741428Y-279372142D01*
X391741428Y-279515000D01*
X391777142Y-279586428D01*
X391812857Y-279622142D01*
X391884285Y-279657857D01*
%TO.C,74138*%
D11*
X402256904Y-278852380D02*
X402923571Y-278852380D01*
X402495000Y-279852380D01*
X403733095Y-279185714D02*
X403733095Y-279852380D01*
X403495000Y-278804761D02*
X403256904Y-279519047D01*
X403875952Y-279519047D01*
X404780714Y-279852380D02*
X404209285Y-279852380D01*
X404495000Y-279852380D02*
X404495000Y-278852380D01*
X404399761Y-278995238D01*
X404304523Y-279090476D01*
X404209285Y-279138095D01*
X405114047Y-278852380D02*
X405733095Y-278852380D01*
X405399761Y-279233333D01*
X405542619Y-279233333D01*
X405637857Y-279280952D01*
X405685476Y-279328571D01*
X405733095Y-279423809D01*
X405733095Y-279661904D01*
X405685476Y-279757142D01*
X405637857Y-279804761D01*
X405542619Y-279852380D01*
X405256904Y-279852380D01*
X405161666Y-279804761D01*
X405114047Y-279757142D01*
X406304523Y-279280952D02*
X406209285Y-279233333D01*
X406161666Y-279185714D01*
X406114047Y-279090476D01*
X406114047Y-279042857D01*
X406161666Y-278947619D01*
X406209285Y-278900000D01*
X406304523Y-278852380D01*
X406495000Y-278852380D01*
X406590238Y-278900000D01*
X406637857Y-278947619D01*
X406685476Y-279042857D01*
X406685476Y-279090476D01*
X406637857Y-279185714D01*
X406590238Y-279233333D01*
X406495000Y-279280952D01*
X406304523Y-279280952D01*
X406209285Y-279328571D01*
X406161666Y-279376190D01*
X406114047Y-279471428D01*
X406114047Y-279661904D01*
X406161666Y-279757142D01*
X406209285Y-279804761D01*
X406304523Y-279852380D01*
X406495000Y-279852380D01*
X406590238Y-279804761D01*
X406637857Y-279757142D01*
X406685476Y-279661904D01*
X406685476Y-279471428D01*
X406637857Y-279376190D01*
X406590238Y-279328571D01*
X406495000Y-279280952D01*
%TO.C,4.7uf*%
X379103095Y-208065714D02*
X379103095Y-208732380D01*
X378865000Y-207684761D02*
X378626904Y-208399047D01*
X379245952Y-208399047D01*
X379626904Y-208637142D02*
X379674523Y-208684761D01*
X379626904Y-208732380D01*
X379579285Y-208684761D01*
X379626904Y-208637142D01*
X379626904Y-208732380D01*
X380007857Y-207732380D02*
X380674523Y-207732380D01*
X380245952Y-208732380D01*
X381484047Y-208065714D02*
X381484047Y-208732380D01*
X381055476Y-208065714D02*
X381055476Y-208589523D01*
X381103095Y-208684761D01*
X381198333Y-208732380D01*
X381341190Y-208732380D01*
X381436428Y-208684761D01*
X381484047Y-208637142D01*
X381817380Y-208065714D02*
X382198333Y-208065714D01*
X381960238Y-208732380D02*
X381960238Y-207875238D01*
X382007857Y-207780000D01*
X382103095Y-207732380D01*
X382198333Y-207732380D01*
%TO.C,10k\u03A9*%
X377293333Y-212542380D02*
X376721904Y-212542380D01*
X377007619Y-212542380D02*
X377007619Y-211542380D01*
X376912380Y-211685238D01*
X376817142Y-211780476D01*
X376721904Y-211828095D01*
X377912380Y-211542380D02*
X378007619Y-211542380D01*
X378102857Y-211590000D01*
X378150476Y-211637619D01*
X378198095Y-211732857D01*
X378245714Y-211923333D01*
X378245714Y-212161428D01*
X378198095Y-212351904D01*
X378150476Y-212447142D01*
X378102857Y-212494761D01*
X378007619Y-212542380D01*
X377912380Y-212542380D01*
X377817142Y-212494761D01*
X377769523Y-212447142D01*
X377721904Y-212351904D01*
X377674285Y-212161428D01*
X377674285Y-211923333D01*
X377721904Y-211732857D01*
X377769523Y-211637619D01*
X377817142Y-211590000D01*
X377912380Y-211542380D01*
X378674285Y-212542380D02*
X378674285Y-211542380D01*
X378769523Y-212161428D02*
X379055238Y-212542380D01*
X379055238Y-211875714D02*
X378674285Y-212256666D01*
X379436190Y-212542380D02*
X379674285Y-212542380D01*
X379674285Y-212351904D01*
X379579047Y-212304285D01*
X379483809Y-212209047D01*
X379436190Y-212066190D01*
X379436190Y-211828095D01*
X379483809Y-211685238D01*
X379579047Y-211590000D01*
X379721904Y-211542380D01*
X379912380Y-211542380D01*
X380055238Y-211590000D01*
X380150476Y-211685238D01*
X380198095Y-211828095D01*
X380198095Y-212066190D01*
X380150476Y-212209047D01*
X380055238Y-212304285D01*
X379960000Y-212351904D01*
X379960000Y-212542380D01*
X380198095Y-212542380D01*
%TO.C,0.1uf*%
D13*
X428210000Y-252981666D02*
X428276666Y-252981666D01*
X428343333Y-253015000D01*
X428376666Y-253048333D01*
X428410000Y-253115000D01*
X428443333Y-253248333D01*
X428443333Y-253415000D01*
X428410000Y-253548333D01*
X428376666Y-253615000D01*
X428343333Y-253648333D01*
X428276666Y-253681666D01*
X428210000Y-253681666D01*
X428143333Y-253648333D01*
X428110000Y-253615000D01*
X428076666Y-253548333D01*
X428043333Y-253415000D01*
X428043333Y-253248333D01*
X428076666Y-253115000D01*
X428110000Y-253048333D01*
X428143333Y-253015000D01*
X428210000Y-252981666D01*
X428743333Y-253615000D02*
X428776666Y-253648333D01*
X428743333Y-253681666D01*
X428710000Y-253648333D01*
X428743333Y-253615000D01*
X428743333Y-253681666D01*
X429443333Y-253681666D02*
X429043333Y-253681666D01*
X429243333Y-253681666D02*
X429243333Y-252981666D01*
X429176666Y-253081666D01*
X429110000Y-253148333D01*
X429043333Y-253181666D01*
X430043333Y-253215000D02*
X430043333Y-253681666D01*
X429743333Y-253215000D02*
X429743333Y-253581666D01*
X429776666Y-253648333D01*
X429843333Y-253681666D01*
X429943333Y-253681666D01*
X430010000Y-253648333D01*
X430043333Y-253615000D01*
X430276666Y-253215000D02*
X430543333Y-253215000D01*
X430376666Y-253681666D02*
X430376666Y-253081666D01*
X430410000Y-253015000D01*
X430476666Y-252981666D01*
X430543333Y-252981666D01*
X440910000Y-252981666D02*
X440976666Y-252981666D01*
X441043333Y-253015000D01*
X441076666Y-253048333D01*
X441110000Y-253115000D01*
X441143333Y-253248333D01*
X441143333Y-253415000D01*
X441110000Y-253548333D01*
X441076666Y-253615000D01*
X441043333Y-253648333D01*
X440976666Y-253681666D01*
X440910000Y-253681666D01*
X440843333Y-253648333D01*
X440810000Y-253615000D01*
X440776666Y-253548333D01*
X440743333Y-253415000D01*
X440743333Y-253248333D01*
X440776666Y-253115000D01*
X440810000Y-253048333D01*
X440843333Y-253015000D01*
X440910000Y-252981666D01*
X441443333Y-253615000D02*
X441476666Y-253648333D01*
X441443333Y-253681666D01*
X441410000Y-253648333D01*
X441443333Y-253615000D01*
X441443333Y-253681666D01*
X442143333Y-253681666D02*
X441743333Y-253681666D01*
X441943333Y-253681666D02*
X441943333Y-252981666D01*
X441876666Y-253081666D01*
X441810000Y-253148333D01*
X441743333Y-253181666D01*
X442743333Y-253215000D02*
X442743333Y-253681666D01*
X442443333Y-253215000D02*
X442443333Y-253581666D01*
X442476666Y-253648333D01*
X442543333Y-253681666D01*
X442643333Y-253681666D01*
X442710000Y-253648333D01*
X442743333Y-253615000D01*
X442976666Y-253215000D02*
X443243333Y-253215000D01*
X443076666Y-253681666D02*
X443076666Y-253081666D01*
X443110000Y-253015000D01*
X443176666Y-252981666D01*
X443243333Y-252981666D01*
X453610000Y-252981666D02*
X453676666Y-252981666D01*
X453743333Y-253015000D01*
X453776666Y-253048333D01*
X453810000Y-253115000D01*
X453843333Y-253248333D01*
X453843333Y-253415000D01*
X453810000Y-253548333D01*
X453776666Y-253615000D01*
X453743333Y-253648333D01*
X453676666Y-253681666D01*
X453610000Y-253681666D01*
X453543333Y-253648333D01*
X453510000Y-253615000D01*
X453476666Y-253548333D01*
X453443333Y-253415000D01*
X453443333Y-253248333D01*
X453476666Y-253115000D01*
X453510000Y-253048333D01*
X453543333Y-253015000D01*
X453610000Y-252981666D01*
X454143333Y-253615000D02*
X454176666Y-253648333D01*
X454143333Y-253681666D01*
X454110000Y-253648333D01*
X454143333Y-253615000D01*
X454143333Y-253681666D01*
X454843333Y-253681666D02*
X454443333Y-253681666D01*
X454643333Y-253681666D02*
X454643333Y-252981666D01*
X454576666Y-253081666D01*
X454510000Y-253148333D01*
X454443333Y-253181666D01*
X455443333Y-253215000D02*
X455443333Y-253681666D01*
X455143333Y-253215000D02*
X455143333Y-253581666D01*
X455176666Y-253648333D01*
X455243333Y-253681666D01*
X455343333Y-253681666D01*
X455410000Y-253648333D01*
X455443333Y-253615000D01*
X455676666Y-253215000D02*
X455943333Y-253215000D01*
X455776666Y-253681666D02*
X455776666Y-253081666D01*
X455810000Y-253015000D01*
X455876666Y-252981666D01*
X455943333Y-252981666D01*
X466310000Y-252981666D02*
X466376666Y-252981666D01*
X466443333Y-253015000D01*
X466476666Y-253048333D01*
X466510000Y-253115000D01*
X466543333Y-253248333D01*
X466543333Y-253415000D01*
X466510000Y-253548333D01*
X466476666Y-253615000D01*
X466443333Y-253648333D01*
X466376666Y-253681666D01*
X466310000Y-253681666D01*
X466243333Y-253648333D01*
X466210000Y-253615000D01*
X466176666Y-253548333D01*
X466143333Y-253415000D01*
X466143333Y-253248333D01*
X466176666Y-253115000D01*
X466210000Y-253048333D01*
X466243333Y-253015000D01*
X466310000Y-252981666D01*
X466843333Y-253615000D02*
X466876666Y-253648333D01*
X466843333Y-253681666D01*
X466810000Y-253648333D01*
X466843333Y-253615000D01*
X466843333Y-253681666D01*
X467543333Y-253681666D02*
X467143333Y-253681666D01*
X467343333Y-253681666D02*
X467343333Y-252981666D01*
X467276666Y-253081666D01*
X467210000Y-253148333D01*
X467143333Y-253181666D01*
X468143333Y-253215000D02*
X468143333Y-253681666D01*
X467843333Y-253215000D02*
X467843333Y-253581666D01*
X467876666Y-253648333D01*
X467943333Y-253681666D01*
X468043333Y-253681666D01*
X468110000Y-253648333D01*
X468143333Y-253615000D01*
X468376666Y-253215000D02*
X468643333Y-253215000D01*
X468476666Y-253681666D02*
X468476666Y-253081666D01*
X468510000Y-253015000D01*
X468576666Y-252981666D01*
X468643333Y-252981666D01*
X479010000Y-252981666D02*
X479076666Y-252981666D01*
X479143333Y-253015000D01*
X479176666Y-253048333D01*
X479210000Y-253115000D01*
X479243333Y-253248333D01*
X479243333Y-253415000D01*
X479210000Y-253548333D01*
X479176666Y-253615000D01*
X479143333Y-253648333D01*
X479076666Y-253681666D01*
X479010000Y-253681666D01*
X478943333Y-253648333D01*
X478910000Y-253615000D01*
X478876666Y-253548333D01*
X478843333Y-253415000D01*
X478843333Y-253248333D01*
X478876666Y-253115000D01*
X478910000Y-253048333D01*
X478943333Y-253015000D01*
X479010000Y-252981666D01*
X479543333Y-253615000D02*
X479576666Y-253648333D01*
X479543333Y-253681666D01*
X479510000Y-253648333D01*
X479543333Y-253615000D01*
X479543333Y-253681666D01*
X480243333Y-253681666D02*
X479843333Y-253681666D01*
X480043333Y-253681666D02*
X480043333Y-252981666D01*
X479976666Y-253081666D01*
X479910000Y-253148333D01*
X479843333Y-253181666D01*
X480843333Y-253215000D02*
X480843333Y-253681666D01*
X480543333Y-253215000D02*
X480543333Y-253581666D01*
X480576666Y-253648333D01*
X480643333Y-253681666D01*
X480743333Y-253681666D01*
X480810000Y-253648333D01*
X480843333Y-253615000D01*
X481076666Y-253215000D02*
X481343333Y-253215000D01*
X481176666Y-253681666D02*
X481176666Y-253081666D01*
X481210000Y-253015000D01*
X481276666Y-252981666D01*
X481343333Y-252981666D01*
X491710000Y-252981666D02*
X491776666Y-252981666D01*
X491843333Y-253015000D01*
X491876666Y-253048333D01*
X491910000Y-253115000D01*
X491943333Y-253248333D01*
X491943333Y-253415000D01*
X491910000Y-253548333D01*
X491876666Y-253615000D01*
X491843333Y-253648333D01*
X491776666Y-253681666D01*
X491710000Y-253681666D01*
X491643333Y-253648333D01*
X491610000Y-253615000D01*
X491576666Y-253548333D01*
X491543333Y-253415000D01*
X491543333Y-253248333D01*
X491576666Y-253115000D01*
X491610000Y-253048333D01*
X491643333Y-253015000D01*
X491710000Y-252981666D01*
X492243333Y-253615000D02*
X492276666Y-253648333D01*
X492243333Y-253681666D01*
X492210000Y-253648333D01*
X492243333Y-253615000D01*
X492243333Y-253681666D01*
X492943333Y-253681666D02*
X492543333Y-253681666D01*
X492743333Y-253681666D02*
X492743333Y-252981666D01*
X492676666Y-253081666D01*
X492610000Y-253148333D01*
X492543333Y-253181666D01*
X493543333Y-253215000D02*
X493543333Y-253681666D01*
X493243333Y-253215000D02*
X493243333Y-253581666D01*
X493276666Y-253648333D01*
X493343333Y-253681666D01*
X493443333Y-253681666D01*
X493510000Y-253648333D01*
X493543333Y-253615000D01*
X493776666Y-253215000D02*
X494043333Y-253215000D01*
X493876666Y-253681666D02*
X493876666Y-253081666D01*
X493910000Y-253015000D01*
X493976666Y-252981666D01*
X494043333Y-252981666D01*
X504410000Y-252981666D02*
X504476666Y-252981666D01*
X504543333Y-253015000D01*
X504576666Y-253048333D01*
X504610000Y-253115000D01*
X504643333Y-253248333D01*
X504643333Y-253415000D01*
X504610000Y-253548333D01*
X504576666Y-253615000D01*
X504543333Y-253648333D01*
X504476666Y-253681666D01*
X504410000Y-253681666D01*
X504343333Y-253648333D01*
X504310000Y-253615000D01*
X504276666Y-253548333D01*
X504243333Y-253415000D01*
X504243333Y-253248333D01*
X504276666Y-253115000D01*
X504310000Y-253048333D01*
X504343333Y-253015000D01*
X504410000Y-252981666D01*
X504943333Y-253615000D02*
X504976666Y-253648333D01*
X504943333Y-253681666D01*
X504910000Y-253648333D01*
X504943333Y-253615000D01*
X504943333Y-253681666D01*
X505643333Y-253681666D02*
X505243333Y-253681666D01*
X505443333Y-253681666D02*
X505443333Y-252981666D01*
X505376666Y-253081666D01*
X505310000Y-253148333D01*
X505243333Y-253181666D01*
X506243333Y-253215000D02*
X506243333Y-253681666D01*
X505943333Y-253215000D02*
X505943333Y-253581666D01*
X505976666Y-253648333D01*
X506043333Y-253681666D01*
X506143333Y-253681666D01*
X506210000Y-253648333D01*
X506243333Y-253615000D01*
X506476666Y-253215000D02*
X506743333Y-253215000D01*
X506576666Y-253681666D02*
X506576666Y-253081666D01*
X506610000Y-253015000D01*
X506676666Y-252981666D01*
X506743333Y-252981666D01*
X506875000Y-308834285D02*
X506946428Y-308834285D01*
X507017857Y-308870000D01*
X507053571Y-308905714D01*
X507089285Y-308977142D01*
X507125000Y-309120000D01*
X507125000Y-309298571D01*
X507089285Y-309441428D01*
X507053571Y-309512857D01*
X507017857Y-309548571D01*
X506946428Y-309584285D01*
X506875000Y-309584285D01*
X506803571Y-309548571D01*
X506767857Y-309512857D01*
X506732142Y-309441428D01*
X506696428Y-309298571D01*
X506696428Y-309120000D01*
X506732142Y-308977142D01*
X506767857Y-308905714D01*
X506803571Y-308870000D01*
X506875000Y-308834285D01*
X507446428Y-309512857D02*
X507482142Y-309548571D01*
X507446428Y-309584285D01*
X507410714Y-309548571D01*
X507446428Y-309512857D01*
X507446428Y-309584285D01*
X508196428Y-309584285D02*
X507767857Y-309584285D01*
X507982142Y-309584285D02*
X507982142Y-308834285D01*
X507910714Y-308941428D01*
X507839285Y-309012857D01*
X507767857Y-309048571D01*
X508839285Y-309084285D02*
X508839285Y-309584285D01*
X508517857Y-309084285D02*
X508517857Y-309477142D01*
X508553571Y-309548571D01*
X508625000Y-309584285D01*
X508732142Y-309584285D01*
X508803571Y-309548571D01*
X508839285Y-309512857D01*
X509089285Y-309084285D02*
X509375000Y-309084285D01*
X509196428Y-309584285D02*
X509196428Y-308941428D01*
X509232142Y-308870000D01*
X509303571Y-308834285D01*
X509375000Y-308834285D01*
X500525000Y-308834285D02*
X500596428Y-308834285D01*
X500667857Y-308870000D01*
X500703571Y-308905714D01*
X500739285Y-308977142D01*
X500775000Y-309120000D01*
X500775000Y-309298571D01*
X500739285Y-309441428D01*
X500703571Y-309512857D01*
X500667857Y-309548571D01*
X500596428Y-309584285D01*
X500525000Y-309584285D01*
X500453571Y-309548571D01*
X500417857Y-309512857D01*
X500382142Y-309441428D01*
X500346428Y-309298571D01*
X500346428Y-309120000D01*
X500382142Y-308977142D01*
X500417857Y-308905714D01*
X500453571Y-308870000D01*
X500525000Y-308834285D01*
X501096428Y-309512857D02*
X501132142Y-309548571D01*
X501096428Y-309584285D01*
X501060714Y-309548571D01*
X501096428Y-309512857D01*
X501096428Y-309584285D01*
X501846428Y-309584285D02*
X501417857Y-309584285D01*
X501632142Y-309584285D02*
X501632142Y-308834285D01*
X501560714Y-308941428D01*
X501489285Y-309012857D01*
X501417857Y-309048571D01*
X502489285Y-309084285D02*
X502489285Y-309584285D01*
X502167857Y-309084285D02*
X502167857Y-309477142D01*
X502203571Y-309548571D01*
X502275000Y-309584285D01*
X502382142Y-309584285D01*
X502453571Y-309548571D01*
X502489285Y-309512857D01*
X502739285Y-309084285D02*
X503025000Y-309084285D01*
X502846428Y-309584285D02*
X502846428Y-308941428D01*
X502882142Y-308870000D01*
X502953571Y-308834285D01*
X503025000Y-308834285D01*
%TO.C,1uf*%
X507660714Y-313394285D02*
X507232142Y-313394285D01*
X507446428Y-313394285D02*
X507446428Y-312644285D01*
X507375000Y-312751428D01*
X507303571Y-312822857D01*
X507232142Y-312858571D01*
X508303571Y-312894285D02*
X508303571Y-313394285D01*
X507982142Y-312894285D02*
X507982142Y-313287142D01*
X508017857Y-313358571D01*
X508089285Y-313394285D01*
X508196428Y-313394285D01*
X508267857Y-313358571D01*
X508303571Y-313322857D01*
X508553571Y-312894285D02*
X508839285Y-312894285D01*
X508660714Y-313394285D02*
X508660714Y-312751428D01*
X508696428Y-312680000D01*
X508767857Y-312644285D01*
X508839285Y-312644285D01*
%TO.C,10uf*%
D11*
X510246428Y-342717380D02*
X509675000Y-342717380D01*
X509960714Y-342717380D02*
X509960714Y-341717380D01*
X509865476Y-341860238D01*
X509770238Y-341955476D01*
X509675000Y-342003095D01*
X510865476Y-341717380D02*
X510960714Y-341717380D01*
X511055952Y-341765000D01*
X511103571Y-341812619D01*
X511151190Y-341907857D01*
X511198809Y-342098333D01*
X511198809Y-342336428D01*
X511151190Y-342526904D01*
X511103571Y-342622142D01*
X511055952Y-342669761D01*
X510960714Y-342717380D01*
X510865476Y-342717380D01*
X510770238Y-342669761D01*
X510722619Y-342622142D01*
X510675000Y-342526904D01*
X510627380Y-342336428D01*
X510627380Y-342098333D01*
X510675000Y-341907857D01*
X510722619Y-341812619D01*
X510770238Y-341765000D01*
X510865476Y-341717380D01*
X512055952Y-342050714D02*
X512055952Y-342717380D01*
X511627380Y-342050714D02*
X511627380Y-342574523D01*
X511675000Y-342669761D01*
X511770238Y-342717380D01*
X511913095Y-342717380D01*
X512008333Y-342669761D01*
X512055952Y-342622142D01*
X512389285Y-342050714D02*
X512770238Y-342050714D01*
X512532142Y-342717380D02*
X512532142Y-341860238D01*
X512579761Y-341765000D01*
X512675000Y-341717380D01*
X512770238Y-341717380D01*
%TO.C,1uf*%
D13*
X501290714Y-313394285D02*
X500862142Y-313394285D01*
X501076428Y-313394285D02*
X501076428Y-312644285D01*
X501005000Y-312751428D01*
X500933571Y-312822857D01*
X500862142Y-312858571D01*
X501933571Y-312894285D02*
X501933571Y-313394285D01*
X501612142Y-312894285D02*
X501612142Y-313287142D01*
X501647857Y-313358571D01*
X501719285Y-313394285D01*
X501826428Y-313394285D01*
X501897857Y-313358571D01*
X501933571Y-313322857D01*
X502183571Y-312894285D02*
X502469285Y-312894285D01*
X502290714Y-313394285D02*
X502290714Y-312751428D01*
X502326428Y-312680000D01*
X502397857Y-312644285D01*
X502469285Y-312644285D01*
%TO.C,10uf*%
D11*
X510246428Y-336367380D02*
X509675000Y-336367380D01*
X509960714Y-336367380D02*
X509960714Y-335367380D01*
X509865476Y-335510238D01*
X509770238Y-335605476D01*
X509675000Y-335653095D01*
X510865476Y-335367380D02*
X510960714Y-335367380D01*
X511055952Y-335415000D01*
X511103571Y-335462619D01*
X511151190Y-335557857D01*
X511198809Y-335748333D01*
X511198809Y-335986428D01*
X511151190Y-336176904D01*
X511103571Y-336272142D01*
X511055952Y-336319761D01*
X510960714Y-336367380D01*
X510865476Y-336367380D01*
X510770238Y-336319761D01*
X510722619Y-336272142D01*
X510675000Y-336176904D01*
X510627380Y-335986428D01*
X510627380Y-335748333D01*
X510675000Y-335557857D01*
X510722619Y-335462619D01*
X510770238Y-335415000D01*
X510865476Y-335367380D01*
X512055952Y-335700714D02*
X512055952Y-336367380D01*
X511627380Y-335700714D02*
X511627380Y-336224523D01*
X511675000Y-336319761D01*
X511770238Y-336367380D01*
X511913095Y-336367380D01*
X512008333Y-336319761D01*
X512055952Y-336272142D01*
X512389285Y-335700714D02*
X512770238Y-335700714D01*
X512532142Y-336367380D02*
X512532142Y-335510238D01*
X512579761Y-335415000D01*
X512675000Y-335367380D01*
X512770238Y-335367380D01*
%TO.C,ISP*%
X377483809Y-194972380D02*
X377483809Y-193972380D01*
X377912380Y-194924761D02*
X378055238Y-194972380D01*
X378293333Y-194972380D01*
X378388571Y-194924761D01*
X378436190Y-194877142D01*
X378483809Y-194781904D01*
X378483809Y-194686666D01*
X378436190Y-194591428D01*
X378388571Y-194543809D01*
X378293333Y-194496190D01*
X378102857Y-194448571D01*
X378007619Y-194400952D01*
X377960000Y-194353333D01*
X377912380Y-194258095D01*
X377912380Y-194162857D01*
X377960000Y-194067619D01*
X378007619Y-194020000D01*
X378102857Y-193972380D01*
X378340952Y-193972380D01*
X378483809Y-194020000D01*
X378912380Y-194972380D02*
X378912380Y-193972380D01*
X379293333Y-193972380D01*
X379388571Y-194020000D01*
X379436190Y-194067619D01*
X379483809Y-194162857D01*
X379483809Y-194305714D01*
X379436190Y-194400952D01*
X379388571Y-194448571D01*
X379293333Y-194496190D01*
X378912380Y-194496190D01*
%TO.C,74138*%
X402256904Y-254722380D02*
X402923571Y-254722380D01*
X402495000Y-255722380D01*
X403733095Y-255055714D02*
X403733095Y-255722380D01*
X403495000Y-254674761D02*
X403256904Y-255389047D01*
X403875952Y-255389047D01*
X404780714Y-255722380D02*
X404209285Y-255722380D01*
X404495000Y-255722380D02*
X404495000Y-254722380D01*
X404399761Y-254865238D01*
X404304523Y-254960476D01*
X404209285Y-255008095D01*
X405114047Y-254722380D02*
X405733095Y-254722380D01*
X405399761Y-255103333D01*
X405542619Y-255103333D01*
X405637857Y-255150952D01*
X405685476Y-255198571D01*
X405733095Y-255293809D01*
X405733095Y-255531904D01*
X405685476Y-255627142D01*
X405637857Y-255674761D01*
X405542619Y-255722380D01*
X405256904Y-255722380D01*
X405161666Y-255674761D01*
X405114047Y-255627142D01*
X406304523Y-255150952D02*
X406209285Y-255103333D01*
X406161666Y-255055714D01*
X406114047Y-254960476D01*
X406114047Y-254912857D01*
X406161666Y-254817619D01*
X406209285Y-254770000D01*
X406304523Y-254722380D01*
X406495000Y-254722380D01*
X406590238Y-254770000D01*
X406637857Y-254817619D01*
X406685476Y-254912857D01*
X406685476Y-254960476D01*
X406637857Y-255055714D01*
X406590238Y-255103333D01*
X406495000Y-255150952D01*
X406304523Y-255150952D01*
X406209285Y-255198571D01*
X406161666Y-255246190D01*
X406114047Y-255341428D01*
X406114047Y-255531904D01*
X406161666Y-255627142D01*
X406209285Y-255674761D01*
X406304523Y-255722380D01*
X406495000Y-255722380D01*
X406590238Y-255674761D01*
X406637857Y-255627142D01*
X406685476Y-255531904D01*
X406685476Y-255341428D01*
X406637857Y-255246190D01*
X406590238Y-255198571D01*
X406495000Y-255150952D01*
%TO.C,Osc*%
X377277380Y-232068571D02*
X377277380Y-231878095D01*
X377325000Y-231782857D01*
X377420238Y-231687619D01*
X377610714Y-231640000D01*
X377944047Y-231640000D01*
X378134523Y-231687619D01*
X378229761Y-231782857D01*
X378277380Y-231878095D01*
X378277380Y-232068571D01*
X378229761Y-232163809D01*
X378134523Y-232259047D01*
X377944047Y-232306666D01*
X377610714Y-232306666D01*
X377420238Y-232259047D01*
X377325000Y-232163809D01*
X377277380Y-232068571D01*
X378229761Y-231259047D02*
X378277380Y-231163809D01*
X378277380Y-230973333D01*
X378229761Y-230878095D01*
X378134523Y-230830476D01*
X378086904Y-230830476D01*
X377991666Y-230878095D01*
X377944047Y-230973333D01*
X377944047Y-231116190D01*
X377896428Y-231211428D01*
X377801190Y-231259047D01*
X377753571Y-231259047D01*
X377658333Y-231211428D01*
X377610714Y-231116190D01*
X377610714Y-230973333D01*
X377658333Y-230878095D01*
X378229761Y-229973333D02*
X378277380Y-230068571D01*
X378277380Y-230259047D01*
X378229761Y-230354285D01*
X378182142Y-230401904D01*
X378086904Y-230449523D01*
X377801190Y-230449523D01*
X377705952Y-230401904D01*
X377658333Y-230354285D01*
X377610714Y-230259047D01*
X377610714Y-230068571D01*
X377658333Y-229973333D01*
%TO.C,20pf*%
D13*
X372515000Y-223702619D02*
X372562619Y-223655000D01*
X372657857Y-223607380D01*
X372895952Y-223607380D01*
X372991190Y-223655000D01*
X373038809Y-223702619D01*
X373086428Y-223797857D01*
X373086428Y-223893095D01*
X373038809Y-224035952D01*
X372467380Y-224607380D01*
X373086428Y-224607380D01*
X373705476Y-223607380D02*
X373800714Y-223607380D01*
X373895952Y-223655000D01*
X373943571Y-223702619D01*
X373991190Y-223797857D01*
X374038809Y-223988333D01*
X374038809Y-224226428D01*
X373991190Y-224416904D01*
X373943571Y-224512142D01*
X373895952Y-224559761D01*
X373800714Y-224607380D01*
X373705476Y-224607380D01*
X373610238Y-224559761D01*
X373562619Y-224512142D01*
X373515000Y-224416904D01*
X373467380Y-224226428D01*
X373467380Y-223988333D01*
X373515000Y-223797857D01*
X373562619Y-223702619D01*
X373610238Y-223655000D01*
X373705476Y-223607380D01*
X374467380Y-223940714D02*
X374467380Y-224940714D01*
X374467380Y-223988333D02*
X374562619Y-223940714D01*
X374753095Y-223940714D01*
X374848333Y-223988333D01*
X374895952Y-224035952D01*
X374943571Y-224131190D01*
X374943571Y-224416904D01*
X374895952Y-224512142D01*
X374848333Y-224559761D01*
X374753095Y-224607380D01*
X374562619Y-224607380D01*
X374467380Y-224559761D01*
X375229285Y-223940714D02*
X375610238Y-223940714D01*
X375372142Y-224607380D02*
X375372142Y-223750238D01*
X375419761Y-223655000D01*
X375515000Y-223607380D01*
X375610238Y-223607380D01*
%TO.C,0.1uf*%
X517110000Y-252981666D02*
X517176666Y-252981666D01*
X517243333Y-253015000D01*
X517276666Y-253048333D01*
X517310000Y-253115000D01*
X517343333Y-253248333D01*
X517343333Y-253415000D01*
X517310000Y-253548333D01*
X517276666Y-253615000D01*
X517243333Y-253648333D01*
X517176666Y-253681666D01*
X517110000Y-253681666D01*
X517043333Y-253648333D01*
X517010000Y-253615000D01*
X516976666Y-253548333D01*
X516943333Y-253415000D01*
X516943333Y-253248333D01*
X516976666Y-253115000D01*
X517010000Y-253048333D01*
X517043333Y-253015000D01*
X517110000Y-252981666D01*
X517643333Y-253615000D02*
X517676666Y-253648333D01*
X517643333Y-253681666D01*
X517610000Y-253648333D01*
X517643333Y-253615000D01*
X517643333Y-253681666D01*
X518343333Y-253681666D02*
X517943333Y-253681666D01*
X518143333Y-253681666D02*
X518143333Y-252981666D01*
X518076666Y-253081666D01*
X518010000Y-253148333D01*
X517943333Y-253181666D01*
X518943333Y-253215000D02*
X518943333Y-253681666D01*
X518643333Y-253215000D02*
X518643333Y-253581666D01*
X518676666Y-253648333D01*
X518743333Y-253681666D01*
X518843333Y-253681666D01*
X518910000Y-253648333D01*
X518943333Y-253615000D01*
X519176666Y-253215000D02*
X519443333Y-253215000D01*
X519276666Y-253681666D02*
X519276666Y-253081666D01*
X519310000Y-253015000D01*
X519376666Y-252981666D01*
X519443333Y-252981666D01*
%TO.C,12V DC*%
D12*
X513755000Y-354260476D02*
X513040714Y-354260476D01*
X513397857Y-354260476D02*
X513397857Y-353010476D01*
X513278809Y-353189047D01*
X513159761Y-353308095D01*
X513040714Y-353367619D01*
X514231190Y-353129523D02*
X514290714Y-353070000D01*
X514409761Y-353010476D01*
X514707380Y-353010476D01*
X514826428Y-353070000D01*
X514885952Y-353129523D01*
X514945476Y-353248571D01*
X514945476Y-353367619D01*
X514885952Y-353546190D01*
X514171666Y-354260476D01*
X514945476Y-354260476D01*
X515302619Y-353010476D02*
X515719285Y-354260476D01*
X516135952Y-353010476D01*
X517505000Y-354260476D02*
X517505000Y-353010476D01*
X517802619Y-353010476D01*
X517981190Y-353070000D01*
X518100238Y-353189047D01*
X518159761Y-353308095D01*
X518219285Y-353546190D01*
X518219285Y-353724761D01*
X518159761Y-353962857D01*
X518100238Y-354081904D01*
X517981190Y-354200952D01*
X517802619Y-354260476D01*
X517505000Y-354260476D01*
X519469285Y-354141428D02*
X519409761Y-354200952D01*
X519231190Y-354260476D01*
X519112142Y-354260476D01*
X518933571Y-354200952D01*
X518814523Y-354081904D01*
X518755000Y-353962857D01*
X518695476Y-353724761D01*
X518695476Y-353546190D01*
X518755000Y-353308095D01*
X518814523Y-353189047D01*
X518933571Y-353070000D01*
X519112142Y-353010476D01*
X519231190Y-353010476D01*
X519409761Y-353070000D01*
X519469285Y-353129523D01*
%TO.C,7805*%
D11*
X491831380Y-333231904D02*
X491831380Y-332565238D01*
X492831380Y-332993809D01*
X492259952Y-332041428D02*
X492212333Y-332136666D01*
X492164714Y-332184285D01*
X492069476Y-332231904D01*
X492021857Y-332231904D01*
X491926619Y-332184285D01*
X491879000Y-332136666D01*
X491831380Y-332041428D01*
X491831380Y-331850952D01*
X491879000Y-331755714D01*
X491926619Y-331708095D01*
X492021857Y-331660476D01*
X492069476Y-331660476D01*
X492164714Y-331708095D01*
X492212333Y-331755714D01*
X492259952Y-331850952D01*
X492259952Y-332041428D01*
X492307571Y-332136666D01*
X492355190Y-332184285D01*
X492450428Y-332231904D01*
X492640904Y-332231904D01*
X492736142Y-332184285D01*
X492783761Y-332136666D01*
X492831380Y-332041428D01*
X492831380Y-331850952D01*
X492783761Y-331755714D01*
X492736142Y-331708095D01*
X492640904Y-331660476D01*
X492450428Y-331660476D01*
X492355190Y-331708095D01*
X492307571Y-331755714D01*
X492259952Y-331850952D01*
X491831380Y-331041428D02*
X491831380Y-330946190D01*
X491879000Y-330850952D01*
X491926619Y-330803333D01*
X492021857Y-330755714D01*
X492212333Y-330708095D01*
X492450428Y-330708095D01*
X492640904Y-330755714D01*
X492736142Y-330803333D01*
X492783761Y-330850952D01*
X492831380Y-330946190D01*
X492831380Y-331041428D01*
X492783761Y-331136666D01*
X492736142Y-331184285D01*
X492640904Y-331231904D01*
X492450428Y-331279523D01*
X492212333Y-331279523D01*
X492021857Y-331231904D01*
X491926619Y-331184285D01*
X491879000Y-331136666D01*
X491831380Y-331041428D01*
X491831380Y-329803333D02*
X491831380Y-330279523D01*
X492307571Y-330327142D01*
X492259952Y-330279523D01*
X492212333Y-330184285D01*
X492212333Y-329946190D01*
X492259952Y-329850952D01*
X492307571Y-329803333D01*
X492402809Y-329755714D01*
X492640904Y-329755714D01*
X492736142Y-329803333D01*
X492783761Y-329850952D01*
X492831380Y-329946190D01*
X492831380Y-330184285D01*
X492783761Y-330279523D01*
X492736142Y-330327142D01*
X514183380Y-326881904D02*
X514183380Y-326215238D01*
X515183380Y-326643809D01*
X514611952Y-325691428D02*
X514564333Y-325786666D01*
X514516714Y-325834285D01*
X514421476Y-325881904D01*
X514373857Y-325881904D01*
X514278619Y-325834285D01*
X514231000Y-325786666D01*
X514183380Y-325691428D01*
X514183380Y-325500952D01*
X514231000Y-325405714D01*
X514278619Y-325358095D01*
X514373857Y-325310476D01*
X514421476Y-325310476D01*
X514516714Y-325358095D01*
X514564333Y-325405714D01*
X514611952Y-325500952D01*
X514611952Y-325691428D01*
X514659571Y-325786666D01*
X514707190Y-325834285D01*
X514802428Y-325881904D01*
X514992904Y-325881904D01*
X515088142Y-325834285D01*
X515135761Y-325786666D01*
X515183380Y-325691428D01*
X515183380Y-325500952D01*
X515135761Y-325405714D01*
X515088142Y-325358095D01*
X514992904Y-325310476D01*
X514802428Y-325310476D01*
X514707190Y-325358095D01*
X514659571Y-325405714D01*
X514611952Y-325500952D01*
X514183380Y-324691428D02*
X514183380Y-324596190D01*
X514231000Y-324500952D01*
X514278619Y-324453333D01*
X514373857Y-324405714D01*
X514564333Y-324358095D01*
X514802428Y-324358095D01*
X514992904Y-324405714D01*
X515088142Y-324453333D01*
X515135761Y-324500952D01*
X515183380Y-324596190D01*
X515183380Y-324691428D01*
X515135761Y-324786666D01*
X515088142Y-324834285D01*
X514992904Y-324881904D01*
X514802428Y-324929523D01*
X514564333Y-324929523D01*
X514373857Y-324881904D01*
X514278619Y-324834285D01*
X514231000Y-324786666D01*
X514183380Y-324691428D01*
X514183380Y-323453333D02*
X514183380Y-323929523D01*
X514659571Y-323977142D01*
X514611952Y-323929523D01*
X514564333Y-323834285D01*
X514564333Y-323596190D01*
X514611952Y-323500952D01*
X514659571Y-323453333D01*
X514754809Y-323405714D01*
X514992904Y-323405714D01*
X515088142Y-323453333D01*
X515135761Y-323500952D01*
X515183380Y-323596190D01*
X515183380Y-323834285D01*
X515135761Y-323929523D01*
X515088142Y-323977142D01*
%TO.C,RAM2*%
X448413333Y-255722380D02*
X448080000Y-255246190D01*
X447841904Y-255722380D02*
X447841904Y-254722380D01*
X448222857Y-254722380D01*
X448318095Y-254770000D01*
X448365714Y-254817619D01*
X448413333Y-254912857D01*
X448413333Y-255055714D01*
X448365714Y-255150952D01*
X448318095Y-255198571D01*
X448222857Y-255246190D01*
X447841904Y-255246190D01*
X448794285Y-255436666D02*
X449270476Y-255436666D01*
X448699047Y-255722380D02*
X449032380Y-254722380D01*
X449365714Y-255722380D01*
X449699047Y-255722380D02*
X449699047Y-254722380D01*
X450032380Y-255436666D01*
X450365714Y-254722380D01*
X450365714Y-255722380D01*
X450794285Y-254817619D02*
X450841904Y-254770000D01*
X450937142Y-254722380D01*
X451175238Y-254722380D01*
X451270476Y-254770000D01*
X451318095Y-254817619D01*
X451365714Y-254912857D01*
X451365714Y-255008095D01*
X451318095Y-255150952D01*
X450746666Y-255722380D01*
X451365714Y-255722380D01*
%TO.C,RAM1*%
X435713333Y-255722380D02*
X435380000Y-255246190D01*
X435141904Y-255722380D02*
X435141904Y-254722380D01*
X435522857Y-254722380D01*
X435618095Y-254770000D01*
X435665714Y-254817619D01*
X435713333Y-254912857D01*
X435713333Y-255055714D01*
X435665714Y-255150952D01*
X435618095Y-255198571D01*
X435522857Y-255246190D01*
X435141904Y-255246190D01*
X436094285Y-255436666D02*
X436570476Y-255436666D01*
X435999047Y-255722380D02*
X436332380Y-254722380D01*
X436665714Y-255722380D01*
X436999047Y-255722380D02*
X436999047Y-254722380D01*
X437332380Y-255436666D01*
X437665714Y-254722380D01*
X437665714Y-255722380D01*
X438665714Y-255722380D02*
X438094285Y-255722380D01*
X438380000Y-255722380D02*
X438380000Y-254722380D01*
X438284761Y-254865238D01*
X438189523Y-254960476D01*
X438094285Y-255008095D01*
%TO.C,RAM0*%
X423013333Y-255722380D02*
X422680000Y-255246190D01*
X422441904Y-255722380D02*
X422441904Y-254722380D01*
X422822857Y-254722380D01*
X422918095Y-254770000D01*
X422965714Y-254817619D01*
X423013333Y-254912857D01*
X423013333Y-255055714D01*
X422965714Y-255150952D01*
X422918095Y-255198571D01*
X422822857Y-255246190D01*
X422441904Y-255246190D01*
X423394285Y-255436666D02*
X423870476Y-255436666D01*
X423299047Y-255722380D02*
X423632380Y-254722380D01*
X423965714Y-255722380D01*
X424299047Y-255722380D02*
X424299047Y-254722380D01*
X424632380Y-255436666D01*
X424965714Y-254722380D01*
X424965714Y-255722380D01*
X425632380Y-254722380D02*
X425727619Y-254722380D01*
X425822857Y-254770000D01*
X425870476Y-254817619D01*
X425918095Y-254912857D01*
X425965714Y-255103333D01*
X425965714Y-255341428D01*
X425918095Y-255531904D01*
X425870476Y-255627142D01*
X425822857Y-255674761D01*
X425727619Y-255722380D01*
X425632380Y-255722380D01*
X425537142Y-255674761D01*
X425489523Y-255627142D01*
X425441904Y-255531904D01*
X425394285Y-255341428D01*
X425394285Y-255103333D01*
X425441904Y-254912857D01*
X425489523Y-254817619D01*
X425537142Y-254770000D01*
X425632380Y-254722380D01*
%TO.C,RAM7*%
X511913333Y-255722380D02*
X511580000Y-255246190D01*
X511341904Y-255722380D02*
X511341904Y-254722380D01*
X511722857Y-254722380D01*
X511818095Y-254770000D01*
X511865714Y-254817619D01*
X511913333Y-254912857D01*
X511913333Y-255055714D01*
X511865714Y-255150952D01*
X511818095Y-255198571D01*
X511722857Y-255246190D01*
X511341904Y-255246190D01*
X512294285Y-255436666D02*
X512770476Y-255436666D01*
X512199047Y-255722380D02*
X512532380Y-254722380D01*
X512865714Y-255722380D01*
X513199047Y-255722380D02*
X513199047Y-254722380D01*
X513532380Y-255436666D01*
X513865714Y-254722380D01*
X513865714Y-255722380D01*
X514246666Y-254722380D02*
X514913333Y-254722380D01*
X514484761Y-255722380D01*
%TO.C,RAM6*%
X499213333Y-255722380D02*
X498880000Y-255246190D01*
X498641904Y-255722380D02*
X498641904Y-254722380D01*
X499022857Y-254722380D01*
X499118095Y-254770000D01*
X499165714Y-254817619D01*
X499213333Y-254912857D01*
X499213333Y-255055714D01*
X499165714Y-255150952D01*
X499118095Y-255198571D01*
X499022857Y-255246190D01*
X498641904Y-255246190D01*
X499594285Y-255436666D02*
X500070476Y-255436666D01*
X499499047Y-255722380D02*
X499832380Y-254722380D01*
X500165714Y-255722380D01*
X500499047Y-255722380D02*
X500499047Y-254722380D01*
X500832380Y-255436666D01*
X501165714Y-254722380D01*
X501165714Y-255722380D01*
X502070476Y-254722380D02*
X501880000Y-254722380D01*
X501784761Y-254770000D01*
X501737142Y-254817619D01*
X501641904Y-254960476D01*
X501594285Y-255150952D01*
X501594285Y-255531904D01*
X501641904Y-255627142D01*
X501689523Y-255674761D01*
X501784761Y-255722380D01*
X501975238Y-255722380D01*
X502070476Y-255674761D01*
X502118095Y-255627142D01*
X502165714Y-255531904D01*
X502165714Y-255293809D01*
X502118095Y-255198571D01*
X502070476Y-255150952D01*
X501975238Y-255103333D01*
X501784761Y-255103333D01*
X501689523Y-255150952D01*
X501641904Y-255198571D01*
X501594285Y-255293809D01*
%TO.C,RAM5*%
X486513333Y-255722380D02*
X486180000Y-255246190D01*
X485941904Y-255722380D02*
X485941904Y-254722380D01*
X486322857Y-254722380D01*
X486418095Y-254770000D01*
X486465714Y-254817619D01*
X486513333Y-254912857D01*
X486513333Y-255055714D01*
X486465714Y-255150952D01*
X486418095Y-255198571D01*
X486322857Y-255246190D01*
X485941904Y-255246190D01*
X486894285Y-255436666D02*
X487370476Y-255436666D01*
X486799047Y-255722380D02*
X487132380Y-254722380D01*
X487465714Y-255722380D01*
X487799047Y-255722380D02*
X487799047Y-254722380D01*
X488132380Y-255436666D01*
X488465714Y-254722380D01*
X488465714Y-255722380D01*
X489418095Y-254722380D02*
X488941904Y-254722380D01*
X488894285Y-255198571D01*
X488941904Y-255150952D01*
X489037142Y-255103333D01*
X489275238Y-255103333D01*
X489370476Y-255150952D01*
X489418095Y-255198571D01*
X489465714Y-255293809D01*
X489465714Y-255531904D01*
X489418095Y-255627142D01*
X489370476Y-255674761D01*
X489275238Y-255722380D01*
X489037142Y-255722380D01*
X488941904Y-255674761D01*
X488894285Y-255627142D01*
%TO.C,RAM4*%
X473813333Y-255722380D02*
X473480000Y-255246190D01*
X473241904Y-255722380D02*
X473241904Y-254722380D01*
X473622857Y-254722380D01*
X473718095Y-254770000D01*
X473765714Y-254817619D01*
X473813333Y-254912857D01*
X473813333Y-255055714D01*
X473765714Y-255150952D01*
X473718095Y-255198571D01*
X473622857Y-255246190D01*
X473241904Y-255246190D01*
X474194285Y-255436666D02*
X474670476Y-255436666D01*
X474099047Y-255722380D02*
X474432380Y-254722380D01*
X474765714Y-255722380D01*
X475099047Y-255722380D02*
X475099047Y-254722380D01*
X475432380Y-255436666D01*
X475765714Y-254722380D01*
X475765714Y-255722380D01*
X476670476Y-255055714D02*
X476670476Y-255722380D01*
X476432380Y-254674761D02*
X476194285Y-255389047D01*
X476813333Y-255389047D01*
%TO.C,RAM3*%
X461113333Y-255722380D02*
X460780000Y-255246190D01*
X460541904Y-255722380D02*
X460541904Y-254722380D01*
X460922857Y-254722380D01*
X461018095Y-254770000D01*
X461065714Y-254817619D01*
X461113333Y-254912857D01*
X461113333Y-255055714D01*
X461065714Y-255150952D01*
X461018095Y-255198571D01*
X460922857Y-255246190D01*
X460541904Y-255246190D01*
X461494285Y-255436666D02*
X461970476Y-255436666D01*
X461399047Y-255722380D02*
X461732380Y-254722380D01*
X462065714Y-255722380D01*
X462399047Y-255722380D02*
X462399047Y-254722380D01*
X462732380Y-255436666D01*
X463065714Y-254722380D01*
X463065714Y-255722380D01*
X463446666Y-254722380D02*
X464065714Y-254722380D01*
X463732380Y-255103333D01*
X463875238Y-255103333D01*
X463970476Y-255150952D01*
X464018095Y-255198571D01*
X464065714Y-255293809D01*
X464065714Y-255531904D01*
X464018095Y-255627142D01*
X463970476Y-255674761D01*
X463875238Y-255722380D01*
X463589523Y-255722380D01*
X463494285Y-255674761D01*
X463446666Y-255627142D01*
%TO.C,74573*%
X408606904Y-187412380D02*
X409273571Y-187412380D01*
X408845000Y-188412380D01*
X410083095Y-187745714D02*
X410083095Y-188412380D01*
X409845000Y-187364761D02*
X409606904Y-188079047D01*
X410225952Y-188079047D01*
X411083095Y-187412380D02*
X410606904Y-187412380D01*
X410559285Y-187888571D01*
X410606904Y-187840952D01*
X410702142Y-187793333D01*
X410940238Y-187793333D01*
X411035476Y-187840952D01*
X411083095Y-187888571D01*
X411130714Y-187983809D01*
X411130714Y-188221904D01*
X411083095Y-188317142D01*
X411035476Y-188364761D01*
X410940238Y-188412380D01*
X410702142Y-188412380D01*
X410606904Y-188364761D01*
X410559285Y-188317142D01*
X411464047Y-187412380D02*
X412130714Y-187412380D01*
X411702142Y-188412380D01*
X412416428Y-187412380D02*
X413035476Y-187412380D01*
X412702142Y-187793333D01*
X412845000Y-187793333D01*
X412940238Y-187840952D01*
X412987857Y-187888571D01*
X413035476Y-187983809D01*
X413035476Y-188221904D01*
X412987857Y-188317142D01*
X412940238Y-188364761D01*
X412845000Y-188412380D01*
X412559285Y-188412380D01*
X412464047Y-188364761D01*
X412416428Y-188317142D01*
%TO.C,Slot 1*%
D12*
X441722142Y-187094761D02*
X441865000Y-187142380D01*
X442103095Y-187142380D01*
X442198333Y-187094761D01*
X442245952Y-187047142D01*
X442293571Y-186951904D01*
X442293571Y-186856666D01*
X442245952Y-186761428D01*
X442198333Y-186713809D01*
X442103095Y-186666190D01*
X441912619Y-186618571D01*
X441817380Y-186570952D01*
X441769761Y-186523333D01*
X441722142Y-186428095D01*
X441722142Y-186332857D01*
X441769761Y-186237619D01*
X441817380Y-186190000D01*
X441912619Y-186142380D01*
X442150714Y-186142380D01*
X442293571Y-186190000D01*
X442865000Y-187142380D02*
X442769761Y-187094761D01*
X442722142Y-186999523D01*
X442722142Y-186142380D01*
X443388809Y-187142380D02*
X443293571Y-187094761D01*
X443245952Y-187047142D01*
X443198333Y-186951904D01*
X443198333Y-186666190D01*
X443245952Y-186570952D01*
X443293571Y-186523333D01*
X443388809Y-186475714D01*
X443531666Y-186475714D01*
X443626904Y-186523333D01*
X443674523Y-186570952D01*
X443722142Y-186666190D01*
X443722142Y-186951904D01*
X443674523Y-187047142D01*
X443626904Y-187094761D01*
X443531666Y-187142380D01*
X443388809Y-187142380D01*
X444007857Y-186475714D02*
X444388809Y-186475714D01*
X444150714Y-186142380D02*
X444150714Y-186999523D01*
X444198333Y-187094761D01*
X444293571Y-187142380D01*
X444388809Y-187142380D01*
X446007857Y-187142380D02*
X445436428Y-187142380D01*
X445722142Y-187142380D02*
X445722142Y-186142380D01*
X445626904Y-186285238D01*
X445531666Y-186380476D01*
X445436428Y-186428095D01*
%TO.C,Slot 2*%
X459502142Y-187094761D02*
X459645000Y-187142380D01*
X459883095Y-187142380D01*
X459978333Y-187094761D01*
X460025952Y-187047142D01*
X460073571Y-186951904D01*
X460073571Y-186856666D01*
X460025952Y-186761428D01*
X459978333Y-186713809D01*
X459883095Y-186666190D01*
X459692619Y-186618571D01*
X459597380Y-186570952D01*
X459549761Y-186523333D01*
X459502142Y-186428095D01*
X459502142Y-186332857D01*
X459549761Y-186237619D01*
X459597380Y-186190000D01*
X459692619Y-186142380D01*
X459930714Y-186142380D01*
X460073571Y-186190000D01*
X460645000Y-187142380D02*
X460549761Y-187094761D01*
X460502142Y-186999523D01*
X460502142Y-186142380D01*
X461168809Y-187142380D02*
X461073571Y-187094761D01*
X461025952Y-187047142D01*
X460978333Y-186951904D01*
X460978333Y-186666190D01*
X461025952Y-186570952D01*
X461073571Y-186523333D01*
X461168809Y-186475714D01*
X461311666Y-186475714D01*
X461406904Y-186523333D01*
X461454523Y-186570952D01*
X461502142Y-186666190D01*
X461502142Y-186951904D01*
X461454523Y-187047142D01*
X461406904Y-187094761D01*
X461311666Y-187142380D01*
X461168809Y-187142380D01*
X461787857Y-186475714D02*
X462168809Y-186475714D01*
X461930714Y-186142380D02*
X461930714Y-186999523D01*
X461978333Y-187094761D01*
X462073571Y-187142380D01*
X462168809Y-187142380D01*
X463216428Y-186237619D02*
X463264047Y-186190000D01*
X463359285Y-186142380D01*
X463597380Y-186142380D01*
X463692619Y-186190000D01*
X463740238Y-186237619D01*
X463787857Y-186332857D01*
X463787857Y-186428095D01*
X463740238Y-186570952D01*
X463168809Y-187142380D01*
X463787857Y-187142380D01*
%TO.C,Slot 3*%
X477282142Y-187094761D02*
X477425000Y-187142380D01*
X477663095Y-187142380D01*
X477758333Y-187094761D01*
X477805952Y-187047142D01*
X477853571Y-186951904D01*
X477853571Y-186856666D01*
X477805952Y-186761428D01*
X477758333Y-186713809D01*
X477663095Y-186666190D01*
X477472619Y-186618571D01*
X477377380Y-186570952D01*
X477329761Y-186523333D01*
X477282142Y-186428095D01*
X477282142Y-186332857D01*
X477329761Y-186237619D01*
X477377380Y-186190000D01*
X477472619Y-186142380D01*
X477710714Y-186142380D01*
X477853571Y-186190000D01*
X478425000Y-187142380D02*
X478329761Y-187094761D01*
X478282142Y-186999523D01*
X478282142Y-186142380D01*
X478948809Y-187142380D02*
X478853571Y-187094761D01*
X478805952Y-187047142D01*
X478758333Y-186951904D01*
X478758333Y-186666190D01*
X478805952Y-186570952D01*
X478853571Y-186523333D01*
X478948809Y-186475714D01*
X479091666Y-186475714D01*
X479186904Y-186523333D01*
X479234523Y-186570952D01*
X479282142Y-186666190D01*
X479282142Y-186951904D01*
X479234523Y-187047142D01*
X479186904Y-187094761D01*
X479091666Y-187142380D01*
X478948809Y-187142380D01*
X479567857Y-186475714D02*
X479948809Y-186475714D01*
X479710714Y-186142380D02*
X479710714Y-186999523D01*
X479758333Y-187094761D01*
X479853571Y-187142380D01*
X479948809Y-187142380D01*
X480948809Y-186142380D02*
X481567857Y-186142380D01*
X481234523Y-186523333D01*
X481377380Y-186523333D01*
X481472619Y-186570952D01*
X481520238Y-186618571D01*
X481567857Y-186713809D01*
X481567857Y-186951904D01*
X481520238Y-187047142D01*
X481472619Y-187094761D01*
X481377380Y-187142380D01*
X481091666Y-187142380D01*
X480996428Y-187094761D01*
X480948809Y-187047142D01*
%TO.C,Slot 4*%
X495062142Y-187094761D02*
X495205000Y-187142380D01*
X495443095Y-187142380D01*
X495538333Y-187094761D01*
X495585952Y-187047142D01*
X495633571Y-186951904D01*
X495633571Y-186856666D01*
X495585952Y-186761428D01*
X495538333Y-186713809D01*
X495443095Y-186666190D01*
X495252619Y-186618571D01*
X495157380Y-186570952D01*
X495109761Y-186523333D01*
X495062142Y-186428095D01*
X495062142Y-186332857D01*
X495109761Y-186237619D01*
X495157380Y-186190000D01*
X495252619Y-186142380D01*
X495490714Y-186142380D01*
X495633571Y-186190000D01*
X496205000Y-187142380D02*
X496109761Y-187094761D01*
X496062142Y-186999523D01*
X496062142Y-186142380D01*
X496728809Y-187142380D02*
X496633571Y-187094761D01*
X496585952Y-187047142D01*
X496538333Y-186951904D01*
X496538333Y-186666190D01*
X496585952Y-186570952D01*
X496633571Y-186523333D01*
X496728809Y-186475714D01*
X496871666Y-186475714D01*
X496966904Y-186523333D01*
X497014523Y-186570952D01*
X497062142Y-186666190D01*
X497062142Y-186951904D01*
X497014523Y-187047142D01*
X496966904Y-187094761D01*
X496871666Y-187142380D01*
X496728809Y-187142380D01*
X497347857Y-186475714D02*
X497728809Y-186475714D01*
X497490714Y-186142380D02*
X497490714Y-186999523D01*
X497538333Y-187094761D01*
X497633571Y-187142380D01*
X497728809Y-187142380D01*
X499252619Y-186475714D02*
X499252619Y-187142380D01*
X499014523Y-186094761D02*
X498776428Y-186809047D01*
X499395476Y-186809047D01*
%TO.C,Slot 5*%
X512842142Y-187094761D02*
X512985000Y-187142380D01*
X513223095Y-187142380D01*
X513318333Y-187094761D01*
X513365952Y-187047142D01*
X513413571Y-186951904D01*
X513413571Y-186856666D01*
X513365952Y-186761428D01*
X513318333Y-186713809D01*
X513223095Y-186666190D01*
X513032619Y-186618571D01*
X512937380Y-186570952D01*
X512889761Y-186523333D01*
X512842142Y-186428095D01*
X512842142Y-186332857D01*
X512889761Y-186237619D01*
X512937380Y-186190000D01*
X513032619Y-186142380D01*
X513270714Y-186142380D01*
X513413571Y-186190000D01*
X513985000Y-187142380D02*
X513889761Y-187094761D01*
X513842142Y-186999523D01*
X513842142Y-186142380D01*
X514508809Y-187142380D02*
X514413571Y-187094761D01*
X514365952Y-187047142D01*
X514318333Y-186951904D01*
X514318333Y-186666190D01*
X514365952Y-186570952D01*
X514413571Y-186523333D01*
X514508809Y-186475714D01*
X514651666Y-186475714D01*
X514746904Y-186523333D01*
X514794523Y-186570952D01*
X514842142Y-186666190D01*
X514842142Y-186951904D01*
X514794523Y-187047142D01*
X514746904Y-187094761D01*
X514651666Y-187142380D01*
X514508809Y-187142380D01*
X515127857Y-186475714D02*
X515508809Y-186475714D01*
X515270714Y-186142380D02*
X515270714Y-186999523D01*
X515318333Y-187094761D01*
X515413571Y-187142380D01*
X515508809Y-187142380D01*
X517080238Y-186142380D02*
X516604047Y-186142380D01*
X516556428Y-186618571D01*
X516604047Y-186570952D01*
X516699285Y-186523333D01*
X516937380Y-186523333D01*
X517032619Y-186570952D01*
X517080238Y-186618571D01*
X517127857Y-186713809D01*
X517127857Y-186951904D01*
X517080238Y-187047142D01*
X517032619Y-187094761D01*
X516937380Y-187142380D01*
X516699285Y-187142380D01*
X516604047Y-187094761D01*
X516556428Y-187047142D01*
%TO.C,74573*%
D11*
X408606904Y-215352380D02*
X409273571Y-215352380D01*
X408845000Y-216352380D01*
X410083095Y-215685714D02*
X410083095Y-216352380D01*
X409845000Y-215304761D02*
X409606904Y-216019047D01*
X410225952Y-216019047D01*
X411083095Y-215352380D02*
X410606904Y-215352380D01*
X410559285Y-215828571D01*
X410606904Y-215780952D01*
X410702142Y-215733333D01*
X410940238Y-215733333D01*
X411035476Y-215780952D01*
X411083095Y-215828571D01*
X411130714Y-215923809D01*
X411130714Y-216161904D01*
X411083095Y-216257142D01*
X411035476Y-216304761D01*
X410940238Y-216352380D01*
X410702142Y-216352380D01*
X410606904Y-216304761D01*
X410559285Y-216257142D01*
X411464047Y-215352380D02*
X412130714Y-215352380D01*
X411702142Y-216352380D01*
X412416428Y-215352380D02*
X413035476Y-215352380D01*
X412702142Y-215733333D01*
X412845000Y-215733333D01*
X412940238Y-215780952D01*
X412987857Y-215828571D01*
X413035476Y-215923809D01*
X413035476Y-216161904D01*
X412987857Y-216257142D01*
X412940238Y-216304761D01*
X412845000Y-216352380D01*
X412559285Y-216352380D01*
X412464047Y-216304761D01*
X412416428Y-216257142D01*
%TO.C,74245*%
X420671904Y-187412380D02*
X421338571Y-187412380D01*
X420910000Y-188412380D01*
X422148095Y-187745714D02*
X422148095Y-188412380D01*
X421910000Y-187364761D02*
X421671904Y-188079047D01*
X422290952Y-188079047D01*
X422624285Y-187507619D02*
X422671904Y-187460000D01*
X422767142Y-187412380D01*
X423005238Y-187412380D01*
X423100476Y-187460000D01*
X423148095Y-187507619D01*
X423195714Y-187602857D01*
X423195714Y-187698095D01*
X423148095Y-187840952D01*
X422576666Y-188412380D01*
X423195714Y-188412380D01*
X424052857Y-187745714D02*
X424052857Y-188412380D01*
X423814761Y-187364761D02*
X423576666Y-188079047D01*
X424195714Y-188079047D01*
X425052857Y-187412380D02*
X424576666Y-187412380D01*
X424529047Y-187888571D01*
X424576666Y-187840952D01*
X424671904Y-187793333D01*
X424910000Y-187793333D01*
X425005238Y-187840952D01*
X425052857Y-187888571D01*
X425100476Y-187983809D01*
X425100476Y-188221904D01*
X425052857Y-188317142D01*
X425005238Y-188364761D01*
X424910000Y-188412380D01*
X424671904Y-188412380D01*
X424576666Y-188364761D01*
X424529047Y-188317142D01*
%TO.C,ATmega644*%
X390922380Y-190666666D02*
X391398571Y-190666666D01*
X390827142Y-190952380D02*
X391160476Y-189952380D01*
X391493809Y-190952380D01*
X391684285Y-189952380D02*
X392255714Y-189952380D01*
X391970000Y-190952380D02*
X391970000Y-189952380D01*
X392589047Y-190952380D02*
X392589047Y-190285714D01*
X392589047Y-190380952D02*
X392636666Y-190333333D01*
X392731904Y-190285714D01*
X392874761Y-190285714D01*
X392970000Y-190333333D01*
X393017619Y-190428571D01*
X393017619Y-190952380D01*
X393017619Y-190428571D02*
X393065238Y-190333333D01*
X393160476Y-190285714D01*
X393303333Y-190285714D01*
X393398571Y-190333333D01*
X393446190Y-190428571D01*
X393446190Y-190952380D01*
X394303333Y-190904761D02*
X394208095Y-190952380D01*
X394017619Y-190952380D01*
X393922380Y-190904761D01*
X393874761Y-190809523D01*
X393874761Y-190428571D01*
X393922380Y-190333333D01*
X394017619Y-190285714D01*
X394208095Y-190285714D01*
X394303333Y-190333333D01*
X394350952Y-190428571D01*
X394350952Y-190523809D01*
X393874761Y-190619047D01*
X395208095Y-190285714D02*
X395208095Y-191095238D01*
X395160476Y-191190476D01*
X395112857Y-191238095D01*
X395017619Y-191285714D01*
X394874761Y-191285714D01*
X394779523Y-191238095D01*
X395208095Y-190904761D02*
X395112857Y-190952380D01*
X394922380Y-190952380D01*
X394827142Y-190904761D01*
X394779523Y-190857142D01*
X394731904Y-190761904D01*
X394731904Y-190476190D01*
X394779523Y-190380952D01*
X394827142Y-190333333D01*
X394922380Y-190285714D01*
X395112857Y-190285714D01*
X395208095Y-190333333D01*
X396112857Y-190952380D02*
X396112857Y-190428571D01*
X396065238Y-190333333D01*
X395970000Y-190285714D01*
X395779523Y-190285714D01*
X395684285Y-190333333D01*
X396112857Y-190904761D02*
X396017619Y-190952380D01*
X395779523Y-190952380D01*
X395684285Y-190904761D01*
X395636666Y-190809523D01*
X395636666Y-190714285D01*
X395684285Y-190619047D01*
X395779523Y-190571428D01*
X396017619Y-190571428D01*
X396112857Y-190523809D01*
X397017619Y-189952380D02*
X396827142Y-189952380D01*
X396731904Y-190000000D01*
X396684285Y-190047619D01*
X396589047Y-190190476D01*
X396541428Y-190380952D01*
X396541428Y-190761904D01*
X396589047Y-190857142D01*
X396636666Y-190904761D01*
X396731904Y-190952380D01*
X396922380Y-190952380D01*
X397017619Y-190904761D01*
X397065238Y-190857142D01*
X397112857Y-190761904D01*
X397112857Y-190523809D01*
X397065238Y-190428571D01*
X397017619Y-190380952D01*
X396922380Y-190333333D01*
X396731904Y-190333333D01*
X396636666Y-190380952D01*
X396589047Y-190428571D01*
X396541428Y-190523809D01*
X397970000Y-190285714D02*
X397970000Y-190952380D01*
X397731904Y-189904761D02*
X397493809Y-190619047D01*
X398112857Y-190619047D01*
X398922380Y-190285714D02*
X398922380Y-190952380D01*
X398684285Y-189904761D02*
X398446190Y-190619047D01*
X399065238Y-190619047D01*
%TD*%
M02*
